<?xml version="1.0" encoding="UTF-8" standalone="no"?>
<!-- Created with Inkscape (http://www.inkscape.org/) -->

<svg
   xmlns:osb="http://www.openswatchbook.org/uri/2009/osb"
   xmlns:dc="http://purl.org/dc/elements/1.1/"
   xmlns:cc="http://creativecommons.org/ns#"
   xmlns:rdf="http://www.w3.org/1999/02/22-rdf-syntax-ns#"
   xmlns:svg="http://www.w3.org/2000/svg"
   xmlns="http://www.w3.org/2000/svg"
   xmlns:xlink="http://www.w3.org/1999/xlink"
   xmlns:sodipodi="http://sodipodi.sourceforge.net/DTD/sodipodi-0.dtd"
   xmlns:inkscape="http://www.inkscape.org/namespaces/inkscape"
   width="48px"
   height="48px"
   id="svg2985"
   version="1.1"
   inkscape:version="0.91 r13725"
   sodipodi:docname="2048-qt.svg">
  <defs
     id="defs2987">
    <linearGradient
       id="linearGradient4207"
       osb:paint="gradient">
      <stop
         style="stop-color:#3498db;stop-opacity:1;"
         offset="0"
         id="stop3371" />
      <stop
         style="stop-color:#3498db;stop-opacity:0;"
         offset="1"
         id="stop3373" />
    </linearGradient>
    <linearGradient
       id="linearGradient7021"
       inkscape:collect="always">
      <stop
         id="stop7023"
         offset="0"
         style="stop-color:#dfe9f0;stop-opacity:1" />
      <stop
         id="stop7025"
         offset="1"
         style="stop-color:#ecf0f3;stop-opacity:1" />
    </linearGradient>
    <linearGradient
       inkscape:collect="always"
       xlink:href="#linearGradient4422"
       id="linearGradient4525-7"
       x1="50.886463"
       y1="209.97653"
       x2="49.907169"
       y2="153.6013"
       gradientUnits="userSpaceOnUse" />
    <linearGradient
       id="linearGradient4422">
      <stop
         style="stop-color:#197ff1;stop-opacity:1"
         offset="0"
         id="stop4424" />
      <stop
         style="stop-color:#21c6fb;stop-opacity:1"
         offset="1"
         id="stop4426" />
    </linearGradient>
    <linearGradient
       gradientTransform="matrix(1.0014508,0.00148296,0.00148296,-0.95188272,-0.49677508,407.36251)"
       inkscape:collect="always"
       xlink:href="#linearGradient4422"
       id="linearGradient4991-9-6"
       gradientUnits="userSpaceOnUse"
       x1="-9.9633732"
       y1="153.57933"
       x2="-9.6846209"
       y2="206.81184" />
    <linearGradient
       inkscape:collect="always"
       xlink:href="#linearGradient7021"
       id="linearGradient4201"
       gradientUnits="userSpaceOnUse"
       gradientTransform="matrix(1.0014519,3.7631821e-5,3.7631794e-5,0.95188387,0.29246943,11.945264)"
       x1="0.9673245"
       y1="204.54808"
       x2="1.0645666"
       y2="152.84576" />
    <linearGradient
       inkscape:collect="always"
       xlink:href="#linearGradient7021"
       id="linearGradient4203"
       gradientUnits="userSpaceOnUse"
       gradientTransform="matrix(-1.0014519,-3.7635154e-5,-3.762979e-5,-0.95188386,47.185993,407.39763)"
       x1="-11.005164"
       y1="149.74281"
       x2="-10.20718"
       y2="207.08543" />
  </defs>
  <sodipodi:namedview
     id="base"
     pagecolor="#5a5a5a"
     bordercolor="#666666"
     borderopacity="1.0"
     inkscape:pageopacity="0"
     inkscape:pageshadow="2"
     inkscape:zoom="6.0647144"
     inkscape:cx="-1.6815437"
     inkscape:cy="30.892587"
     inkscape:current-layer="layer1"
     showgrid="false"
     inkscape:grid-bbox="true"
     inkscape:document-units="px"
     inkscape:snap-global="true"
     inkscape:window-width="1366"
     inkscape:window-height="633"
     inkscape:window-x="0"
     inkscape:window-y="33"
     inkscape:window-maximized="0"
     inkscape:snap-bbox="true"
     inkscape:bbox-nodes="true"
     inkscape:object-nodes="true"
     inkscape:snap-nodes="true"
     inkscape:snap-others="false"
     inkscape:snap-bbox-edge-midpoints="true"
     showborder="false">
    <inkscape:grid
       type="xygrid"
       id="grid2993" />
  </sodipodi:namedview>
  <metadata
     id="metadata2990">
    <rdf:RDF>
      <cc:Work
         rdf:about="">
        <dc:format>image/svg+xml</dc:format>
        <dc:type
           rdf:resource="http://purl.org/dc/dcmitype/StillImage" />
        <dc:title />
      </cc:Work>
    </rdf:RDF>
  </metadata>
  <g
     id="layer1"
     inkscape:label="Layer 1"
     inkscape:groupmode="layer">
    <g
       transform="matrix(0.70036578,0,0,0.70036579,-261.96994,-351.33951)"
       style="font-style:normal;font-weight:normal;font-size:25px;line-height:125%;font-family:sans-serif;letter-spacing:0px;word-spacing:0px;fill:#000000;fill-opacity:1;stroke:none;stroke-width:1px;stroke-linecap:butt;stroke-linejoin:miter;stroke-opacity:1"
       id="g4394">
      <path
         transform="matrix(0.62124901,-4.7302001e-4,4.7164992e-4,0.62305283,393.31635,405.29377)"
         style="opacity:1;fill:url(#linearGradient4201);fill-opacity:1;fill-rule:evenodd;stroke:none;stroke-width:2.76384115px;stroke-linecap:butt;stroke-linejoin:miter;stroke-opacity:1"
         d="m -23.525211,154.66937 47.828584,0.0363 -0.0419,55.16792 -55.437374,-0.0422 0.0365,-48.05392 c 0.006,-7.63847 7.21097,-7.10853 7.61419,-7.10821 z"
         id="path4271-0-8"
         inkscape:connector-curvature="0"
         sodipodi:nodetypes="ccccccc" />
      <path
         transform="matrix(0.62124901,-4.7302001e-4,4.7164992e-4,0.62305283,393.31635,405.29377)"
         style="opacity:1;fill:url(#linearGradient4525-7);fill-opacity:1;fill-rule:evenodd;stroke:none;stroke-width:2.76384115px;stroke-linecap:butt;stroke-linejoin:miter;stroke-opacity:1"
         d="m 71.576178,154.74265 -47.828583,-0.0363 -0.04187,55.16792 55.437373,0.042 0.03646,-48.05392 c 0.0056,-7.63847 -7.200168,-7.11947 -7.603388,-7.11977 z"
         id="path4271-0-1-5"
         inkscape:connector-curvature="0"
         sodipodi:nodetypes="ccccccc" />
      <path
         transform="matrix(0.62124901,-4.7302001e-4,4.7164992e-4,0.62305283,393.62017,405.29377)"
         style="opacity:1;fill:url(#linearGradient4991-9-6);fill-opacity:1;fill-rule:evenodd;stroke:none;stroke-width:2.76384115px;stroke-linecap:butt;stroke-linejoin:miter;stroke-opacity:1"
         d="m -24.097717,264.60241 47.828583,0.0363 0.04187,-55.16792 -55.437373,-0.042 -0.03646,48.05392 c -0.0056,7.63847 7.200169,7.11947 7.603389,7.11976 z"
         id="path4271-0-12-4"
         inkscape:connector-curvature="0"
         sodipodi:nodetypes="ccccccc" />
      <path
         transform="matrix(0.62124901,-4.7302001e-4,4.7164992e-4,0.62305283,393.62017,405.29377)"
         style="opacity:1;fill:url(#linearGradient4203);fill-opacity:1;fill-rule:evenodd;stroke:none;stroke-width:2.76384115px;stroke-linecap:butt;stroke-linejoin:miter;stroke-opacity:1"
         d="m 71.003674,264.67353 -47.828584,-0.0363 0.0419,-55.16792 55.437372,0.0422 -0.03651,48.05392 c -0.006,7.63847 -7.210969,7.10853 -7.614191,7.10822 z"
         id="path4271-0-1-6-5"
         inkscape:connector-curvature="0"
         sodipodi:nodetypes="ccccccc" />
      <path
         d="m 396.63407,527.83238 -10.9,0 0,-2.3 q 4.9,-4.925 6.275,-6.425 1.225,-1.375 1.65,-2.075 0.425,-0.725 0.425,-1.775 0,-1.075 -0.85,-1.9 -0.85,-0.825 -2.275,-0.825 -1.3,0 -2.1,0.775 -0.8,0.75 -1.025,1.625 l -2.1,-0.85 q 0.425,-1.35 1.775,-2.55 1.35,-1.2 3.5,-1.2 2.375,0 3.9,1.45 1.525,1.45 1.525,3.475 0,2.5 -2.725,5.35 l -5,5.025 7.925,0 0,2.2 z"
         style="font-style:normal;font-variant:normal;font-weight:normal;font-stretch:normal;font-family:'Product Sans';-inkscape-font-specification:'Product Sans';fill:#1a8cf3;fill-opacity:0.82258061"
         id="path4942-9"
         inkscape:connector-curvature="0" />
      <path
         d="m 429.65017,525.76535 q -1.9,2.575 -4.975,2.575 -3.075,0 -4.975,-2.575 -1.9,-2.575 -1.9,-6.375 0,-3.825 1.9,-6.375 1.9,-2.575 4.975,-2.575 3.075,0 4.975,2.575 1.9,2.55 1.9,6.375 0,3.8 -1.9,6.375 z m -4.975,0.375 q 2.05,0 3.275,-1.925 1.25,-1.925 1.25,-4.825 0,-2.925 -1.25,-4.825 -1.225,-1.925 -3.275,-1.925 -2.075,0 -3.3,1.925 -1.225,1.9 -1.225,4.825 0,2.9 1.225,4.825 1.225,1.925 3.3,1.925 z"
         style="font-style:normal;font-variant:normal;font-weight:normal;font-stretch:normal;font-family:'Product Sans';-inkscape-font-specification:'Product Sans';fill:#ffffff;fill-opacity:0.7258065"
         id="path4944-9"
         inkscape:connector-curvature="0" />
      <path
         d="m 394.68127,561.79859 -2.3,0 0,-3.6 -8.125,0 0,-1.75 7.925,-11.75 2.5,0 0,11.35 2.2,0 0,2.15 -2.2,0 0,3.6 z m -2.3,-5.75 0,-7.975 -0.1,0 -5.425,7.975 5.525,0 z"
         style="font-style:normal;font-variant:normal;font-weight:normal;font-stretch:normal;font-family:'Product Sans';-inkscape-font-specification:'Product Sans';fill:#ffffff;fill-opacity:0.7258065"
         id="path4946-0"
         inkscape:connector-curvature="0" />
      <path
         d="m 428.95167,560.66341 q -1.675,1.475 -4.125,1.475 -2.45,0 -4.125,-1.475 -1.675,-1.475 -1.675,-3.65 0,-1.425 0.775,-2.5 0.775,-1.1 2.025,-1.725 l 0,-0.1 q -0.975,-0.625 -1.6,-1.575 -0.625,-0.975 -0.625,-2.025 0,-2.075 1.475,-3.45 1.475,-1.4 3.75,-1.4 2.275,0 3.75,1.4 1.475,1.375 1.475,3.45 0,1.05 -0.625,2.025 -0.625,0.95 -1.6,1.575 l 0,0.1 q 1.25,0.625 2.025,1.725 0.775,1.075 0.775,2.5 0,2.175 -1.675,3.65 z m -6.2,-9.675 q 0.825,0.725 2.075,0.725 1.25,0 2.05,-0.725 0.825,-0.75 0.825,-1.95 0,-1.2 -0.825,-1.9 -0.8,-0.7 -2.05,-0.7 -1.25,0 -2.075,0.7 -0.8,0.7 -0.8,1.9 0,1.2 0.8,1.95 z m -0.375,8.1 q 1,0.85 2.45,0.85 1.45,0 2.45,-0.85 1,-0.85 1,-2.2 0,-1.325 -1,-2.175 -1,-0.85 -2.45,-0.85 -1.45,0 -2.45,0.85 -1,0.85 -1,2.175 0,1.35 1,2.2 z"
         style="font-style:normal;font-variant:normal;font-weight:normal;font-stretch:normal;font-family:'Product Sans';-inkscape-font-specification:'Product Sans';fill:#1a8cf3;fill-opacity:0.82258061"
         id="path4948-8"
         inkscape:connector-curvature="0" />
    </g>
  </g>
</svg>
