<?xml version="1.0" encoding="UTF-8" standalone="no"?>
<!-- Created with Inkscape (http://www.inkscape.org/) -->

<svg
   xmlns:dc="http://purl.org/dc/elements/1.1/"
   xmlns:cc="http://creativecommons.org/ns#"
   xmlns:rdf="http://www.w3.org/1999/02/22-rdf-syntax-ns#"
   xmlns:svg="http://www.w3.org/2000/svg"
   xmlns="http://www.w3.org/2000/svg"
   xmlns:xlink="http://www.w3.org/1999/xlink"
   xmlns:sodipodi="http://sodipodi.sourceforge.net/DTD/sodipodi-0.dtd"
   xmlns:inkscape="http://www.inkscape.org/namespaces/inkscape"
   width="48"
   height="48"
   id="svg5453"
   version="1.1"
   inkscape:version="0.91 r13725"
   sodipodi:docname="accessories-character-map.svg">
  <defs
     id="defs5455">
    <linearGradient
       gradientTransform="matrix(0.4335522,0,0,0.43481104,98.782983,-102.61879)"
       gradientUnits="userSpaceOnUse"
       y2="154.5808"
       x2="-111.09196"
       y1="260.25372"
       x1="-112.5251"
       id="linearGradient4212"
       xlink:href="#linearGradient4159"
       inkscape:collect="always" />
    <linearGradient
       id="linearGradient4159"
       inkscape:collect="always">
      <stop
         id="stop4161"
         offset="0"
         style="stop-color:#2a2c2f;stop-opacity:1" />
      <stop
         id="stop4163"
         offset="1"
         style="stop-color:#424649;stop-opacity:1" />
    </linearGradient>
  </defs>
  <sodipodi:namedview
     id="base"
     pagecolor="#ffffff"
     bordercolor="#666666"
     borderopacity="1.0"
     inkscape:pageopacity="0"
     inkscape:pageshadow="2"
     inkscape:zoom="4"
     inkscape:cx="-39.601104"
     inkscape:cy="15.968792"
     inkscape:document-units="px"
     inkscape:current-layer="g4370"
     showgrid="true"
     fit-margin-top="0"
     fit-margin-left="0"
     fit-margin-right="0"
     fit-margin-bottom="0"
     inkscape:window-width="1366"
     inkscape:window-height="634"
     inkscape:window-x="0"
     inkscape:window-y="36"
     inkscape:window-maximized="1"
     inkscape:showpageshadow="false"
     borderlayer="true"
     showguides="false">
    <inkscape:grid
       type="xygrid"
       id="grid4063" />
    <sodipodi:guide
       position="1.1650391e-05,32.000026"
       orientation="32,0"
       id="guide4157" />
    <sodipodi:guide
       position="1.1650391e-05,2.6367188e-05"
       orientation="0,32"
       id="guide4159" />
    <sodipodi:guide
       position="32.000012,2.6367188e-05"
       orientation="-32,0"
       id="guide4161" />
    <sodipodi:guide
       position="32.000012,32.000026"
       orientation="0,-32"
       id="guide4163" />
    <sodipodi:guide
       position="2.0000117,30.000026"
       orientation="28,0"
       id="guide4167" />
    <sodipodi:guide
       position="2.0000117,2.0000264"
       orientation="0,28"
       id="guide4169" />
    <sodipodi:guide
       position="30.000012,2.0000264"
       orientation="-28,0"
       id="guide4171" />
    <sodipodi:guide
       position="30.000012,30.000026"
       orientation="0,-28"
       id="guide4173" />
    <sodipodi:guide
       position="2.0000117,30.000026"
       orientation="28,0"
       id="guide4181" />
    <sodipodi:guide
       position="2.0000117,2.0000264"
       orientation="0,14"
       id="guide4183" />
    <sodipodi:guide
       position="16.000012,2.0000264"
       orientation="-28,0"
       id="guide4185" />
    <sodipodi:guide
       position="16.000012,30.000026"
       orientation="0,-14"
       id="guide4187" />
    <sodipodi:guide
       position="9.0000117,23.000026"
       orientation="14,0"
       id="guide4193" />
    <sodipodi:guide
       position="9.0000117,9.0000264"
       orientation="0,14.000031"
       id="guide4195" />
    <sodipodi:guide
       position="23.000042,9.0000264"
       orientation="-14,0"
       id="guide4197" />
    <sodipodi:guide
       position="23.000042,23.000026"
       orientation="0,-14.000031"
       id="guide4199" />
  </sodipodi:namedview>
  <metadata
     id="metadata5458">
    <rdf:RDF>
      <cc:Work
         rdf:about="">
        <dc:format>image/svg+xml</dc:format>
        <dc:type
           rdf:resource="http://purl.org/dc/dcmitype/StillImage" />
        <dc:title></dc:title>
      </cc:Work>
    </rdf:RDF>
  </metadata>
  <g
     inkscape:label="Capa 1"
     inkscape:groupmode="layer"
     id="layer1"
     transform="translate(-384.57143,-499.798)">
    <g
       style="display:inline;enable-background:new"
       id="g4238"
       transform="translate(225.81911,462.44565)">
      <g
         style="display:inline"
         id="layer1-8"
         transform="matrix(0.22655187,0,0,0.22655187,106.94841,54.31088)">
        <g
           style="display:none"
           id="layer6" />
        <g
           id="g4027" />
        <g
           id="g4061" />
        <g
           id="g3751" />
        <g
           id="g3782" />
        <g
           id="g3725" />
        <g
           id="g4370"
           transform="matrix(4.4140002,0,0,4.4140002,59.275211,39.357303)">
          <g
             id="g4182"
             transform="translate(9.9999963,10.000005)">
            <rect
               style="opacity:1;fill:url(#linearGradient4212);fill-opacity:1;stroke:none;stroke-width:0.60000002;stroke-linecap:round;stroke-linejoin:round;stroke-miterlimit:4;stroke-dasharray:none;stroke-dashoffset:0;stroke-opacity:1"
               id="rect4204"
               width="48"
               height="47.851208"
               x="28.375004"
               y="-35.80061"
               ry="3.7523136" />
            <path
               style="fill:#ffffff;fill-opacity:0.84677423;stroke-width:1.31742239;stroke-miterlimit:4;stroke-dasharray:none"
               inkscape:connector-curvature="0"
               id="path5"
               d="m 59.275,-9.2750002 0,0 -2.4,0 0,-4.7999998 2.4,0 c 2.6508,0 4.8,-2.1492 4.8,-4.8 0,-2.650802 -2.1492,-4.800002 -4.8,-4.800002 -2.6511,0 -4.8,2.1492 -4.8,4.800002 l 0,2.4 -4.8,0 0,-2.4 c 0,-2.650802 -2.1492,-4.800002 -4.8,-4.800002 -2.6508,0 -4.8,2.1492 -4.8,4.800002 0,2.6508 2.1492,4.8 4.8,4.8 l 2.4,0 0,4.7999998 -2.4,0 0,0 0,0 c -2.6508,0 -4.8,2.1492 -4.8,4.8 0,2.6508 2.1492,4.79999959 4.8,4.79999959 2.6511,0 4.8,-2.14919959 4.8,-4.79999959 l 0,0 0,-2.4 4.8,0 0,2.394 c 0,0.0024 -3e-4,0.0042 -3e-4,0.006 0,2.6508 2.1492,4.79999959 4.8,4.79999959 2.6508,0 4.8,-2.14919959 4.8,-4.79999959 0,-2.6508 -2.1489,-4.7994 -4.7997,-4.8 z m 0,-12.0000018 c 1.3254,0 2.4,1.074601 2.4,2.400002 0,1.3254 -1.0746,2.4 -2.4,2.4 l -2.4,0 0,-2.4 c 0,-1.325401 1.0746,-2.400002 2.4,-2.400002 z m -16.8,2.400002 c 0,-1.325401 1.0746,-2.400002 2.4,-2.400002 1.3254,0 2.4,1.074601 2.4,2.400002 l 0,2.4 -2.4,0 c -1.3254,0 -2.4,-1.0749 -2.4,-2.4 z m 2.4,16.7999998 c -1.3254,0 -2.4,-1.0746 -2.4,-2.4 0,-1.3254 1.0746,-2.4 2.4,-2.4 l 0,0 2.4,0 0,2.4 c 0,1.3254 -1.0746,2.4 -2.4,2.4 z m 4.8,-7.2 0,-4.7999998 4.8,0 0,4.7999998 -4.8,0 z m 9.6,7.2 c -1.3254,0 -2.4,-1.0746 -2.4,-2.4 l 0,0 0,-2.4 2.3997,0 c 1.3254,0 2.4,1.0746 2.4,2.4 0,1.3254 -1.0743,2.4 -2.3997,2.4 z" />
          </g>
        </g>
      </g>
    </g>
  </g>
</svg>
