<?xml version="1.0" encoding="UTF-8" standalone="no"?>
<!-- Created with Inkscape (http://www.inkscape.org/) -->

<svg
   xmlns:dc="http://purl.org/dc/elements/1.1/"
   xmlns:cc="http://creativecommons.org/ns#"
   xmlns:rdf="http://www.w3.org/1999/02/22-rdf-syntax-ns#"
   xmlns:svg="http://www.w3.org/2000/svg"
   xmlns="http://www.w3.org/2000/svg"
   xmlns:xlink="http://www.w3.org/1999/xlink"
   xmlns:sodipodi="http://sodipodi.sourceforge.net/DTD/sodipodi-0.dtd"
   xmlns:inkscape="http://www.inkscape.org/namespaces/inkscape"
   width="48"
   height="48"
   id="svg5453"
   version="1.1"
   inkscape:version="0.91 r13725"
   sodipodi:docname="alexandra.svg">
  <defs
     id="defs5455">
    <linearGradient
       gradientTransform="matrix(1.7142872,0,0,1.7142872,-634.31944,-908.52941)"
       inkscape:collect="always"
       xlink:href="#linearGradient4215"
       id="linearGradient4181"
       gradientUnits="userSpaceOnUse"
       x1="399.9939"
       y1="545.13873"
       x2="399.9939"
       y2="518.13873" />
    <linearGradient
       inkscape:collect="always"
       id="linearGradient4215">
      <stop
         style="stop-color:#00a661;stop-opacity:1"
         offset="0"
         id="stop4217" />
      <stop
         style="stop-color:#37ce97;stop-opacity:1"
         offset="1"
         id="stop4219" />
    </linearGradient>
  </defs>
  <sodipodi:namedview
     id="base"
     pagecolor="#ffffff"
     bordercolor="#666666"
     borderopacity="1.0"
     inkscape:pageopacity="0"
     inkscape:pageshadow="2"
     inkscape:zoom="4"
     inkscape:cx="-39.601104"
     inkscape:cy="15.968792"
     inkscape:document-units="px"
     inkscape:current-layer="g4370"
     showgrid="true"
     fit-margin-top="0"
     fit-margin-left="0"
     fit-margin-right="0"
     fit-margin-bottom="0"
     inkscape:window-width="1366"
     inkscape:window-height="634"
     inkscape:window-x="0"
     inkscape:window-y="36"
     inkscape:window-maximized="1"
     inkscape:showpageshadow="false"
     borderlayer="true"
     showguides="false">
    <inkscape:grid
       type="xygrid"
       id="grid4063" />
    <sodipodi:guide
       position="1.1650391e-05,32.000026"
       orientation="32,0"
       id="guide4157" />
    <sodipodi:guide
       position="1.1650391e-05,2.6367188e-05"
       orientation="0,32"
       id="guide4159" />
    <sodipodi:guide
       position="32.000012,2.6367188e-05"
       orientation="-32,0"
       id="guide4161" />
    <sodipodi:guide
       position="32.000012,32.000026"
       orientation="0,-32"
       id="guide4163" />
    <sodipodi:guide
       position="2.0000117,30.000026"
       orientation="28,0"
       id="guide4167" />
    <sodipodi:guide
       position="2.0000117,2.0000264"
       orientation="0,28"
       id="guide4169" />
    <sodipodi:guide
       position="30.000012,2.0000264"
       orientation="-28,0"
       id="guide4171" />
    <sodipodi:guide
       position="30.000012,30.000026"
       orientation="0,-28"
       id="guide4173" />
    <sodipodi:guide
       position="2.0000117,30.000026"
       orientation="28,0"
       id="guide4181" />
    <sodipodi:guide
       position="2.0000117,2.0000264"
       orientation="0,14"
       id="guide4183" />
    <sodipodi:guide
       position="16.000012,2.0000264"
       orientation="-28,0"
       id="guide4185" />
    <sodipodi:guide
       position="16.000012,30.000026"
       orientation="0,-14"
       id="guide4187" />
    <sodipodi:guide
       position="9.0000117,23.000026"
       orientation="14,0"
       id="guide4193" />
    <sodipodi:guide
       position="9.0000117,9.0000264"
       orientation="0,14.000031"
       id="guide4195" />
    <sodipodi:guide
       position="23.000042,9.0000264"
       orientation="-14,0"
       id="guide4197" />
    <sodipodi:guide
       position="23.000042,23.000026"
       orientation="0,-14.000031"
       id="guide4199" />
  </sodipodi:namedview>
  <metadata
     id="metadata5458">
    <rdf:RDF>
      <cc:Work
         rdf:about="">
        <dc:format>image/svg+xml</dc:format>
        <dc:type
           rdf:resource="http://purl.org/dc/dcmitype/StillImage" />
        <dc:title></dc:title>
      </cc:Work>
    </rdf:RDF>
  </metadata>
  <g
     inkscape:label="Capa 1"
     inkscape:groupmode="layer"
     id="layer1"
     transform="translate(-384.57143,-499.798)">
    <g
       style="display:inline;enable-background:new"
       id="g4238"
       transform="translate(225.81911,462.44565)">
      <g
         style="display:inline"
         id="layer1-8"
         transform="matrix(0.22655187,0,0,0.22655187,106.94841,54.31088)">
        <g
           style="display:none"
           id="layer6" />
        <g
           id="g4027" />
        <g
           id="g4061" />
        <g
           id="g3751" />
        <g
           id="g3782" />
        <g
           id="g3725" />
        <g
           id="g4370"
           transform="matrix(4.4140002,0,0,4.4140002,59.275211,39.357303)">
          <g
             id="g4182"
             transform="translate(10.000054,-4.9999474)">
            <circle
               r="23.999949"
               cy="3.1249468"
               cx="52.374947"
               id="path3377"
               style="opacity:1;fill:url(#linearGradient4181);fill-opacity:1;stroke:none;stroke-width:0.94059104;stroke-miterlimit:4;stroke-dasharray:none;stroke-dashoffset:0;stroke-opacity:1" />
            <path
               id="path14795"
               d="m 63.3588,-8.275005 -1.187591,0 c -0.282025,0 -0.510638,0.228613 -0.510638,0.510639 l 0,0.635489 c 0,0.282 -0.228613,0.510639 -0.510638,0.510639 l -1.107319,0 c -0.282026,0 -0.510639,-0.228639 -0.510639,-0.510639 l 0,-0.635489 c 0,-0.282026 -0.228587,-0.510639 -0.510638,-0.510639 l -13.33261,0 c -0.282025,0 -0.510638,0.228613 -0.510638,0.510639 l 0,0.635489 c 0,0.282 -0.228613,0.510639 -0.510638,0.510639 l -1.107319,0 c -0.282026,0 -0.510639,-0.228639 -0.510639,-0.510639 l 0,-0.635489 c 0,-0.282026 -0.228612,-0.510639 -0.510638,-0.510639 l -1.147659,0 c -0.282026,0 -0.510638,0.228613 -0.510638,0.510639 l 0,22.978728 c 0,0.282025 0.228612,0.510638 0.510638,0.510638 l 1.147659,0 c 0.282026,0 0.510638,-0.228613 0.510638,-0.510638 l 0,-0.466851 c 0,-0.282026 0.228613,-0.510639 0.510639,-0.510639 l 1.107319,0 c 0.282025,0 0.510638,0.228613 0.510638,0.510639 l 0,0.466851 c 0,0.282025 0.228613,0.510638 0.510638,0.510638 l 13.33261,0 c 0.282051,0 0.510638,-0.228613 0.510638,-0.510638 l 0,-0.466851 c 0,-0.282026 0.228613,-0.510639 0.510639,-0.510639 l 1.107319,0 c 0.282025,0 0.510638,0.228613 0.510638,0.510639 l 0,0.466851 c 0,0.282025 0.228613,0.510638 0.510638,0.510638 l 1.187591,0 c 0.282026,0 0.510638,-0.228613 0.510638,-0.510638 l 0,-22.978728 c 0,-0.282 -0.228612,-0.510639 -0.510638,-0.510639 z m -18.180711,19.54134 c 0,0.282026 -0.228613,0.510639 -0.510638,0.510639 l -1.107319,0 c -0.282026,0 -0.510639,-0.228613 -0.510639,-0.510639 l 0,-1.107319 c 0,-0.2819996 0.228613,-0.5106376 0.510639,-0.5106376 l 1.107319,0 c 0.282025,0 0.510638,0.228638 0.510638,0.5106376 l 0,1.107319 z m 0,-4.5884936 c 0,0.282 -0.228613,0.510638 -0.510638,0.510638 l -1.107319,0 c -0.282026,0 -0.510639,-0.228638 -0.510639,-0.510638 l 0,-1.107345 c 0,-0.282 0.228613,-0.510638 0.510639,-0.510638 l 1.107319,0 c 0.282025,0 0.510638,0.228638 0.510638,0.510638 l 0,1.107345 z m 0,-4.58852 c 0,0.282051 -0.228613,0.510638 -0.510638,0.510638 l -1.107319,0 c -0.282026,0 -0.510639,-0.228587 -0.510639,-0.510638 l 0,-1.10732001 c 0,-0.282025 0.228613,-0.510638 0.510639,-0.510638 l 1.107319,0 c 0.282025,0 0.510638,0.228613 0.510638,0.510638 l 0,1.10732001 z m 0,-4.588495 c 0,0.282026 -0.228613,0.510639 -0.510638,0.510639 l -1.107319,0 c -0.282026,0 -0.510639,-0.228613 -0.510639,-0.510639 l 0,-1.107319 c 0,-0.282 0.228613,-0.510639 0.510639,-0.510639 l 1.107319,0 c 0.282025,0 0.510638,0.228639 0.510638,0.510639 l 0,1.107319 z M 57.324001,13.025434 c 0,0.282051 -0.228612,0.510638 -0.510638,0.510638 l -8.87673,0 c -0.282025,0 -0.510638,-0.228587 -0.510638,-0.510638 l 0,-4.1035416 c 0,-0.282025 0.228613,-0.510638 0.510638,-0.510638 l 8.87673,0 c 0.282026,0 0.510638,0.228613 0.510638,0.510638 l 0,4.1035416 0,0 z m 0,-7.2486656 c 0,0.282026 -0.228612,0.510639 -0.510638,0.510639 l -8.87673,0 c -0.282025,0 -0.510638,-0.228613 -0.510638,-0.510639 l 0,-4.103541 c 0,-0.282 0.228613,-0.510638 0.510638,-0.510638 l 8.87673,0 c 0.282026,0 0.510638,0.228638 0.510638,0.510638 l 0,4.103541 0,0 z m 0,-7.24869 c 0,0.282025 -0.228612,0.51063799 -0.510638,0.51063799 l -8.87673,0 c -0.282025,0 -0.510638,-0.22861299 -0.510638,-0.51063799 l 0,-4.1035424 c 0,-0.282 0.228613,-0.510638 0.510638,-0.510638 l 8.87673,0 c 0.282026,0 0.510638,0.228638 0.510638,0.510638 l 0,4.1035424 0,0 z m 4.336595,12.7382566 c 0,0.282026 -0.228612,0.510639 -0.510638,0.510639 l -1.107319,0 c -0.282025,0 -0.510638,-0.228613 -0.510638,-0.510639 l 0,-1.107319 c 0,-0.2819996 0.228613,-0.5106376 0.510638,-0.5106376 l 1.107319,0 c 0.282026,0 0.510638,0.228638 0.510638,0.5106376 l 0,1.107319 z m 0,-4.5884936 c 0,0.282 -0.228612,0.510638 -0.510638,0.510638 l -1.107319,0 c -0.282025,0 -0.510638,-0.228638 -0.510638,-0.510638 l 0,-1.107345 c 0,-0.282 0.228613,-0.510638 0.510638,-0.510638 l 1.107319,0 c 0.282026,0 0.510638,0.228638 0.510638,0.510638 l 0,1.107345 z m 0,-4.58852 c 0,0.282051 -0.228612,0.510638 -0.510638,0.510638 l -1.107319,0 c -0.282025,0 -0.510638,-0.228587 -0.510638,-0.510638 l 0,-1.10732001 c 0,-0.282025 0.228613,-0.510638 0.510638,-0.510638 l 1.107319,0 c 0.282026,0 0.510638,0.228613 0.510638,0.510638 l 0,1.10732001 z m 0,-4.588495 c 0,0.282026 -0.228612,0.510639 -0.510638,0.510639 l -1.107319,0 c -0.282025,0 -0.510638,-0.228613 -0.510638,-0.510639 l 0,-1.107319 c 0,-0.282 0.228613,-0.510639 0.510638,-0.510639 l 1.107319,0 c 0.282026,0 0.510638,0.228639 0.510638,0.510639 l 0,1.107319 z"
               inkscape:connector-curvature="0"
               style="display:inline;fill:#ffffff;fill-opacity:0.85483871;stroke:none;stroke-width:46.76432037;stroke-miterlimit:4;stroke-dasharray:none;stroke-opacity:1" />
          </g>
        </g>
      </g>
    </g>
  </g>
</svg>
