<?xml version="1.0" encoding="UTF-8" standalone="no"?>
<!-- Created with Inkscape (http://www.inkscape.org/) -->

<svg
   xmlns:dc="http://purl.org/dc/elements/1.1/"
   xmlns:cc="http://creativecommons.org/ns#"
   xmlns:rdf="http://www.w3.org/1999/02/22-rdf-syntax-ns#"
   xmlns:svg="http://www.w3.org/2000/svg"
   xmlns="http://www.w3.org/2000/svg"
   xmlns:xlink="http://www.w3.org/1999/xlink"
   xmlns:sodipodi="http://sodipodi.sourceforge.net/DTD/sodipodi-0.dtd"
   xmlns:inkscape="http://www.inkscape.org/namespaces/inkscape"
   width="48"
   height="48"
   id="svg5453"
   version="1.1"
   inkscape:version="0.91 r13725"
   sodipodi:docname="calamares.svg">
  <defs
     id="defs5455">
    <linearGradient
       inkscape:collect="always"
       xlink:href="#linearGradient4957"
       id="linearGradient4342"
       gradientUnits="userSpaceOnUse"
       gradientTransform="matrix(1.409145,0,0,1.409145,-700.98644,-765.2033)"
       x1="467.17453"
       y1="546.84698"
       x2="467.17453"
       y2="544.72443" />
    <linearGradient
       id="linearGradient4957"
       inkscape:collect="always">
      <stop
         id="stop4959"
         offset="0"
         style="stop-color:#040404;stop-opacity:1" />
      <stop
         id="stop4961"
         offset="1"
         style="stop-color:#121212;stop-opacity:0.90816325" />
    </linearGradient>
    <linearGradient
       inkscape:collect="always"
       xlink:href="#linearGradient4180"
       id="linearGradient4340"
       gradientUnits="userSpaceOnUse"
       gradientTransform="matrix(0.71217584,0,0,1.409145,-378.08313,-762.30024)"
       x1="451.02078"
       y1="544.14978"
       x2="451.02078"
       y2="543.0885" />
    <linearGradient
       id="linearGradient4180">
      <stop
         id="stop4182"
         offset="0"
         style="stop-color:#007aac;stop-opacity:1" />
      <stop
         id="stop4184"
         offset="1"
         style="stop-color:#00a0e2;stop-opacity:1" />
    </linearGradient>
    <linearGradient
       inkscape:collect="always"
       xlink:href="#linearGradient3687-2"
       id="linearGradient4338"
       gradientUnits="userSpaceOnUse"
       gradientTransform="matrix(0.35005326,0,0,0.34422422,-80.873356,-33.606239)"
       x1="10.09375"
       y1="107.36093"
       x2="122.719"
       y2="107.36093" />
    <linearGradient
       id="linearGradient3687-2">
      <stop
         id="stop3689-6"
         offset="0"
         style="stop-color:#1a1a1a;stop-opacity:1" />
      <stop
         style="stop-color:#2c2c2e;stop-opacity:1"
         offset="0.11054216"
         id="stop3691-8" />
      <stop
         style="stop-color:#2b2b2d;stop-opacity:1"
         offset="0.29001436"
         id="stop3693-8" />
      <stop
         style="stop-color:#2a2b2d;stop-opacity:1"
         offset="0.5118711"
         id="stop3695-4" />
      <stop
         style="stop-color:#2b2b2d;stop-opacity:1"
         offset="0.75173318"
         id="stop3699-86" />
      <stop
         id="stop3701-8"
         offset="0.89659214"
         style="stop-color:#323232;stop-opacity:1" />
      <stop
         id="stop3703-9"
         offset="1"
         style="stop-color:#171717;stop-opacity:1" />
    </linearGradient>
    <linearGradient
       gradientTransform="matrix(1.409145,0,0,1.409145,-691.57393,-762.37504)"
       gradientUnits="userSpaceOnUse"
       y2="518.40662"
       x2="449.54932"
       y1="540.74573"
       x1="449.42804"
       id="linearGradient4998-5"
       xlink:href="#linearGradient4992-9"
       inkscape:collect="always" />
    <linearGradient
       id="linearGradient4992-9"
       inkscape:collect="always">
      <stop
         id="stop4994-0"
         offset="0"
         style="stop-color:#bbbec4;stop-opacity:1" />
      <stop
         id="stop4996-8"
         offset="1"
         style="stop-color:#dddfe2;stop-opacity:1" />
    </linearGradient>
    <linearGradient
       inkscape:collect="always"
       xlink:href="#linearGradient4180"
       id="linearGradient4217"
       x1="12.240457"
       y1="75.628754"
       x2="11.398323"
       y2="10.648995"
       gradientUnits="userSpaceOnUse"
       gradientTransform="matrix(0.3599004,0,0,0.35990042,-62.047068,-43.350556)" />
  </defs>
  <sodipodi:namedview
     id="base"
     pagecolor="#ffffff"
     bordercolor="#666666"
     borderopacity="1.0"
     inkscape:pageopacity="0"
     inkscape:pageshadow="2"
     inkscape:zoom="4"
     inkscape:cx="-39.601104"
     inkscape:cy="15.968792"
     inkscape:document-units="px"
     inkscape:current-layer="g4370"
     showgrid="true"
     fit-margin-top="0"
     fit-margin-left="0"
     fit-margin-right="0"
     fit-margin-bottom="0"
     inkscape:window-width="1366"
     inkscape:window-height="634"
     inkscape:window-x="0"
     inkscape:window-y="36"
     inkscape:window-maximized="1"
     inkscape:showpageshadow="false"
     borderlayer="true"
     showguides="false">
    <inkscape:grid
       type="xygrid"
       id="grid4063" />
    <sodipodi:guide
       position="1.1650391e-05,32.000026"
       orientation="32,0"
       id="guide4157" />
    <sodipodi:guide
       position="1.1650391e-05,2.6367188e-05"
       orientation="0,32"
       id="guide4159" />
    <sodipodi:guide
       position="32.000012,2.6367188e-05"
       orientation="-32,0"
       id="guide4161" />
    <sodipodi:guide
       position="32.000012,32.000026"
       orientation="0,-32"
       id="guide4163" />
    <sodipodi:guide
       position="2.0000117,30.000026"
       orientation="28,0"
       id="guide4167" />
    <sodipodi:guide
       position="2.0000117,2.0000264"
       orientation="0,28"
       id="guide4169" />
    <sodipodi:guide
       position="30.000012,2.0000264"
       orientation="-28,0"
       id="guide4171" />
    <sodipodi:guide
       position="30.000012,30.000026"
       orientation="0,-28"
       id="guide4173" />
    <sodipodi:guide
       position="2.0000117,30.000026"
       orientation="28,0"
       id="guide4181" />
    <sodipodi:guide
       position="2.0000117,2.0000264"
       orientation="0,14"
       id="guide4183" />
    <sodipodi:guide
       position="16.000012,2.0000264"
       orientation="-28,0"
       id="guide4185" />
    <sodipodi:guide
       position="16.000012,30.000026"
       orientation="0,-14"
       id="guide4187" />
    <sodipodi:guide
       position="9.0000117,23.000026"
       orientation="14,0"
       id="guide4193" />
    <sodipodi:guide
       position="9.0000117,9.0000264"
       orientation="0,14.000031"
       id="guide4195" />
    <sodipodi:guide
       position="23.000042,9.0000264"
       orientation="-14,0"
       id="guide4197" />
    <sodipodi:guide
       position="23.000042,23.000026"
       orientation="0,-14.000031"
       id="guide4199" />
  </sodipodi:namedview>
  <metadata
     id="metadata5458">
    <rdf:RDF>
      <cc:Work
         rdf:about="">
        <dc:format>image/svg+xml</dc:format>
        <dc:type
           rdf:resource="http://purl.org/dc/dcmitype/StillImage" />
        <dc:title></dc:title>
      </cc:Work>
    </rdf:RDF>
  </metadata>
  <g
     inkscape:label="Capa 1"
     inkscape:groupmode="layer"
     id="layer1"
     transform="translate(-384.57143,-499.798)">
    <g
       style="display:inline;enable-background:new"
       id="g4238"
       transform="translate(225.81911,462.44565)">
      <g
         style="display:inline"
         id="layer1-8"
         transform="matrix(0.22655187,0,0,0.22655187,106.94841,54.31088)">
        <g
           style="display:none"
           id="layer6" />
        <g
           id="g4027" />
        <g
           id="g4061" />
        <g
           id="g3751" />
        <g
           id="g3782" />
        <g
           id="g3725" />
        <g
           id="g4370"
           transform="matrix(4.4140002,0,0,4.4140002,59.275211,39.357303)">
          <g
             id="g4241"
             transform="translate(120,15.000011)">
            <path
               sodipodi:nodetypes="ccccccc"
               id="rect3001"
               d="m -77.339911,0.07500402 0.350046,5.51723898 c 0,0.572127 0.468371,1.032734 1.050165,1.032734 l 36.624313,0 c 0.581793,0 1.050179,-0.460607 1.050179,-1.032734 l 0.350046,-5.51723898 -39.424749,0 z"
               style="opacity:1;fill:url(#linearGradient4338);fill-opacity:1;stroke:none;stroke-width:1.31742239;stroke-miterlimit:4;stroke-dasharray:none"
               inkscape:connector-curvature="0" />
            <path
               sodipodi:nodetypes="ccccccccc"
               id="path3778"
               d="m -74.186963,-32.266198 32.776191,0 c 0.581794,0 1.05018,0.460607 1.05018,1.03272 l 2.450503,31.14182202 c 0,0.572113 -0.468358,1.032734 -1.050151,1.032734 l -37.326885,0 c -0.581793,0 -1.050151,-0.460621 -1.050151,-1.032734 l 2.100162,-31.14173802 c 0,-0.572113 0.468371,-1.032804 1.050151,-1.032804 z"
               style="opacity:1;fill:url(#linearGradient4998-5);fill-opacity:1;stroke:none;stroke-width:1.31742239;stroke-miterlimit:4;stroke-dasharray:none"
               inkscape:connector-curvature="0" />
            <rect
               ry="0.54172778"
               y="3.4942245"
               x="-65.64064"
               height="1.0834556"
               width="16.153425"
               id="rect4727"
               style="opacity:1;fill:url(#linearGradient4340);fill-opacity:1;stroke:none;stroke-width:0.2;stroke-linecap:round;stroke-linejoin:round;stroke-miterlimit:4;stroke-dasharray:none;stroke-opacity:1" />
            <ellipse
               style="opacity:0.45199998;fill:url(#linearGradient4342);fill-opacity:1;stroke:none;stroke-width:1.70000005;stroke-linecap:round;stroke-linejoin:round;stroke-miterlimit:4;stroke-dasharray:none;stroke-opacity:1"
               id="path4955-1"
               cx="-42.789894"
               cy="4.0744286"
               rx="1.4954975"
               ry="1.4954889" />
            <path
               style="opacity:0.66799999;fill:#e3e8ea;fill-opacity:1;stroke-width:1.31742239;stroke-miterlimit:4;stroke-dasharray:none"
               inkscape:connector-curvature="0"
               id="path955-0"
               d="m -42.793143,4.113294 c 0.03375,0 0.06298,-0.01232 0.08762,-0.037 0.02467,-0.02465 0.03702,-0.05387 0.03702,-0.08762 l 0,-0.623142 c 0,-0.03376 -0.01234,-0.06297 -0.03702,-0.08762 -0.02464,-0.02468 -0.05386,-0.03701 -0.08762,-0.03701 -0.03376,0 -0.06297,0.01234 -0.08763,0.03701 -0.02467,0.02465 -0.037,0.05387 -0.037,0.08762 l 0,0.623142 c 0,0.03375 0.01233,0.06297 0.037,0.08762 0.02466,0.02468 0.05388,0.037 0.08763,0.037 l 0,0 z" />
            <path
               style="opacity:0.66799999;fill:#e3e8ea;fill-opacity:1;stroke-width:1.31742239;stroke-miterlimit:4;stroke-dasharray:none"
               inkscape:connector-curvature="0"
               id="path957-1"
               d="m -42.123753,3.779328 c -0.05226,-0.104494 -0.125754,-0.192127 -0.220521,-0.262873 -0.02726,-0.02077 -0.05809,-0.02888 -0.0925,-0.02434 -0.0344,0.0045 -0.06166,0.02077 -0.08179,0.04867 -0.02077,0.02726 -0.02872,0.05792 -0.02385,0.09201 0.0049,0.0341 0.02094,0.06151 0.0482,0.08228 0.06359,0.04803 0.112788,0.106777 0.147492,0.176232 0.03473,0.06944 0.05208,0.143453 0.05208,0.221979 0,0.06752 -0.01315,0.131933 -0.03942,0.193274 -0.02629,0.06134 -0.06183,0.114401 -0.106621,0.159192 -0.04479,0.04478 -0.09784,0.08032 -0.15918,0.106609 -0.06134,0.02629 -0.125766,0.03945 -0.193274,0.03945 -0.0675,0 -0.131921,-0.01316 -0.193262,-0.03945 -0.06134,-0.02629 -0.114401,-0.06183 -0.159191,-0.106609 -0.04478,-0.04479 -0.08032,-0.09785 -0.10661,-0.159192 -0.02629,-0.06134 -0.03944,-0.125754 -0.03944,-0.193274 0,-0.07853 0.01736,-0.152523 0.05209,-0.221979 0.03473,-0.06944 0.08389,-0.128192 0.147503,-0.176232 0.02726,-0.02078 0.04332,-0.0482 0.0482,-0.08228 0.0049,-0.03407 -0.0031,-0.06475 -0.02385,-0.09201 -0.02012,-0.0279 -0.04722,-0.04413 -0.0813,-0.04867 -0.03408,-0.0045 -0.06508,0.0036 -0.09299,0.02434 -0.09478,0.07075 -0.168274,0.158379 -0.220533,0.262873 -0.05226,0.104506 -0.07838,0.215824 -0.07838,0.333954 0,0.101268 0.0198,0.197971 0.05939,0.290144 0.0396,0.09217 0.09282,0.17168 0.159681,0.238542 0.06685,0.06685 0.146369,0.12009 0.238542,0.159658 0.09217,0.0396 0.188888,0.05942 0.290144,0.05942 0.101256,0 0.197971,-0.01981 0.290144,-0.05942 0.09217,-0.03958 0.171692,-0.09281 0.238542,-0.159658 0.06685,-0.06685 0.120066,-0.146368 0.15967,-0.238542 0.03959,-0.09217 0.05938,-0.188888 0.05938,-0.290144 0,-0.11813 -0.02609,-0.229448 -0.07835,-0.333954 l 0,0 z" />
            <path
               style="opacity:1;fill:#a1a7ae;fill-opacity:1;fill-rule:evenodd;stroke:#909296;stroke-width:0.06495984;stroke-linecap:round;stroke-linejoin:round;stroke-miterlimit:4;stroke-dasharray:none;stroke-opacity:1"
               inkscape:connector-curvature="0"
               d="m -57.106629,-25.641121 c -2.465821,0.06604 6.568705,10.362248 -0.389487,9.704638 5.802455,1.328011 7.131358,-4.85826 5.9463,-7.884901 -1.17344,-2.997629 -1.783666,-1.12712 -5.281295,-1.792957 -0.104564,-0.01986 -0.196403,-0.02894 -0.275518,-0.02675 z m -6.913931,1.435225 c -3.813918,-0.0043 -1.84878,1.053633 -3.696349,3.596236 -1.764472,2.427985 13.937952,-1.920731 10.937139,3.511963 3.321697,-4.147636 -3.390299,-7.103903 -7.240901,-7.108016 z m 2.683255,4.648041 c -3.051711,-0.0061 -6.122786,2.858472 -6.981428,5.031462 -1.183509,2.995113 0.641156,1.778601 2.997493,4.015566 2.250054,2.1368864 2.096804,-11.544472 7.424572,-7.507884 -1.054484,-1.094489 -2.246181,-1.536402 -3.440637,-1.539144 z m 13.116931,0.486468 c -2.060179,0.162861 -9.575602,8.053989 -10.833682,2.932959 0.264298,4.968394 7.799121,4.101076 10.916669,2.234955 3.08872,-1.848566 0.74561,-1.75068 0.431143,-4.70471 -0.03755,-0.352649 -0.220038,-0.486511 -0.514344,-0.463252 z m -11.082091,1.644983 c -5.638693,1.743002 -2.311302,7.39455 0.800713,9.2672964 3.082693,1.855329 2.24596,0.04503 5.549621,-1.11483 3.155279,-1.1076944 -12.643904,-5.2142554 -6.350725,-8.1526984 z"
               id="path7811-6" />
            <path
               style="fill:#006d9a;fill-opacity:1;fill-rule:evenodd;stroke:none;stroke-width:67.68478394px;stroke-linecap:butt;stroke-linejoin:miter;stroke-miterlimit:4;stroke-dasharray:none;stroke-opacity:1"
               d="m -67.354182,-26.329366 0.229408,-0.650347 c 0.0825,-0.2798 0.16113,-0.223179 0.488998,-0.223179 l 5.975016,0 1.200851,1.199562 -7.487452,0.05096 c -0.494753,0.0053 -0.576146,0.103017 -0.406821,-0.376999 z"
               id="path4836-7-8-2"
               inkscape:connector-curvature="0"
               sodipodi:nodetypes="ccccccc" />
            <path
               style="fill:#006d9a;fill-opacity:1;fill-rule:evenodd;stroke:none;stroke-width:67.68478394px;stroke-linecap:butt;stroke-linejoin:miter;stroke-miterlimit:4;stroke-dasharray:none;stroke-opacity:1"
               d="m -47.61894,-26.272427 -0.200075,-0.56719 c -0.09148,-0.386671 -0.151341,-0.363275 -0.578166,-0.363275 l -5.935266,0 -1.200851,1.199562 7.439417,0.05064 c 0.450853,-0.01605 0.641427,0.152237 0.474941,-0.319732 z"
               id="path4836-7-6"
               inkscape:connector-curvature="0"
               sodipodi:nodetypes="ccccccc" />
            <path
               style="fill:#006d9a;fill-opacity:1;fill-rule:evenodd;stroke:none;stroke-width:67.68478394px;stroke-linecap:butt;stroke-linejoin:miter;stroke-miterlimit:4;stroke-dasharray:none;stroke-opacity:1"
               d="m -61.741531,-39.474676 0.201679,-0.536778 c 0.09148,-0.38667 0.151342,-0.363274 0.578166,-0.363274 l 5.935267,1.81e-4 1.200851,1.199548 -7.692756,-2e-6 c -0.359478,0.01575 -0.344294,0.0226 -0.223207,-0.299675 z"
               id="path4836-7-2-9"
               inkscape:connector-curvature="0"
               sodipodi:nodetypes="ccccccc" />
            <path
               style="fill:#006d9a;fill-opacity:1;fill-rule:evenodd;stroke:none;stroke-width:67.68478394px;stroke-linecap:butt;stroke-linejoin:miter;stroke-miterlimit:4;stroke-dasharray:none;stroke-opacity:1"
               d="m -53.098977,-39.464959 -0.201679,-0.536778 c -0.09148,-0.38667 -0.151341,-0.363274 -0.578166,-0.363274 l -5.935266,1.81e-4 -1.200852,1.199548 7.692757,-2e-6 c 0.359478,0.01575 0.344293,0.0226 0.223206,-0.299675 z"
               id="path4836-7-2-9-3"
               inkscape:connector-curvature="0"
               sodipodi:nodetypes="ccccccc" />
            <path
               style="fill:url(#linearGradient4217);fill-opacity:1;stroke-width:1.31742239;stroke-miterlimit:4;stroke-dasharray:none"
               sodipodi:nodetypes="ccsccccccccsccc"
               id="path7-8"
               d="m -58.037694,-15.898493 -8.929198,-9.171894 c 0,0 -1.324454,-1.36557 0.294688,-1.36557 l 4.851531,0 0,-1.589453 0,-10.767125 c -0.03157,-0.639286 0.0038,-0.692996 0.625429,-0.689766 l 7.558988,0 c 0.537508,-0.0597 0.662975,0.01776 0.662678,0.587043 l 0,10.792146 0,1.667148 4.644302,-1e-5 c 1.496556,-3e-6 0.441499,1.141713 0.441499,1.141713 0,0 -7.596945,8.572727 -8.656553,9.472138 -0.762173,0.651852 -1.493364,-0.07637 -1.493364,-0.07637 z"
               inkscape:connector-curvature="0" />
          </g>
        </g>
      </g>
    </g>
  </g>
</svg>
