<?xml version="1.0" encoding="UTF-8" standalone="no"?>
<!-- Created with Inkscape (http://www.inkscape.org/) -->

<svg
   xmlns:dc="http://purl.org/dc/elements/1.1/"
   xmlns:cc="http://creativecommons.org/ns#"
   xmlns:rdf="http://www.w3.org/1999/02/22-rdf-syntax-ns#"
   xmlns:svg="http://www.w3.org/2000/svg"
   xmlns="http://www.w3.org/2000/svg"
   xmlns:xlink="http://www.w3.org/1999/xlink"
   xmlns:sodipodi="http://sodipodi.sourceforge.net/DTD/sodipodi-0.dtd"
   xmlns:inkscape="http://www.inkscape.org/namespaces/inkscape"
   width="48"
   height="48"
   id="svg2"
   version="1.1"
   inkscape:version="0.91 r13725"
   sodipodi:docname="AdobeDreamweaver.svg">
  <defs
     id="defs4">
    <defs
       id="defs4922">
      <filter
         color-interpolation-filters="sRGB"
         id="Adobe_OpacityMaskFilter"
         filterUnits="userSpaceOnUse"
         x="3.7850001"
         y="4.6750002"
         width="5.8829999"
         height="73.013">
        <feColorMatrix
           type="matrix"
           values="1 0 0 0 0  0 1 0 0 0  0 0 1 0 0  0 0 0 1 0"
           id="feColorMatrix4925" />
      </filter>
    </defs>
    <mask
       maskUnits="userSpaceOnUse"
       x="3.785"
       y="4.675"
       width="5.883"
       height="73.013"
       id="SVGID_2_">
      <g
         style="filter:url(#Adobe_OpacityMaskFilter)"
         id="g4928">
        <linearGradient
           id="SVGID_3_"
           gradientUnits="userSpaceOnUse"
           x1="3.7852001"
           y1="41.181198"
           x2="9.6680002"
           y2="41.181198">
          <stop
             offset="0"
             style="stop-color:#FFFFFF"
             id="stop4931" />
          <stop
             offset="0.0029"
             style="stop-color:#FAFBFB"
             id="stop4933" />
          <stop
             offset="0.0756"
             style="stop-color:#BBBDBF"
             id="stop4935" />
          <stop
             offset="0.1438"
             style="stop-color:#898B8E"
             id="stop4937" />
          <stop
             offset="0.2053"
             style="stop-color:#646567"
             id="stop4939" />
          <stop
             offset="0.259"
             style="stop-color:#444446"
             id="stop4941" />
          <stop
             offset="0.3028"
             style="stop-color:#1D1C1D"
             id="stop4943" />
          <stop
             offset="0.3313"
             style="stop-color:#000000"
             id="stop4945" />
        </linearGradient>
        <rect
           style="fill:url(#SVGID_3_)"
           x="3.7850001"
           y="4.6750002"
           width="5.8829999"
           height="73.013"
           id="rect4947" />
      </g>
    </mask>
    <linearGradient
       inkscape:collect="always"
       id="linearGradient4638">
      <stop
         style="stop-color:#00ca00;stop-opacity:1"
         offset="0"
         id="stop4640" />
      <stop
         style="stop-color:#65ff65;stop-opacity:1"
         offset="1"
         id="stop4642" />
    </linearGradient>
    <linearGradient
       gradientTransform="matrix(0.13837079,0,0,0.13837079,69.09329,962.11762)"
       inkscape:collect="always"
       xlink:href="#linearGradient4638"
       id="linearGradient5299"
       gradientUnits="userSpaceOnUse"
       x1="-318.57867"
       y1="653.95679"
       x2="-318.57867"
       y2="301.29816" />
  </defs>
  <sodipodi:namedview
     id="base"
     pagecolor="#ffffff"
     bordercolor="#666666"
     borderopacity="1.0"
     inkscape:pageopacity="0.0"
     inkscape:pageshadow="2"
     inkscape:zoom="5.006625"
     inkscape:cx="32.785377"
     inkscape:cy="19.02771"
     inkscape:document-units="px"
     inkscape:current-layer="layer1"
     showgrid="false"
     inkscape:window-width="1366"
     inkscape:window-height="687"
     inkscape:window-x="0"
     inkscape:window-y="0"
     inkscape:window-maximized="1"
     inkscape:object-nodes="true"
     inkscape:snap-bbox="true">
    <inkscape:grid
       type="xygrid"
       id="grid3367" />
  </sodipodi:namedview>
  <metadata
     id="metadata7">
    <rdf:RDF>
      <cc:Work
         rdf:about="">
        <dc:format>image/svg+xml</dc:format>
        <dc:type
           rdf:resource="http://purl.org/dc/dcmitype/StillImage" />
        <dc:title />
      </cc:Work>
    </rdf:RDF>
  </metadata>
  <g
     inkscape:label="Capa 1"
     inkscape:groupmode="layer"
     id="layer1"
     transform="translate(0,-1004.3622)">
    <circle
       style="display:inline;opacity:1;fill:url(#linearGradient5299);fill-opacity:1;stroke:none;stroke-width:15.44461155;stroke-linecap:round;stroke-linejoin:round;stroke-miterlimit:4;stroke-dasharray:none;stroke-opacity:1;enable-background:new"
       id="path4217"
       cx="24"
       cy="1028.3622"
       r="24" />
    <g
       id="g4182"
       transform="matrix(0.96385542,0,0,0.96385542,0.86746957,1005.2297)">
      <g
         transform="translate(-12.61017,-37.016949)"
         id="g4166" />
    </g>
    <path
       style="fill:#035903;fill-opacity:1;stroke:none"
       d="m 13.089397,1018.7237 c -1.856838,0 -3.6137228,0.1403 -4.987397,0.3942 l 0,18.6293 c 1.0172376,0.1403 2.392975,0.2535 4.224351,0.2535 3.332353,0 6.054375,-0.8709 7.75845,-2.5853 1.627987,-1.63 2.670654,-4.1587 2.670654,-7.5301 0,-3.2319 -1.016918,-5.4806 -2.670654,-6.9702 -1.576489,-1.4615 -3.790641,-2.1914 -6.995404,-2.1914 z m 0.278612,2.6983 c 3.917061,0 6.10471,2.3894 6.079248,6.5763 0,4.7781 -2.386855,7.2492 -6.415592,7.249 -0.02284,0 -0.04742,0 -0.07028,0 -0.636208,0 -1.297449,7e-4 -1.7294,-0.083 l 0,-13.5467 c 0.431951,-0.1126 1.143666,-0.1959 2.136024,-0.1959 z m 9.733828,2.6958 3.549157,13.6872 2.833807,0 1.528597,-5.5648 c 0.344867,-1.349 0.665216,-2.6982 0.911134,-4.3848 l 0.0502,0 c 0.27109,1.6584 0.542258,2.9515 0.911135,4.3848 l 1.430707,5.5648 2.808706,0 3.772548,-13.6872 -2.981896,0 -1.332815,6.0716 c -0.320275,1.6018 -0.591409,3.0912 -0.788146,4.581 l -0.0502,0 c -0.271089,-1.4898 -0.591298,-2.9792 -0.961334,-4.581 l -1.503499,-6.0716 -2.464833,0 -1.551186,6.24 c -0.345156,1.4046 -0.739939,2.9228 -0.986435,4.4126 l -0.0502,0 c -0.221618,-1.4898 -0.492245,-2.9793 -0.763044,-4.4402 l -1.257518,-6.2124 -3.104885,0 z"
       id="path2430-4"
       inkscape:connector-curvature="0" />
  </g>
</svg>
