<?xml version="1.0" encoding="UTF-8" standalone="no"?>
<!-- Created with Inkscape (http://www.inkscape.org/) -->

<svg
   xmlns:dc="http://purl.org/dc/elements/1.1/"
   xmlns:cc="http://creativecommons.org/ns#"
   xmlns:rdf="http://www.w3.org/1999/02/22-rdf-syntax-ns#"
   xmlns:svg="http://www.w3.org/2000/svg"
   xmlns="http://www.w3.org/2000/svg"
   xmlns:xlink="http://www.w3.org/1999/xlink"
   xmlns:sodipodi="http://sodipodi.sourceforge.net/DTD/sodipodi-0.dtd"
   xmlns:inkscape="http://www.inkscape.org/namespaces/inkscape"
   width="48"
   height="48"
   id="svg2"
   version="1.1"
   inkscape:version="0.91 r13725"
   sodipodi:docname="AdobeBridge.svg">
  <defs
     id="defs4">
    <linearGradient
       id="linearGradient4176">
      <stop
         id="stop4178"
         offset="0"
         style="stop-color:#673508;stop-opacity:1" />
      <stop
         id="stop4180"
         offset="1"
         style="stop-color:#ce873f;stop-opacity:1" />
    </linearGradient>
    <defs
       id="defs4922">
      <filter
         color-interpolation-filters="sRGB"
         id="Adobe_OpacityMaskFilter"
         filterUnits="userSpaceOnUse"
         x="3.7850001"
         y="4.6750002"
         width="5.8829999"
         height="73.013">
        <feColorMatrix
           type="matrix"
           values="1 0 0 0 0  0 1 0 0 0  0 0 1 0 0  0 0 0 1 0"
           id="feColorMatrix4925" />
      </filter>
    </defs>
    <mask
       maskUnits="userSpaceOnUse"
       x="3.785"
       y="4.675"
       width="5.883"
       height="73.013"
       id="SVGID_2_">
      <g
         style="filter:url(#Adobe_OpacityMaskFilter)"
         id="g4928">
        <linearGradient
           id="SVGID_3_"
           gradientUnits="userSpaceOnUse"
           x1="3.7852001"
           y1="41.181198"
           x2="9.6680002"
           y2="41.181198">
          <stop
             offset="0"
             style="stop-color:#FFFFFF"
             id="stop4931" />
          <stop
             offset="0.0029"
             style="stop-color:#FAFBFB"
             id="stop4933" />
          <stop
             offset="0.0756"
             style="stop-color:#BBBDBF"
             id="stop4935" />
          <stop
             offset="0.1438"
             style="stop-color:#898B8E"
             id="stop4937" />
          <stop
             offset="0.2053"
             style="stop-color:#646567"
             id="stop4939" />
          <stop
             offset="0.259"
             style="stop-color:#444446"
             id="stop4941" />
          <stop
             offset="0.3028"
             style="stop-color:#1D1C1D"
             id="stop4943" />
          <stop
             offset="0.3313"
             style="stop-color:#000000"
             id="stop4945" />
        </linearGradient>
        <rect
           style="fill:url(#SVGID_3_)"
           x="3.7850001"
           y="4.6750002"
           width="5.8829999"
           height="73.013"
           id="rect4947" />
      </g>
    </mask>
    <linearGradient
       id="linearGradient4180-0">
      <stop
         style="stop-color:#210e00;stop-opacity:1"
         offset="0"
         id="stop4182-2" />
      <stop
         style="stop-color:#74400b;stop-opacity:1"
         offset="1"
         id="stop4184-3" />
    </linearGradient>
    <linearGradient
       gradientTransform="matrix(0.13837079,0,0,0.13837079,69.093291,962.11763)"
       inkscape:collect="always"
       xlink:href="#linearGradient4176"
       id="linearGradient5299"
       gradientUnits="userSpaceOnUse"
       x1="-318.57867"
       y1="653.95679"
       x2="-318.57867"
       y2="301.29816" />
    <linearGradient
       id="linearGradient4422-6">
      <stop
         style="stop-color:#fa883c;stop-opacity:1"
         offset="0"
         id="stop4424-383" />
      <stop
         style="stop-color:#ffbb85;stop-opacity:1"
         offset="1"
         id="stop4426-9" />
    </linearGradient>
  </defs>
  <sodipodi:namedview
     id="base"
     pagecolor="#ffffff"
     bordercolor="#666666"
     borderopacity="1.0"
     inkscape:pageopacity="0.0"
     inkscape:pageshadow="2"
     inkscape:zoom="7.080437"
     inkscape:cx="-7.7365349"
     inkscape:cy="17.3656"
     inkscape:document-units="px"
     inkscape:current-layer="layer1"
     showgrid="false"
     inkscape:window-width="1366"
     inkscape:window-height="687"
     inkscape:window-x="0"
     inkscape:window-y="0"
     inkscape:window-maximized="1"
     inkscape:object-nodes="true"
     inkscape:snap-bbox="true">
    <inkscape:grid
       type="xygrid"
       id="grid3367" />
  </sodipodi:namedview>
  <metadata
     id="metadata7">
    <rdf:RDF>
      <cc:Work
         rdf:about="">
        <dc:format>image/svg+xml</dc:format>
        <dc:type
           rdf:resource="http://purl.org/dc/dcmitype/StillImage" />
        <dc:title />
      </cc:Work>
    </rdf:RDF>
  </metadata>
  <g
     inkscape:label="Capa 1"
     inkscape:groupmode="layer"
     id="layer1"
     transform="translate(0,-1004.3622)">
    <circle
       style="display:inline;opacity:1;fill:url(#linearGradient5299);fill-opacity:1;stroke:none;stroke-width:15.44461155;stroke-linecap:round;stroke-linejoin:round;stroke-miterlimit:4;stroke-dasharray:none;stroke-opacity:1;enable-background:new"
       id="path4217"
       cx="24"
       cy="1028.3622"
       r="24" />
    <g
       id="g4182"
       transform="matrix(0.96385542,0,0,0.96385542,0.86746957,1005.2297)">
      <g
         transform="translate(-12.61017,-37.016949)"
         id="g4166" />
    </g>
    <path
       style="fill:#ffffff;fill-opacity:0.85338348;stroke:none"
       d="m 17.171637,1018.7245 c -1.938894,0 -3.934087,0.1694 -5.02997,0.394 l 0,18.6316 c 0.871327,0.111 2.330981,0.2509 4.241842,0.2509 3.456427,0 5.676635,-0.5892 7.025394,-1.7696 1.095885,-0.8987 1.827256,-2.22 1.827256,-3.9056 0,-2.6134 -1.827433,-4.1876 -3.822678,-4.6936 l 0,-0.056 c 2.051881,-0.7586 3.147496,-2.3617 3.147496,-4.1037 0,-1.6017 -0.784464,-2.8372 -1.965303,-3.5392 -1.292123,-0.8994 -2.866972,-1.2098 -5.424037,-1.2098 z m 0.366455,2.5576 c 2.191486,0 3.539052,0.8147 3.539052,2.5853 0,1.6014 -1.348762,2.7259 -3.737337,2.7259 l -1.769527,0 0,-5.1706 c 0.365861,-0.085 0.956031,-0.1403 1.967812,-0.1403 z m 17.504502,2.5275 c -1.462029,0 -3.062816,0.9831 -3.737338,2.9217 l 0,0 -0.110431,0 -0.112945,-2.613 -3.006941,0 c 0.08439,1.2361 0.112945,2.5557 0.112945,4.4102 l 0,9.2743 3.456223,0 0,-7.0806 c 0,-0.3933 0.05465,-0.7598 0.110431,-1.0692 0.309509,-1.5453 1.434576,-2.6129 3.092278,-2.6129 0.421929,0 0.730042,0.057 1.011517,0.1125 l 0,-3.2603 c -0.281473,-0.055 -0.478762,-0.085 -0.81574,-0.085 z m -19.472314,5.3136 1.714305,0 c 2.38886,0 4.299574,0.8979 4.299574,3.0897 0,2.3325 -1.966537,3.1753 -4.186624,3.1753 -0.786375,0 -1.377008,-6e-4 -1.827255,-0.085 l 0,-6.1798 z"
       id="path1684-0-1"
       inkscape:connector-curvature="0" />
  </g>
</svg>
