<?xml version="1.0" encoding="UTF-8" standalone="no"?>
<!-- Created with Inkscape (http://www.inkscape.org/) -->

<svg
   xmlns:osb="http://www.openswatchbook.org/uri/2009/osb"
   xmlns:dc="http://purl.org/dc/elements/1.1/"
   xmlns:cc="http://creativecommons.org/ns#"
   xmlns:rdf="http://www.w3.org/1999/02/22-rdf-syntax-ns#"
   xmlns:svg="http://www.w3.org/2000/svg"
   xmlns="http://www.w3.org/2000/svg"
   xmlns:xlink="http://www.w3.org/1999/xlink"
   xmlns:sodipodi="http://sodipodi.sourceforge.net/DTD/sodipodi-0.dtd"
   xmlns:inkscape="http://www.inkscape.org/namespaces/inkscape"
   width="48"
   height="48"
   id="svg2"
   version="1.1"
   inkscape:version="0.91 r13725"
   sodipodi:docname="AdobePhotoshop.svg">
  <defs
     id="defs4">
    <defs
       id="defs4922">
      <filter
         color-interpolation-filters="sRGB"
         id="Adobe_OpacityMaskFilter"
         filterUnits="userSpaceOnUse"
         x="3.7850001"
         y="4.6750002"
         width="5.8829999"
         height="73.013">
        <feColorMatrix
           type="matrix"
           values="1 0 0 0 0  0 1 0 0 0  0 0 1 0 0  0 0 0 1 0"
           id="feColorMatrix4925" />
      </filter>
    </defs>
    <mask
       maskUnits="userSpaceOnUse"
       x="3.785"
       y="4.675"
       width="5.883"
       height="73.013"
       id="SVGID_2_">
      <g
         style="filter:url(#Adobe_OpacityMaskFilter)"
         id="g4928">
        <linearGradient
           id="SVGID_3_"
           gradientUnits="userSpaceOnUse"
           x1="3.7852001"
           y1="41.181198"
           x2="9.6680002"
           y2="41.181198">
          <stop
             offset="0"
             style="stop-color:#FFFFFF"
             id="stop4931" />
          <stop
             offset="0.0029"
             style="stop-color:#FAFBFB"
             id="stop4933" />
          <stop
             offset="0.0756"
             style="stop-color:#BBBDBF"
             id="stop4935" />
          <stop
             offset="0.1438"
             style="stop-color:#898B8E"
             id="stop4937" />
          <stop
             offset="0.2053"
             style="stop-color:#646567"
             id="stop4939" />
          <stop
             offset="0.259"
             style="stop-color:#444446"
             id="stop4941" />
          <stop
             offset="0.3028"
             style="stop-color:#1D1C1D"
             id="stop4943" />
          <stop
             offset="0.3313"
             style="stop-color:#000000"
             id="stop4945" />
        </linearGradient>
        <rect
           style="fill:url(#SVGID_3_)"
           x="3.7850001"
           y="4.6750002"
           width="5.8829999"
           height="73.013"
           id="rect4947" />
      </g>
    </mask>
    <linearGradient
       gradientTransform="matrix(0.13837079,0,0,0.13837079,69.09329,962.11773)"
       inkscape:collect="always"
       xlink:href="#linearGradient4531-7"
       id="linearGradient5299"
       gradientUnits="userSpaceOnUse"
       x1="-318.57867"
       y1="653.95679"
       x2="-318.57867"
       y2="301.29816" />
    <linearGradient
       id="linearGradient4207"
       osb:paint="gradient">
      <stop
         style="stop-color:#3498db;stop-opacity:1;"
         offset="0"
         id="stop3371" />
      <stop
         style="stop-color:#3498db;stop-opacity:0;"
         offset="1"
         id="stop3373" />
    </linearGradient>
    <linearGradient
       inkscape:collect="always"
       id="linearGradient4531-7">
      <stop
         style="stop-color:#0074e3;stop-opacity:1"
         offset="0"
         id="stop4533-1" />
      <stop
         style="stop-color:#03b8ff;stop-opacity:1"
         offset="1"
         id="stop4535-6" />
    </linearGradient>
  </defs>
  <sodipodi:namedview
     id="base"
     pagecolor="#ffffff"
     bordercolor="#666666"
     borderopacity="1.0"
     inkscape:pageopacity="0.0"
     inkscape:pageshadow="2"
     inkscape:zoom="7.080437"
     inkscape:cx="-38.103222"
     inkscape:cy="30.411093"
     inkscape:document-units="px"
     inkscape:current-layer="layer1"
     showgrid="false"
     inkscape:window-width="1366"
     inkscape:window-height="687"
     inkscape:window-x="0"
     inkscape:window-y="0"
     inkscape:window-maximized="1"
     inkscape:object-nodes="true"
     inkscape:snap-bbox="true">
    <inkscape:grid
       type="xygrid"
       id="grid3367" />
  </sodipodi:namedview>
  <metadata
     id="metadata7">
    <rdf:RDF>
      <cc:Work
         rdf:about="">
        <dc:format>image/svg+xml</dc:format>
        <dc:type
           rdf:resource="http://purl.org/dc/dcmitype/StillImage" />
        <dc:title />
      </cc:Work>
    </rdf:RDF>
  </metadata>
  <g
     inkscape:label="Capa 1"
     inkscape:groupmode="layer"
     id="layer1"
     transform="translate(0,-1004.3622)">
    <circle
       style="display:inline;opacity:1;fill:url(#linearGradient5299);fill-opacity:1.0;stroke:none;stroke-width:15.44461155;stroke-linecap:round;stroke-linejoin:round;stroke-miterlimit:4;stroke-dasharray:none;stroke-opacity:1;enable-background:new"
       id="path4217"
       cx="24"
       cy="1028.3622"
       r="24" />
    <g
       id="g4182"
       transform="matrix(0.96385542,0,0,0.96385542,0.86746957,1005.2297)">
      <g
         transform="translate(-12.61017,-37.016949)"
         id="g4166" />
    </g>
    <path
       style="fill:#d9effd;fill-opacity:1;stroke:none"
       d="m 18.094889,1018.724 c -2.318334,0 -4.02154,0.1678 -5.250889,0.3916 l 0,18.5764 3.40856,0 0,-7.0957 c 0.447272,0.083 1.034094,0.1126 1.676671,0.1126 2.430512,0 4.582323,-0.6419 5.951176,-2.0105 1.06166,-1.0059 1.618941,-2.4867 1.618941,-4.2747 0,-1.76 -0.727381,-3.2417 -1.844839,-4.1639 -1.20145,-1.0056 -3.045117,-1.5361 -5.55962,-1.5361 z m 0.140566,2.6255 c 2.37471,0 3.827728,1.1176 3.827728,3.2127 0,2.2074 -1.563933,3.4638 -4.133946,3.4638 -0.698378,0 -1.257302,-0.026 -1.676671,-0.1388 l 0,-6.3704 c 0.363571,-0.083 1.033408,-0.1681 1.982889,-0.1681 z m 13.157346,2.4296 c -3.157079,0 -5.140452,1.872 -5.140452,4.2745 -0.02762,1.5921 1.090608,3.0468 3.744901,3.9684 1.676047,0.5868 2.233886,1.0605 2.233886,1.9827 0,0.8937 -0.670023,1.5087 -2.178667,1.5087 -1.229351,0 -2.711535,-0.5012 -3.493901,-0.9765 l -0.670167,2.4849 c 1.005282,0.5587 2.488311,0.9789 4.136458,0.9789 3.60435,0 5.532009,-1.8162 5.532009,-4.2745 -0.02848,-2.0112 -1.173537,-3.2678 -3.631949,-4.1616 -1.732134,-0.6147 -2.376956,-1.0334 -2.376956,-1.9001 0,-0.8375 0.670995,-1.4255 1.900059,-1.4255 1.200873,0 2.292179,0.4477 2.878954,0.7829 l 0.670165,-2.4321 c -0.78179,-0.419 -2.095985,-0.8107 -3.60434,-0.8107 z"
       id="path156-1"
       inkscape:connector-curvature="0" />
  </g>
</svg>
