<?xml version="1.0" encoding="UTF-8" standalone="no"?>
<!-- Created with Inkscape (http://www.inkscape.org/) -->

<svg
   xmlns:dc="http://purl.org/dc/elements/1.1/"
   xmlns:cc="http://creativecommons.org/ns#"
   xmlns:rdf="http://www.w3.org/1999/02/22-rdf-syntax-ns#"
   xmlns:svg="http://www.w3.org/2000/svg"
   xmlns="http://www.w3.org/2000/svg"
   xmlns:xlink="http://www.w3.org/1999/xlink"
   xmlns:sodipodi="http://sodipodi.sourceforge.net/DTD/sodipodi-0.dtd"
   xmlns:inkscape="http://www.inkscape.org/namespaces/inkscape"
   width="48"
   height="48"
   id="svg5453"
   version="1.1"
   inkscape:version="0.91 r13725"
   sodipodi:docname="airwave-manager.svg">
  <defs
     id="defs5455">
    <linearGradient
       gradientTransform="matrix(0.13837079,0,0,0.13837079,132.46829,-53.119556)"
       inkscape:collect="always"
       xlink:href="#linearGradient5076"
       id="linearGradient5299"
       gradientUnits="userSpaceOnUse"
       x1="-318.57867"
       y1="653.95679"
       x2="-318.57867"
       y2="301.29816" />
    <linearGradient
       id="linearGradient5076"
       inkscape:collect="always">
      <stop
         id="stop5078"
         offset="0"
         style="stop-color:#c52828;stop-opacity:1" />
      <stop
         id="stop5080"
         offset="1"
         style="stop-color:#ff5454;stop-opacity:1" />
    </linearGradient>
  </defs>
  <sodipodi:namedview
     id="base"
     pagecolor="#ffffff"
     bordercolor="#666666"
     borderopacity="1.0"
     inkscape:pageopacity="0"
     inkscape:pageshadow="2"
     inkscape:zoom="4"
     inkscape:cx="-39.601104"
     inkscape:cy="15.968792"
     inkscape:document-units="px"
     inkscape:current-layer="g4182"
     showgrid="true"
     fit-margin-top="0"
     fit-margin-left="0"
     fit-margin-right="0"
     fit-margin-bottom="0"
     inkscape:window-width="1366"
     inkscape:window-height="634"
     inkscape:window-x="0"
     inkscape:window-y="36"
     inkscape:window-maximized="1"
     inkscape:showpageshadow="false"
     borderlayer="true"
     showguides="false">
    <inkscape:grid
       type="xygrid"
       id="grid4063" />
    <sodipodi:guide
       position="1.1650391e-05,32.000026"
       orientation="32,0"
       id="guide4157" />
    <sodipodi:guide
       position="1.1650391e-05,2.6367188e-05"
       orientation="0,32"
       id="guide4159" />
    <sodipodi:guide
       position="32.000012,2.6367188e-05"
       orientation="-32,0"
       id="guide4161" />
    <sodipodi:guide
       position="32.000012,32.000026"
       orientation="0,-32"
       id="guide4163" />
    <sodipodi:guide
       position="2.0000117,30.000026"
       orientation="28,0"
       id="guide4167" />
    <sodipodi:guide
       position="2.0000117,2.0000264"
       orientation="0,28"
       id="guide4169" />
    <sodipodi:guide
       position="30.000012,2.0000264"
       orientation="-28,0"
       id="guide4171" />
    <sodipodi:guide
       position="30.000012,30.000026"
       orientation="0,-28"
       id="guide4173" />
    <sodipodi:guide
       position="2.0000117,30.000026"
       orientation="28,0"
       id="guide4181" />
    <sodipodi:guide
       position="2.0000117,2.0000264"
       orientation="0,14"
       id="guide4183" />
    <sodipodi:guide
       position="16.000012,2.0000264"
       orientation="-28,0"
       id="guide4185" />
    <sodipodi:guide
       position="16.000012,30.000026"
       orientation="0,-14"
       id="guide4187" />
    <sodipodi:guide
       position="9.0000117,23.000026"
       orientation="14,0"
       id="guide4193" />
    <sodipodi:guide
       position="9.0000117,9.0000264"
       orientation="0,14.000031"
       id="guide4195" />
    <sodipodi:guide
       position="23.000042,9.0000264"
       orientation="-14,0"
       id="guide4197" />
    <sodipodi:guide
       position="23.000042,23.000026"
       orientation="0,-14.000031"
       id="guide4199" />
  </sodipodi:namedview>
  <metadata
     id="metadata5458">
    <rdf:RDF>
      <cc:Work
         rdf:about="">
        <dc:format>image/svg+xml</dc:format>
        <dc:type
           rdf:resource="http://purl.org/dc/dcmitype/StillImage" />
        <dc:title></dc:title>
      </cc:Work>
    </rdf:RDF>
  </metadata>
  <g
     inkscape:label="Capa 1"
     inkscape:groupmode="layer"
     id="layer1"
     transform="translate(-384.57143,-499.798)">
    <g
       style="display:inline;enable-background:new"
       id="g4238"
       transform="translate(225.81911,462.44565)">
      <g
         style="display:inline"
         id="layer1-8"
         transform="matrix(0.22655187,0,0,0.22655187,106.94841,54.31088)">
        <g
           style="display:none"
           id="layer6" />
        <g
           id="g4027" />
        <g
           id="g4061" />
        <g
           id="g3751" />
        <g
           id="g3782" />
        <g
           id="g3725" />
        <g
           id="g4370"
           transform="matrix(4.4140002,0,0,4.4140002,59.275211,39.357303)">
          <g
             id="g4182"
             transform="translate(-20,-25.000001)">
            <g
               id="g4183"
               transform="translate(-4.9999999,10)">
              <circle
                 style="opacity:1;fill:url(#linearGradient5299);fill-opacity:1;stroke:none;stroke-width:15.44461155;stroke-linecap:round;stroke-linejoin:round;stroke-miterlimit:4;stroke-dasharray:none;stroke-opacity:1"
                 id="path4217"
                 cx="87.375"
                 cy="13.125"
                 r="24" />
              <path
                 style="clip-rule:evenodd;fill:#ffffff;fill-opacity:0.84693879;fill-rule:evenodd;stroke-width:1.31742239;stroke-miterlimit:4;stroke-dasharray:none"
                 d="m 103.866,11.371488 c -0.0528,-0.469378 -0.60008,-0.822095 -1.07331,-0.822095 -1.53002,0 -2.887709,-0.8983786 -3.4571,-2.2877526 -0.581691,-1.423044 -0.206611,-3.08264 0.93366,-4.128616 0.35893,-0.328117 0.40254,-0.877382 0.10151,-1.258922 -0.783087,-0.994416 -1.673142,-1.89267001 -2.644946,-2.67115701 -0.380547,-0.3053816 -0.938881,-0.2628916 -1.268862,0.102498 -0.995161,1.10213101 -2.782724,1.51175001 -4.164023,0.93540201 -1.437456,-0.60467601 -2.34391,-2.06126361 -2.255202,-3.6248225 0.0292,-0.4911202 -0.329733,-0.9181327 -0.819362,-0.9751588 -1.24712,-0.1442425 -2.505173,-0.1487151 -3.75602,-0.00994 -0.484039,0.053423 -0.842968,0.4703722 -0.826692,0.9552804 0.05442,1.54815349 -0.86297,2.97927289 -2.286138,3.5622059 -1.364775,0.557464 -3.13979,0.151324 -4.132963,-0.94099301 -0.328242,-0.3597984 -0.877507,-0.4040284 -1.259917,-0.105976 -1.000628,0.785071 -1.910685,1.68407101 -2.700975,2.67028701 -0.308239,0.383404 -0.262891,0.939129 0.09964,1.268986 1.162015,1.052312 1.53722,2.72632 0.933538,4.165763 -0.576349,1.372354 -2.00138,2.2568166 -3.632774,2.2568166 -0.529386,-0.01702 -0.906454,0.338305 -0.96435,0.819611 -0.146851,1.254325 -0.14859,2.532381 -0.0072,3.796894 0.05243,0.471366 0.616354,0.820977 1.094802,0.820977 1.453855,-0.03715 2.84969,0.862971 3.435233,2.287878 0.583678,1.423043 0.208474,3.081645 -0.933539,4.128491 -0.357189,0.328117 -0.402537,0.876512 -0.101504,1.258052 0.775754,0.98808 1.665933,1.887204 2.641216,2.672152 0.382534,0.308239 0.939129,0.264755 1.270725,-0.100635 0.998889,-1.104865 2.786328,-1.513738 4.16216,-0.936271 1.441058,0.602811 2.347512,2.059275 2.258805,3.623704 -0.02895,0.491369 0.33172,0.919126 0.819362,0.975283 0.637972,0.07442 1.279795,0.111567 1.923357,0.111567 0.610888,0 1.221899,-0.03354 1.832787,-0.101504 0.484163,-0.05342 0.842843,-0.470372 0.826568,-0.95615 -0.05603,-1.547283 0.86297,-2.978402 2.284274,-3.560342 1.373969,-0.561191 3.141529,-0.150454 4.134827,0.940745 0.330105,0.359053 0.875518,0.402413 1.260041,0.105355 0.998764,-0.783208 1.906958,-1.681462 2.700972,-2.670412 0.30812,-0.382534 0.26463,-0.939129 -0.0998,-1.268862 -1.162012,-1.052311 -1.539081,-2.726568 -0.935399,-4.165017 0.567528,-1.35409 1.939629,-2.263278 3.415479,-2.263278 l 0.20649,0.0053 c 0.47869,0.03889 0.91912,-0.329857 0.97714,-0.818493 0.1471,-1.255443 0.14884,-2.532381 0.007,-3.796894 z m -16.564284,7.458119 c -3.070961,0 -5.568928,-2.497967 -5.568928,-5.568928 0,-3.070837 2.497967,-5.5689276 5.568928,-5.5689276 3.070837,0 5.568804,2.4980906 5.568804,5.5689276 0,3.070961 -2.497967,5.568928 -5.568804,5.568928 z"
                 id="path6"
                 inkscape:connector-curvature="0" />
            </g>
          </g>
        </g>
      </g>
    </g>
  </g>
</svg>
