<?xml version="1.0" encoding="UTF-8" standalone="no"?>
<svg
   xmlns:osb="http://www.openswatchbook.org/uri/2009/osb"
   xmlns:dc="http://purl.org/dc/elements/1.1/"
   xmlns:cc="http://creativecommons.org/ns#"
   xmlns:rdf="http://www.w3.org/1999/02/22-rdf-syntax-ns#"
   xmlns:svg="http://www.w3.org/2000/svg"
   xmlns="http://www.w3.org/2000/svg"
   xmlns:xlink="http://www.w3.org/1999/xlink"
   xmlns:sodipodi="http://sodipodi.sourceforge.net/DTD/sodipodi-0.dtd"
   xmlns:inkscape="http://www.inkscape.org/namespaces/inkscape"
   viewBox="0 0 48 48"
   id="svg2"
   version="1.1"
   inkscape:version="0.91 r13725"
   sodipodi:docname="azureus.svg">
  <metadata
     id="metadata77">
    <rdf:RDF>
      <cc:Work
         rdf:about="">
        <dc:format>image/svg+xml</dc:format>
        <dc:type
           rdf:resource="http://purl.org/dc/dcmitype/StillImage" />
        <dc:title></dc:title>
      </cc:Work>
    </rdf:RDF>
  </metadata>
  <sodipodi:namedview
     pagecolor="#5e5e5e"
     bordercolor="#666666"
     borderopacity="1"
     objecttolerance="10"
     gridtolerance="10"
     guidetolerance="10"
     inkscape:pageopacity="0"
     inkscape:pageshadow="2"
     inkscape:window-width="1366"
     inkscape:window-height="687"
     id="namedview75"
     showgrid="false"
     showborder="false"
     inkscape:zoom="4.9166667"
     inkscape:cx="-26.114553"
     inkscape:cy="10.152682"
     inkscape:window-x="0"
     inkscape:window-y="0"
     inkscape:window-maximized="1"
     inkscape:current-layer="svg2" />
  <defs
     id="defs4">
    <linearGradient
       osb:paint="gradient"
       id="linearGradient4207">
      <stop
         id="stop3371"
         offset="0"
         style="stop-color:#3498db;stop-opacity:1;" />
      <stop
         id="stop3373"
         offset="1"
         style="stop-color:#3498db;stop-opacity:0;" />
    </linearGradient>
    <linearGradient
       id="linearGradient4180-0">
      <stop
         style="stop-color:#2b65bd;stop-opacity:1"
         offset="0"
         id="stop4182-2" />
      <stop
         style="stop-color:#64a3dc;stop-opacity:1"
         offset="1"
         id="stop4184-3" />
    </linearGradient>
    <linearGradient
       gradientTransform="matrix(0.4943315,0,0,0.47780365,99.251683,50.118849)"
       gradientUnits="userSpaceOnUse"
       y2="-26.047026"
       x2="-125.19291"
       y1="73.496605"
       x1="-123.9715"
       id="linearGradient4738-6-8"
       xlink:href="#linearGradient4180-0"
       inkscape:collect="always" />
    <linearGradient
       id="linearGradient3828">
      <stop
         style="stop-color:#ececec;stop-opacity:1;"
         offset="0"
         id="stop3830" />
      <stop
         style="stop-color:#ffffff;stop-opacity:1;"
         offset="1"
         id="stop3832" />
    </linearGradient>
  </defs>
  <g
     id="g33" />
  <g
     id="g4166"
     transform="translate(-12.61017,-37.016949)">
    <rect
       ry="2.9819367"
       y="37.016949"
       x="12.61017"
       height="48"
       width="48"
       id="rect4177-3-1"
       style="opacity:1;fill:url(#linearGradient4738-6-8);fill-opacity:1;fill-rule:evenodd;stroke:none;stroke-width:8;stroke-linecap:round;stroke-linejoin:round;stroke-miterlimit:4;stroke-dasharray:none;stroke-dashoffset:0;stroke-opacity:1" />
  </g>
  <g
     id="g4220"
     transform="matrix(0.04445204,0.04397239,-0.04397239,0.04445204,24.722125,1.4655168)"
     style="fill:#ffffff;fill-opacity:0.84962404">
    <path
       id="path4182"
       d="m 479.708,388.306 c -4.237,-0.529 -8.219,1.294 -10.659,4.443 l -16.587,-2.075 23.895,-23.56 c 3.873,1.003 8.158,0 11.188,-3.036 4.546,-4.572 4.521,-11.959 -0.031,-16.496 -4.556,-4.543 -11.937,-4.526 -16.493,0.027 -2.999,3.016 -4,7.255 -3.027,11.099 l -21.354,21.059 7.119,-27.083 c 3.767,-1.119 6.956,-3.936 8.03,-8.024 1.635,-6.228 -2.086,-12.596 -8.309,-14.235 -6.229,-1.645 -12.608,2.086 -14.243,8.309 -1.075,4.084 0.317,8.105 3.047,10.94 l -7.735,29.412 -8.74,-31.621 c 2.703,-2.862 4.038,-6.9 2.918,-10.977 -1.722,-6.201 -8.135,-9.846 -14.343,-8.14 -11.048,3.054 -11.732,18.941 0,22.267 l 6.855,24.829 c -5.206,2.254 -41.182,17.816 -44.884,19.431 2.511,-11.028 1.948,-8.594 11.039,-48.423 0.046,0.232 0.557,-3.514 0.578,-5.395 0.655,-21.727 -19.479,-41.76 -46.648,-32.457 -1.326,0.478 0.225,-0.382 -27.782,14.393 6.501,-25.659 11.015,-53.027 13.091,-78.882 30.157,18.346 42.284,-1.996 45.582,-10.792 0.438,-1.167 36.843,-109.899 36.843,-109.899 l 24.944,-25.018 c 3.829,0.929 7.996,0.094 10.977,-2.894 4.549,-4.57 4.524,-11.957 -0.032,-16.5 -4.552,-4.539 -11.937,-4.52 -16.489,0.032 -2.981,2.998 -3.798,7.165 -2.859,10.994 l -21.685,21.748 7.279,-27.661 c 3.771,-1.127 6.957,-3.944 8.031,-8.03 1.638,-6.23 -2.083,-12.598 -8.309,-14.235 -6.229,-1.645 -12.604,2.082 -14.243,8.308 -1.074,4.082 0.317,8.103 3.05,10.938 l -7.735,29.407 -8.74,-31.614 c 2.703,-2.864 4.038,-6.902 2.918,-10.979 -1.722,-6.201 -8.139,-9.846 -14.343,-8.138 -6.208,1.714 -9.847,8.138 -8.139,14.355 1.126,4.065 4.347,6.836 8.128,7.911 l 8.044,29.098 c 0,0 -19.609,38.349 -39.034,76.356 -2.594,-2.601 -5.203,-5.213 -7.533,-7.551 -3.19,-3.195 -6.101,-6.115 -8.688,-8.71 -3.141,-18.676 -8.344,-34.419 -15.223,-47.171 2.709,-3.806 4.34,-8.432 4.34,-13.45 0,-12.854 -10.424,-23.268 -23.272,-23.268 -1.241,0 -2.431,0.177 -3.62,0.361 L 273.633,74.518 c 0.069,-0.791 0.236,-1.545 0.236,-2.348 0,-15.71 -12.713,-28.541 -28.402,-28.541 -15.688,0 -28.401,12.831 -28.401,28.541 0,0.803 0.167,1.557 0.236,2.348 l -13.19,13.192 c -1.189,-0.184 -2.379,-0.361 -3.62,-0.361 -12.848,0 -23.272,10.414 -23.272,23.268 0,5.019 1.631,9.644 4.34,13.45 -6.879,12.753 -12.082,28.495 -15.223,47.171 -2.588,2.595 -5.499,5.514 -8.689,8.71 -2.33,2.338 -4.938,4.95 -7.533,7.551 -19.425,-38.007 -39.034,-76.356 -39.034,-76.356 l 8.044,-29.098 c 3.781,-1.075 7.002,-3.846 8.128,-7.911 1.708,-6.217 -1.93,-12.641 -8.139,-14.355 -6.205,-1.708 -12.622,1.937 -14.343,8.138 -1.12,4.077 0.215,8.115 2.918,10.979 l -8.74,31.614 -7.735,-29.407 c 2.733,-2.835 4.125,-6.855 3.05,-10.938 -1.639,-6.226 -8.014,-9.953 -14.243,-8.308 -6.226,1.637 -9.947,8.005 -8.309,14.235 1.075,4.086 4.261,6.904 8.031,8.03 L 87.022,111.783 65.34,90.035 c 0.939,-3.829 0.122,-7.996 -2.859,-10.994 -4.553,-4.552 -11.937,-4.571 -16.489,-0.032 -4.556,4.543 -4.581,11.93 -0.032,16.5 2.98,2.988 7.147,3.823 10.976,2.894 l 24.944,25.018 c 0,0 36.406,108.732 36.843,109.899 3.299,8.796 15.426,29.138 45.582,10.792 2.077,25.855 6.591,53.223 13.091,78.882 -28.007,-14.774 -26.456,-13.915 -27.782,-14.393 -27.168,-9.304 -47.302,10.729 -46.647,32.457 0.021,1.881 0.532,5.628 0.578,5.395 9.091,39.829 8.528,37.395 11.039,48.423 -3.702,-1.615 -39.678,-17.177 -44.884,-19.431 l 6.855,-24.829 c 11.732,-3.327 11.048,-19.214 0,-22.267 -6.208,-1.706 -12.621,1.938 -14.343,8.14 -1.12,4.076 0.215,8.114 2.918,10.977 l -8.74,31.621 -7.735,-29.412 c 2.73,-2.835 4.122,-6.856 3.047,-10.94 -1.635,-6.222 -8.014,-9.954 -14.243,-8.309 -6.223,1.639 -9.944,8.007 -8.309,14.235 1.075,4.088 4.264,6.906 8.03,8.024 l 7.119,27.083 -21.353,-21.059 c 0.974,-3.844 -0.028,-8.083 -3.027,-11.099 -4.556,-4.553 -11.937,-4.57 -16.493,-0.027 -4.552,4.537 -4.577,11.924 -0.031,16.496 3.03,3.036 7.315,4.039 11.188,3.036 l 23.894,23.56 -16.587,2.075 c -2.44,-3.148 -6.422,-4.972 -10.659,-4.443 -6.392,0.804 -10.924,6.633 -10.128,13.009 0.797,6.384 6.627,10.922 13.026,10.136 4.237,-0.533 7.642,-3.284 9.23,-6.938 l 25.93,-3.246 c 2.735,1.52 77.314,42.958 77.314,42.958 8.08,4.489 17.998,4.048 25.647,-1.14 7.649,-5.188 11.735,-14.241 10.545,-23.406 -3.038,-23.399 -5.912,-45.436 -5.925,-45.54 1.551,1.023 42.217,28.987 62.839,43.05 8.099,8.784 16.762,14.044 25.76,14.044 8.998,0 17.661,-5.261 25.76,-14.044 20.622,-14.063 61.289,-42.027 62.839,-43.05 -0.013,0.104 -2.887,22.141 -5.925,45.54 -1.19,9.165 2.897,18.219 10.545,23.406 7.65,5.188 17.567,5.629 25.647,1.14 0,0 74.58,-41.438 77.314,-42.958 l 25.93,3.246 c 1.588,3.654 4.993,6.405 9.23,6.938 6.399,0.787 12.229,-3.752 13.025,-10.137 0.798,-6.377 -3.734,-12.206 -10.126,-13.009 z"
       inkscape:connector-curvature="0"
       style="fill:#ffffff;fill-opacity:0.84962404" />
    <g
       id="g4184"
       style="fill:#ffffff;fill-opacity:0.84962404" />
    <g
       id="g4186"
       style="fill:#ffffff;fill-opacity:0.84962404" />
    <g
       id="g4188"
       style="fill:#ffffff;fill-opacity:0.84962404" />
    <g
       id="g4190"
       style="fill:#ffffff;fill-opacity:0.84962404" />
    <g
       id="g4192"
       style="fill:#ffffff;fill-opacity:0.84962404" />
    <g
       id="g4194"
       style="fill:#ffffff;fill-opacity:0.84962404" />
    <g
       id="g4196"
       style="fill:#ffffff;fill-opacity:0.84962404" />
    <g
       id="g4198"
       style="fill:#ffffff;fill-opacity:0.84962404" />
    <g
       id="g4200"
       style="fill:#ffffff;fill-opacity:0.84962404" />
    <g
       id="g4202"
       style="fill:#ffffff;fill-opacity:0.84962404" />
    <g
       id="g4204"
       style="fill:#ffffff;fill-opacity:0.84962404" />
    <g
       id="g4206"
       style="fill:#ffffff;fill-opacity:0.84962404" />
    <g
       id="g4208"
       style="fill:#ffffff;fill-opacity:0.84962404" />
    <g
       id="g4210"
       style="fill:#ffffff;fill-opacity:0.84962404" />
    <g
       id="g4212"
       style="fill:#ffffff;fill-opacity:0.84962404" />
  </g>
</svg>
