<?xml version="1.0" encoding="UTF-8" standalone="no"?>
<!-- Created with Inkscape (http://www.inkscape.org/) -->

<svg
   xmlns:dc="http://purl.org/dc/elements/1.1/"
   xmlns:cc="http://creativecommons.org/ns#"
   xmlns:rdf="http://www.w3.org/1999/02/22-rdf-syntax-ns#"
   xmlns:svg="http://www.w3.org/2000/svg"
   xmlns="http://www.w3.org/2000/svg"
   xmlns:xlink="http://www.w3.org/1999/xlink"
   xmlns:sodipodi="http://sodipodi.sourceforge.net/DTD/sodipodi-0.dtd"
   xmlns:inkscape="http://www.inkscape.org/namespaces/inkscape"
   width="48"
   height="48"
   id="svg5453"
   version="1.1"
   inkscape:version="0.91 r13725"
   sodipodi:docname="libreoffice-main.svg">
  <defs
     id="defs5455">
    <linearGradient
       gradientTransform="matrix(0.47780364,0,0,0.47780364,107.92211,-37.773099)"
       inkscape:collect="always"
       xlink:href="#linearGradient5226"
       id="linearGradient4738-6-8-3-0-2-7"
       x1="-123.9715"
       y1="73.496605"
       x2="-125.19291"
       y2="-26.047026"
       gradientUnits="userSpaceOnUse" />
    <linearGradient
       inkscape:collect="always"
       id="linearGradient5226">
      <stop
         style="stop-color:#35373b;stop-opacity:1"
         offset="0"
         id="stop5228" />
      <stop
         style="stop-color:#5c6166;stop-opacity:1"
         offset="1"
         id="stop5230" />
    </linearGradient>
  </defs>
  <sodipodi:namedview
     id="base"
     pagecolor="#ffffff"
     bordercolor="#666666"
     borderopacity="1.0"
     inkscape:pageopacity="0"
     inkscape:pageshadow="2"
     inkscape:zoom="4"
     inkscape:cx="-39.601104"
     inkscape:cy="15.968792"
     inkscape:document-units="px"
     inkscape:current-layer="g4370"
     showgrid="true"
     fit-margin-top="0"
     fit-margin-left="0"
     fit-margin-right="0"
     fit-margin-bottom="0"
     inkscape:window-width="1366"
     inkscape:window-height="634"
     inkscape:window-x="0"
     inkscape:window-y="36"
     inkscape:window-maximized="1"
     inkscape:showpageshadow="false"
     borderlayer="true"
     showguides="false">
    <inkscape:grid
       type="xygrid"
       id="grid4063" />
    <sodipodi:guide
       position="1.1650391e-05,32.000026"
       orientation="32,0"
       id="guide4157" />
    <sodipodi:guide
       position="1.1650391e-05,2.6367188e-05"
       orientation="0,32"
       id="guide4159" />
    <sodipodi:guide
       position="32.000012,2.6367188e-05"
       orientation="-32,0"
       id="guide4161" />
    <sodipodi:guide
       position="32.000012,32.000026"
       orientation="0,-32"
       id="guide4163" />
    <sodipodi:guide
       position="2.0000117,30.000026"
       orientation="28,0"
       id="guide4167" />
    <sodipodi:guide
       position="2.0000117,2.0000264"
       orientation="0,28"
       id="guide4169" />
    <sodipodi:guide
       position="30.000012,2.0000264"
       orientation="-28,0"
       id="guide4171" />
    <sodipodi:guide
       position="30.000012,30.000026"
       orientation="0,-28"
       id="guide4173" />
    <sodipodi:guide
       position="2.0000117,30.000026"
       orientation="28,0"
       id="guide4181" />
    <sodipodi:guide
       position="2.0000117,2.0000264"
       orientation="0,14"
       id="guide4183" />
    <sodipodi:guide
       position="16.000012,2.0000264"
       orientation="-28,0"
       id="guide4185" />
    <sodipodi:guide
       position="16.000012,30.000026"
       orientation="0,-14"
       id="guide4187" />
    <sodipodi:guide
       position="9.0000117,23.000026"
       orientation="14,0"
       id="guide4193" />
    <sodipodi:guide
       position="9.0000117,9.0000264"
       orientation="0,14.000031"
       id="guide4195" />
    <sodipodi:guide
       position="23.000042,9.0000264"
       orientation="-14,0"
       id="guide4197" />
    <sodipodi:guide
       position="23.000042,23.000026"
       orientation="0,-14.000031"
       id="guide4199" />
  </sodipodi:namedview>
  <metadata
     id="metadata5458">
    <rdf:RDF>
      <cc:Work
         rdf:about="">
        <dc:format>image/svg+xml</dc:format>
        <dc:type
           rdf:resource="http://purl.org/dc/dcmitype/StillImage" />
        <dc:title></dc:title>
      </cc:Work>
    </rdf:RDF>
  </metadata>
  <g
     inkscape:label="Capa 1"
     inkscape:groupmode="layer"
     id="layer1"
     transform="translate(-384.57143,-499.798)">
    <g
       style="display:inline;enable-background:new"
       id="g4238"
       transform="translate(225.81911,462.44565)">
      <g
         style="display:inline"
         id="layer1-8"
         transform="matrix(0.22655187,0,0,0.22655187,106.94841,54.31088)">
        <g
           style="display:none"
           id="layer6" />
        <g
           id="g4027" />
        <g
           id="g4061" />
        <g
           id="g3751" />
        <g
           id="g3782" />
        <g
           id="g3725" />
        <g
           id="g4370"
           transform="matrix(4.4140002,0,0,4.4140002,59.275211,39.357303)">
          <g
             id="g4188"
             transform="translate(15.000004,24.999996)">
            <rect
               ry="2.9819367"
               y="-50.874996"
               x="24.177429"
               height="48"
               width="46.395134"
               id="rect4177-3-1-1-4-8-3"
               style="opacity:1;fill:url(#linearGradient4738-6-8-3-0-2-7);fill-opacity:1;fill-rule:evenodd;stroke:none;stroke-width:8;stroke-linecap:round;stroke-linejoin:round;stroke-miterlimit:4;stroke-dasharray:none;stroke-dashoffset:0;stroke-opacity:1" />
            <circle
               r="1.6723127"
               cy="-46.251938"
               cx="29.546852"
               id="path4181-0-7-1-5-7-7"
               style="opacity:1;fill:#fafaff;fill-opacity:0.85;fill-rule:evenodd;stroke:none;stroke-width:8;stroke-linecap:round;stroke-linejoin:round;stroke-miterlimit:4;stroke-dasharray:none;stroke-dashoffset:0;stroke-opacity:1" />
            <circle
               r="1.6723127"
               cy="-46.251724"
               cx="33.96413"
               id="path4181-5-8-3-7-3-0-2"
               style="opacity:1;fill:#fafaff;fill-opacity:0.85;fill-rule:evenodd;stroke:none;stroke-width:8;stroke-linecap:round;stroke-linejoin:round;stroke-miterlimit:4;stroke-dasharray:none;stroke-dashoffset:0;stroke-opacity:1" />
            <circle
               r="1.6723127"
               cy="-46.251724"
               cx="38.422993"
               id="path4181-50-9-0-7-6-2-6"
               style="opacity:1;fill:#fafaff;fill-opacity:0.85;fill-rule:evenodd;stroke:none;stroke-width:8;stroke-linecap:round;stroke-linejoin:round;stroke-miterlimit:4;stroke-dasharray:none;stroke-dashoffset:0;stroke-opacity:1" />
            <path
               inkscape:connector-curvature="0"
               id="path4226"
               d="m 59.995445,-21.59215 -2.334403,-2.283944 2.334403,-2.283944 c 0.33847,-0.315836 0.451224,-0.710579 0.33847,-1.184229 -0.13518,-0.462437 -0.428382,-0.750032 -0.879814,-0.862786 l -3.18037,-0.81212 0.896634,-3.146731 c 0.13518,-0.462229 0.02845,-0.857179 -0.32165,-1.184228 -0.326842,-0.349683 -0.721585,-0.456831 -1.184229,-0.321443 l -3.146316,0.896634 -0.812327,-3.180579 c -0.112754,-0.462437 -0.399934,-0.750032 -0.862371,-0.862786 -0.462645,-0.124175 -0.857388,-0.01682 -1.184229,0.321442 l -2.284152,2.351639 -2.283944,-2.351639 c -0.327049,-0.349683 -0.721792,-0.45683 -1.184229,-0.321442 -0.462437,0.112754 -0.750032,0.400349 -0.862786,0.862786 l -0.81212,3.180579 -3.14673,-0.896634 c -0.462437,-0.135388 -0.85718,-0.02824 -1.184229,0.321443 -0.349683,0.327049 -0.456831,0.721792 -0.321443,1.184228 l 0.896634,3.146731 -3.180578,0.81212 c -0.451016,0.112754 -0.744426,0.400349 -0.879606,0.862786 -0.112962,0.47365 0,0.868393 0.338262,1.184229 l 2.334611,2.283944 -2.334611,2.283944 c -0.338262,0.315836 -0.451016,0.710579 -0.338262,1.184229 0.13518,0.462437 0.42859,0.750032 0.879606,0.862787 l 3.180578,0.811912 -0.896634,3.14673 c -0.135388,0.462437 -0.02824,0.856971 0.321443,1.184228 0.327049,0.349683 0.721792,0.456623 1.184229,0.321442 l 3.14673,-0.896425 0.81212,3.18037 c 0.112754,0.462436 0.400349,0.755639 0.862786,0.879606 0.47365,0.112754 0.868393,0 1.184229,-0.338262 l 2.283944,-2.334611 2.284152,2.334818 c 0.225508,0.247727 0.513104,0.371902 0.862579,0.371902 0.07912,0 0.186054,-0.01142 0.32165,-0.03364 0.462437,-0.135388 0.749825,-0.42859 0.862579,-0.879606 l 0.811912,-3.18037 3.146523,0.896426 c 0.462644,0.13518 0.857387,0.02824 1.184229,-0.321442 0.34989,-0.327257 0.45683,-0.721999 0.32165,-1.184228 l -0.896426,-3.146731 3.180162,-0.811912 c 0.451639,-0.112754 0.744634,-0.400349 0.879814,-0.862786 0.112961,-0.473858 2.07e-4,-0.868601 -0.33847,-1.184437 l 0,0 z"
               style="fill:#ffffff;fill-opacity:0.8508065;stroke:none" />
          </g>
        </g>
      </g>
    </g>
  </g>
</svg>
