<?xml version="1.0" encoding="UTF-8" standalone="no"?>
<!-- Created with Inkscape (http://www.inkscape.org/) -->

<svg
   xmlns:dc="http://purl.org/dc/elements/1.1/"
   xmlns:cc="http://creativecommons.org/ns#"
   xmlns:rdf="http://www.w3.org/1999/02/22-rdf-syntax-ns#"
   xmlns:svg="http://www.w3.org/2000/svg"
   xmlns="http://www.w3.org/2000/svg"
   xmlns:xlink="http://www.w3.org/1999/xlink"
   xmlns:sodipodi="http://sodipodi.sourceforge.net/DTD/sodipodi-0.dtd"
   xmlns:inkscape="http://www.inkscape.org/namespaces/inkscape"
   version="1.0"
   width="48"
   height="48"
   id="svg2408"
   inkscape:version="0.91 r13725"
   sodipodi:docname="applet_lockkeys.svg">
  <sodipodi:namedview
     pagecolor="#ffffff"
     bordercolor="#666666"
     borderopacity="1"
     objecttolerance="10"
     gridtolerance="10"
     guidetolerance="10"
     inkscape:pageopacity="0"
     inkscape:pageshadow="2"
     inkscape:window-width="1366"
     inkscape:window-height="687"
     id="namedview114"
     showgrid="true"
     inkscape:zoom="6.9532167"
     inkscape:cx="15.494334"
     inkscape:cy="26.450175"
     inkscape:window-x="0"
     inkscape:window-y="0"
     inkscape:window-maximized="1"
     inkscape:current-layer="svg2408">
    <inkscape:grid
       type="xygrid"
       id="grid3171"
       empspacing="5"
       visible="true"
       enabled="true"
       snapvisiblegridlinesonly="true" />
  </sodipodi:namedview>
  <defs
     id="defs2410">
    <linearGradient
       x1="45.447727"
       y1="92.539597"
       x2="45.447727"
       y2="7.0165396"
       id="ButtonShadow"
       gradientUnits="userSpaceOnUse"
       gradientTransform="scale(1.0058652,0.994169)">
      <stop
         id="stop3750"
         style="stop-color:#000000;stop-opacity:1"
         offset="0" />
      <stop
         id="stop3752"
         style="stop-color:#000000;stop-opacity:0.58823532"
         offset="1" />
    </linearGradient>
    <filter
       color-interpolation-filters="sRGB"
       id="filter3174">
      <feGaussianBlur
         id="feGaussianBlur3176"
         stdDeviation="1.71" />
    </filter>
    <linearGradient
       inkscape:collect="always"
       xlink:href="#linearGradient4159"
       id="linearGradient4212"
       x1="-112.5251"
       y1="260.25372"
       x2="-111.09196"
       y2="154.5808"
       gradientUnits="userSpaceOnUse"
       gradientTransform="matrix(0.4335522,0,0,0.43481104,98.782983,-102.61879)" />
    <linearGradient
       inkscape:collect="always"
       id="linearGradient4159">
      <stop
         style="stop-color:#2a2c2f;stop-opacity:1"
         offset="0"
         id="stop4161" />
      <stop
         style="stop-color:#424649;stop-opacity:1"
         offset="1"
         id="stop4163" />
    </linearGradient>
  </defs>
  <metadata
     id="metadata2413">
    <rdf:RDF>
      <cc:Work
         rdf:about="">
        <dc:format>image/svg+xml</dc:format>
        <dc:type
           rdf:resource="http://purl.org/dc/dcmitype/StillImage" />
        <dc:title />
      </cc:Work>
    </rdf:RDF>
  </metadata>
  <g
     id="layer2"
     style="display:none"
     transform="translate(0,-48)">
    <rect
       width="86"
       height="85"
       rx="6"
       ry="6"
       x="5"
       y="7"
       id="rect3745"
       style="opacity:0.9;fill:url(#ButtonShadow);fill-opacity:1;fill-rule:nonzero;stroke:none;filter:url(#filter3174)" />
  </g>
  <g
     transform="translate(-384.57143,-499.798)"
     id="layer1"
     inkscape:label="Capa 1">
    <g
       transform="translate(225.81911,462.44565)"
       id="g4238"
       style="display:inline;enable-background:new">
      <g
         transform="matrix(0.22655187,0,0,0.22655187,106.94841,54.31088)"
         id="layer1-8"
         style="display:inline">
        <g
           id="layer6"
           style="display:none" />
        <g
           id="g4027" />
        <g
           id="g4061" />
        <g
           id="g3751" />
        <g
           id="g3782" />
        <g
           id="g3725" />
        <g
           transform="matrix(4.4140002,0,0,4.4140002,59.275211,39.357303)"
           id="g4370">
          <g
             transform="translate(9.9999963,10.000005)"
             id="g4182">
            <rect
               ry="3.7523136"
               y="-35.80061"
               x="28.375004"
               height="47.851208"
               width="48"
               id="rect4204"
               style="opacity:1;fill:url(#linearGradient4212);fill-opacity:1;stroke:none;stroke-width:0.60000002;stroke-linecap:round;stroke-linejoin:round;stroke-miterlimit:4;stroke-dasharray:none;stroke-dashoffset:0;stroke-opacity:1" />
            <path
               d="m 59.275,-9.2750002 0,0 -2.4,0 0,-4.7999998 2.4,0 c 2.6508,0 4.8,-2.1492 4.8,-4.8 0,-2.650802 -2.1492,-4.800002 -4.8,-4.800002 -2.6511,0 -4.8,2.1492 -4.8,4.800002 l 0,2.4 -4.8,0 0,-2.4 c 0,-2.650802 -2.1492,-4.800002 -4.8,-4.800002 -2.6508,0 -4.8,2.1492 -4.8,4.800002 0,2.6508 2.1492,4.8 4.8,4.8 l 2.4,0 0,4.7999998 -2.4,0 0,0 0,0 c -2.6508,0 -4.8,2.1492 -4.8,4.8 0,2.6508 2.1492,4.79999959 4.8,4.79999959 2.6511,0 4.8,-2.14919959 4.8,-4.79999959 l 0,0 0,-2.4 4.8,0 0,2.394 c 0,0.0024 -3e-4,0.0042 -3e-4,0.006 0,2.6508 2.1492,4.79999959 4.8,4.79999959 2.6508,0 4.8,-2.14919959 4.8,-4.79999959 0,-2.6508 -2.1489,-4.7994 -4.7997,-4.8 z m 0,-12.0000018 c 1.3254,0 2.4,1.074601 2.4,2.400002 0,1.3254 -1.0746,2.4 -2.4,2.4 l -2.4,0 0,-2.4 c 0,-1.325401 1.0746,-2.400002 2.4,-2.400002 z m -16.8,2.400002 c 0,-1.325401 1.0746,-2.400002 2.4,-2.400002 1.3254,0 2.4,1.074601 2.4,2.400002 l 0,2.4 -2.4,0 c -1.3254,0 -2.4,-1.0749 -2.4,-2.4 z m 2.4,16.7999998 c -1.3254,0 -2.4,-1.0746 -2.4,-2.4 0,-1.3254 1.0746,-2.4 2.4,-2.4 l 0,0 2.4,0 0,2.4 c 0,1.3254 -1.0746,2.4 -2.4,2.4 z m 4.8,-7.2 0,-4.7999998 4.8,0 0,4.7999998 -4.8,0 z m 9.6,7.2 c -1.3254,0 -2.4,-1.0746 -2.4,-2.4 l 0,0 0,-2.4 2.3997,0 c 1.3254,0 2.4,1.0746 2.4,2.4 0,1.3254 -1.0743,2.4 -2.3997,2.4 z"
               id="path5"
               inkscape:connector-curvature="0"
               style="fill:#ffffff;fill-opacity:0.84677423;stroke-width:1.31742239;stroke-miterlimit:4;stroke-dasharray:none" />
          </g>
        </g>
      </g>
    </g>
  </g>
</svg>
