<?xml version="1.0" encoding="UTF-8" standalone="no"?>
<!-- Created with Inkscape (http://www.inkscape.org/) -->

<svg
   xmlns:dc="http://purl.org/dc/elements/1.1/"
   xmlns:cc="http://creativecommons.org/ns#"
   xmlns:rdf="http://www.w3.org/1999/02/22-rdf-syntax-ns#"
   xmlns:svg="http://www.w3.org/2000/svg"
   xmlns="http://www.w3.org/2000/svg"
   xmlns:xlink="http://www.w3.org/1999/xlink"
   xmlns:sodipodi="http://sodipodi.sourceforge.net/DTD/sodipodi-0.dtd"
   xmlns:inkscape="http://www.inkscape.org/namespaces/inkscape"
   width="48"
   height="48"
   id="svg5453"
   version="1.1"
   inkscape:version="0.91 r13725"
   sodipodi:docname="qtlogo.svg">
  <defs
     id="defs5455">
    <linearGradient
       y2="517.79797"
       x2="400.57138"
       y1="545.79797"
       x1="400.57138"
       gradientTransform="matrix(1.0000011,0,0,1.0000011,-357.86354,-525.67349)"
       gradientUnits="userSpaceOnUse"
       id="linearGradient4224"
       xlink:href="#linearGradient4309"
       inkscape:collect="always" />
    <linearGradient
       inkscape:collect="always"
       id="linearGradient4309">
      <stop
         style="stop-color:#139702;stop-opacity:1"
         offset="0"
         id="stop4311" />
      <stop
         style="stop-color:#80e950;stop-opacity:1"
         offset="1"
         id="stop4313" />
    </linearGradient>
  </defs>
  <sodipodi:namedview
     id="base"
     pagecolor="#ffffff"
     bordercolor="#666666"
     borderopacity="1.0"
     inkscape:pageopacity="0"
     inkscape:pageshadow="2"
     inkscape:zoom="4"
     inkscape:cx="-80.941894"
     inkscape:cy="15.968792"
     inkscape:document-units="px"
     inkscape:current-layer="g4182"
     showgrid="true"
     fit-margin-top="0"
     fit-margin-left="0"
     fit-margin-right="0"
     fit-margin-bottom="0"
     inkscape:window-width="1366"
     inkscape:window-height="634"
     inkscape:window-x="0"
     inkscape:window-y="36"
     inkscape:window-maximized="1"
     inkscape:showpageshadow="false"
     borderlayer="true"
     showguides="false">
    <inkscape:grid
       type="xygrid"
       id="grid4063" />
    <sodipodi:guide
       position="1.1650391e-05,32.000026"
       orientation="32,0"
       id="guide4157" />
    <sodipodi:guide
       position="1.1650391e-05,2.6367188e-05"
       orientation="0,32"
       id="guide4159" />
    <sodipodi:guide
       position="32.000012,2.6367188e-05"
       orientation="-32,0"
       id="guide4161" />
    <sodipodi:guide
       position="32.000012,32.000026"
       orientation="0,-32"
       id="guide4163" />
    <sodipodi:guide
       position="2.0000117,30.000026"
       orientation="28,0"
       id="guide4167" />
    <sodipodi:guide
       position="2.0000117,2.0000264"
       orientation="0,28"
       id="guide4169" />
    <sodipodi:guide
       position="30.000012,2.0000264"
       orientation="-28,0"
       id="guide4171" />
    <sodipodi:guide
       position="30.000012,30.000026"
       orientation="0,-28"
       id="guide4173" />
    <sodipodi:guide
       position="2.0000117,30.000026"
       orientation="28,0"
       id="guide4181" />
    <sodipodi:guide
       position="2.0000117,2.0000264"
       orientation="0,14"
       id="guide4183" />
    <sodipodi:guide
       position="16.000012,2.0000264"
       orientation="-28,0"
       id="guide4185" />
    <sodipodi:guide
       position="16.000012,30.000026"
       orientation="0,-14"
       id="guide4187" />
    <sodipodi:guide
       position="9.0000117,23.000026"
       orientation="14,0"
       id="guide4193" />
    <sodipodi:guide
       position="9.0000117,9.0000264"
       orientation="0,14.000031"
       id="guide4195" />
    <sodipodi:guide
       position="23.000042,9.0000264"
       orientation="-14,0"
       id="guide4197" />
    <sodipodi:guide
       position="23.000042,23.000026"
       orientation="0,-14.000031"
       id="guide4199" />
  </sodipodi:namedview>
  <metadata
     id="metadata5458">
    <rdf:RDF>
      <cc:Work
         rdf:about="">
        <dc:format>image/svg+xml</dc:format>
        <dc:type
           rdf:resource="http://purl.org/dc/dcmitype/StillImage" />
        <dc:title></dc:title>
      </cc:Work>
    </rdf:RDF>
  </metadata>
  <g
     inkscape:label="Capa 1"
     inkscape:groupmode="layer"
     id="layer1"
     transform="translate(-384.57143,-499.798)">
    <g
       style="display:inline;enable-background:new"
       id="g4238"
       transform="translate(225.81911,462.44565)">
      <g
         style="display:inline"
         id="layer1-8"
         transform="matrix(0.22655187,0,0,0.22655187,106.94841,54.31088)">
        <g
           style="display:none"
           id="layer6" />
        <g
           id="g4027" />
        <g
           id="g4061" />
        <g
           id="g3751" />
        <g
           id="g3782" />
        <g
           id="g3725" />
        <g
           id="g4370"
           transform="matrix(4.4140002,0,0,4.4140002,59.275211,39.357303)">
          <g
             id="g4182"
             transform="matrix(1.7142857,0,0,1.7142857,-30.839285,-12.375017)">
            <g
               id="g4183"
               transform="translate(11.666667,-3.9223314e-7)">
              <rect
                 ry="14.000001"
                 y="-7.8749909"
                 x="28.708332"
                 height="28.000002"
                 width="28.000002"
                 id="rect4222"
                 style="opacity:1;fill:url(#linearGradient4224);fill-opacity:1;stroke:none;stroke-width:1.31742239;stroke-miterlimit:4;stroke-dasharray:none" />
              <path
                 style="clip-rule:evenodd;fill:#ffffff;fill-opacity:0.84693879;fill-rule:evenodd;stroke-width:1.31742239;stroke-miterlimit:4;stroke-dasharray:none"
                 d="M 52.386266,5.043579 C 52.355466,4.7697746 52.03622,4.564023 51.76017,4.564023 c -0.892508,0 -1.684497,-0.5240538 -2.016641,-1.3345226 -0.33932,-0.8301084 -0.120523,-1.7982067 0.544636,-2.40835878 0.209375,-0.19140217 0.234814,-0.51180617 0.05921,-0.73437176 -0.456798,-0.580076 -0.975997,-1.10405746 -1.542882,-1.55817486 -0.221986,-0.1781395 -0.547681,-0.1533537 -0.74017,0.05979 -0.580511,0.64291027 -1.623256,0.88185411 -2.429014,0.54565111 -0.838515,-0.35272761 -1.367281,-1.20240421 -1.315534,-2.11448011 0.01703,-0.2864869 -0.192345,-0.5355775 -0.477962,-0.5688427 -0.727486,-0.084141 -1.461351,-0.08675 -2.191011,-0.0058 -0.282356,0.031163 -0.491732,0.2743838 -0.482238,0.557247 0.03175,0.9030893 -0.503399,1.7379091 -1.33358,2.07795329 -0.796119,0.32518734 -1.831545,0.0882723 -2.410896,-0.54891259 -0.191474,-0.2098821 -0.511879,-0.235683 -0.734951,-0.061819 -0.5837,0.4579581 -1.114566,0.98237473 -1.575569,1.5576674 -0.179806,0.22365292 -0.153354,0.54782584 0.05812,0.74024242 0.677843,0.61384808 0.896712,1.59035278 0.544565,2.43002848 -0.336204,0.8005392 -1.167472,1.3164766 -2.119118,1.3164766 -0.308809,-0.00993 -0.528765,0.1973446 -0.562538,0.4781064 -0.08566,0.7316896 -0.08668,1.4772223 -0.0042,2.2148554 0.03058,0.2749635 0.35954,0.4789033 0.638635,0.4789033 0.848082,-0.021671 1.662319,0.5033992 2.003885,1.3345949 0.34048,0.830109 0.121611,1.7976271 -0.544564,2.4082861 -0.208361,0.191402 -0.234813,0.5113 -0.05921,0.733865 0.452523,0.57638 0.971793,1.100869 1.540708,1.558755 0.223146,0.179806 0.547826,0.15444 0.741257,-0.0587 0.582686,-0.644504 1.625358,-0.883014 2.427927,-0.546158 0.840618,0.35164 1.369383,1.201244 1.317636,2.113827 -0.01689,0.286632 0.193504,0.536158 0.477961,0.568915 0.372151,0.04341 0.746547,0.06508 1.121959,0.06508 0.356352,0 0.712775,-0.01956 1.069126,-0.05921 0.282428,-0.03116 0.491658,-0.274384 0.482165,-0.557754 -0.03269,-0.902582 0.503399,-1.737402 1.332493,-2.076867 0.801482,-0.327361 1.832559,-0.08777 2.411983,0.548768 0.192561,0.209448 0.510719,0.234741 0.735023,0.06146 0.582613,-0.456871 1.112392,-0.980853 1.575569,-1.55774 0.179734,-0.223145 0.154368,-0.547825 -0.05819,-0.74017 -0.677843,-0.613848 -0.897799,-1.5904976 -0.545652,-2.4295928 0.331058,-0.7898865 1.131453,-1.3202455 1.992363,-1.3202455 l 0.12045,0.00309 c 0.27924,0.022686 0.536158,-0.1924166 0.570003,-0.4774537 0.08581,-0.7323423 0.08682,-1.4772228 0.0044,-2.2148554 z m -9.662498,4.3505701 c -1.791394,0 -3.248541,-1.4571475 -3.248541,-3.248542 0,-1.7913216 1.457147,-3.2485414 3.248541,-3.2485414 1.791322,0 3.248469,1.4572198 3.248469,3.2485414 0,1.7913945 -1.457147,3.248542 -3.248469,3.248542 z"
                 id="path6"
                 inkscape:connector-curvature="0" />
            </g>
          </g>
        </g>
      </g>
    </g>
  </g>
</svg>
