<?xml version="1.0" encoding="UTF-8" standalone="no"?>
<!-- Created with Inkscape (http://www.inkscape.org/) -->

<svg
   xmlns:dc="http://purl.org/dc/elements/1.1/"
   xmlns:cc="http://creativecommons.org/ns#"
   xmlns:rdf="http://www.w3.org/1999/02/22-rdf-syntax-ns#"
   xmlns:svg="http://www.w3.org/2000/svg"
   xmlns="http://www.w3.org/2000/svg"
   xmlns:xlink="http://www.w3.org/1999/xlink"
   xmlns:sodipodi="http://sodipodi.sourceforge.net/DTD/sodipodi-0.dtd"
   xmlns:inkscape="http://www.inkscape.org/namespaces/inkscape"
   width="48"
   height="48"
   id="svg5453"
   version="1.1"
   inkscape:version="0.91 r13725"
   sodipodi:docname="vbox.svg">
  <defs
     id="defs5455">
    <linearGradient
       gradientTransform="matrix(0.41708448,-3.0185099e-4,3.1664978e-4,0.39759146,21.425317,-105.4018)"
       inkscape:collect="always"
       xlink:href="#linearGradient5242"
       id="linearGradient4991"
       gradientUnits="userSpaceOnUse"
       x1="0.9673245"
       y1="204.54808"
       x2="0.80734289"
       y2="147.63994" />
    <linearGradient
       id="linearGradient5242"
       inkscape:collect="always">
      <stop
         id="stop5244"
         offset="0"
         style="stop-color:#1f75d3;stop-opacity:1" />
      <stop
         id="stop5246"
         offset="1"
         style="stop-color:#2896ff;stop-opacity:1" />
    </linearGradient>
    <linearGradient
       gradientUnits="userSpaceOnUse"
       y2="253.9286"
       x2="371.47604"
       y1="473.93784"
       x1="371.47604"
       id="linearGradient4155"
       xlink:href="#linearGradient3776"
       inkscape:collect="always"
       gradientTransform="matrix(0.10924876,0,0,0.10924875,2.7081707,-51.483718)" />
    <linearGradient
       id="linearGradient3776">
      <stop
         id="stop3778"
         offset="0"
         style="stop-color:#e7f0f4;stop-opacity:1" />
      <stop
         id="stop3780"
         offset="1"
         style="stop-color:#f4faff;stop-opacity:1" />
    </linearGradient>
    <linearGradient
       inkscape:collect="always"
       xlink:href="#linearGradient4143"
       id="linearGradient5149"
       gradientUnits="userSpaceOnUse"
       x1="22.547663"
       y1="266.99716"
       x2="21.170237"
       y2="148.12303"
       gradientTransform="matrix(0.41708449,-3.0184975e-4,3.1664848e-4,0.39759146,21.418309,-105.50837)" />
    <linearGradient
       id="linearGradient4143"
       inkscape:collect="always">
      <stop
         id="stop4145"
         offset="0"
         style="stop-color:#197cf1;stop-opacity:1" />
      <stop
         id="stop4147"
         offset="1"
         style="stop-color:#20bcfa;stop-opacity:1" />
    </linearGradient>
  </defs>
  <sodipodi:namedview
     id="base"
     pagecolor="#ffffff"
     bordercolor="#666666"
     borderopacity="1.0"
     inkscape:pageopacity="0"
     inkscape:pageshadow="2"
     inkscape:zoom="4"
     inkscape:cx="-40.699706"
     inkscape:cy="15.968792"
     inkscape:document-units="px"
     inkscape:current-layer="g4182"
     showgrid="true"
     fit-margin-top="0"
     fit-margin-left="0"
     fit-margin-right="0"
     fit-margin-bottom="0"
     inkscape:window-width="1366"
     inkscape:window-height="634"
     inkscape:window-x="0"
     inkscape:window-y="36"
     inkscape:window-maximized="1"
     inkscape:showpageshadow="false"
     borderlayer="true"
     showguides="false">
    <inkscape:grid
       type="xygrid"
       id="grid4063" />
    <sodipodi:guide
       position="1.1650391e-05,32.000026"
       orientation="32,0"
       id="guide4157" />
    <sodipodi:guide
       position="1.1650391e-05,2.6367188e-05"
       orientation="0,32"
       id="guide4159" />
    <sodipodi:guide
       position="32.000012,2.6367188e-05"
       orientation="-32,0"
       id="guide4161" />
    <sodipodi:guide
       position="32.000012,32.000026"
       orientation="0,-32"
       id="guide4163" />
    <sodipodi:guide
       position="2.0000117,30.000026"
       orientation="28,0"
       id="guide4167" />
    <sodipodi:guide
       position="2.0000117,2.0000264"
       orientation="0,28"
       id="guide4169" />
    <sodipodi:guide
       position="30.000012,2.0000264"
       orientation="-28,0"
       id="guide4171" />
    <sodipodi:guide
       position="30.000012,30.000026"
       orientation="0,-28"
       id="guide4173" />
    <sodipodi:guide
       position="2.0000117,30.000026"
       orientation="28,0"
       id="guide4181" />
    <sodipodi:guide
       position="2.0000117,2.0000264"
       orientation="0,14"
       id="guide4183" />
    <sodipodi:guide
       position="16.000012,2.0000264"
       orientation="-28,0"
       id="guide4185" />
    <sodipodi:guide
       position="16.000012,30.000026"
       orientation="0,-14"
       id="guide4187" />
    <sodipodi:guide
       position="9.0000117,23.000026"
       orientation="14,0"
       id="guide4193" />
    <sodipodi:guide
       position="9.0000117,9.0000264"
       orientation="0,14.000031"
       id="guide4195" />
    <sodipodi:guide
       position="23.000042,9.0000264"
       orientation="-14,0"
       id="guide4197" />
    <sodipodi:guide
       position="23.000042,23.000026"
       orientation="0,-14.000031"
       id="guide4199" />
  </sodipodi:namedview>
  <metadata
     id="metadata5458">
    <rdf:RDF>
      <cc:Work
         rdf:about="">
        <dc:format>image/svg+xml</dc:format>
        <dc:type
           rdf:resource="http://purl.org/dc/dcmitype/StillImage" />
        <dc:title></dc:title>
      </cc:Work>
    </rdf:RDF>
  </metadata>
  <g
     inkscape:label="Capa 1"
     inkscape:groupmode="layer"
     id="layer1"
     transform="translate(-384.57143,-499.798)">
    <g
       style="display:inline;enable-background:new"
       id="g4238"
       transform="translate(225.81911,462.44565)">
      <g
         style="display:inline"
         id="layer1-8"
         transform="matrix(0.22655187,0,0,0.22655187,106.94841,54.31088)">
        <g
           style="display:none"
           id="layer6" />
        <g
           id="g4027" />
        <g
           id="g4061" />
        <g
           id="g3751" />
        <g
           id="g3782" />
        <g
           id="g3725" />
        <g
           id="g4370"
           transform="matrix(4.4140002,0,0,4.4140002,59.275211,39.357303)">
          <g
             id="g4182"
             transform="translate(5.0000535,5.0000533)">
            <g
               id="g4206"
               transform="translate(25,14.999996)">
              <path
                 sodipodi:nodetypes="ccccccc"
                 inkscape:connector-curvature="0"
                 id="path4271-0"
                 d="m 11.550863,-45.779954 19.91965,-5e-6 -7e-6,23.043049 -23.0885593,-4.6e-5 7e-6,-20.071608 c 8.4e-5,-3.190507 3.0009753,-2.971442 3.1689093,-2.971436 z"
                 style="overflow:visible;opacity:1;fill:url(#linearGradient4991);fill-opacity:1;fill-rule:evenodd;stroke:none;stroke-width:2.76384115px;stroke-linecap:butt;stroke-linejoin:miter;stroke-opacity:1" />
              <path
                 inkscape:connector-curvature="0"
                 style="overflow:visible;opacity:1;fill:url(#linearGradient5149);fill-opacity:1;fill-rule:evenodd;stroke:none;stroke-width:2.76384115px;stroke-linecap:butt;stroke-linejoin:miter;stroke-opacity:1"
                 d="m 31.396431,-45.780703 0,22.917969 -23.0214843,0 0,20.0722648 c -4e-6,3.19050701 3.0000373,2.97071001 3.1679683,2.97070401 l 19.919923,0 19.80664,0 c 0.167931,5e-6 3.168007,0.219803 3.167969,-2.97070401 l 0,-19.9472648 0.04687,0 0,-20.070313 c 5e-5,-3.190506 -3.000037,-2.972662 -3.167964,-2.972656 l -19.919922,0 z"
                 id="path4271" />
              <path
                 inkscape:connector-curvature="0"
                 style="overflow:visible;opacity:1;fill:url(#linearGradient4155);fill-opacity:1;stroke:none;stroke-width:5.23831511;stroke-linecap:butt;stroke-linejoin:miter;stroke-miterlimit:4;stroke-dasharray:none;stroke-dashoffset:0;stroke-opacity:1"
                 d="M 42.917916,-24.878359 A 13.456333,13.456333 0 0 0 29.462838,-11.421328 13.456333,13.456333 0 0 0 42.917916,2.0337498 13.456333,13.456333 0 0 0 56.374947,-11.421328 13.456333,13.456333 0 0 0 42.917916,-24.878359 Z m 3.396484,5.992187 c 0.04951,0.0025 0.108125,0.02523 0.154297,0.03906 0.23704,0.06807 0.438259,0.271295 0.505859,0.509765 l 2.451172,8.9277349 1.285157,-1.7421879 c 0.130967,-0.193849 0.329665,-0.327709 0.5625,-0.333984 l 0.953124,0 0.429688,0 0.03711,0 c 0.02817,-10e-7 0.05859,0.0304 0.05859,0.05859 l 0,1.371093 c 0,0.02815 -0.02847,0.03907 -0.05664,0.03906 l -0.03906,0 -0.429688,0 -0.582031,0 -1.886719,2.6230469 c -0.322907,0.425178 -1.128335,0.276978 -1.285156,-0.234375 l -2.236328,-7.9492189 -1.537109,5.070313 c -0.09412,0.28811 -0.398057,0.483948 -0.699219,0.490234 l -1.070312,0 -0.214844,0 -0.525391,0 -0.193359,0 -0.544922,0 -2.082031,6.8906248 c -0.104299,0.373598 -0.544693,0.621078 -0.914063,0.509765 -0.237042,-0.06819 -0.438256,-0.271232 -0.505859,-0.509765 l -2.470703,-8.9453128 -1.263672,1.742188 c -0.130971,0.193912 -0.351151,0.306224 -0.583985,0.3125 l -0.933593,0 -0.466797,0 -0.05859,0 c -0.02817,2.1e-5 -0.03906,-0.01087 -0.03906,-0.03906 l 0,-1.371093 c 0,-0.02818 0.01089,-0.0586 0.03906,-0.05859 l 0.05859,0 0.466797,0 0.583984,0 1.886719,-2.583984 c 0.322906,-0.425053 1.126385,-0.276729 1.283203,0.234374 l 2.21875,7.9492189 1.554687,-5.0898429 c 0.09412,-0.288115 0.380479,-0.50348 0.681641,-0.509766 l 1.089844,0 0.193359,0 0.525391,0 0.214844,0 0.52539,0 2.09961,-6.851563 c 0.07823,-0.280212 0.339495,-0.490444 0.623046,-0.529297 0.04726,-0.0063 0.08721,-0.01954 0.136719,-0.01953 z"
                 id="path3340" />
              <path
                 d="m 23.215961,-11.30764 c -0.0164,-1.646352 1.342655,-2.435923 1.403364,-2.475152 -0.763623,-1.11744 -1.953172,-1.27052 -2.377068,-1.288217 -1.012349,-0.102502 -1.975338,0.596019 -2.489117,0.596019 -0.512484,0 -1.305305,-0.580861 -2.144897,-0.565601 -1.103425,0.0164 -2.120851,0.641595 -2.689016,1.629822 -1.146437,1.989354 -0.293592,4.9364409 0.823798,6.5498349 0.545999,0.78975 1.197065,1.676745 2.05189,1.645057 0.823189,-0.03286 1.134478,-0.532669 2.129713,-0.532669 0.99521,0 1.274989,0.532669 2.146115,0.516318 0.885827,-0.01645 1.447036,-0.804857 1.989277,-1.597018 0.626996,-0.916194 0.885167,-1.803215 0.900402,-1.84874 -0.01968,-0.009 -1.727348,-0.663178 -1.744461,-2.6296539 z m -1.636882,-4.83145 c 0.453705,-0.550443 0.759941,-1.314116 0.676406,-2.075961 -0.653529,0.02661 -1.44569,0.435322 -1.914578,0.98452 -0.420722,0.487195 -0.789013,1.264782 -0.69032,2.011393 0.729574,0.05693 1.474305,-0.370754 1.928492,-0.919952 z"
                 id="path5"
                 inkscape:connector-curvature="0"
                 style="overflow:visible;fill:#ffffff;fill-opacity:0.8508065" />
              <path
                 style="font-style:normal;font-weight:normal;font-size:9.36996746px;line-height:125%;font-family:sans-serif;letter-spacing:0px;word-spacing:0px;overflow:visible;fill:#ffffff;fill-opacity:0.8508065;stroke:none;stroke-width:1px;stroke-linecap:butt;stroke-linejoin:miter;stroke-opacity:1"
                 inkscape:connector-curvature="0"
                 id="path5-3"
                 d="m 37.322947,-35.010454 -0.004,-3.900925 4.374839,-0.6518 0,4.552725 -4.370852,0 z m 5.099991,-4.668975 5.83166,-0.931025 0,5.6 -5.83166,0 0,-4.668975 z m 5.833073,5.468975 -0.0014,5.6 -5.83166,-0.9002 0,-4.6998 5.833072,0 z m -6.562213,4.59795 -4.371284,-0.657425 -2.28e-4,-3.940525 4.371512,0 0,4.59795 z" />
              <path
                 style="fill:#ffffff;fill-opacity:0.85;fill-rule:evenodd"
                 inkscape:connector-curvature="0"
                 d="m 20.266144,-39.960858 c -1.337166,0.04335 3.562077,6.802522 -0.211211,6.37082 3.146555,0.871801 3.867193,-3.18931 3.224559,-5.176213 -0.636333,-1.967859 -0.967246,-0.739923 -2.863941,-1.177026 -0.0567,-0.01304 -0.106505,-0.019 -0.149407,-0.01756 z m -3.749288,0.942185 c -2.068212,-0.0028 -1.002556,0.69168 -2.004456,2.360827 -0.956838,1.593903 7.558274,-1.260905 5.930993,2.305504 1.80129,-2.722805 -1.838492,-4.66351 -3.926597,-4.666211 z m 1.455076,3.051307 c -1.654882,-0.004 -3.320265,1.876506 -3.785889,3.303012 -0.641794,1.966206 0.347686,1.167601 1.62548,2.636105 1.22016,1.402805 1.137056,-7.578618 4.026198,-4.928712 -0.571825,-0.718502 -1.218059,-1.008605 -1.865789,-1.010405 z m 7.11305,0.319353 c -1.117194,0.106913 -5.192658,5.287215 -5.874889,1.925404 0.143323,3.26161 4.229308,2.69224 5.919892,1.467184 1.674951,-1.213531 0.404329,-1.149271 0.2338,-3.088508 -0.02036,-0.231504 -0.119322,-0.319381 -0.278919,-0.304112 z m -6.009596,1.079884 c -3.057752,1.144232 -1.253374,4.854313 0.43421,6.083717 1.671683,1.217971 1.21794,0.02956 3.009449,-0.731854 1.711045,-0.72717 -6.856537,-3.423011 -3.443871,-5.352015 z"
                 id="path7811" />
            </g>
          </g>
        </g>
      </g>
    </g>
  </g>
</svg>
