<?xml version="1.0" encoding="UTF-8" standalone="no"?>
<svg
   xmlns:osb="http://www.openswatchbook.org/uri/2009/osb"
   xmlns:dc="http://purl.org/dc/elements/1.1/"
   xmlns:cc="http://creativecommons.org/ns#"
   xmlns:rdf="http://www.w3.org/1999/02/22-rdf-syntax-ns#"
   xmlns:svg="http://www.w3.org/2000/svg"
   xmlns="http://www.w3.org/2000/svg"
   xmlns:xlink="http://www.w3.org/1999/xlink"
   xmlns:sodipodi="http://sodipodi.sourceforge.net/DTD/sodipodi-0.dtd"
   xmlns:inkscape="http://www.inkscape.org/namespaces/inkscape"
   width="64"
   viewBox="0 0 64 64"
   height="64"
   id="svg2"
   version="1.1"
   inkscape:version="0.91 r13725"
   sodipodi:docname="application-vnd.ms-access.svg"
   inkscape:export-filename="E:\Usuarios\David\Desktop\android.png"
   inkscape:export-xdpi="90"
   inkscape:export-ydpi="90">
  <metadata
     id="metadata14">
    <rdf:RDF>
      <cc:Work
         rdf:about="">
        <dc:format>image/svg+xml</dc:format>
        <dc:type
           rdf:resource="http://purl.org/dc/dcmitype/StillImage" />
        <dc:title />
      </cc:Work>
    </rdf:RDF>
  </metadata>
  <defs
     id="defs12">
    <linearGradient
       osb:paint="gradient"
       id="linearGradient4207">
      <stop
         id="stop3371"
         offset="0"
         style="stop-color:#3498db;stop-opacity:1;" />
      <stop
         id="stop3373"
         offset="1"
         style="stop-color:#3498db;stop-opacity:0;" />
    </linearGradient>
    <linearGradient
       inkscape:collect="always"
       xlink:href="#linearGradient4531-9"
       id="linearGradient4182"
       x1="-74.929466"
       y1="52.199436"
       x2="-75.259552"
       y2="2.3564887"
       gradientUnits="userSpaceOnUse"
       gradientTransform="matrix(1.0749904,0,0,1.0292896,56.688953,-0.01528455)" />
    <linearGradient
       inkscape:collect="always"
       id="linearGradient4531-9">
      <stop
         style="stop-color:#cd3336;stop-opacity:1"
         offset="0"
         id="stop4533-5" />
      <stop
         style="stop-color:#ed7b66;stop-opacity:1"
         offset="1"
         id="stop4535-4" />
    </linearGradient>
  </defs>
  <sodipodi:namedview
     pagecolor="#747474"
     bordercolor="#666666"
     borderopacity="1"
     objecttolerance="10"
     gridtolerance="10"
     guidetolerance="10"
     inkscape:pageopacity="1"
     inkscape:pageshadow="2"
     inkscape:window-width="1366"
     inkscape:window-height="633"
     id="namedview10"
     showgrid="false"
     inkscape:zoom="3.7276099"
     inkscape:cx="6.6346117"
     inkscape:cy="23.965891"
     inkscape:window-x="0"
     inkscape:window-y="33"
     inkscape:window-maximized="1"
     inkscape:current-layer="g4186"
     inkscape:snap-bbox="true"
     inkscape:bbox-nodes="true"
     inkscape:object-nodes="true"
     borderlayer="false"
     showguides="true"
     inkscape:snap-nodes="true"
     inkscape:object-paths="false"
     inkscape:showpageshadow="false"
     showborder="true">
    <inkscape:grid
       type="xygrid"
       id="grid4160"
       visible="true" />
    <sodipodi:guide
       position="28.888657,63.404975"
       orientation="0,35.2"
       id="guide6108" />
    <sodipodi:guide
       position="54,55.679691"
       orientation="51.200004,0"
       id="guide6112" />
    <sodipodi:guide
       position="58.527669,62"
       orientation="0,1"
       id="guide6114"
       inkscape:label=""
       inkscape:color="rgb(0,0,255)" />
    <sodipodi:guide
       position="10,4"
       orientation="-56,0"
       id="guide6116" />
    <sodipodi:guide
       position="11,4"
       orientation="-2.8421709e-014,0"
       id="guide6118" />
    <sodipodi:guide
       position="12,62"
       orientation="0,35.2"
       id="guide6120" />
    <sodipodi:guide
       position="52,2"
       orientation="0,-40"
       id="guide6126" />
    <sodipodi:guide
       position="12,62"
       orientation="0,35.2"
       id="guide6138" />
    <sodipodi:guide
       position="55,3"
       orientation="0,-40"
       id="guide6156" />
    <sodipodi:guide
       position="53,4.3973202"
       orientation="-56,0"
       id="guide6158" />
    <sodipodi:guide
       position="21,48"
       orientation="0,22"
       id="guide4238" />
    <sodipodi:guide
       position="43,48"
       orientation="22,0"
       id="guide4240" />
    <sodipodi:guide
       position="2.4144158,26.156171"
       orientation="0,-22"
       id="guide4242" />
    <sodipodi:guide
       position="21,26"
       orientation="-22,0"
       id="guide4244" />
  </sodipodi:namedview>
  <g
     id="g4186"
     transform="translate(56.391766,-0.17677665)">
    <g
       id="g4183"
       transform="translate(0,0.26550102)">
      <rect
         style="opacity:1;fill:#802924;fill-opacity:1;stroke:none;stroke-width:0.185;stroke-linecap:round;stroke-linejoin:round;stroke-miterlimit:4;stroke-dasharray:none;stroke-dashoffset:0;stroke-opacity:1"
         id="rect4162"
         width="44"
         height="7.6992903"
         x="-46.391766"
         y="54.477486"
         ry="2.5" />
      <rect
         style="opacity:1;fill:url(#linearGradient4182);fill-opacity:1;stroke:none;stroke-width:0.30000001;stroke-linecap:round;stroke-linejoin:round;stroke-miterlimit:4;stroke-dasharray:none;stroke-dashoffset:0;stroke-opacity:1"
         id="rect4174"
         width="44"
         height="52.831711"
         x="-46.391766"
         y="1.6457753"
         ry="2.5" />
      <rect
         style="opacity:1;fill:#802924;fill-opacity:1;stroke:none;stroke-width:0.185;stroke-linecap:round;stroke-linejoin:round;stroke-miterlimit:4;stroke-dasharray:none;stroke-dashoffset:0;stroke-opacity:1"
         id="rect4184"
         width="44"
         height="7.9118414"
         x="-46.391766"
         y="51.264462"
         ry="0" />
    </g>
    <path
       style="color:#000000;display:inline;overflow:visible;visibility:visible;fill:#ffffff;fill-opacity:1;fill-rule:nonzero;stroke:none;stroke-width:0.99999994;marker:none;enable-background:accumulate"
       id="path4255"
       d="m -22.820338,16.176777 -13.357142,2.357143 0,17.285714 13.357142,2.357143 0,-22 z m 2.578125,3.142857 c -0.25134,0.0024 -0.506695,0.01489 -0.76116,0.02455 l -1.03125,0.02455 0,1.988839 0,1.98884 0.392857,0.04911 c 0.783201,0.09832 2.625715,0.06884 3.85491,-0.04911 3.306728,-0.317202 5.391026,-1.225739 5.033482,-2.185268 -0.401133,-1.076502 -3.718725,-1.873713 -7.488839,-1.841518 z m 7.636161,2.700893 -0.294643,0.34375 c -0.38818,0.466675 -1.459807,0.963255 -2.774554,1.252232 -0.812353,0.17855 -1.689988,0.246136 -3.707589,0.294644 l -2.651785,0.04911 0,1.546875 0,1.522321 2.578125,-0.07366 c 2.042341,-0.04835 2.838789,-0.118353 3.756696,-0.319196 1.324478,-0.289804 2.356344,-0.706108 2.75,-1.129464 l 0.270089,-0.294643 0.04911,-1.595983 0.02455,-1.595982 z m -17.506696,1.375 0.785714,0 c 0.654453,0 0.810197,0.03056 0.859375,0.196428 0.03269,0.110286 0.49038,1.803052 1.03125,3.756697 0.54087,1.953646 1.003852,3.60426 1.03125,3.683036 0.0363,0.104332 -0.136541,0.153911 -0.613839,0.147321 -0.360392,-0.005 -0.711433,-0.04337 -0.785714,-0.07366 -0.07425,-0.03029 -0.208655,-0.439582 -0.319197,-0.908482 l -0.220982,-0.834822 -1.03125,0 -1.055803,0 -0.171875,0.761161 -0.147322,0.785714 -0.736607,0.02455 -0.712054,0.02455 0.04911,-0.196428 c 0.03449,-0.113431 0.438593,-1.553423 0.883928,-3.191964 0.445335,-1.638542 0.887779,-3.229409 0.982143,-3.560268 l 0.171875,-0.61384 z m 0.736607,1.767858 c -0.03229,0.009 -0.183079,0.506079 -0.34375,1.154017 -0.171372,0.691137 -0.33517,1.338374 -0.368304,1.448661 -0.05304,0.17649 0.0362,0.220982 0.6875,0.220982 l 0.736608,0 -0.34375,-1.350446 c -0.184698,-0.740495 -0.350531,-1.412287 -0.368304,-1.473214 z m 16.770089,0.491071 -0.34375,0.368304 c -0.896387,0.970711 -3.78929,1.58193 -7.341518,1.546875 l -1.669643,-0.02455 -0.04911,1.473214 -0.02455,1.473214 0.196428,0.07366 c 0.429314,0.129592 4.525713,-0.03562 5.549107,-0.220982 1.428629,-0.258758 2.73771,-0.700879 3.216518,-1.104911 l 0.392857,-0.34375 0.04911,-1.620535 0.02455,-1.620536 z m 0,3.535714 -0.34375,0.417411 c -0.83696,0.964296 -3.409467,1.532998 -7.022321,1.546875 l -2.0625,0 0,1.497768 0,1.497767 0.613839,0.04911 c 1.243483,0.088 1.696074,0.06822 3.216518,-0.04911 2.573032,-0.198555 4.537698,-0.721182 5.180803,-1.399553 l 0.34375,-0.368304 0.04911,-1.595982 0.02455,-1.595982 z"
       inkscape:connector-curvature="0" />
    <g
       style="font-style:normal;font-weight:normal;font-size:25px;line-height:125%;font-family:sans-serif;letter-spacing:0px;word-spacing:0px;fill:#ffffff;fill-opacity:1;stroke:none;stroke-width:1px;stroke-linecap:butt;stroke-linejoin:miter;stroke-opacity:1"
       id="text4270"
       transform="matrix(0.31680252,0,0,0.31680252,-14.291471,42.3629)">
      <path
         d="m -56.509321,55.830223 0,-12.25 2.2,0 0,1.7 0.1,0 q 0.525,-0.875 1.6,-1.475 1.1,-0.625 2.175,-0.625 2.85,0 3.875,2.35 1.5,-2.35 4.275,-2.35 2.175,0 3.275,1.4 1.1,1.375 1.1,3.75 l 0,7.5 -2.3,0 0,-7.15 q 0,-1.85 -0.675,-2.625 -0.675,-0.775 -2.05,-0.775 -1.35,0 -2.25,1.15 -0.875,1.15 -0.875,2.625 l 0,6.775 -2.3,0 0,-7.15 q 0,-1.85 -0.675,-2.625 -0.675,-0.775 -2.05,-0.775 -1.35,0 -2.25,1.15 -0.875,1.15 -0.875,2.625 l 0,6.775 -2.3,0 z"
         style="font-style:normal;font-variant:normal;font-weight:normal;font-stretch:normal;font-family:'Product Sans';-inkscape-font-specification:'Product Sans';fill:#ffffff;fill-opacity:1"
         id="path4275"
         inkscape:connector-curvature="0" />
      <path
         d="m -30.095258,56.230223 q -2.375,0 -4.1,-1.875 -1.725,-1.875 -1.725,-4.65 0,-2.775 1.725,-4.65 1.725,-1.875 4.1,-1.875 1.4,0 2.5,0.6 1.125,0.6 1.675,1.5 l 0.1,0 -0.1,-1.7 0,-5.65 2.3,0 0,17.9 -2.2,0 0,-1.7 -0.1,0 q -0.55,0.9 -1.675,1.5 -1.1,0.6 -2.5,0.6 z m 0.375,-2.1 q 1.625,0 2.75,-1.2 1.15,-1.2 1.15,-3.225 0,-2.025 -1.15,-3.225 -1.125,-1.2 -2.75,-1.2 -1.6,0 -2.75,1.225 -1.15,1.2 -1.15,3.2 0,2 1.15,3.225 1.15,1.2 2.75,1.2 z"
         style="font-style:normal;font-variant:normal;font-weight:normal;font-stretch:normal;font-family:'Product Sans';-inkscape-font-specification:'Product Sans';fill:#ffffff;fill-opacity:1"
         id="path4277"
         inkscape:connector-curvature="0" />
      <path
         d="m -14.340961,56.230223 q -1.4,0 -2.525,-0.6 -1.1,-0.6 -1.65,-1.5 l -0.1,0 0,1.7 -2.2,0 0,-17.9 2.3,0 0,5.65 -0.1,1.7 0.1,0 q 0.55,-0.9 1.65,-1.5 1.125,-0.6 2.525,-0.6 2.375,0 4.1,1.875 1.7249995,1.875 1.7249995,4.65 0,2.775 -1.7249995,4.65 -1.725,1.875 -4.1,1.875 z m -0.375,-2.1 q 1.6,0 2.75,-1.2 1.15,-1.225 1.15,-3.225 0,-2 -1.15,-3.2 -1.15,-1.225 -2.75,-1.225 -1.625,0 -2.775,1.2 -1.125,1.2 -1.125,3.225 0,2.025 1.125,3.225 1.15,1.2 2.775,1.2 z"
         style="font-style:normal;font-variant:normal;font-weight:normal;font-stretch:normal;font-family:'Product Sans';-inkscape-font-specification:'Product Sans';fill:#ffffff;fill-opacity:1"
         id="path4279"
         inkscape:connector-curvature="0" />
    </g>
  </g>
</svg>
