<?xml version="1.0" encoding="UTF-8" standalone="no"?>
<svg
   xmlns:osb="http://www.openswatchbook.org/uri/2009/osb"
   xmlns:dc="http://purl.org/dc/elements/1.1/"
   xmlns:cc="http://creativecommons.org/ns#"
   xmlns:rdf="http://www.w3.org/1999/02/22-rdf-syntax-ns#"
   xmlns:svg="http://www.w3.org/2000/svg"
   xmlns="http://www.w3.org/2000/svg"
   xmlns:xlink="http://www.w3.org/1999/xlink"
   xmlns:sodipodi="http://sodipodi.sourceforge.net/DTD/sodipodi-0.dtd"
   xmlns:inkscape="http://www.inkscape.org/namespaces/inkscape"
   width="64"
   viewBox="0 0 64 64"
   height="64"
   id="svg2"
   version="1.1"
   inkscape:version="0.91 r13725"
   sodipodi:docname="libreoffice-oasis-formula.svg"
   inkscape:export-filename="E:\Usuarios\David\Desktop\android.png"
   inkscape:export-xdpi="90"
   inkscape:export-ydpi="90">
  <metadata
     id="metadata14">
    <rdf:RDF>
      <cc:Work
         rdf:about="">
        <dc:format>image/svg+xml</dc:format>
        <dc:type
           rdf:resource="http://purl.org/dc/dcmitype/StillImage" />
        <dc:title />
      </cc:Work>
    </rdf:RDF>
  </metadata>
  <defs
     id="defs12">
    <linearGradient
       osb:paint="gradient"
       id="linearGradient4207">
      <stop
         id="stop3371"
         offset="0"
         style="stop-color:#3498db;stop-opacity:1;" />
      <stop
         id="stop3373"
         offset="1"
         style="stop-color:#3498db;stop-opacity:0;" />
    </linearGradient>
    <linearGradient
       inkscape:collect="always"
       xlink:href="#linearGradient4531"
       id="linearGradient4182"
       x1="-74.929466"
       y1="52.199436"
       x2="-75.259552"
       y2="2.3564887"
       gradientUnits="userSpaceOnUse"
       gradientTransform="matrix(1.0749904,0,0,1.0292896,56.688953,-0.01528455)" />
    <linearGradient
       id="linearGradient4531"
       inkscape:collect="always">
      <stop
         id="stop4533"
         offset="0"
         style="stop-color:#9154ae;stop-opacity:1" />
      <stop
         id="stop4535"
         offset="1"
         style="stop-color:#ba8bcf;stop-opacity:1" />
    </linearGradient>
  </defs>
  <sodipodi:namedview
     pagecolor="#747474"
     bordercolor="#666666"
     borderopacity="1"
     objecttolerance="10"
     gridtolerance="10"
     guidetolerance="10"
     inkscape:pageopacity="1"
     inkscape:pageshadow="2"
     inkscape:window-width="1366"
     inkscape:window-height="633"
     id="namedview10"
     showgrid="false"
     inkscape:zoom="5.2716365"
     inkscape:cx="20.727808"
     inkscape:cy="34.347961"
     inkscape:window-x="0"
     inkscape:window-y="33"
     inkscape:window-maximized="1"
     inkscape:current-layer="g4189"
     inkscape:snap-bbox="true"
     inkscape:bbox-nodes="true"
     inkscape:object-nodes="true"
     borderlayer="false"
     showguides="true"
     inkscape:snap-nodes="true"
     inkscape:object-paths="false"
     inkscape:showpageshadow="false"
     showborder="true">
    <inkscape:grid
       type="xygrid"
       id="grid4160"
       visible="true" />
    <sodipodi:guide
       position="28.888657,63.404975"
       orientation="0,35.2"
       id="guide6108" />
    <sodipodi:guide
       position="54,55.679691"
       orientation="51.200004,0"
       id="guide6112" />
    <sodipodi:guide
       position="58.527669,62"
       orientation="0,1"
       id="guide6114"
       inkscape:label=""
       inkscape:color="rgb(0,0,255)" />
    <sodipodi:guide
       position="10,4"
       orientation="-56,0"
       id="guide6116" />
    <sodipodi:guide
       position="11,4"
       orientation="-2.8421709e-014,0"
       id="guide6118" />
    <sodipodi:guide
       position="12,62"
       orientation="0,35.2"
       id="guide6120" />
    <sodipodi:guide
       position="52,2"
       orientation="0,-40"
       id="guide6126" />
    <sodipodi:guide
       position="12,62"
       orientation="0,35.2"
       id="guide6138" />
    <sodipodi:guide
       position="55,3"
       orientation="0,-40"
       id="guide6156" />
    <sodipodi:guide
       position="53,4.3973202"
       orientation="-56,0"
       id="guide6158" />
    <sodipodi:guide
       position="21,48"
       orientation="0,22"
       id="guide4238" />
    <sodipodi:guide
       position="43,48"
       orientation="22,0"
       id="guide4240" />
    <sodipodi:guide
       position="-10.328334,25.887902"
       orientation="0,-22"
       id="guide4242" />
    <sodipodi:guide
       position="21,26"
       orientation="-22,0"
       id="guide4244" />
  </sodipodi:namedview>
  <g
     id="g4186"
     transform="translate(56.391766,-0.17677665)">
    <g
       style="font-style:normal;font-weight:normal;font-size:9.36996746px;line-height:125%;font-family:sans-serif;letter-spacing:0px;word-spacing:0px;fill:#ffffff;fill-opacity:1;stroke:none;stroke-width:1px;stroke-linecap:butt;stroke-linejoin:miter;stroke-opacity:1"
       id="text4161"
       transform="matrix(0.81954967,0,0,0.81954967,-4.8343774,10.121731)" />
    <g
       id="g4189"
       transform="translate(0,0.26550102)">
      <rect
         style="opacity:1;fill:#41274d;fill-opacity:1;stroke:none;stroke-width:0.185;stroke-linecap:round;stroke-linejoin:round;stroke-miterlimit:4;stroke-dasharray:none;stroke-dashoffset:0;stroke-opacity:1"
         id="rect4162"
         width="44"
         height="7.6992903"
         x="-46.391766"
         y="54.477486"
         ry="2.5" />
      <rect
         style="opacity:1;fill:url(#linearGradient4182);fill-opacity:1.0;stroke:none;stroke-width:0.30000001;stroke-linecap:round;stroke-linejoin:round;stroke-miterlimit:4;stroke-dasharray:none;stroke-dashoffset:0;stroke-opacity:1"
         id="rect4174"
         width="44"
         height="52.831711"
         x="-46.391766"
         y="1.6457753"
         ry="2.5" />
      <rect
         style="opacity:1;fill:#41274d;fill-opacity:1;stroke:none;stroke-width:0.185;stroke-linecap:round;stroke-linejoin:round;stroke-miterlimit:4;stroke-dasharray:none;stroke-dashoffset:0;stroke-opacity:1"
         id="rect4184"
         width="44"
         height="7.9118414"
         x="-46.391766"
         y="51.264462"
         ry="0" />
      <g
         transform="matrix(0.81954967,0,0,0.81954967,-5.417378,10.022231)"
         id="text4269"
         style="font-style:normal;font-weight:normal;font-size:13.75px;line-height:125%;font-family:sans-serif;letter-spacing:0px;word-spacing:0px;fill:#ffffff;fill-opacity:1;stroke:none;stroke-width:1px;stroke-linecap:butt;stroke-linejoin:miter;stroke-opacity:1">
        <path
           inkscape:connector-curvature="0"
           id="path4182"
           style="font-style:normal;font-variant:normal;font-weight:normal;font-stretch:normal;font-size:10px;font-family:'Product Sans';-inkscape-font-specification:'Product Sans';fill:#ffffff;fill-opacity:1"
           d="m -34.344945,60.148785 0,-4.9 0.88,0 0,0.68 0.04,0 q 0.21,-0.35 0.64,-0.59 0.44,-0.25 0.87,-0.25 1.14,0 1.55,0.94 0.6,-0.94 1.71,-0.94 0.87,0 1.31,0.56 0.44,0.55 0.44,1.5 l 0,3 -0.92,0 0,-2.86 q 0,-0.74 -0.27,-1.05 -0.27,-0.31 -0.82,-0.31 -0.54,0 -0.9,0.46 -0.35,0.46 -0.35,1.05 l 0,2.71 -0.92,0 0,-2.86 q 0,-0.74 -0.27,-1.05 -0.27,-0.31 -0.82,-0.31 -0.54,0 -0.9,0.46 -0.35,0.46 -0.35,1.05 l 0,2.71 -0.92,0 z" />
        <path
           inkscape:connector-curvature="0"
           id="path4184"
           style="font-style:normal;font-variant:normal;font-weight:normal;font-stretch:normal;font-size:10px;font-family:'Product Sans';-inkscape-font-specification:'Product Sans';fill:#ffffff;fill-opacity:1"
           d="m -24.337914,60.308785 q -0.78,0 -1.31,-0.45 -0.52,-0.45 -0.52,-1.19 0,-0.8 0.62,-1.25 0.62,-0.46 1.53,-0.46 0.81,0 1.33,0.3 l 0,-0.14 q 0,-0.54 -0.37,-0.86 -0.37,-0.33 -0.91,-0.33 -0.4,0 -0.73,0.19 -0.32,0.19 -0.44,0.52 l -0.84,-0.36 q 0.17,-0.44 0.67,-0.81 0.5,-0.38 1.32,-0.38 0.94,0 1.56,0.55 0.62,0.55 0.62,1.55 l 0,2.96 -0.88,0 0,-0.68 -0.04,0 q -0.55,0.84 -1.61,0.84 z m 0.15,-0.84 q 0.57,0 1.03,-0.42 0.47,-0.43 0.47,-1.01 -0.39,-0.32 -1.17,-0.32 -0.67,0 -1.01,0.29 -0.34,0.29 -0.34,0.68 0,0.36 0.31,0.57 0.31,0.21 0.71,0.21 z" />
        <path
           inkscape:connector-curvature="0"
           id="path4186"
           style="font-style:normal;font-variant:normal;font-weight:normal;font-stretch:normal;font-size:10px;font-family:'Product Sans';-inkscape-font-specification:'Product Sans';fill:#ffffff;fill-opacity:1"
           d="m -18.748383,60.228785 q -0.77,0 -1.18,-0.41 -0.4,-0.41 -0.4,-1.16 l 0,-2.57 -0.86,0 0,-0.84 0.86,0 0,-1.5 0.92,0 0,1.5 1.2,0 0,0.84 -1.2,0 0,2.5 q 0,0.8 0.66,0.8 0.25,0 0.42,-0.08 l 0.32,0.79 q -0.3,0.13 -0.74,0.13 z" />
        <path
           inkscape:connector-curvature="0"
           id="path4188"
           style="font-style:normal;font-variant:normal;font-weight:normal;font-stretch:normal;font-size:10px;font-family:'Product Sans';-inkscape-font-specification:'Product Sans';fill:#ffffff;fill-opacity:1"
           d="m -16.354633,52.988785 0,2.26 -0.04,0.68 0.04,0 q 0.2,-0.35 0.63,-0.59 0.43,-0.25 0.92,-0.25 0.91,0 1.39,0.56 0.48,0.56 0.48,1.5 l 0,3 -0.92,0 0,-2.86 q 0,-1.36 -1.21,-1.36 -0.57,0 -0.93,0.46 -0.36,0.45 -0.36,1.05 l 0,2.71 -0.92,0 0,-7.16 0.92,0 z" />
      </g>
      <path
         style="opacity:0.9;fill:#41274d;fill-opacity:1"
         inkscape:connector-curvature="0"
         d="m -18.534016,34.435664 c -3.321352,-2.596997 -0.977321,-13.278949 -0.977321,-13.278949 0,0 3.635695,0 4.059375,0 0.423679,0 2.084604,-0.266384 2.084604,-2.255319 0,-2.446657 -2.029688,-2.296319 -2.029688,-2.296319 0,0 -11.126007,0 -14.946084,0 -2.453367,0 -4.667685,2.80896 -5.938725,4.818022 -0.676644,1.072992 -0.293966,1.373668 0.867985,0.867985 4.073291,-1.78368 5.221327,-1.141326 5.221327,-1.141326 0.287009,1.373667 0.382679,7.572315 -0.66273,10.018724 -1.059324,2.303278 -3.013718,5.221327 -0.143629,6.936672 2.241652,1.27104 4.592392,-1.339624 4.360052,-5.781926 -0.109338,-2.350988 -0.293967,-11.166761 -0.293967,-11.166761 l 3.74528,0 c -0.116543,1.373667 -0.75169,8.385383 -0.08872,12.540676 0.690064,6.936672 8.228087,5.590338 9.635797,1.661173 0.348387,-1.086658 0.266633,-1.920599 0.0067,-2.549534 -0.478596,-1.168412 -1.278246,-1.22979 -1.189037,-0.683355 0.05492,0.348388 0.02062,0.690064 -0.03429,0.997947 -0.164253,0.949987 -2.104981,2.439452 -3.676945,1.31229 z"
         id="path4317" />
    </g>
  </g>
</svg>
