<?xml version="1.0" encoding="UTF-8" standalone="no"?>
<svg
   xmlns:osb="http://www.openswatchbook.org/uri/2009/osb"
   xmlns:dc="http://purl.org/dc/elements/1.1/"
   xmlns:cc="http://creativecommons.org/ns#"
   xmlns:rdf="http://www.w3.org/1999/02/22-rdf-syntax-ns#"
   xmlns:svg="http://www.w3.org/2000/svg"
   xmlns="http://www.w3.org/2000/svg"
   xmlns:xlink="http://www.w3.org/1999/xlink"
   xmlns:sodipodi="http://sodipodi.sourceforge.net/DTD/sodipodi-0.dtd"
   xmlns:inkscape="http://www.inkscape.org/namespaces/inkscape"
   width="64"
   viewBox="0 0 64 64"
   height="64"
   id="svg2"
   version="1.1"
   inkscape:version="0.91 r13725"
   sodipodi:docname="text-x-bibtex.svg"
   inkscape:export-filename="E:\Usuarios\David\Desktop\android.png"
   inkscape:export-xdpi="90"
   inkscape:export-ydpi="90">
  <metadata
     id="metadata14">
    <rdf:RDF>
      <cc:Work
         rdf:about="">
        <dc:format>image/svg+xml</dc:format>
        <dc:type
           rdf:resource="http://purl.org/dc/dcmitype/StillImage" />
        <dc:title />
      </cc:Work>
    </rdf:RDF>
  </metadata>
  <defs
     id="defs12">
    <linearGradient
       osb:paint="gradient"
       id="linearGradient4207">
      <stop
         id="stop3371"
         offset="0"
         style="stop-color:#3498db;stop-opacity:1;" />
      <stop
         id="stop3373"
         offset="1"
         style="stop-color:#3498db;stop-opacity:0;" />
    </linearGradient>
    <linearGradient
       inkscape:collect="always"
       xlink:href="#linearGradient4531-9"
       id="linearGradient4182"
       x1="-74.929466"
       y1="52.199436"
       x2="-75.259552"
       y2="2.3564887"
       gradientUnits="userSpaceOnUse"
       gradientTransform="matrix(1.0749904,0,0,1.0292896,56.688954,-0.01528455)" />
    <linearGradient
       inkscape:collect="always"
       id="linearGradient4531-9">
      <stop
         style="stop-color:#8549a0;stop-opacity:1"
         offset="0"
         id="stop4533-5" />
      <stop
         style="stop-color:#c16fe3;stop-opacity:1"
         offset="1"
         id="stop4535-4" />
    </linearGradient>
  </defs>
  <sodipodi:namedview
     pagecolor="#747474"
     bordercolor="#666666"
     borderopacity="1"
     objecttolerance="10"
     gridtolerance="10"
     guidetolerance="10"
     inkscape:pageopacity="1"
     inkscape:pageshadow="2"
     inkscape:window-width="1366"
     inkscape:window-height="642"
     id="namedview10"
     showgrid="false"
     inkscape:zoom="5.2716364"
     inkscape:cx="29.093405"
     inkscape:cy="27.344418"
     inkscape:window-x="0"
     inkscape:window-y="33"
     inkscape:window-maximized="1"
     inkscape:current-layer="g4186"
     inkscape:snap-bbox="true"
     inkscape:bbox-nodes="true"
     inkscape:object-nodes="true"
     borderlayer="false"
     showguides="false"
     inkscape:snap-nodes="true"
     inkscape:object-paths="false"
     inkscape:showpageshadow="false"
     showborder="true">
    <inkscape:grid
       type="xygrid"
       id="grid4160"
       visible="true" />
    <sodipodi:guide
       position="28.888657,63.404975"
       orientation="0,35.2"
       id="guide6108" />
    <sodipodi:guide
       position="54,55.679691"
       orientation="51.200004,0"
       id="guide6112" />
    <sodipodi:guide
       position="58.527669,62"
       orientation="0,1"
       id="guide6114"
       inkscape:label=""
       inkscape:color="rgb(0,0,255)" />
    <sodipodi:guide
       position="10,4"
       orientation="-56,0"
       id="guide6116" />
    <sodipodi:guide
       position="11,4"
       orientation="-2.8421709e-014,0"
       id="guide6118" />
    <sodipodi:guide
       position="12,62"
       orientation="0,35.2"
       id="guide6120" />
    <sodipodi:guide
       position="52,2"
       orientation="0,-40"
       id="guide6126" />
    <sodipodi:guide
       position="12,62"
       orientation="0,35.2"
       id="guide6138" />
    <sodipodi:guide
       position="55,3"
       orientation="0,-40"
       id="guide6156" />
    <sodipodi:guide
       position="53,4.3973202"
       orientation="-56,0"
       id="guide6158" />
    <sodipodi:guide
       position="21,48"
       orientation="0,22"
       id="guide4238" />
    <sodipodi:guide
       position="43,48"
       orientation="22,0"
       id="guide4240" />
    <sodipodi:guide
       position="43,26"
       orientation="0,-22"
       id="guide4242" />
    <sodipodi:guide
       position="21,26"
       orientation="-22,0"
       id="guide4244" />
  </sodipodi:namedview>
  <g
     id="g4186"
     transform="translate(56.391766,-0.17677665)">
    <g
       id="g4177"
       transform="translate(0,0.26550102)">
      <rect
         style="opacity:1;fill:#3d2248;fill-opacity:1;stroke:none;stroke-width:0.185;stroke-linecap:round;stroke-linejoin:round;stroke-miterlimit:4;stroke-dasharray:none;stroke-dashoffset:0;stroke-opacity:1"
         id="rect4162"
         width="44"
         height="7.6992903"
         x="-46.391766"
         y="54.477486"
         ry="2.5" />
      <rect
         style="opacity:1;fill:url(#linearGradient4182);fill-opacity:1;stroke:none;stroke-width:0.30000001;stroke-linecap:round;stroke-linejoin:round;stroke-miterlimit:4;stroke-dasharray:none;stroke-dashoffset:0;stroke-opacity:1"
         id="rect4174"
         width="44"
         height="52.831711"
         x="-46.391766"
         y="1.6457753"
         ry="2.5" />
      <rect
         style="opacity:1;fill:#3d2248;fill-opacity:1;stroke:none;stroke-width:0.185;stroke-linecap:round;stroke-linejoin:round;stroke-miterlimit:4;stroke-dasharray:none;stroke-dashoffset:0;stroke-opacity:1"
         id="rect4184"
         width="44"
         height="7.9118414"
         x="-46.391766"
         y="51.264462"
         ry="0" />
      <g
         transform="matrix(0.81954967,0,0,0.81954967,-4.7343778,10.721775)"
         id="text4161"
         style="font-style:normal;font-weight:normal;font-size:9.36996746px;line-height:125%;font-family:sans-serif;letter-spacing:0px;word-spacing:0px;fill:#ffffff;fill-opacity:1;stroke:none;stroke-width:1px;stroke-linecap:butt;stroke-linejoin:miter;stroke-opacity:1">
        <g
           id="text4269"
           style="font-style:normal;font-weight:normal;font-size:13.75px;line-height:125%;font-family:sans-serif;letter-spacing:0px;word-spacing:0px;fill:#ffffff;fill-opacity:1;stroke:none;stroke-width:1px;stroke-linecap:butt;stroke-linejoin:miter;stroke-opacity:1">
          <path
             id="path4172"
             style="font-style:normal;font-variant:normal;font-weight:normal;font-stretch:normal;font-size:10px;font-family:'Product Sans';-inkscape-font-specification:'Product Sans';fill:#ffffff;fill-opacity:1"
             d="m -36.026804,59.82066 q -0.56,0 -1.01,-0.24 -0.44,-0.24 -0.66,-0.6 l -0.04,0 0,0.68 -0.88,0 0,-7.16 0.92,0 0,2.26 -0.04,0.68 0.04,0 q 0.22,-0.36 0.66,-0.6 0.45,-0.24 1.01,-0.24 0.95,0 1.64,0.75 0.69,0.75 0.69,1.86 0,1.11 -0.69,1.86 -0.69,0.75 -1.64,0.75 z m -0.15,-0.84 q 0.64,0 1.1,-0.48 0.46,-0.49 0.46,-1.29 0,-0.8 -0.46,-1.28 -0.46,-0.49 -1.1,-0.49 -0.65,0 -1.11,0.48 -0.45,0.48 -0.45,1.29 0,0.81 0.45,1.29 0.46,0.48 1.11,0.48 z"
             inkscape:connector-curvature="0" />
          <path
             id="path4174"
             style="font-style:normal;font-variant:normal;font-weight:normal;font-stretch:normal;font-size:10px;font-family:'Product Sans';-inkscape-font-specification:'Product Sans';fill:#ffffff;fill-opacity:1"
             d="m -31.913679,53.53066 q -0.19,0.19 -0.46,0.19 -0.27,0 -0.46,-0.19 -0.19,-0.19 -0.19,-0.46 0,-0.27 0.19,-0.46 0.19,-0.19 0.46,-0.19 0.27,0 0.46,0.19 0.19,0.19 0.19,0.46 0,0.27 -0.19,0.46 z m 0,6.13 -0.92,0 0,-4.9 0.92,0 0,4.9 z"
             inkscape:connector-curvature="0" />
          <path
             id="path4176"
             style="font-style:normal;font-variant:normal;font-weight:normal;font-stretch:normal;font-size:10px;font-family:'Product Sans';-inkscape-font-specification:'Product Sans';fill:#ffffff;fill-opacity:1"
             d="m -28.116647,59.82066 q -0.56,0 -1.01,-0.24 -0.44,-0.24 -0.66,-0.6 l -0.04,0 0,0.68 -0.88,0 0,-7.16 0.92,0 0,2.26 -0.04,0.68 0.04,0 q 0.22,-0.36 0.66,-0.6 0.45,-0.24 1.01,-0.24 0.95,0 1.64,0.75 0.69,0.75 0.69,1.86 0,1.11 -0.69,1.86 -0.69,0.75 -1.64,0.75 z m -0.15,-0.84 q 0.64,0 1.1,-0.48 0.46,-0.49 0.46,-1.29 0,-0.8 -0.46,-1.28 -0.46,-0.49 -1.1,-0.49 -0.65,0 -1.11,0.48 -0.45,0.48 -0.45,1.29 0,0.81 0.45,1.29 0.46,0.48 1.11,0.48 z"
             inkscape:connector-curvature="0" />
          <path
             id="path4178"
             style="font-style:normal;font-variant:normal;font-weight:normal;font-stretch:normal;font-size:10px;font-family:'Product Sans';-inkscape-font-specification:'Product Sans';fill:#ffffff;fill-opacity:1"
             d="m -22.981179,59.74066 q -0.77,0 -1.18,-0.41 -0.4,-0.41 -0.4,-1.16 l 0,-2.57 -0.86,0 0,-0.84 0.86,0 0,-1.5 0.92,0 0,1.5 1.2,0 0,0.84 -1.2,0 0,2.5 q 0,0.8 0.66,0.8 0.25,0 0.42,-0.08 l 0.32,0.79 q -0.3,0.13 -0.74,0.13 z"
             inkscape:connector-curvature="0" />
          <path
             id="path4180"
             style="font-style:normal;font-variant:normal;font-weight:normal;font-stretch:normal;font-size:10px;font-family:'Product Sans';-inkscape-font-specification:'Product Sans';fill:#ffffff;fill-opacity:1"
             d="m -19.404616,59.82066 q -1.11,0 -1.81,-0.74 -0.69,-0.74 -0.69,-1.87 0,-1.07 0.67,-1.84 0.68,-0.77 1.73,-0.77 1.09,0 1.74,0.71 0.66,0.71 0.66,1.9 l -0.01,0.17 -3.87,0 q 0.04,0.74 0.49,1.17 0.46,0.43 1.07,0.43 0.99,0 1.34,-0.84 l 0.82,0.34 q -0.24,0.57 -0.79,0.96 -0.55,0.38 -1.35,0.38 z m 1.32,-3.2 q -0.03,-0.42 -0.39,-0.8 -0.35,-0.38 -1.05,-0.38 -0.51,0 -0.89,0.32 -0.37,0.32 -0.51,0.86 l 2.84,0 z"
             inkscape:connector-curvature="0" />
          <path
             id="path4182"
             style="font-style:normal;font-variant:normal;font-weight:normal;font-stretch:normal;font-size:10px;font-family:'Product Sans';-inkscape-font-specification:'Product Sans';fill:#ffffff;fill-opacity:1"
             d="m -12.29071,59.66066 -1.08,0 -1.21,-1.81 -1.19,1.81 -1.08,0 1.73,-2.49 -1.69,-2.41 1.04,0 1.21,1.73 1.15,-1.73 1.08,0 -1.71,2.41 1.75,2.49 z"
             inkscape:connector-curvature="0" />
          <path
             id="path4184"
             style="font-style:normal;font-variant:normal;font-weight:normal;font-stretch:normal;font-size:10px;font-family:'Product Sans';-inkscape-font-specification:'Product Sans';fill:#ffffff;fill-opacity:1"
             d="m -9.5241473,59.74066 q -0.7699997,0 -1.1799997,-0.41 -0.4,-0.41 -0.4,-1.16 l 0,-2.57 -0.86,0 0,-0.84 0.86,0 0,-1.5 0.92,0 0,1.5 1.1999997,0 0,0.84 -1.1999997,0 0,2.5 q 0,0.8 0.6599997,0.8 0.25,0 0.42,-0.08 l 0.32,0.79 q -0.3,0.13 -0.74,0.13 z"
             inkscape:connector-curvature="0" />
        </g>
      </g>
      <g
         transform="translate(-500.85463,-513.29526)"
         id="layer1"
         inkscape:label="Capa 1"
         inkscape:transform-center-x="5.4653607"
         inkscape:transform-center-y="-9.4924686">
        <g
           transform="translate(0.41988239,0.03484499)"
           inkscape:label="Capa 1"
           id="layer1-3">
          <g
             style="fill:#3d2248;fill-opacity:1"
             id="g7381"
             transform="matrix(0.8315412,0,0,0.8315412,407.70134,516.72889)">
            <path
               id="rect4274"
               d="m 69.679821,15.282824 0,1.150299 0,1.1503 0,1.1503 25.306598,0 0,-1.1503 0,-1.1503 0,-1.150299 -25.306598,0 z m 9.741603,5.751499 0.03595,1.006512 6.901799,9.346187 -7.476949,9.202399 0,1.1503 16.104198,0 0,-5.751499 -1.1503,0 c 0,1.150299 0.298287,1.863522 -0.68299,2.552227 -1.075795,0.755023 -2.492547,0.898672 -3.738475,0.898672 l -5.931234,0 5.7515,-8.052099 -5.7515,-9.202399 3.379006,0 c 2.397333,0 5.809423,-0.221334 6.758012,2.660068 0.162158,0.492548 0.174857,1.423955 0.215681,1.941131 l 1.1503,0 0,-5.751499 -15.564995,0 z m -9.741603,1.1503 0,1.1503 8.0521,0 0,-1.1503 -8.0521,0 z m 0,3.4509 0,1.150299 10.352699,0 0,-1.150299 -10.352699,0 z m 0,3.450899 0,1.1503 12.653299,0 0,-1.1503 -12.653299,0 z m 0,3.4509 0,1.1503 12.653299,0 0,-1.1503 -12.653299,0 z m 0,3.4509 0,1.150299 10.352699,0 0,-1.150299 -10.352699,0 z m 0,3.450899 0,1.1503 6.9018,0 0,-1.1503 -6.9018,0 z"
               style="opacity:1;fill:#3d2248;fill-opacity:1;stroke:none"
               inkscape:connector-curvature="0" />
          </g>
        </g>
      </g>
    </g>
  </g>
</svg>
