<?xml version="1.0" encoding="UTF-8" standalone="no"?>
<svg
   xmlns:osb="http://www.openswatchbook.org/uri/2009/osb"
   xmlns:dc="http://purl.org/dc/elements/1.1/"
   xmlns:cc="http://creativecommons.org/ns#"
   xmlns:rdf="http://www.w3.org/1999/02/22-rdf-syntax-ns#"
   xmlns:svg="http://www.w3.org/2000/svg"
   xmlns="http://www.w3.org/2000/svg"
   xmlns:xlink="http://www.w3.org/1999/xlink"
   xmlns:sodipodi="http://sodipodi.sourceforge.net/DTD/sodipodi-0.dtd"
   xmlns:inkscape="http://www.inkscape.org/namespaces/inkscape"
   width="64"
   viewBox="0 0 64 64"
   height="64"
   id="svg2"
   version="1.1"
   inkscape:version="0.91 r13725"
   sodipodi:docname="video-mp4.svg"
   inkscape:export-filename="E:\Usuarios\David\Desktop\android.png"
   inkscape:export-xdpi="90"
   inkscape:export-ydpi="90">
  <metadata
     id="metadata14">
    <rdf:RDF>
      <cc:Work
         rdf:about="">
        <dc:format>image/svg+xml</dc:format>
        <dc:type
           rdf:resource="http://purl.org/dc/dcmitype/StillImage" />
        <dc:title />
      </cc:Work>
    </rdf:RDF>
  </metadata>
  <defs
     id="defs12">
    <linearGradient
       osb:paint="gradient"
       id="linearGradient4207">
      <stop
         id="stop3371"
         offset="0"
         style="stop-color:#3498db;stop-opacity:1;" />
      <stop
         id="stop3373"
         offset="1"
         style="stop-color:#3498db;stop-opacity:0;" />
    </linearGradient>
    <linearGradient
       inkscape:collect="always"
       xlink:href="#linearGradient5822"
       id="linearGradient4182"
       x1="-74.929466"
       y1="52.199436"
       x2="-75.259552"
       y2="2.3564887"
       gradientUnits="userSpaceOnUse"
       gradientTransform="matrix(1.0749904,0,0,1.0292896,56.688954,-0.01528455)" />
    <linearGradient
       inkscape:collect="always"
       id="linearGradient5822">
      <stop
         style="stop-color:#ff292f;stop-opacity:1"
         offset="0"
         id="stop5824" />
      <stop
         style="stop-color:#ff4f1c;stop-opacity:1"
         offset="1"
         id="stop5826" />
    </linearGradient>
  </defs>
  <sodipodi:namedview
     pagecolor="#747474"
     bordercolor="#666666"
     borderopacity="1"
     objecttolerance="10"
     gridtolerance="10"
     guidetolerance="10"
     inkscape:pageopacity="1"
     inkscape:pageshadow="2"
     inkscape:window-width="1366"
     inkscape:window-height="642"
     id="namedview10"
     showgrid="false"
     inkscape:zoom="2.6358182"
     inkscape:cx="-17.166218"
     inkscape:cy="37.748208"
     inkscape:window-x="0"
     inkscape:window-y="33"
     inkscape:window-maximized="1"
     inkscape:current-layer="g4237"
     inkscape:snap-bbox="true"
     inkscape:bbox-nodes="true"
     inkscape:object-nodes="true"
     borderlayer="false"
     showguides="false"
     inkscape:snap-nodes="true"
     inkscape:object-paths="false"
     inkscape:showpageshadow="false"
     showborder="true">
    <inkscape:grid
       type="xygrid"
       id="grid4160"
       visible="true" />
    <sodipodi:guide
       position="28.888657,63.404975"
       orientation="0,35.2"
       id="guide6108" />
    <sodipodi:guide
       position="54,55.679691"
       orientation="51.200004,0"
       id="guide6112" />
    <sodipodi:guide
       position="58.527669,62"
       orientation="0,1"
       id="guide6114"
       inkscape:label=""
       inkscape:color="rgb(0,0,255)" />
    <sodipodi:guide
       position="10,4"
       orientation="-56,0"
       id="guide6116" />
    <sodipodi:guide
       position="11,4"
       orientation="-2.8421709e-014,0"
       id="guide6118" />
    <sodipodi:guide
       position="12,62"
       orientation="0,35.2"
       id="guide6120" />
    <sodipodi:guide
       position="52,2"
       orientation="0,-40"
       id="guide6126" />
    <sodipodi:guide
       position="12,62"
       orientation="0,35.2"
       id="guide6138" />
    <sodipodi:guide
       position="55,3"
       orientation="0,-40"
       id="guide6156" />
    <sodipodi:guide
       position="53,4.3973202"
       orientation="-56,0"
       id="guide6158" />
    <sodipodi:guide
       position="21,48"
       orientation="0,22"
       id="guide4238" />
    <sodipodi:guide
       position="43,48"
       orientation="22,0"
       id="guide4240" />
    <sodipodi:guide
       position="43,26"
       orientation="0,-22"
       id="guide4242" />
    <sodipodi:guide
       position="21,26"
       orientation="-22,0"
       id="guide4244" />
  </sodipodi:namedview>
  <g
     id="g4186"
     transform="translate(56.391766,-0.17677665)">
    <g
       id="g4237"
       transform="translate(0,0.26550102)">
      <rect
         style="opacity:1;fill:#5f0c0d;fill-opacity:1;stroke:none;stroke-width:0.185;stroke-linecap:round;stroke-linejoin:round;stroke-miterlimit:4;stroke-dasharray:none;stroke-dashoffset:0;stroke-opacity:1"
         id="rect4162"
         width="44"
         height="7.6992903"
         x="-46.391766"
         y="54.477486"
         ry="2.5" />
      <rect
         style="opacity:1;fill:url(#linearGradient4182);fill-opacity:1;stroke:none;stroke-width:0.30000001;stroke-linecap:round;stroke-linejoin:round;stroke-miterlimit:4;stroke-dasharray:none;stroke-dashoffset:0;stroke-opacity:1"
         id="rect4174"
         width="44"
         height="52.831711"
         x="-46.391766"
         y="1.6457753"
         ry="2.5" />
      <rect
         style="opacity:1;fill:#5f0c0d;fill-opacity:1;stroke:none;stroke-width:0.185;stroke-linecap:round;stroke-linejoin:round;stroke-miterlimit:4;stroke-dasharray:none;stroke-dashoffset:0;stroke-opacity:1"
         id="rect4184"
         width="44"
         height="7.9118414"
         x="-46.391766"
         y="51.264462"
         ry="0" />
      <g
         transform="matrix(0.81954967,0,0,0.81954967,-4.7342867,10.221859)"
         id="text4161"
         style="font-style:normal;font-weight:normal;font-size:9.36996746px;line-height:125%;font-family:sans-serif;letter-spacing:0px;word-spacing:0px;fill:#ffffff;fill-opacity:1;stroke:none;stroke-width:1px;stroke-linecap:butt;stroke-linejoin:miter;stroke-opacity:1">
        <g
           id="text4269"
           style="font-style:normal;font-weight:normal;font-size:13.75px;line-height:125%;font-family:sans-serif;letter-spacing:0px;word-spacing:0px;fill:#ffffff;fill-opacity:1;stroke:none;stroke-width:1px;stroke-linecap:butt;stroke-linejoin:miter;stroke-opacity:1">
          <path
             inkscape:connector-curvature="0"
             id="path4236"
             style="font-style:normal;font-variant:normal;font-weight:normal;font-stretch:normal;font-size:10px;font-family:'Product Sans';-inkscape-font-specification:'Product Sans';fill:#ffffff;fill-opacity:1"
             d="m -33.736185,59.538418 0,-4.9 0.88,0 0,0.68 0.04,0 q 0.21,-0.35 0.64,-0.59 0.44,-0.25 0.87,-0.25 1.14,0 1.55,0.94 0.6,-0.94 1.71,-0.94 0.87,0 1.31,0.56 0.44,0.55 0.44,1.5 l 0,3 -0.92,0 0,-2.86 q 0,-0.74 -0.27,-1.05 -0.27,-0.31 -0.82,-0.31 -0.54,0 -0.9,0.46 -0.35,0.46 -0.35,1.05 l 0,2.71 -0.92,0 0,-2.86 q 0,-0.74 -0.27,-1.05 -0.27,-0.31 -0.82,-0.31 -0.54,0 -0.9,0.46 -0.35,0.46 -0.35,1.05 l 0,2.71 -0.92,0 z" />
          <path
             inkscape:connector-curvature="0"
             id="path4238"
             style="font-style:normal;font-variant:normal;font-weight:normal;font-stretch:normal;font-size:10px;font-family:'Product Sans';-inkscape-font-specification:'Product Sans';fill:#ffffff;fill-opacity:1"
             d="m -22.67056,59.698418 q -0.56,0 -1.01,-0.24 -0.44,-0.24 -0.66,-0.6 l -0.04,0 0.04,0.68 0,2.16 -0.92,0 0,-7.06 0.88,0 0,0.68 0.04,0 q 0.22,-0.36 0.66,-0.6 0.45,-0.24 1.01,-0.24 0.95,0 1.64,0.75 0.69,0.75 0.69,1.86 0,1.11 -0.69,1.86 -0.69,0.75 -1.64,0.75 z m -0.15,-0.84 q 0.64,0 1.1,-0.48 0.46,-0.49 0.46,-1.29 0,-0.8 -0.46,-1.28 -0.46,-0.49 -1.1,-0.49 -0.65,0 -1.11,0.48 -0.45,0.48 -0.45,1.29 0,0.81 0.45,1.29 0.46,0.48 1.11,0.48 z" />
          <path
             inkscape:connector-curvature="0"
             id="path4240"
             style="font-style:normal;font-variant:normal;font-weight:normal;font-stretch:normal;font-size:10px;font-family:'Product Sans';-inkscape-font-specification:'Product Sans';fill:#ffffff;fill-opacity:1"
             d="m -15.487903,59.538418 -0.92,0 0,-1.44 -3.25,0 0,-0.7 3.17,-4.7 1,0 0,4.54 0.88,0 0,0.86 -0.88,0 0,1.44 z m -0.92,-2.3 0,-3.19 -0.04,0 -2.17,3.19 2.21,0 z" />
        </g>
      </g>
      <g
         style="fill:#5f0c0d;fill-opacity:1"
         transform="translate(-512.39016,-513.11533)"
         id="layer1"
         inkscape:label="Capa 1"
         inkscape:transform-center-x="5.4653607"
         inkscape:transform-center-y="-9.4924686">
        <g
           style="fill:#5f0c0d;fill-opacity:1"
           transform="translate(0.41988239,0.03484499)"
           inkscape:label="Capa 1"
           id="layer1-3">
          <g
             style="fill:#5f0c0d;fill-opacity:1"
             transform="translate(-1.0905561,2.3014428)"
             id="layer1-1"
             inkscape:label="Capa 1"
             inkscape:transform-center-x="5.4653607"
             inkscape:transform-center-y="-9.4924686">
            <g
               style="fill:#5f0c0d;fill-opacity:1"
               transform="translate(0.41988239,0.03484499)"
               inkscape:label="Capa 1"
               id="layer1-3-2">
              <g
                 id="g8884"
                 transform="matrix(0.99296619,0,0,0.99296619,401.92095,506.77574)"
                 style="fill:#5f0c0d;fill-opacity:1">
                <g
                   transform="translate(32.081072,-981.7279)"
                   id="layer1-34"
                   inkscape:label="Capa 1"
                   style="fill:#5f0c0d;fill-opacity:1">
                  <g
                     style="fill:#5f0c0d;fill-opacity:1;stroke:#4f96d1;stroke-opacity:1"
                     inkscape:label="Capa 1"
                     id="layer1-0"
                     transform="matrix(0.90537551,0,0,0.90537551,-365.91682,562.06022)" />
                  <g
                     inkscape:label="Capa 1"
                     id="layer1-00"
                     transform="translate(-401.01229,510.63371)"
                     style="fill:#5f0c0d;fill-opacity:1">
                    <g
                       inkscape:label="Capa 1"
                       id="layer1-4"
                       transform="translate(5.05585,-5.251147)"
                       style="fill:#5f0c0d;fill-opacity:1">
                      <g
                         style="fill:#5f0c0d;fill-opacity:1;stroke:#000000;stroke-opacity:0.8"
                         inkscape:label="Capa 1"
                         id="layer1-9"
                         transform="translate(-11.317,5.8824915)">
                        <g
                           inkscape:label="Capa 1"
                           id="layer1-79"
                           transform="translate(1.8733025,-0.28410538)"
                           style="fill:#5f0c0d;fill-opacity:1">
                          <g
                             inkscape:label="Capa 1"
                             id="layer1-2-8"
                             transform="translate(-2.0518724,-0.97858527)"
                             style="fill:#5f0c0d;fill-opacity:1">
                            <path
                               id="path14795"
                               d="m 472.46517,492.17042 -1.09633,0 c -0.26036,0 -0.4714,0.21106 -0.4714,0.4714 l 0,0.58667 c 0,0.26032 -0.21105,0.47139 -0.47141,0.47139 l -1.02223,0 c -0.26034,0 -0.4714,-0.21107 -0.4714,-0.47139 l 0,-0.58667 c 0,-0.26034 -0.21101,-0.4714 -0.4714,-0.4714 l -12.30814,0 c -0.26036,0 -0.4714,0.21106 -0.4714,0.4714 l 0,0.58667 c 0,0.26032 -0.21105,0.47139 -0.47139,0.47139 l -1.02225,0 c -0.26034,0 -0.4714,-0.21107 -0.4714,-0.47139 l 0,-0.58667 c 0,-0.26034 -0.21103,-0.4714 -0.47139,-0.4714 l -1.05947,0 c -0.26037,0 -0.4714,0.21106 -0.4714,0.4714 l 0,21.21304 c 0,0.26037 0.21103,0.4714 0.4714,0.4714 l 1.05947,0 c 0.26036,0 0.47139,-0.21103 0.47139,-0.4714 l 0,-0.43098 c 0,-0.26034 0.21106,-0.47139 0.4714,-0.47139 l 1.02225,0 c 0.26034,0 0.47139,0.21105 0.47139,0.47139 l 0,0.43098 c 0,0.26037 0.21104,0.4714 0.4714,0.4714 l 12.30814,0 c 0.26039,0 0.4714,-0.21103 0.4714,-0.4714 l 0,-0.43098 c 0,-0.26034 0.21106,-0.47139 0.4714,-0.47139 l 1.02223,0 c 0.26036,0 0.47141,0.21105 0.47141,0.47139 l 0,0.43098 c 0,0.26037 0.21104,0.4714 0.4714,0.4714 l 1.09633,0 c 0.26036,0 0.47141,-0.21103 0.47141,-0.4714 l 0,-21.21304 c 0,-0.26032 -0.21105,-0.4714 -0.47141,-0.4714 z m -16.78371,18.0398 c 0,0.26034 -0.21105,0.47139 -0.47139,0.47139 l -1.02225,0 c -0.26034,0 -0.4714,-0.21105 -0.4714,-0.47139 l 0,-1.02226 c 0,-0.26032 0.21106,-0.47139 0.4714,-0.47139 l 1.02225,0 c 0.26034,0 0.47139,0.21107 0.47139,0.47139 l 0,1.02226 z m 0,-4.23592 c 0,0.26032 -0.21105,0.47139 -0.47139,0.47139 l -1.02225,0 c -0.26034,0 -0.4714,-0.21107 -0.4714,-0.47139 l 0,-1.02227 c 0,-0.26032 0.21106,-0.4714 0.4714,-0.4714 l 1.02225,0 c 0.26034,0 0.47139,0.21108 0.47139,0.4714 l 0,1.02227 z m 0,-4.23594 c 0,0.26036 -0.21105,0.4714 -0.47139,0.4714 l -1.02225,0 c -0.26034,0 -0.4714,-0.21104 -0.4714,-0.4714 l 0,-1.02225 c 0,-0.26034 0.21106,-0.47139 0.4714,-0.47139 l 1.02225,0 c 0.26034,0 0.47139,0.21105 0.47139,0.47139 l 0,1.02225 z m 0,-4.23591 c 0,0.26034 -0.21105,0.47139 -0.47139,0.47139 l -1.02225,0 c -0.26034,0 -0.4714,-0.21105 -0.4714,-0.47139 l 0,-1.02223 c 0,-0.26035 0.21106,-0.47142 0.4714,-0.47142 l 1.02225,0 c 0.26034,0 0.47139,0.21107 0.47139,0.47142 l 0,1.02223 z m 11.21262,14.33168 c 0,0.26038 -0.21103,0.4714 -0.47139,0.4714 l -8.19465,0 c -0.26036,0 -0.4714,-0.21102 -0.4714,-0.4714 l 0,-3.78823 c 0,-0.26034 0.21104,-0.47139 0.4714,-0.47139 l 8.19465,0 c 0.26036,0 0.47139,0.21105 0.47139,0.47139 l 0,3.78823 0,0 z m 0,-6.69166 c 0,0.26034 -0.21103,0.47139 -0.47139,0.47139 l -8.19465,0 c -0.26036,0 -0.4714,-0.21105 -0.4714,-0.47139 l 0,-3.78823 c 0,-0.26035 0.21104,-0.4714 0.4714,-0.4714 l 8.19465,0 c 0.26036,0 0.47139,0.21105 0.47139,0.4714 l 0,3.78823 0,0 z m 0,-6.69171 c 0,0.26036 -0.21103,0.47139 -0.47139,0.47139 l -8.19465,0 c -0.26036,0 -0.4714,-0.21103 -0.4714,-0.47139 l 0,-3.78823 c 0,-0.26032 0.21104,-0.4714 0.4714,-0.4714 l 8.19465,0 c 0.26036,0 0.47139,0.21108 0.47139,0.4714 l 0,3.78823 0,0 z m 4.00338,11.75946 c 0,0.26034 -0.21105,0.47139 -0.47139,0.47139 l -1.02225,0 c -0.26034,0 -0.4714,-0.21105 -0.4714,-0.47139 l 0,-1.02226 c 0,-0.26032 0.21106,-0.47139 0.4714,-0.47139 l 1.02225,0 c 0.26034,0 0.47139,0.21107 0.47139,0.47139 l 0,1.02226 z m 0,-4.23592 c 0,0.26032 -0.21105,0.47139 -0.47139,0.47139 l -1.02225,0 c -0.26034,0 -0.4714,-0.21107 -0.4714,-0.47139 l 0,-1.02227 c 0,-0.26032 0.21106,-0.4714 0.4714,-0.4714 l 1.02225,0 c 0.26034,0 0.47139,0.21108 0.47139,0.4714 l 0,1.02227 z m 0,-4.23594 c 0,0.26036 -0.21105,0.4714 -0.47139,0.4714 l -1.02225,0 c -0.26034,0 -0.4714,-0.21104 -0.4714,-0.4714 l 0,-1.02225 c 0,-0.26034 0.21106,-0.47139 0.4714,-0.47139 l 1.02225,0 c 0.26034,0 0.47139,0.21105 0.47139,0.47139 l 0,1.02225 z m 0,-4.23591 c 0,0.26034 -0.21105,0.47139 -0.47139,0.47139 l -1.02225,0 c -0.26034,0 -0.4714,-0.21105 -0.4714,-0.47139 l 0,-1.02223 c 0,-0.26035 0.21106,-0.47142 0.4714,-0.47142 l 1.02225,0 c 0.26034,0 0.47139,0.21107 0.47139,0.47142 l 0,1.02223 z"
                               inkscape:connector-curvature="0"
                               style="display:inline;fill:#5f0c0d;fill-opacity:1;stroke:none;stroke-width:46.76432037;stroke-miterlimit:4;stroke-dasharray:none;stroke-opacity:1" />
                          </g>
                        </g>
                      </g>
                    </g>
                  </g>
                </g>
              </g>
            </g>
          </g>
        </g>
      </g>
    </g>
  </g>
</svg>
