<?xml version="1.0" encoding="UTF-8" standalone="no"?>
<!-- Created with Inkscape (http://www.inkscape.org/) -->

<svg
   xmlns:sketch="http://www.bohemiancoding.com/sketch/ns"
   xmlns:osb="http://www.openswatchbook.org/uri/2009/osb"
   xmlns:dc="http://purl.org/dc/elements/1.1/"
   xmlns:cc="http://creativecommons.org/ns#"
   xmlns:rdf="http://www.w3.org/1999/02/22-rdf-syntax-ns#"
   xmlns:svg="http://www.w3.org/2000/svg"
   xmlns="http://www.w3.org/2000/svg"
   xmlns:xlink="http://www.w3.org/1999/xlink"
   xmlns:sodipodi="http://sodipodi.sourceforge.net/DTD/sodipodi-0.dtd"
   xmlns:inkscape="http://www.inkscape.org/namespaces/inkscape"
   width="48"
   height="48"
   id="svg5453"
   version="1.1"
   inkscape:version="0.91 r13725"
   sodipodi:docname="drive-harddisk-chakra.svg">
  <defs
     id="defs5455">
    <linearGradient
       id="linearGradient4207"
       osb:paint="gradient">
      <stop
         style="stop-color:#3498db;stop-opacity:1;"
         offset="0"
         id="stop3371" />
      <stop
         style="stop-color:#3498db;stop-opacity:0;"
         offset="1"
         id="stop3373" />
    </linearGradient>
    <linearGradient
       inkscape:collect="always"
       xlink:href="#linearGradient3687"
       id="linearGradient4197"
       gradientUnits="userSpaceOnUse"
       x1="10.09375"
       y1="107.36093"
       x2="122.719"
       y2="107.36093"
       gradientTransform="matrix(0.24841536,0,0,0.24427878,433.38377,517.17091)" />
    <linearGradient
       id="linearGradient3687">
      <stop
         id="stop3689"
         offset="0"
         style="stop-color:#1a1a1a;stop-opacity:1" />
      <stop
         style="stop-color:#2c2c2e;stop-opacity:1"
         offset="0.11054216"
         id="stop3691" />
      <stop
         style="stop-color:#2b2b2d;stop-opacity:1"
         offset="0.29001436"
         id="stop3693" />
      <stop
         style="stop-color:#2a2b2d;stop-opacity:1"
         offset="0.5118711"
         id="stop3695" />
      <stop
         style="stop-color:#2b2b2d;stop-opacity:1"
         offset="0.75173318"
         id="stop3699" />
      <stop
         id="stop3701"
         offset="0.89659214"
         style="stop-color:#323232;stop-opacity:1" />
      <stop
         id="stop3703"
         offset="1"
         style="stop-color:#171717;stop-opacity:1" />
    </linearGradient>
    <linearGradient
       inkscape:collect="always"
       xlink:href="#linearGradient4992"
       id="linearGradient4998"
       x1="449.42804"
       y1="540.74573"
       x2="449.54932"
       y2="518.40662"
       gradientUnits="userSpaceOnUse" />
    <linearGradient
       inkscape:collect="always"
       id="linearGradient4992">
      <stop
         style="stop-color:#bbbec4;stop-opacity:1"
         offset="0"
         id="stop4994" />
      <stop
         style="stop-color:#dddfe2;stop-opacity:1"
         offset="1"
         id="stop4996" />
    </linearGradient>
    <linearGradient
       inkscape:collect="always"
       xlink:href="#linearGradient4180"
       id="linearGradient4735"
       x1="451.02078"
       y1="544.14978"
       x2="451.02078"
       y2="543.0885"
       gradientUnits="userSpaceOnUse"
       gradientTransform="matrix(0.50539571,0,0,1,229.14839,2.1665552)" />
    <linearGradient
       inkscape:collect="always"
       xlink:href="#linearGradient4957"
       id="linearGradient4963"
       x1="467.17453"
       y1="546.84698"
       x2="467.17453"
       y2="544.72443"
       gradientUnits="userSpaceOnUse"
       gradientTransform="translate(0,0.10639487)" />
    <linearGradient
       inkscape:collect="always"
       id="linearGradient4957">
      <stop
         style="stop-color:#040404;stop-opacity:1"
         offset="0"
         id="stop4959" />
      <stop
         style="stop-color:#121212;stop-opacity:0.90816325"
         offset="1"
         id="stop4961" />
    </linearGradient>
    <linearGradient
       id="linearGradient4180">
      <stop
         id="stop4182"
         offset="0"
         style="stop-color:#007aac;stop-opacity:1" />
      <stop
         id="stop4184"
         offset="1"
         style="stop-color:#00a0e2;stop-opacity:1" />
    </linearGradient>
    <linearGradient
       id="linearGradient4232">
      <stop
         style="stop-color:#3889e9;stop-opacity:1"
         offset="0"
         id="stop4234-0" />
      <stop
         style="stop-color:#5ea5fb;stop-opacity:1"
         offset="1"
         id="stop4236" />
    </linearGradient>
    <linearGradient
       gradientUnits="userSpaceOnUse"
       y2="517.79797"
       x2="399.57144"
       y1="545.79797"
       x1="399.57144"
       id="linearGradient3426"
       xlink:href="#linearGradient4232"
       inkscape:collect="always" />
    <style
       id="current-color-scheme"
       type="text/css">.ColorScheme-Text {
        color:#31363b;
      }
      .ColorScheme-Background{
        color:#eff0f1;
      }
      .ColorScheme-ViewText {
        color:#31363b;
      }
      .ColorScheme-ViewBackground{
        color:#fcfcfc;
      }
      .ColorScheme-ViewHover {
        color:#3daee9;
      }
      .ColorScheme-ViewFocus{
        color:#3daee9;
      }
      .ColorScheme-ButtonText {
        color:#31363b;
      }
      .ColorScheme-ButtonBackground{
        color:#eff0f1;
      }
      .ColorScheme-ButtonHover {
        color:#3daee9;
      }
      .ColorScheme-ButtonFocus{
        color:#3daee9;
      }</style>
    <style
       id="current-color-scheme-8"
       type="text/css">.ColorScheme-Text {
        color:#31363b;
      }
      .ColorScheme-Background{
        color:#eff0f1;
      }
      .ColorScheme-ViewText {
        color:#31363b;
      }
      .ColorScheme-ViewBackground{
        color:#fcfcfc;
      }
      .ColorScheme-ViewHover {
        color:#3daee9;
      }
      .ColorScheme-ViewFocus{
        color:#3daee9;
      }
      .ColorScheme-ButtonText {
        color:#31363b;
      }
      .ColorScheme-ButtonBackground{
        color:#eff0f1;
      }
      .ColorScheme-ButtonHover {
        color:#3daee9;
      }
      .ColorScheme-ButtonFocus{
        color:#3daee9;
      }</style>
    <style
       id="current-color-scheme-7"
       type="text/css">.ColorScheme-Text {
        color:#31363b;
      }
      .ColorScheme-Background{
        color:#eff0f1;
      }
      .ColorScheme-ViewText {
        color:#31363b;
      }
      .ColorScheme-ViewBackground{
        color:#fcfcfc;
      }
      .ColorScheme-ViewHover {
        color:#3daee9;
      }
      .ColorScheme-ViewFocus{
        color:#3daee9;
      }
      .ColorScheme-ButtonText {
        color:#31363b;
      }
      .ColorScheme-ButtonBackground{
        color:#eff0f1;
      }
      .ColorScheme-ButtonHover {
        color:#3daee9;
      }
      .ColorScheme-ButtonFocus{
        color:#3daee9;
      }</style>
    <style
       id="current-color-scheme-5"
       type="text/css">.ColorScheme-Text {
        color:#31363b;
      }
      .ColorScheme-Background{
        color:#eff0f1;
      }
      .ColorScheme-ViewText {
        color:#31363b;
      }
      .ColorScheme-ViewBackground{
        color:#fcfcfc;
      }
      .ColorScheme-ViewHover {
        color:#3daee9;
      }
      .ColorScheme-ViewFocus{
        color:#3daee9;
      }
      .ColorScheme-ButtonText {
        color:#31363b;
      }
      .ColorScheme-ButtonBackground{
        color:#eff0f1;
      }
      .ColorScheme-ButtonHover {
        color:#3daee9;
      }
      .ColorScheme-ButtonFocus{
        color:#3daee9;
      }</style>
    <style
       id="current-color-scheme-8-6"
       type="text/css">.ColorScheme-Text {
        color:#31363b;
      }
      .ColorScheme-Background{
        color:#eff0f1;
      }
      .ColorScheme-ViewText {
        color:#31363b;
      }
      .ColorScheme-ViewBackground{
        color:#fcfcfc;
      }
      .ColorScheme-ViewHover {
        color:#3daee9;
      }
      .ColorScheme-ViewFocus{
        color:#3daee9;
      }
      .ColorScheme-ButtonText {
        color:#31363b;
      }
      .ColorScheme-ButtonBackground{
        color:#eff0f1;
      }
      .ColorScheme-ButtonHover {
        color:#3daee9;
      }
      .ColorScheme-ButtonFocus{
        color:#3daee9;
      }</style>
    <style
       id="current-color-scheme-7-7"
       type="text/css">.ColorScheme-Text {
        color:#31363b;
      }
      .ColorScheme-Background{
        color:#eff0f1;
      }
      .ColorScheme-ViewText {
        color:#31363b;
      }
      .ColorScheme-ViewBackground{
        color:#fcfcfc;
      }
      .ColorScheme-ViewHover {
        color:#3daee9;
      }
      .ColorScheme-ViewFocus{
        color:#3daee9;
      }
      .ColorScheme-ButtonText {
        color:#31363b;
      }
      .ColorScheme-ButtonBackground{
        color:#eff0f1;
      }
      .ColorScheme-ButtonHover {
        color:#3daee9;
      }
      .ColorScheme-ButtonFocus{
        color:#3daee9;
      }</style>
  </defs>
  <sodipodi:namedview
     id="base"
     pagecolor="#ffffff"
     bordercolor="#666666"
     borderopacity="1.0"
     inkscape:pageopacity="0"
     inkscape:pageshadow="2"
     inkscape:zoom="6.515625"
     inkscape:cx="33.822115"
     inkscape:cy="28.773663"
     inkscape:document-units="px"
     inkscape:current-layer="layer1"
     showgrid="false"
     fit-margin-top="0"
     fit-margin-left="0"
     fit-margin-right="0"
     fit-margin-bottom="0"
     inkscape:window-width="1366"
     inkscape:window-height="625"
     inkscape:window-x="0"
     inkscape:window-y="37"
     inkscape:window-maximized="0"
     inkscape:showpageshadow="false"
     borderlayer="true"
     showguides="true">
    <inkscape:grid
       type="xygrid"
       id="grid4063"
       originx="8"
       originy="8"
       empspacing="2" />
    <sodipodi:guide
       position="64,64"
       orientation="0,-64"
       id="guide4200" />
    <sodipodi:guide
       position="6,58"
       orientation="52,0"
       id="guide4202" />
    <sodipodi:guide
       position="6,6"
       orientation="0,52"
       id="guide4204" />
    <sodipodi:guide
       position="58,6"
       orientation="-52,0"
       id="guide4206" />
    <sodipodi:guide
       position="-48.805755,108.35492"
       orientation="0,1"
       id="guide4198" />
  </sodipodi:namedview>
  <metadata
     id="metadata5458">
    <rdf:RDF>
      <cc:Work
         rdf:about="">
        <dc:format>image/svg+xml</dc:format>
        <dc:type
           rdf:resource="http://purl.org/dc/dcmitype/StillImage" />
        <dc:title></dc:title>
      </cc:Work>
    </rdf:RDF>
  </metadata>
  <g
     inkscape:label="Capa 1"
     inkscape:groupmode="layer"
     id="layer1"
     transform="translate(-376.57144,-507.79797)">
    <g
       transform="matrix(1.6667192,0,0,1.6667192,-360.38848,-358.28827)"
       id="g3826">
      <path
         inkscape:connector-curvature="0"
         style="fill:url(#linearGradient4197);fill-opacity:1;stroke:none"
         d="m 435.89128,541.07281 0.24841,3.91531 c 0,0.40601 0.33238,0.73288 0.74525,0.73288 l 25.99045,0 c 0.41287,0 0.74526,-0.32687 0.74526,-0.73288 l 0.24841,-3.91531 -27.97778,0 z"
         id="rect3001"
         sodipodi:nodetypes="ccccccc"
         transform="translate(6.6795917,2.1134734)" />
      <path
         inkscape:connector-curvature="0"
         style="fill:url(#linearGradient4998);fill-opacity:1;stroke:none"
         d="m 438.12877,518.12187 23.25963,0 c 0.41287,0 0.74526,0.32687 0.74526,0.73287 l 1.739,22.0998 c 0,0.406 -0.33237,0.73288 -0.74524,0.73288 l -26.48903,0 c -0.41287,0 -0.74524,-0.32688 -0.74524,-0.73288 l 1.49038,-22.09974 c 0,-0.406 0.33238,-0.73293 0.74524,-0.73293 z"
         id="path3778"
         sodipodi:nodetypes="ccccccccc"
         transform="translate(6.6795917,2.1134734)" />
      <rect
         style="opacity:1;fill:url(#linearGradient4735);fill-opacity:1.0;stroke:none;stroke-width:0.2;stroke-linecap:round;stroke-linejoin:round;stroke-miterlimit:4;stroke-dasharray:none;stroke-opacity:1"
         id="rect4727"
         width="11.463281"
         height="0.76887441"
         x="450.87326"
         y="545.61273"
         ry="0.3844372" />
      <ellipse
         ry="1.0612739"
         rx="1.06128"
         cy="546.02448"
         cx="467.08929"
         id="path4955"
         style="opacity:0.45199998;fill:url(#linearGradient4963);fill-opacity:1;stroke:none;stroke-width:1.70000005;stroke-linecap:round;stroke-linejoin:round;stroke-miterlimit:4;stroke-dasharray:none;stroke-opacity:1" />
      <g
         style="opacity:0.66799999;fill:#e3e8ea;fill-opacity:1"
         inkscape:label="Capa 1"
         id="layer1-2"
         transform="matrix(0.06690024,0,0,0.06690024,429.30819,506.30366)">
        <g
           id="power27"
           sketch:type="MSLayerGroup"
           transform="matrix(0.12676497,0,0,0.12676497,556.71721,584.86309)"
           style="fill:#e3e8ea;fill-opacity:1">
          <g
             id="g953"
             sketch:type="MSShapeGroup"
             style="fill:#e3e8ea;fill-opacity:1">
            <path
               d="m 63,73.215 c 2.824,0 5.27,-1.031 7.332,-3.096 2.064,-2.063 3.098,-4.508 3.098,-7.332 l 0,-52.144 C 73.43,7.818 72.397,5.374 70.332,3.311 68.27,1.246 65.825,0.214 63,0.214 c -2.825,0 -5.269,1.033 -7.333,3.097 -2.064,2.063 -3.096,4.508 -3.096,7.332 l 0,52.144 c 0,2.824 1.032,5.269 3.096,7.332 2.064,2.065 4.509,3.096 7.333,3.096 l 0,0 z"
               id="path955"
               inkscape:connector-curvature="0"
               style="fill:#e3e8ea;fill-opacity:1" />
            <path
               d="M 119.014,45.269 C 114.641,36.525 108.491,29.192 100.561,23.272 98.28,21.534 95.7,20.855 92.821,21.235 c -2.879,0.38 -5.16,1.738 -6.844,4.073 -1.738,2.281 -2.403,4.847 -1.996,7.699 0.406,2.853 1.752,5.147 4.033,6.885 5.321,4.019 9.438,8.935 12.342,14.747 2.906,5.811 4.358,12.004 4.358,18.575 0,5.65 -1.1,11.04 -3.299,16.173 -2.2,5.133 -5.174,9.573 -8.922,13.321 -3.748,3.747 -8.187,6.721 -13.32,8.921 -5.133,2.2 -10.524,3.301 -16.173,3.301 -5.648,0 -11.039,-1.101 -16.172,-3.301 -5.133,-2.2 -9.573,-5.174 -13.321,-8.921 -3.747,-3.748 -6.721,-8.188 -8.921,-13.321 -2.2,-5.133 -3.3,-10.523 -3.3,-16.173 0,-6.571 1.453,-12.763 4.359,-18.575 2.906,-5.811 7.02,-10.727 12.343,-14.747 2.281,-1.739 3.625,-4.033 4.033,-6.885 0.407,-2.851 -0.258,-5.418 -1.996,-7.699 -1.684,-2.335 -3.951,-3.693 -6.803,-4.073 -2.852,-0.38 -5.446,0.299 -7.781,2.037 -7.931,5.92 -14.081,13.253 -18.454,21.997 -4.373,8.745 -6.559,18.06 -6.559,27.945 0,8.474 1.657,16.566 4.97,24.279 3.314,7.713 7.767,14.366 13.362,19.961 5.594,5.594 12.248,10.049 19.961,13.36 7.713,3.314 15.806,4.972 24.279,4.972 8.473,0 16.566,-1.658 24.279,-4.972 7.713,-3.312 14.367,-7.766 19.961,-13.36 5.594,-5.594 10.047,-12.248 13.361,-19.961 3.313,-7.713 4.969,-15.806 4.969,-24.279 0,-9.885 -2.183,-19.2 -6.556,-27.945 l 0,0 z"
               id="path957"
               inkscape:connector-curvature="0"
               style="fill:#e3e8ea;fill-opacity:1" />
          </g>
        </g>
      </g>
    </g>
    <g
       transform="matrix(0.84537196,0,0,0.69832168,54.758418,161.25501)"
       id="layer1-1"
       inkscape:label="Capa 1">
      <g
         transform="matrix(1.0931221,0,0,1.0931221,33.310366,-50.486049)"
         id="g4471">
        <g
           transform="matrix(1.5444819,0,0,1.5444819,-275.38426,-295.80854)"
           id="layer1-39"
           inkscape:label="Capa 1" />
        <g
           transform="matrix(1.0320907,0,0,1.0320907,-11.255524,-16.997542)"
           id="g4180">
          <g
             id="g4320"
             transform="matrix(0.98381885,0,0,0.98381885,5.5651187,8.3948576)"
             style="stroke:none">
            <g
               style="stroke:none;stroke-width:1.29989684;stroke-miterlimit:4;stroke-dasharray:none;stroke-opacity:1"
               transform="matrix(1.5444819,0,0,1.5444819,-275.17538,-295.73877)"
               inkscape:label="Capa 1"
               id="layer1-3">
              <circle
                 r="0"
                 cy="531.79791"
                 cx="400.57138"
                 id="ellipse4233"
                 style="opacity:1;fill:url(#linearGradient3426);fill-opacity:1;stroke:none;stroke-width:1.29989684;stroke-miterlimit:4;stroke-dasharray:none;stroke-dashoffset:0;stroke-opacity:1" />
            </g>
          </g>
          <g
             transform="matrix(0.91481089,0,0,0.91481089,-162.89312,-245.87653)"
             id="layer1-2-8"
             style="fill:#ffffff;fill-opacity:0.85">
            <g
               transform="translate(-120.10595,41.912995)"
               id="layer1-6"
               style="fill:#ffffff;fill-opacity:0.85">
              <path
                 id="path7811"
                 d="m 674.86424,786.86016 c -3.34274,0.10837 8.90473,17.00542 -0.528,15.92622 7.86598,2.17939 9.66748,-7.97286 8.06098,-12.93986 -1.59075,-4.91939 -2.41799,-1.84971 -7.15948,-2.94241 -0.14175,-0.0326 -0.26625,-0.0475 -0.3735,-0.0439 z m -9.37273,2.35534 c -5.17026,-0.007 -2.50626,1.72911 -5.01088,5.90176 -2.39197,3.98455 18.8947,-3.1521 14.82671,5.76346 4.50299,-6.80666 -4.59599,-11.65817 -9.81598,-11.66492 z m 3.6375,7.62787 c -4.13699,-0.01 -8.30023,4.69102 -9.46423,8.2571 -1.6044,4.91526 0.86917,2.91885 4.06349,6.58992 3.05024,3.50683 2.84249,-18.94556 10.06497,-12.32114 -1.42949,-1.79616 -3.04499,-2.52138 -4.66423,-2.52588 z m 17.7817,0.79834 c -2.79284,0.26727 -12.98097,13.21735 -14.68646,4.81326 0.35829,8.1536 10.57272,6.73025 14.79896,3.66777 4.18716,-3.03367 1.01077,-2.87303 0.58447,-7.72087 -0.0509,-0.57873 -0.29829,-0.79841 -0.69726,-0.76024 z m -15.02321,2.69957 c -7.64398,2.86043 -3.13327,12.13515 1.08547,15.2085 4.17899,3.04477 3.04469,0.0739 7.52323,-1.82954 4.27739,-1.81783 -17.14045,-8.55708 -8.60923,-13.37934 z"
                 inkscape:connector-curvature="0"
                 style="fill:#a1a7ae;fill-opacity:1;fill-rule:evenodd;stroke:#909296;stroke-width:0.09689071;stroke-linecap:round;stroke-linejoin:round;stroke-miterlimit:4;stroke-dasharray:none;stroke-opacity:1" />
            </g>
          </g>
        </g>
      </g>
    </g>
  </g>
</svg>
