<?xml version="1.0" encoding="UTF-8" standalone="no"?>
<!-- Created with Inkscape (http://www.inkscape.org/) -->

<svg
   xmlns:sketch="http://www.bohemiancoding.com/sketch/ns"
   xmlns:dc="http://purl.org/dc/elements/1.1/"
   xmlns:cc="http://creativecommons.org/ns#"
   xmlns:rdf="http://www.w3.org/1999/02/22-rdf-syntax-ns#"
   xmlns:svg="http://www.w3.org/2000/svg"
   xmlns="http://www.w3.org/2000/svg"
   xmlns:sodipodi="http://sodipodi.sourceforge.net/DTD/sodipodi-0.dtd"
   xmlns:inkscape="http://www.inkscape.org/namespaces/inkscape"
   width="22"
   height="22"
   id="svg3869"
   version="1.1"
   inkscape:version="0.91 r13725"
   sodipodi:docname="gtk-apply.svg">
  <defs
     id="defs3871" />
  <sodipodi:namedview
     id="base"
     pagecolor="#ffffff"
     bordercolor="#666666"
     borderopacity="1.0"
     inkscape:pageopacity="0.0"
     inkscape:pageshadow="2"
     inkscape:zoom="7.9999997"
     inkscape:cx="-38.758748"
     inkscape:cy="1.9980304"
     inkscape:document-units="px"
     inkscape:current-layer="layer1"
     showgrid="true"
     fit-margin-top="0"
     fit-margin-left="0"
     fit-margin-right="0"
     fit-margin-bottom="0"
     inkscape:window-width="1366"
     inkscape:window-height="633"
     inkscape:window-x="0"
     inkscape:window-y="33"
     inkscape:window-maximized="1"
     inkscape:showpageshadow="false"
     inkscape:object-nodes="true"
     inkscape:snap-bbox="true">
    <inkscape:grid
       type="xygrid"
       id="grid4132" />
    <sodipodi:guide
       position="4,18"
       orientation="18,0"
       id="guide4138" />
    <sodipodi:guide
       position="5,3"
       orientation="0,18"
       id="guide4140" />
    <sodipodi:guide
       position="20,2.0000174"
       orientation="-18,0"
       id="guide4142" />
    <sodipodi:guide
       position="2,21"
       orientation="0,-18"
       id="guide4144" />
    <sodipodi:guide
       position="3,19.000017"
       orientation="16,0"
       id="guide4146" />
    <sodipodi:guide
       position="2,4"
       orientation="0,16"
       id="guide4148" />
    <sodipodi:guide
       position="21,20"
       orientation="-16,0"
       id="guide4150" />
    <sodipodi:guide
       position="2,20"
       orientation="0,-16"
       id="guide4152" />
  </sodipodi:namedview>
  <metadata
     id="metadata3874">
    <rdf:RDF>
      <cc:Work
         rdf:about="">
        <dc:format>image/svg+xml</dc:format>
        <dc:type
           rdf:resource="http://purl.org/dc/dcmitype/StillImage" />
        <dc:title></dc:title>
      </cc:Work>
    </rdf:RDF>
  </metadata>
  <g
     inkscape:label="Capa 1"
     inkscape:groupmode="layer"
     id="layer1"
     transform="translate(-326,-534.3622)">
    <g
       transform="matrix(0.79999998,0,0,0.79999998,16.542864,119.92381)"
       id="layer1-95"
       inkscape:label="Capa 1">
      <g
         inkscape:label="Capa 1"
         id="layer1-9-9"
         transform="matrix(1.1699988,0,0,1.1699988,-38.953026,-96.85732)">
        <g
           transform="matrix(1.3120824,0,0,1.3120824,-382.5677,-272.0713)"
           id="layer1-3"
           inkscape:label="Capa 1"
           style="fill:#4d4d4d;fill-opacity:1">
          <g
             style="fill:#4d4d4d;fill-opacity:1"
             transform="matrix(0.14300539,0,0,0.14300539,554.04072,610.29161)"
             sketch:type="MSShapeGroup"
             id="g5548">
            <g
               style="fill:#4d4d4d;fill-opacity:1"
               transform="matrix(0.7214167,0,0,0.7214167,123.07951,19.201456)"
               sketch:type="MSLayerGroup"
               id="correct8">
              <path
                 style="fill:#4d4d4d;fill-opacity:1"
                 inkscape:connector-curvature="0"
                 sketch:type="MSShapeGroup"
                 id="path4469"
                 d="m 121.35661,2.1136578 -11.08,-11.08 c -1.52,-1.5209998 -3.368,-2.2809998 -5.54,-2.2809998 -2.173,0 -4.021,0.76 -5.540997,2.2809998 l -53.446,53.5280002 -23.953,-24.035 c -1.521,-1.521 -3.368,-2.281 -5.54,-2.281 -2.173,0 -4.02,0.76 -5.541,2.281 l -11.07999967,11.08 c -1.52100003,1.521 -2.28100003,3.368 -2.28100003,5.541 0,2.172 0.76,4.02 2.28100003,5.54 l 29.49299967,29.493 11.081,11.08 c 1.52,1.521 3.367,2.281 5.54,2.281 2.172,0 4.019,-0.761 5.54,-2.281 l 11.081,-11.08 58.985997,-58.986 c 1.52,-1.521 2.281,-3.3680002 2.281,-5.5410002 0.001,-2.172 -0.761,-4.019 -2.281,-5.54 l 0,0 z" />
            </g>
          </g>
        </g>
      </g>
    </g>
  </g>
</svg>
