<?xml version="1.0" encoding="UTF-8" standalone="no"?>
<!-- Created with Inkscape (http://www.inkscape.org/) -->

<svg
   xmlns:sketch="http://www.bohemiancoding.com/sketch/ns"
   xmlns:dc="http://purl.org/dc/elements/1.1/"
   xmlns:cc="http://creativecommons.org/ns#"
   xmlns:rdf="http://www.w3.org/1999/02/22-rdf-syntax-ns#"
   xmlns:svg="http://www.w3.org/2000/svg"
   xmlns="http://www.w3.org/2000/svg"
   xmlns:sodipodi="http://sodipodi.sourceforge.net/DTD/sodipodi-0.dtd"
   xmlns:inkscape="http://www.inkscape.org/namespaces/inkscape"
   width="22"
   height="22"
   id="svg4183"
   version="1.1"
   inkscape:version="0.91 r13725"
   sodipodi:docname="mic-off.svg">
  <defs
     id="defs4185" />
  <sodipodi:namedview
     id="base"
     pagecolor="#ffffff"
     bordercolor="#666666"
     borderopacity="1.0"
     inkscape:pageopacity="0.0"
     inkscape:pageshadow="2"
     inkscape:zoom="16"
     inkscape:cx="-14.734709"
     inkscape:cy="10.515106"
     inkscape:document-units="px"
     inkscape:current-layer="g4970"
     showgrid="false"
     inkscape:window-width="1366"
     inkscape:window-height="633"
     inkscape:window-x="0"
     inkscape:window-y="33"
     inkscape:window-maximized="1"
     showguides="false"
     inkscape:guide-bbox="true"
     inkscape:showpageshadow="false"
     borderlayer="true"
     inkscape:snap-bbox="true"
     inkscape:object-nodes="true"
     inkscape:snap-bbox-edge-midpoints="true">
    <inkscape:grid
       type="xygrid"
       id="grid4103" />
    <sodipodi:guide
       position="2,20.000017"
       orientation="18,0"
       id="guide4095" />
    <sodipodi:guide
       position="2,2.0000174"
       orientation="0,18"
       id="guide4097" />
    <sodipodi:guide
       position="20,2.0000174"
       orientation="-18,0"
       id="guide4099" />
    <sodipodi:guide
       position="20,20.000017"
       orientation="0,-18"
       id="guide4101" />
    <sodipodi:guide
       position="3,19.000017"
       orientation="16,0"
       id="guide4103" />
    <sodipodi:guide
       position="3,3.0000174"
       orientation="0,16"
       id="guide4105" />
    <sodipodi:guide
       position="19,3.0000174"
       orientation="-1,6.123234e-17"
       id="guide4107" />
    <sodipodi:guide
       position="19,19.000017"
       orientation="0,-16"
       id="guide4109" />
    <sodipodi:guide
       position="10.292994,3.0001395"
       orientation="0,1.414012"
       id="guide4266" />
    <sodipodi:guide
       position="10,3.0000174"
       orientation="0,2"
       id="guide4137" />
  </sodipodi:namedview>
  <metadata
     id="metadata4188">
    <rdf:RDF>
      <cc:Work
         rdf:about="">
        <dc:format>image/svg+xml</dc:format>
        <dc:type
           rdf:resource="http://purl.org/dc/dcmitype/StillImage" />
        <dc:title />
      </cc:Work>
    </rdf:RDF>
  </metadata>
  <g
     inkscape:label="Capa 1"
     inkscape:groupmode="layer"
     id="layer1"
     transform="translate(0,-1030.3622)">
    <g
       id="layer1-8"
       inkscape:label="Capa 1"
       transform="matrix(1.3762733,0,0,1.3762733,-22.281547,-392.44801)">
      <g
         id="g4970"
         transform="translate(0,-0.0455509)">
        <g
           id="microphone28"
           sketch:type="MSLayerGroup"
           transform="matrix(0.0857522,0,0,0.0857522,20.151971,1037.6554)"
           style="fill:#4d4d4d;fill-opacity:1">
          <g
             id="g4987"
             sketch:type="MSShapeGroup"
             style="fill:#4d4d4d;fill-opacity:1">
            <path
               d="m 47,94.07 c 7.17,0 13.307,-2.553 18.412,-7.657 C 70.517,81.309 73.07,75.17 73.07,68 l 0,-41.714 C 73.07,19.116 70.519,12.979 65.412,7.873 60.307,2.768 54.17,0.214 47,0.214 c -7.17,0 -13.307,2.554 -18.413,7.659 -5.106,5.105 -7.659,11.243 -7.659,18.413 l 0,41.714 c 0,7.17 2.554,13.309 7.659,18.413 C 33.692,91.517 39.83,94.07 47,94.07 l 0,0 z"
               id="path4989"
               inkscape:connector-curvature="0"
               style="fill:#4d4d4d;fill-opacity:1" />
            <path
               d="m 92.38,53.905 c -1.03,-1.032 -2.254,-1.548 -3.666,-1.548 -1.412,0 -2.634,0.516 -3.666,1.548 -1.032,1.032 -1.548,2.254 -1.548,3.666 L 83.5,68 C 83.5,78.049 79.928,86.643 72.786,93.786 65.645,100.929 57.049,104.5 47,104.5 36.951,104.5 28.356,100.929 21.213,93.786 14.071,86.645 10.5,78.049 10.5,68 l 0,-10.429 C 10.5,56.159 9.984,54.937 8.952,53.905 7.92,52.873 6.699,52.357 5.286,52.357 c -1.413,0 -2.635,0.516 -3.667,1.548 -1.032,1.032 -1.548,2.254 -1.548,3.666 l 0,10.429 c 0,12.004 4.006,22.446 12.017,31.326 8.011,8.88 17.91,13.972 29.697,15.275 l 0,10.756 -20.857,0 c -1.412,0 -2.634,0.516 -3.666,1.548 -1.032,1.032 -1.548,2.254 -1.548,3.666 0,1.411 0.516,2.635 1.548,3.666 1.032,1.032 2.254,1.549 3.666,1.549 l 52.142,0 c 1.412,0 2.636,-0.517 3.666,-1.549 1.033,-1.031 1.55,-2.255 1.55,-3.666 0,-1.412 -0.517,-2.634 -1.55,-3.666 -1.03,-1.032 -2.254,-1.548 -3.666,-1.548 l -20.855,0 0,-10.756 C 64,113.298 73.899,108.206 81.911,99.326 89.923,90.446 93.93,80.004 93.93,68 l 0,-10.429 c 0,-1.412 -0.517,-2.633 -1.55,-3.666 l 0,0 z"
               id="path4991"
               inkscape:connector-curvature="0"
               style="fill:#4d4d4d;fill-opacity:1" />
          </g>
        </g>
      </g>
      <g
         transform="matrix(0.72659987,0,0,0.72659987,16.189726,286.78748)"
         id="layer1-9"
         inkscape:label="Capa 1">
        <g
           inkscape:label="Capa 1"
           id="layer1-5"
           transform="matrix(1.4764418,0,0,1.4764418,-5.412127,-500.03675)">
          <g
             id="microphone27"
             sketch:type="MSLayerGroup"
             transform="matrix(0.07993321,0,0,0.07993321,6.6397402,1038.5602)"
             style="fill:#4d4d4d;fill-opacity:1">
            <g
               id="g4978"
               sketch:type="MSShapeGroup"
               style="fill:#4d4d4d;fill-opacity:1">
              <path
                 d="M 20.722,77.206 C 19.907,73.947 19.5,70.879 19.5,68 l 0,-10.43 c 0,-1.412 -0.516,-2.634 -1.548,-3.666 -1.032,-1.032 -2.254,-1.548 -3.666,-1.548 -1.413,0 -2.635,0.516 -3.667,1.548 -1.032,1.032 -1.548,2.254 -1.548,3.666 l 0,10.429 c 0,6.03 1.141,11.841 3.422,17.437 l 8.229,-8.23 0,0 z"
                 id="path4980"
                 inkscape:connector-curvature="0"
                 style="fill:#4d4d4d;fill-opacity:1" />
              <path
                 d="m 56,94.07 c 7.17,0 13.309,-2.553 18.412,-7.657 C 79.517,81.309 82.07,75.17 82.07,68 l 0,-10.429 29.412,-29.412 c 0.543,-0.543 0.815,-1.168 0.815,-1.874 0,-0.706 -0.271,-1.331 -0.815,-1.874 l -6.68,-6.681 c -0.544,-0.544 -1.168,-0.815 -1.875,-0.815 -0.705,0 -1.33,0.271 -1.873,0.815 L 0.517,118.268 c -0.543,0.543 -0.814,1.168 -0.814,1.873 0,0.707 0.271,1.332 0.814,1.875 l 6.681,6.681 c 0.543,0.543 1.168,0.814 1.874,0.814 0.706,0 1.331,-0.271 1.874,-0.814 L 31.64,108.003 c 5.974,3.695 12.356,5.895 19.146,6.6 l 0,10.756 -20.857,0 c -1.412,0 -2.635,0.516 -3.666,1.548 -1.032,1.032 -1.549,2.254 -1.549,3.666 0,1.411 0.517,2.635 1.549,3.666 1.031,1.032 2.254,1.549 3.666,1.549 l 52.141,0 c 1.412,0 2.635,-0.517 3.666,-1.549 1.033,-1.031 1.549,-2.255 1.549,-3.666 0,-1.412 -0.516,-2.634 -1.549,-3.666 -1.031,-1.032 -2.254,-1.548 -3.666,-1.548 l -20.856,0 0,-10.756 C 73,113.3 82.899,108.208 90.911,99.328 c 8.011,-8.88 12.017,-19.322 12.017,-31.326 l 0,-10.431 c 0,-1.412 -0.516,-2.634 -1.547,-3.666 -1.033,-1.032 -2.255,-1.548 -3.667,-1.548 -1.412,0 -2.634,0.516 -3.666,1.548 -1.032,1.032 -1.548,2.254 -1.548,3.666 L 92.5,68 c 0,10.049 -3.572,18.643 -10.714,25.785 -7.142,7.142 -15.738,10.714 -25.786,10.714 -5.866,0 -11.433,-1.384 -16.702,-4.155 l 7.821,-7.82 c 2.934,1.031 5.894,1.546 8.881,1.546 l 0,0 z"
                 id="path4982"
                 inkscape:connector-curvature="0"
                 style="fill:#4d4d4d;fill-opacity:1" />
              <path
                 d="M 71.032,5.022 C 66.551,1.817 61.54,0.214 56,0.214 c -7.17,0 -13.308,2.554 -18.413,7.659 -5.105,5.105 -7.658,11.243 -7.658,18.413 L 29.929,68 80.523,17.405 C 78.676,12.354 75.514,8.226 71.032,5.022 l 0,0 z"
                 id="path4984"
                 inkscape:connector-curvature="0"
                 style="fill:#4d4d4d;fill-opacity:1" />
            </g>
          </g>
        </g>
      </g>
    </g>
  </g>
</svg>
