<?xml version="1.0" encoding="UTF-8" standalone="no"?>
<!-- Created with Inkscape (http://www.inkscape.org/) -->

<svg
   xmlns:sketch="http://www.bohemiancoding.com/sketch/ns"
   xmlns:osb="http://www.openswatchbook.org/uri/2009/osb"
   xmlns:dc="http://purl.org/dc/elements/1.1/"
   xmlns:cc="http://creativecommons.org/ns#"
   xmlns:rdf="http://www.w3.org/1999/02/22-rdf-syntax-ns#"
   xmlns:svg="http://www.w3.org/2000/svg"
   xmlns="http://www.w3.org/2000/svg"
   xmlns:sodipodi="http://sodipodi.sourceforge.net/DTD/sodipodi-0.dtd"
   xmlns:inkscape="http://www.inkscape.org/namespaces/inkscape"
   width="22"
   height="22"
   id="svg3869"
   version="1.1"
   inkscape:version="0.91 r13725"
   sodipodi:docname="view-time-schedule-baselined-remove.svg">
  <defs
     id="defs3871">
    <linearGradient
       id="linearGradient4207"
       osb:paint="gradient">
      <stop
         style="stop-color:#3498db;stop-opacity:1;"
         offset="0"
         id="stop3371" />
      <stop
         style="stop-color:#3498db;stop-opacity:0;"
         offset="1"
         id="stop3373" />
    </linearGradient>
  </defs>
  <sodipodi:namedview
     id="base"
     pagecolor="#aeaeae"
     bordercolor="#666666"
     borderopacity="1.0"
     inkscape:pageopacity="0"
     inkscape:pageshadow="2"
     inkscape:zoom="11.313708"
     inkscape:cx="-38.068584"
     inkscape:cy="9.259401"
     inkscape:document-units="px"
     inkscape:current-layer="layer1-3"
     showgrid="true"
     fit-margin-top="0"
     fit-margin-left="0"
     fit-margin-right="0"
     fit-margin-bottom="0"
     inkscape:window-width="1366"
     inkscape:window-height="633"
     inkscape:window-x="0"
     inkscape:window-y="33"
     inkscape:window-maximized="1"
     inkscape:showpageshadow="false"
     inkscape:snap-bbox="true"
     inkscape:object-nodes="true">
    <inkscape:grid
       type="xygrid"
       id="grid4132" />
    <sodipodi:guide
       position="4,18"
       orientation="18,0"
       id="guide4138" />
    <sodipodi:guide
       position="5,3"
       orientation="0,18"
       id="guide4140" />
    <sodipodi:guide
       position="20,2.0000174"
       orientation="-18,0"
       id="guide4142" />
    <sodipodi:guide
       position="2,21"
       orientation="0,-18"
       id="guide4144" />
    <sodipodi:guide
       position="3,19.000017"
       orientation="16,0"
       id="guide4146" />
    <sodipodi:guide
       position="2,4"
       orientation="0,16"
       id="guide4148" />
    <sodipodi:guide
       position="21,20"
       orientation="-16,0"
       id="guide4150" />
    <sodipodi:guide
       position="2,20"
       orientation="0,-16"
       id="guide4152" />
  </sodipodi:namedview>
  <metadata
     id="metadata3874">
    <rdf:RDF>
      <cc:Work
         rdf:about="">
        <dc:format>image/svg+xml</dc:format>
        <dc:type
           rdf:resource="http://purl.org/dc/dcmitype/StillImage" />
        <dc:title />
      </cc:Work>
    </rdf:RDF>
  </metadata>
  <g
     inkscape:label="Capa 1"
     inkscape:groupmode="layer"
     id="layer1"
     transform="translate(-326,-534.3622)">
    <g
       transform="translate(-133.71429,9.57146)"
       id="layer1-3"
       inkscape:label="Capa 1">
      <g
         transform="translate(133.71429,-9.5714603)"
         id="layer1-79"
         inkscape:label="Capa 1">
        <g
           inkscape:label="Capa 1"
           id="layer1-197">
          <g
             id="layer1-85"
             inkscape:label="Capa 1">
            <g
               inkscape:label="Capa 1"
               id="layer1-58">
              <g
                 id="g4208"
                 transform="matrix(1.2000987,0,0,1.2000987,-68.633361,-107.92617)">
                <g
                   transform="matrix(0.8332648,0,0,0.8332648,57.189768,89.931093)"
                   id="layer1-8-3"
                   inkscape:label="Capa 1">
                  <g
                     transform="translate(-21,2)"
                     inkscape:label="Capa 1"
                     id="layer1-72">
                    <g
                       transform="translate(-94.71429,7.57146)"
                       id="layer1-5-5"
                       inkscape:label="Capa 1" />
                  </g>
                  <g
                     transform="translate(-25.299998,0.29999811)"
                     inkscape:label="Capa 1"
                     id="layer1-2">
                    <g
                       id="layer1-72-3"
                       inkscape:label="Capa 1"
                       transform="translate(-21,2)">
                      <g
                         inkscape:label="Capa 1"
                         id="layer1-5-6"
                         transform="translate(-94.71429,7.57146)">
                        <path
                           style="opacity:1;fill:#4d4d4d;fill-opacity:1;fill-rule:evenodd;stroke:none;stroke-width:1;stroke-linecap:round;stroke-linejoin:miter;stroke-miterlimit:4;stroke-dasharray:none;stroke-dashoffset:0;stroke-opacity:1"
                           d="M 4 3 C 3.4459836 3 3 3.4459836 3 4 L 3 18 C 3 18.554016 3.4459836 19 4 19 L 18 19 C 18.554016 19 19 18.554016 19 18 L 19 4 C 19 3.4459836 18.554016 3 18 3 L 4 3 z M 11 6 C 11.907209 6 12.743596 6.2228298 13.509766 6.6699219 C 14.275775 7.117014 14.882986 7.7242246 15.330078 8.4902344 C 15.77701 9.2562442 16 10.09287 16 11 C 16 11.90705 15.77709 12.743676 15.330078 13.509766 C 14.882986 14.275775 14.275775 14.883066 13.509766 15.330078 C 12.743756 15.77717 11.90713 16 11 16 C 10.09287 16 9.2563241 15.77717 8.4902344 15.330078 C 7.7241446 14.882986 7.117014 14.275696 6.6699219 13.509766 C 6.2229097 12.743596 6 11.90713 6 11 C 6 10.09295 6.2227499 9.2563241 6.6699219 8.4902344 C 7.117014 7.7241446 7.7241446 7.1169341 8.4902344 6.6699219 C 9.2562442 6.2228298 10.09287 6 11 6 z M 9.5292969 8.5195312 C 9.41207 8.5195312 9.3109819 8.5601118 9.2285156 8.6425781 L 8.6425781 9.2285156 C 8.5601118 9.3109819 8.5195312 9.41207 8.5195312 9.5292969 C 8.5195312 9.6421287 8.5601118 9.7398792 8.6425781 9.8222656 L 9.8222656 11 L 8.6425781 12.177734 C 8.5601118 12.260121 8.5195312 12.357871 8.5195312 12.470703 C 8.5195312 12.58785 8.5601118 12.689098 8.6425781 12.771484 L 9.2285156 13.357422 C 9.3109819 13.439888 9.41207 13.480469 9.5292969 13.480469 C 9.6421287 13.480469 9.7397993 13.439888 9.8222656 13.357422 L 11 12.177734 L 12.177734 13.357422 C 12.260041 13.439888 12.357871 13.480469 12.470703 13.480469 C 12.58793 13.480469 12.689018 13.439888 12.771484 13.357422 L 13.357422 12.771484 C 13.439888 12.689098 13.480469 12.58785 13.480469 12.470703 C 13.480469 12.357871 13.439888 12.260121 13.357422 12.177734 L 12.177734 11 L 13.357422 9.8222656 C 13.439888 9.7398792 13.480469 9.6421287 13.480469 9.5292969 C 13.480469 9.41207 13.439888 9.3109819 13.357422 9.2285156 L 12.771484 8.6425781 C 12.689018 8.5601118 12.58793 8.5195312 12.470703 8.5195312 C 12.357871 8.5195312 12.260041 8.5601118 12.177734 8.6425781 L 11 9.8222656 L 9.8222656 8.6425781 C 9.7397993 8.5601118 9.6421287 8.5195312 9.5292969 8.5195312 z "
                           transform="translate(467.01428,524.49072)"
                           id="rect4227" />
                        <g
                           style="fill:#2ecc71;fill-opacity:1"
                           inkscape:label="Capa 1"
                           id="layer1-4-5"
                           transform="matrix(0.62500001,0,0,0.62500001,267.38928,194.63936)" />
                      </g>
                    </g>
                  </g>
                </g>
              </g>
            </g>
          </g>
        </g>
      </g>
      <g
         id="g4384"
         transform="matrix(2.9427131,0,0,2.9427131,-903.27785,-1048.3994)">
        <g
           style="fill:#ffffff;fill-opacity:1"
           inkscape:label="Capa 1"
           id="layer1-9"
           transform="matrix(0.21238904,0,0,0.21238904,395.12589,422.72681)">
          <g
             style="fill:#ffffff;fill-opacity:1"
             transform="matrix(0.89258405,0,0,0.89258405,-148.61667,17.577336)"
             id="layer1-8"
             inkscape:label="Capa 1">
            <g
               style="fill:#ffffff;fill-opacity:1"
               transform="matrix(0.14324114,0,0,0.14324114,536.15337,581.15537)"
               sketch:type="MSLayerGroup"
               id="cross41" />
          </g>
        </g>
      </g>
    </g>
  </g>
</svg>
