<?xml version="1.0" encoding="UTF-8" standalone="no"?>
<!-- Created with Inkscape (http://www.inkscape.org/) -->

<svg
   xmlns:sketch="http://www.bohemiancoding.com/sketch/ns"
   xmlns:osb="http://www.openswatchbook.org/uri/2009/osb"
   xmlns:dc="http://purl.org/dc/elements/1.1/"
   xmlns:cc="http://creativecommons.org/ns#"
   xmlns:rdf="http://www.w3.org/1999/02/22-rdf-syntax-ns#"
   xmlns:svg="http://www.w3.org/2000/svg"
   xmlns="http://www.w3.org/2000/svg"
   xmlns:sodipodi="http://sodipodi.sourceforge.net/DTD/sodipodi-0.dtd"
   xmlns:inkscape="http://www.inkscape.org/namespaces/inkscape"
   width="22"
   height="22"
   id="svg3760"
   version="1.1"
   inkscape:version="0.91 r13725"
   sodipodi:docname="xml-attribute-delete.svg">
  <defs
     id="defs3762">
    <linearGradient
       id="linearGradient4207"
       osb:paint="gradient">
      <stop
         style="stop-color:#3498db;stop-opacity:1;"
         offset="0"
         id="stop3371" />
      <stop
         style="stop-color:#3498db;stop-opacity:0;"
         offset="1"
         id="stop3373" />
    </linearGradient>
  </defs>
  <sodipodi:namedview
     id="base"
     pagecolor="#ffffff"
     bordercolor="#666666"
     borderopacity="1.0"
     inkscape:pageopacity="0.0"
     inkscape:pageshadow="2"
     inkscape:zoom="8.0101925"
     inkscape:cx="-50.679746"
     inkscape:cy="10.767733"
     inkscape:document-units="px"
     inkscape:current-layer="g4712"
     showgrid="true"
     fit-margin-top="0"
     fit-margin-left="0"
     fit-margin-right="0"
     fit-margin-bottom="0"
     inkscape:window-width="1366"
     inkscape:window-height="633"
     inkscape:window-x="0"
     inkscape:window-y="33"
     inkscape:window-maximized="1"
     inkscape:showpageshadow="false"
     showguides="true"
     inkscape:snap-bbox="true"
     inkscape:snap-global="false">
    <inkscape:grid
       type="xygrid"
       id="grid4106"
       originx="1.8863594e-05px"
       originy="-1.7016406e-05px" />
    <sodipodi:guide
       position="3.0000144,20.999978"
       orientation="0,18"
       id="guide4229" />
    <sodipodi:guide
       position="21.000014,20.999978"
       orientation="18,0"
       id="guide4231" />
    <sodipodi:guide
       position="21.000014,2.9999782"
       orientation="0,-18"
       id="guide4233" />
    <sodipodi:guide
       position="3.0000144,2.9999782"
       orientation="-18,0"
       id="guide4235" />
    <sodipodi:guide
       position="20.000014,3.9999782"
       orientation="0,-16"
       id="guide4241" />
    <sodipodi:guide
       position="4,20"
       orientation="6,0"
       id="guide4155" />
    <sodipodi:guide
       position="20,14"
       orientation="-6,0"
       id="guide4167" />
    <sodipodi:guide
       position="20,20"
       orientation="0,-6"
       id="guide4169" />
  </sodipodi:namedview>
  <metadata
     id="metadata3765">
    <rdf:RDF>
      <cc:Work
         rdf:about="">
        <dc:format>image/svg+xml</dc:format>
        <dc:type
           rdf:resource="http://purl.org/dc/dcmitype/StillImage" />
        <dc:title />
      </cc:Work>
    </rdf:RDF>
  </metadata>
  <g
     inkscape:label="Capa 1"
     inkscape:groupmode="layer"
     id="layer1"
     transform="translate(-550.28571,-608.64789)">
    <g
       id="g4712"
       transform="matrix(1.0114389,0,0,1.0114389,-4.2120629,-7.1625793)">
      <g
         id="g4729"
         transform="translate(-1.0730677,0.98868992)">
        <g
           transform="matrix(1.7500046,0,0,1.7500046,-31.733971,-335.51305)"
           id="layer1-4"
           inkscape:label="Capa 1">
          <g
             inkscape:label="Capa 1"
             id="layer1-67">
            <g
               id="layer1-66"
               inkscape:label="Capa 1"
               transform="translate(-1.9999999e-6,0)">
              <g
                 transform="translate(-21.302608,-0.1821081)"
                 inkscape:label="Capa 1"
                 id="layer1-40">
                <g
                   id="layer1-5"
                   inkscape:label="Capa 1"
                   transform="translate(13.807563,0.91018811)">
                  <g
                     transform="matrix(-1,0,0,1,697.30261,0.1821081)"
                     inkscape:label="Capa 1"
                     id="layer1-2-5">
                    <g
                       id="layer1-34"
                       inkscape:label="Capa 1"
                       transform="translate(13.807563,-0.91017073)">
                      <g
                         inkscape:label="Capa 1"
                         id="layer1-6-6"
                         transform="translate(556.44091,-0.99999625)" />
                      <g
                         inkscape:label="Capa 1"
                         id="layer1-8"
                         transform="matrix(0.62499999,0,0,0.62499999,105.3281,205.51323)" />
                    </g>
                  </g>
                </g>
              </g>
            </g>
          </g>
          <g
             style="fill:#ffffff;fill-opacity:1"
             transform="matrix(0.01499997,0,0,0.01499997,333.8,540.76222)"
             id="g3">
            <path
               style="fill:#4d4d4d;fill-opacity:1"
               inkscape:connector-curvature="0"
               id="path5"
               d="M 483.236,0 332.943,0 C 305.387,0 266.903,15.94 247.42,35.424 L 14.612,268.231 c -19.483,19.483 -19.483,51.367 0,70.85 L 194.253,518.72 c 19.483,19.484 51.365,19.484 70.849,0 L 497.91,285.913 c 19.483,-19.484 35.424,-57.969 35.424,-85.522 l 0,-150.293 C 533.333,22.544 510.79,0 483.236,0 Z m -66.569,166.667 c -27.614,0 -50,-22.385 -50,-50 0,-27.614 22.386,-50 50,-50 27.614,0 50,22.386 50,50 0,27.614 -22.386,50 -50,50 z" />
          </g>
        </g>
        <g
           transform="matrix(0.4509064,0,0,0.4509064,411.91948,377.57872)"
           id="layer1-0"
           inkscape:label="Capa 1">
          <g
             inkscape:label="Capa 1"
             id="layer1-8-1"
             transform="matrix(0.89258405,0,0,0.89258405,-148.61667,17.577336)">
            <g
               id="cross41"
               sketch:type="MSLayerGroup"
               transform="matrix(0.14324114,0,0,0.14324114,536.15337,581.15537)"
               style="fill:#da4453;fill-opacity:1">
              <path
                 d="M 117.18,31.592 C 111.585,22.006 103.995,14.416 94.409,8.821 84.821,3.226 74.354,0.429 63.001,0.429 51.649,0.429 41.179,3.226 31.593,8.821 22.006,14.415 14.416,22.005 8.821,31.592 3.225,41.179 0.428,51.649 0.428,63 c 0,11.352 2.798,21.82 8.392,31.408 5.595,9.585 13.185,17.176 22.772,22.771 9.587,5.595 20.056,8.392 31.408,8.392 11.352,0 21.822,-2.797 31.408,-8.392 9.586,-5.594 17.176,-13.185 22.771,-22.771 5.594,-9.587 8.391,-20.057 8.391,-31.408 0,-11.352 -2.797,-21.822 -8.39,-31.408 l 0,0 z M 92.493,77.746 c 1.032,1.031 1.549,2.255 1.549,3.667 0,1.466 -0.517,2.716 -1.549,3.747 l -7.332,7.333 c -1.032,1.032 -2.281,1.548 -3.748,1.548 -1.412,0 -2.636,-0.516 -3.666,-1.548 L 63,77.746 48.253,92.493 c -1.032,1.032 -2.254,1.548 -3.666,1.548 -1.467,0 -2.716,-0.516 -3.748,-1.548 L 33.506,85.16 c -1.032,-1.031 -1.548,-2.281 -1.548,-3.747 0,-1.412 0.516,-2.636 1.548,-3.667 L 48.253,63 33.506,48.253 c -1.032,-1.031 -1.548,-2.254 -1.548,-3.666 0,-1.467 0.516,-2.716 1.548,-3.748 l 7.333,-7.332 c 1.032,-1.032 2.281,-1.548 3.748,-1.548 1.412,0 2.634,0.516 3.666,1.548 L 63,48.253 77.747,33.507 c 1.03,-1.032 2.254,-1.548 3.666,-1.548 1.467,0 2.716,0.516 3.748,1.548 l 7.332,7.332 c 1.032,1.032 1.549,2.281 1.549,3.748 0,1.412 -0.517,2.635 -1.549,3.666 L 77.747,63 l 14.746,14.746 0,0 z"
                 id="path4493"
                 sketch:type="MSShapeGroup"
                 inkscape:connector-curvature="0"
                 style="fill:#da4453;fill-opacity:1" />
            </g>
          </g>
        </g>
      </g>
    </g>
  </g>
</svg>
