<?xml version="1.0" encoding="UTF-8" standalone="no"?>
<!-- Created with Inkscape (http://www.inkscape.org/) -->

<svg
   xmlns:osb="http://www.openswatchbook.org/uri/2009/osb"
   xmlns:dc="http://purl.org/dc/elements/1.1/"
   xmlns:cc="http://creativecommons.org/ns#"
   xmlns:rdf="http://www.w3.org/1999/02/22-rdf-syntax-ns#"
   xmlns:svg="http://www.w3.org/2000/svg"
   xmlns="http://www.w3.org/2000/svg"
   xmlns:sodipodi="http://sodipodi.sourceforge.net/DTD/sodipodi-0.dtd"
   xmlns:inkscape="http://www.inkscape.org/namespaces/inkscape"
   width="16"
   height="16"
   id="svg2"
   version="1.1"
   inkscape:version="0.91 r13725"
   viewBox="0 0 16 16"
   sodipodi:docname="video-x-wmv.svg">
  <defs
     id="defs4">
    <linearGradient
       osb:paint="gradient"
       id="linearGradient4207">
      <stop
         id="stop3371"
         offset="0"
         style="stop-color:#3498db;stop-opacity:1;" />
      <stop
         id="stop3373"
         offset="1"
         style="stop-color:#3498db;stop-opacity:0;" />
    </linearGradient>
  </defs>
  <sodipodi:namedview
     id="base"
     pagecolor="#9c9c9c"
     bordercolor="#666666"
     borderopacity="1.0"
     inkscape:pageopacity="0"
     inkscape:pageshadow="2"
     inkscape:zoom="15.839192"
     inkscape:cx="6.02062"
     inkscape:cy="7.5340206"
     inkscape:document-units="px"
     inkscape:current-layer="layer1-1"
     showgrid="false"
     inkscape:showpageshadow="false"
     borderlayer="true"
     inkscape:window-width="1366"
     inkscape:window-height="630"
     inkscape:window-x="0"
     inkscape:window-y="36"
     inkscape:window-maximized="1"
     units="px"
     inkscape:snap-bbox="true"
     inkscape:object-nodes="true"
     showguides="false">
    <inkscape:grid
       type="xygrid"
       id="grid4101" />
    <sodipodi:guide
       position="2,14.000017"
       orientation="12,0"
       id="guide4071" />
    <sodipodi:guide
       position="2,2.0000174"
       orientation="0,12"
       id="guide4073" />
    <sodipodi:guide
       position="14,2.0000174"
       orientation="-12,0"
       id="guide4075" />
    <sodipodi:guide
       position="14,14.000017"
       orientation="0,-12"
       id="guide4077" />
  </sodipodi:namedview>
  <metadata
     id="metadata7">
    <rdf:RDF>
      <cc:Work
         rdf:about="">
        <dc:format>image/svg+xml</dc:format>
        <dc:type
           rdf:resource="http://purl.org/dc/dcmitype/StillImage" />
        <dc:title></dc:title>
      </cc:Work>
    </rdf:RDF>
  </metadata>
  <g
     inkscape:label="Capa 1"
     inkscape:groupmode="layer"
     id="layer1"
     transform="translate(0,-1036.3622)">
    <g
       transform="translate(-412.88298,512.00351)"
       id="layer1-4"
       inkscape:label="Capa 1">
      <g
         style="fill:#ffffff;fill-opacity:1"
         inkscape:label="Capa 1"
         id="layer1-7"
         transform="translate(392.57143,-514.5642)" />
      <g
         transform="translate(341.79698,500.25245)"
         id="g4240">
        <rect
           style="opacity:1;fill:#ffffff;fill-opacity:0.40983605;stroke:none"
           id="rect4236-8"
           width="44"
           height="1"
           x="10"
           y="3" />
        <g
           transform="translate(-392.98822,-511.27795)"
           id="layer1-1"
           inkscape:label="Capa 1"
           inkscape:transform-center-x="5.4653607"
           inkscape:transform-center-y="-9.4924686">
          <g
             style="fill:#4d4d4d;fill-opacity:1"
             inkscape:label="Capa 1"
             id="layer1-5-4"
             transform="matrix(0.71733438,0,0,0.71733438,181.16816,163.89609)">
            <path
               style="display:inline;fill:#4d4d4d;fill-opacity:1;stroke:none;stroke-width:46.76432037;stroke-miterlimit:4;stroke-dasharray:none;stroke-opacity:1"
               inkscape:connector-curvature="0"
               d="m 415.74557,517.87299 -1.1037,0 c -0.26212,0 -0.47458,0.21297 -0.47458,0.47453 l 0,0.59054 c 0,0.26229 -0.21247,0.47472 -0.47457,0.47472 l -1.0291,0 c -0.26211,0 -0.47457,-0.21318 -0.47457,-0.47472 l 0,-0.59054 c 0,-0.26193 -0.21243,-0.47453 -0.47456,-0.47453 l -12.39091,0 c -0.2621,0 -0.47455,0.21297 -0.47455,0.47453 l 0,0.59054 c 0,0.26229 -0.21248,0.47472 -0.47459,0.47472 l -1.02911,0 c -0.26208,0 -0.47456,-0.21318 -0.47456,-0.47472 l 0,-0.59054 c 0,-0.26193 -0.21245,-0.47453 -0.47457,-0.47453 l -1.06659,0 c -0.26212,0 -0.47456,0.21297 -0.47456,0.47453 l 0,21.35574 c 0,0.26193 0.21244,0.47453 0.47456,0.47453 l 1.06659,0 c 0.26212,0 0.47457,-0.21297 0.47457,-0.47453 l 0,-0.43379 c 0,-0.2623 0.21248,-0.47452 0.47456,-0.47452 l 1.02911,0 c 0.26211,0 0.47459,0.21297 0.47459,0.47452 l 0,0.43379 c 0,0.26193 0.21245,0.47453 0.47455,0.47453 l 12.39091,0 c 0.26212,0 0.47456,-0.21297 0.47456,-0.47453 l 0,-0.43379 c 0,-0.2623 0.21246,-0.47452 0.47457,-0.47452 l 1.0291,0 c 0.2621,0 0.47457,0.21297 0.47457,0.47452 l 0,0.43379 c 0,0.26193 0.21245,0.47453 0.47458,0.47453 l 1.1037,0 c 0.2621,0 0.47458,-0.21297 0.47458,-0.47453 l 0,-21.35574 c 0,-0.26193 -0.21248,-0.47453 -0.47458,-0.47453 z m -16.89654,18.16129 c 0,0.26192 -0.21248,0.47434 -0.47459,0.47434 l -1.02911,0 c -0.26208,0 -0.47456,-0.21316 -0.47456,-0.47434 l 0,-1.02938 c 0,-0.26212 0.21248,-0.47434 0.47456,-0.47434 l 1.02911,0 c 0.26211,0 0.47459,0.21297 0.47459,0.47434 l 0,1.02938 z m 0,-4.26476 c 0,0.2623 -0.21248,0.47471 -0.47459,0.47471 l -1.02911,0 c -0.26208,0 -0.47456,-0.21316 -0.47456,-0.47471 l 0,-1.02901 c 0,-0.26212 0.21248,-0.47434 0.47456,-0.47434 l 1.02911,0 c 0.26211,0 0.47459,0.21297 0.47459,0.47434 l 0,1.02901 z m 0,-4.26439 c 0,0.2623 -0.21248,0.47471 -0.47459,0.47471 l -1.02911,0 c -0.26208,0 -0.47456,-0.21316 -0.47456,-0.47471 l 0,-1.02901 c 0,-0.26212 0.21248,-0.47472 0.47456,-0.47472 l 1.02911,0 c 0.26211,0 0.47459,0.21316 0.47459,0.47472 l 0,1.02901 z m 0,-4.26439 c 0,0.2623 -0.21248,0.47471 -0.47459,0.47471 l -1.02911,0 c -0.26208,0 -0.47456,-0.21316 -0.47456,-0.47471 l 0,-1.02882 c 0,-0.26229 0.21248,-0.47491 0.47456,-0.47491 l 1.02911,0 c 0.26211,0 0.47459,0.21317 0.47459,0.47491 l 0,1.02882 z m 11.28799,14.42822 c 0,0.26212 -0.21245,0.47453 -0.47455,0.47453 l -8.24974,0 c -0.26212,0 -0.47458,-0.21297 -0.47458,-0.47453 l 0,-3.81358 c 0,-0.2623 0.21245,-0.4749 0.47458,-0.4749 l 8.24974,0 c 0.2621,0 0.47455,0.21316 0.47455,0.4749 l 0,3.81358 0,0 z m 0,-6.73677 c 0,0.2621 -0.21245,0.47471 -0.47455,0.47471 l -8.24974,0 c -0.26212,0 -0.47458,-0.21298 -0.47458,-0.47471 l 0,-3.8136 c 0,-0.26229 0.21245,-0.47451 0.47458,-0.47451 l 8.24974,0 c 0.2621,0 0.47455,0.21297 0.47455,0.47451 l 0,3.8136 0,0 z m 0,-6.73661 c 0,0.26212 -0.21245,0.47435 -0.47455,0.47435 l -8.24974,0 c -0.26212,0 -0.47458,-0.21298 -0.47458,-0.47435 l 0,-3.81376 c 0,-0.26193 0.21245,-0.47453 0.47458,-0.47453 l 8.24974,0 c 0.2621,0 0.47455,0.21297 0.47455,0.47453 l 0,3.81376 0,0 z m 4.03031,11.8387 c 0,0.26192 -0.21248,0.47434 -0.47458,0.47434 l -1.02912,0 c -0.26209,0 -0.47457,-0.21316 -0.47457,-0.47434 l 0,-1.02938 c 0,-0.26212 0.21248,-0.47434 0.47457,-0.47434 l 1.02912,0 c 0.2621,0 0.47458,0.21297 0.47458,0.47434 l 0,1.02938 z m 0,-4.26476 c 0,0.2623 -0.21248,0.47471 -0.47458,0.47471 l -1.02912,0 c -0.26209,0 -0.47457,-0.21316 -0.47457,-0.47471 l 0,-1.02901 c 0,-0.26212 0.21248,-0.47434 0.47457,-0.47434 l 1.02912,0 c 0.2621,0 0.47458,0.21297 0.47458,0.47434 l 0,1.02901 z m 0,-4.26439 c 0,0.2623 -0.21248,0.47471 -0.47458,0.47471 l -1.02912,0 c -0.26209,0 -0.47457,-0.21316 -0.47457,-0.47471 l 0,-1.02901 c 0,-0.26212 0.21248,-0.47472 0.47457,-0.47472 l 1.02912,0 c 0.2621,0 0.47458,0.21316 0.47458,0.47472 l 0,1.02901 z m 0,-4.26439 c 0,0.2623 -0.21248,0.47471 -0.47458,0.47471 l -1.02912,0 c -0.26209,0 -0.47457,-0.21316 -0.47457,-0.47471 l 0,-1.02882 c 0,-0.26229 0.21248,-0.47491 0.47457,-0.47491 l 1.02912,0 c 0.2621,0 0.47458,0.21317 0.47458,0.47491 l 0,1.02882 z"
               id="path14795" />
          </g>
        </g>
      </g>
    </g>
  </g>
</svg>
