<?xml version="1.0" encoding="UTF-8" standalone="no"?>
<!-- Created with Inkscape (http://www.inkscape.org/) -->

<svg
   xmlns:osb="http://www.openswatchbook.org/uri/2009/osb"
   xmlns:dc="http://purl.org/dc/elements/1.1/"
   xmlns:cc="http://creativecommons.org/ns#"
   xmlns:rdf="http://www.w3.org/1999/02/22-rdf-syntax-ns#"
   xmlns:svg="http://www.w3.org/2000/svg"
   xmlns="http://www.w3.org/2000/svg"
   xmlns:sodipodi="http://sodipodi.sourceforge.net/DTD/sodipodi-0.dtd"
   xmlns:inkscape="http://www.inkscape.org/namespaces/inkscape"
   width="16"
   height="16"
   id="svg2"
   version="1.1"
   inkscape:version="0.91 r13725"
   viewBox="0 0 16 16"
   sodipodi:docname="application-javascript.svg">
  <defs
     id="defs4">
    <linearGradient
       osb:paint="gradient"
       id="linearGradient4207">
      <stop
         id="stop3371"
         offset="0"
         style="stop-color:#3498db;stop-opacity:1;" />
      <stop
         id="stop3373"
         offset="1"
         style="stop-color:#3498db;stop-opacity:0;" />
    </linearGradient>
  </defs>
  <sodipodi:namedview
     id="base"
     pagecolor="#9c9c9c"
     bordercolor="#666666"
     borderopacity="1.0"
     inkscape:pageopacity="0"
     inkscape:pageshadow="2"
     inkscape:zoom="31.678384"
     inkscape:cx="9.8351302"
     inkscape:cy="7.795785"
     inkscape:document-units="px"
     inkscape:current-layer="layer1-1"
     showgrid="false"
     inkscape:showpageshadow="false"
     borderlayer="true"
     inkscape:window-width="1366"
     inkscape:window-height="630"
     inkscape:window-x="0"
     inkscape:window-y="36"
     inkscape:window-maximized="1"
     units="px"
     inkscape:snap-bbox="true"
     inkscape:object-nodes="true"
     showguides="false">
    <inkscape:grid
       type="xygrid"
       id="grid4101" />
    <sodipodi:guide
       position="2,14.000017"
       orientation="12,0"
       id="guide4071" />
    <sodipodi:guide
       position="2,2.0000174"
       orientation="0,12"
       id="guide4073" />
    <sodipodi:guide
       position="14,2.0000174"
       orientation="-12,0"
       id="guide4075" />
    <sodipodi:guide
       position="14,14.000017"
       orientation="0,-12"
       id="guide4077" />
  </sodipodi:namedview>
  <metadata
     id="metadata7">
    <rdf:RDF>
      <cc:Work
         rdf:about="">
        <dc:format>image/svg+xml</dc:format>
        <dc:type
           rdf:resource="http://purl.org/dc/dcmitype/StillImage" />
        <dc:title />
      </cc:Work>
    </rdf:RDF>
  </metadata>
  <g
     inkscape:label="Capa 1"
     inkscape:groupmode="layer"
     id="layer1"
     transform="translate(0,-1036.3622)">
    <g
       transform="translate(-412.88298,512.00351)"
       id="layer1-4"
       inkscape:label="Capa 1">
      <g
         style="fill:#ffffff;fill-opacity:1"
         inkscape:label="Capa 1"
         id="layer1-7"
         transform="translate(392.57143,-514.5642)" />
      <g
         transform="translate(341.79698,500.25245)"
         id="g4240">
        <g
           transform="translate(-392.98822,-511.27795)"
           id="layer1-1"
           inkscape:label="Capa 1"
           inkscape:transform-center-x="5.4653607"
           inkscape:transform-center-y="-9.4924686">
          <g
             transform="matrix(0.7016013,0,0,0.7016013,488.90653,523.90443)"
             id="g4186"
             style="fill:#4d4d4d;fill-opacity:1">
            <g
               transform="translate(0,0.26550102)"
               id="g4173"
               style="fill:#4d4d4d;fill-opacity:1">
              <g
                 style="fill:#4d4d4d;fill-opacity:1"
                 id="g3"
                 transform="translate(-87.885708,34.009276)">
                <path
                   id="path5"
                   d="m 71.865886,-7.2623604 c -0.115771,0 -0.22293,0.02488 -0.335832,0.0354 0.114815,-0.703237 0.1904,-0.7855196 0.204752,-1.5270286 0,0.0048 -0.0029,0.0096 -0.0029,0.01627 0.0086,-0.06602 0.02201,-0.132036 0.02296,-0.199011 -0.176016,-3.697979 -4.62124,-5.817258 -9.630011,-5.86127 -5.009726,0.04401 -9.453037,2.163291 -9.632913,5.861266 0.0048,0.06698 0.02009,0.132993 0.02392,0.199011 0,-9.56e-4 0,-9.56e-4 0,-9.56e-4 0.148302,6.6247797 4.388774,11.9406786 9.608037,11.9406786 2.857917,0 5.419231,-1.6026149 7.178759,-4.13139887 0.626694,0.71280519 1.53564,1.16919225 2.562271,1.16919225 1.894434,0 3.431988,-2.17285928 3.431988,-4.06920718 0,-1.8934782 -1.536597,-3.4329462 -3.431031,-3.4329462 z m -3.519056,0.882156 c -1.537554,0.875459 -3.777388,1.458141 -6.264072,1.45527 -2.489556,0.0038 -4.730347,-0.579811 -6.269814,-1.45527 -1.560517,-0.88694 -2.296285,-1.9748036 -2.28289,-2.9373296 -0.01435,-0.971137 0.725244,-2.058045 2.28289,-2.944029 1.539467,-0.877372 3.780258,-1.45814 6.269814,-1.454313 2.486684,-0.0048 4.726518,0.576941 6.264072,1.454313 1.560516,0.88694 2.300111,1.972892 2.285759,2.944029 0.01435,0.962526 -0.725243,2.0503896 -2.285759,2.9373296 z m 3.519056,4.7590501 c -0.727157,-9.57e-4 -1.31271,-0.504226 -1.490671,-1.1739758 0.247807,-0.53867 0.46691,-1.7423052 0.653483,-2.3278583 0.246851,-0.15787 0.521448,-0.274597 0.837188,-0.278425 0.864933,0.0038 1.56817,0.7070651 1.570084,1.5719992 -0.0029,0.8668471 -0.705151,2.2073029 -1.570084,2.2082599 z"
                   style="fill:#4d4d4d;fill-opacity:1"
                   inkscape:connector-curvature="0" />
              </g>
            </g>
          </g>
        </g>
      </g>
    </g>
  </g>
</svg>
