<?xml version="1.0" encoding="UTF-8" standalone="no"?>
<!-- Created with Inkscape (http://www.inkscape.org/) -->

<svg
   xmlns:dc="http://purl.org/dc/elements/1.1/"
   xmlns:cc="http://creativecommons.org/ns#"
   xmlns:rdf="http://www.w3.org/1999/02/22-rdf-syntax-ns#"
   xmlns:svg="http://www.w3.org/2000/svg"
   xmlns="http://www.w3.org/2000/svg"
   xmlns:sodipodi="http://sodipodi.sourceforge.net/DTD/sodipodi-0.dtd"
   xmlns:inkscape="http://www.inkscape.org/namespaces/inkscape"
   width="16"
   height="16"
   viewBox="0 0 16 16"
   id="svg2"
   version="1.1"
   inkscape:version="0.91 r13725"
   sodipodi:docname="application-vnd.openxmlformats-officedocument.wordprocessingml.document.svg">
  <defs
     id="defs4" />
  <sodipodi:namedview
     id="base"
     pagecolor="#ffffff"
     bordercolor="#666666"
     borderopacity="1.0"
     inkscape:pageopacity="0.0"
     inkscape:pageshadow="2"
     inkscape:zoom="15.839192"
     inkscape:cx="2.5035762"
     inkscape:cy="7.0000096"
     inkscape:document-units="px"
     inkscape:current-layer="layer1"
     showgrid="false"
     units="px"
     showborder="true"
     inkscape:showpageshadow="false"
     inkscape:window-width="1366"
     inkscape:window-height="633"
     inkscape:window-x="0"
     inkscape:window-y="33"
     inkscape:window-maximized="1" />
  <metadata
     id="metadata7">
    <rdf:RDF>
      <cc:Work
         rdf:about="">
        <dc:format>image/svg+xml</dc:format>
        <dc:type
           rdf:resource="http://purl.org/dc/dcmitype/StillImage" />
        <dc:title></dc:title>
      </cc:Work>
    </rdf:RDF>
  </metadata>
  <g
     inkscape:label="Capa 1"
     inkscape:groupmode="layer"
     id="layer1"
     transform="translate(0,-1036.3622)">
    <path
       style="color:#000000;display:inline;overflow:visible;visibility:visible;fill:#4d4d4d;fill-opacity:1;fill-rule:nonzero;stroke:none;stroke-width:0.99999994;stroke-opacity:1;marker:none;enable-background:accumulate"
       id="rect3139"
       d="m 9.0666663,1036.8956 -9.0666659,1.6 0,11.7333 9.0666659,1.6 0,-14.9333 z m 0.533334,1.6 0,1.6 4.8000007,0 0,0.5333 -4.8000007,0 0,1.0667 4.8000007,0 0,0.5333 -4.8000007,0 0,1.0667 4.8000007,0 0,0.5333 -4.8000007,0 0,1.0667 4.8000007,0 0,0.5333 -4.8000007,0 0,1.0667 4.8000007,0 0,0.5333 -4.8000007,0 0,1.0667 4.8000007,0 0,0.5333 -4.8000007,0 0,1.6 6.3999997,0 0,-11.7333 -6.3999997,0 z m -3.1333331,3.15 0.516666,0 c 0.4738757,0 0.5038755,0.032 0.4499998,0.2667 -0.032069,0.1399 -0.3034665,1.3832 -0.6000002,2.7666 l -0.5333327,2.5167 -0.5499997,0 c -0.2999036,0 -0.5442528,-0.018 -0.5500008,-0.033 -0.00572,-0.016 -0.1780141,-0.8385 -0.3833325,-1.8334 -0.2053184,-0.9948 -0.4000528,-1.7432 -0.4333342,-1.65 -0.033276,0.093 -0.2083698,0.9112 -0.3833324,1.7999 l -0.3166676,1.6168 -0.499999,-0.033 -0.5166672,-0.033 -0.4166661,-2.2166 c -0.232476,-1.2125 -0.4519113,-2.3355 -0.4833335,-2.5 -0.051993,-0.2722 -0.016365,-0.3073 0.3499999,-0.35 0.5104662,-0.06 0.5323211,-0.01 0.8333335,1.95 0.1285959,0.836 0.2325556,1.5325 0.2500002,1.55 0.017447,0.017 0.2007189,-0.7754 0.3999993,-1.75 0.1992803,-0.9747 0.4231783,-1.8013 0.5000003,-1.85 0.2210967,-0.1405 0.8421678,-0.1057 0.8999996,0.05 0.028884,0.078 0.2081221,0.9184 0.3833337,1.8666 0.2931388,1.5864 0.4991118,2.1642 0.5000003,1.4 3.398e-4,-0.3052 0.234421,-1.7625 0.4666667,-2.9333 l 0.1166666,-0.6 z"
       inkscape:connector-curvature="0" />
  </g>
</svg>
