<?xml version="1.0" encoding="UTF-8" standalone="no"?>
<!-- Created with Inkscape (http://www.inkscape.org/) -->

<svg
   xmlns:dc="http://purl.org/dc/elements/1.1/"
   xmlns:cc="http://creativecommons.org/ns#"
   xmlns:rdf="http://www.w3.org/1999/02/22-rdf-syntax-ns#"
   xmlns:svg="http://www.w3.org/2000/svg"
   xmlns="http://www.w3.org/2000/svg"
   xmlns:sodipodi="http://sodipodi.sourceforge.net/DTD/sodipodi-0.dtd"
   xmlns:inkscape="http://www.inkscape.org/namespaces/inkscape"
   width="16"
   height="16"
   viewBox="0 0 16 16"
   id="svg2"
   version="1.1"
   inkscape:version="0.91 r13725"
   sodipodi:docname="application-vnd.openxmlformats-officedocument.presentationml.presentation.svg">
  <defs
     id="defs4" />
  <sodipodi:namedview
     id="base"
     pagecolor="#ffffff"
     bordercolor="#666666"
     borderopacity="1.0"
     inkscape:pageopacity="0.0"
     inkscape:pageshadow="2"
     inkscape:zoom="15.839192"
     inkscape:cx="14.783243"
     inkscape:cy="7.0000096"
     inkscape:document-units="px"
     inkscape:current-layer="layer1"
     showgrid="false"
     units="px"
     showborder="true"
     inkscape:showpageshadow="false"
     inkscape:window-width="1366"
     inkscape:window-height="633"
     inkscape:window-x="0"
     inkscape:window-y="33"
     inkscape:window-maximized="1" />
  <metadata
     id="metadata7">
    <rdf:RDF>
      <cc:Work
         rdf:about="">
        <dc:format>image/svg+xml</dc:format>
        <dc:type
           rdf:resource="http://purl.org/dc/dcmitype/StillImage" />
        <dc:title></dc:title>
      </cc:Work>
    </rdf:RDF>
  </metadata>
  <g
     inkscape:label="Capa 1"
     inkscape:groupmode="layer"
     id="layer1"
     transform="translate(0,-1036.3622)">
    <path
       style="color:#000000;display:inline;overflow:visible;visibility:visible;fill:#4d4d4d;fill-opacity:1;fill-rule:nonzero;stroke:none;stroke-width:0.99999994;stroke-opacity:1;marker:none;enable-background:accumulate"
       id="path3065"
       d="m 9.0666668,1036.8955 -9.06666655,1.6 0,11.7334 9.06666655,1.6 0,-14.9334 z m 0.533333,2.1334 0,0.5333 5.8666662,0 0,6.9333 0.533334,0 0,-6.9333 0,-0.5333 -0.533334,0 -5.8666663,0 z m 0,1.0666 0,1.15 c 0.170755,-0.044 0.3488259,-0.083 0.5333332,-0.083 l 0,2.1334 2.133333,0 c 0,1.1781 -0.955126,2.1332 -2.133333,2.1332 -0.1845073,0 -0.3625782,-0.039 -0.5333332,-0.083 l 0,0.6167 3.7333322,0 0,0.5333 -3.7333322,0 0,1.0667 3.7333322,0 0,0.5333 -3.7333322,0 0,1.6 5.3333332,0 0,-9.6 -5.3333332,0 z m 1.0666662,0.5334 c 1.178207,0 2.133333,0.9551 2.133333,2.1333 l -2.133333,0 0,-2.1333 z m -5.9333332,1.2 c 0.534421,0.01 0.8057769,0.1153 1.033334,0.3333 0.296832,0.2844 0.420202,0.6583 0.416667,1.3167 -0.0058,1.0807 -0.650075,1.75 -1.666667,1.75 l -0.3833331,0 -0.03334,0.8667 -0.01667,0.8833 -0.4,-0.033 -0.4166662,-0.017 0,-2.5166 0,-2.5167 0.8333332,-0.05 c 0.246278,-0.014 0.4551891,-0.02 0.633333,-0.017 z m -0.6166661,0.9 0,0.7666 c 0,0.4209 0.03813,0.7882 0.06666,0.8167 0.08337,0.083 0.315083,0.069 0.6,-0.05 0.345739,-0.1444 0.502719,-0.5958 0.3666669,-1.0499 -0.100315,-0.3348 -0.3226879,-0.4834 -0.75,-0.4834 l -0.283334,0 z"
       inkscape:connector-curvature="0" />
  </g>
</svg>
