<?xml version="1.0" encoding="UTF-8" standalone="no"?>
<!-- Created with Inkscape (http://www.inkscape.org/) -->

<svg
   xmlns:dc="http://purl.org/dc/elements/1.1/"
   xmlns:cc="http://creativecommons.org/ns#"
   xmlns:rdf="http://www.w3.org/1999/02/22-rdf-syntax-ns#"
   xmlns:svg="http://www.w3.org/2000/svg"
   xmlns="http://www.w3.org/2000/svg"
   xmlns:sodipodi="http://sodipodi.sourceforge.net/DTD/sodipodi-0.dtd"
   xmlns:inkscape="http://www.inkscape.org/namespaces/inkscape"
   width="16"
   height="16"
   id="svg2"
   version="1.1"
   inkscape:version="0.91 r13725"
   viewBox="0 0 16 16"
   sodipodi:docname="text-html.svg">
  <defs
     id="defs4" />
  <sodipodi:namedview
     id="base"
     pagecolor="#9c9c9c"
     bordercolor="#666666"
     borderopacity="1.0"
     inkscape:pageopacity="0"
     inkscape:pageshadow="2"
     inkscape:zoom="11.2"
     inkscape:cx="-8.6376959"
     inkscape:cy="9.4711147"
     inkscape:document-units="px"
     inkscape:current-layer="layer1-1"
     showgrid="false"
     inkscape:showpageshadow="false"
     borderlayer="true"
     inkscape:window-width="1366"
     inkscape:window-height="630"
     inkscape:window-x="0"
     inkscape:window-y="36"
     inkscape:window-maximized="1"
     units="px"
     inkscape:snap-bbox="true"
     inkscape:object-nodes="true"
     showguides="false">
    <inkscape:grid
       type="xygrid"
       id="grid4101" />
    <sodipodi:guide
       position="2,14.000017"
       orientation="12,0"
       id="guide4071" />
    <sodipodi:guide
       position="2,2.0000174"
       orientation="0,12"
       id="guide4073" />
    <sodipodi:guide
       position="14,2.0000174"
       orientation="-12,0"
       id="guide4075" />
    <sodipodi:guide
       position="14,14.000017"
       orientation="0,-12"
       id="guide4077" />
  </sodipodi:namedview>
  <metadata
     id="metadata7">
    <rdf:RDF>
      <cc:Work
         rdf:about="">
        <dc:format>image/svg+xml</dc:format>
        <dc:type
           rdf:resource="http://purl.org/dc/dcmitype/StillImage" />
        <dc:title></dc:title>
      </cc:Work>
    </rdf:RDF>
  </metadata>
  <g
     inkscape:label="Capa 1"
     inkscape:groupmode="layer"
     id="layer1"
     transform="translate(0,-1036.3622)">
    <g
       transform="translate(-412.88298,512.00351)"
       id="layer1-4"
       inkscape:label="Capa 1">
      <g
         style="fill:#ffffff;fill-opacity:1"
         inkscape:label="Capa 1"
         id="layer1-7"
         transform="translate(392.57143,-514.5642)" />
      <g
         transform="translate(341.79698,500.25245)"
         id="g4240">
        <rect
           style="opacity:1;fill:#ffffff;fill-opacity:0.40983605;stroke:none"
           id="rect4236-8"
           width="44"
           height="1"
           x="10"
           y="3" />
        <g
           transform="translate(-392.98822,-511.27795)"
           id="layer1-1"
           inkscape:label="Capa 1"
           inkscape:transform-center-x="5.4653607"
           inkscape:transform-center-y="-9.4924686">
          <g
             transform="translate(0.41988239,0.03484499)"
             inkscape:label="Capa 1"
             id="layer1-3">
            <path
               inkscape:connector-curvature="0"
               style="color:#000000;fill:#4d4d4d;fill-opacity:1;fill-rule:nonzero"
               d="m 471.65434,535.34935 c -4.41828,0 -8,3.58173 -8,8 0,4.41827 3.58172,8 8,8 4.41828,0 8,-3.58173 8,-8 0,-4.41827 -3.58172,-8 -8,-8 z m 0,1.33333 c 0.23012,0 0.44255,0.0187 0.66667,0.0413 0.0537,0 0.11333,0 0.16666,0 0.0701,0.0133 0.13887,0.0307 0.20834,0.0413 0.19153,0.0307 0.35602,0.0787 0.54166,0.12533 0.34212,0.084 0.68096,0.19827 1,0.33334 0.1759,0.0747 0.3322,0.1612 0.5,0.25 -10e-5,0.0133 0.001,0.0267 0,0.0413 0.0387,0.0173 0.0597,0.0893 0.12494,0.12533 0.024,0.0133 0.0191,0.0293 0.0416,0.0413 0.0387,0.0213 0.0913,0.0453 0.0833,0.0827 -0.0107,0.0533 -0.0876,0.0427 -0.12493,0.0827 0.005,0.0773 -0.0633,0.0733 -0.0833,0.12533 0.012,0.0333 0.078,0.044 0.0833,0.0827 -0.007,0.0427 -0.0993,0.04 -0.0833,0.0827 0.072,0.056 0.14034,0.0133 0.20834,0 0.14932,-0.0187 0.283,-0.0133 0.375,-0.0827 -0.012,-0.0707 0.13293,-0.0613 0.12493,-0.12533 0.0383,0.028 0.0871,0.0547 0.12493,0.0827 -0.0144,0.0133 -0.0256,0.0347 -0.0416,0.0413 -0.028,0.0133 -0.058,0.0253 -0.0833,0.0413 -0.0373,0.024 -0.0823,0.056 -0.12493,0.0827 -0.0307,0.0213 -0.0929,0.12533 -0.12494,0.12533 -0.0387,0 -0.0969,-0.0493 -0.12493,-0.0413 -0.04,0.0133 -0.0381,0.068 -0.0833,0.0827 -0.088,0.032 -0.26102,-0.048 -0.29167,0.0827 0.0373,0.076 0.18333,0.0413 0.25,0.0827 0.0413,0.0267 0.1144,0.12133 0.12493,0.16666 0.0107,0.0373 0.016,0.21 0,0.25 -0.0413,0.10667 -0.16901,0.084 -0.29166,0.0827 l -0.0833,0 c -0.20665,-0.0133 -0.40666,-0.10667 -0.5,0.0413 0.007,0.11334 0.0253,0.19294 0,0.2916 -0.0187,0.072 -0.12893,0.14627 -0.12493,0.2084 0.001,0.032 0.0753,0.08 0.0833,0.12534 0.005,0.024 -0.0107,0.06 0,0.0827 0.0347,0.0653 0.10534,-0.0133 0.16667,0 0.0587,0.0133 0.12493,0.10134 0.12493,0.16667 0,0.0467 -0.012,0.12133 -0.0416,0.16667 -0.0587,0.088 -0.16601,0.0773 -0.25,0.12533 -0.0693,0.04 -0.0836,0.13947 -0.12493,0.20827 -0.044,0.0747 -0.10067,0.10133 -0.0833,0.2084 -0.06,0.11866 -0.126,0.19266 -0.25,0.25 -0.036,0.016 -0.0917,0.0173 -0.12494,0.0413 -0.0267,0.0187 -0.046,0.0827 -0.0833,0.12533 -0.0467,0.052 -0.0997,0.0853 -0.12493,0.12534 -0.0187,0.0307 -0.0217,0.0827 -0.0416,0.12533 -0.0293,0.056 -0.0877,0.0693 -0.12494,0.12533 -0.0173,0.0267 -0.0231,0.0907 -0.0416,0.12534 -0.0427,0.0773 -0.0913,0.14026 -0.0833,0.20826 0.007,0.064 0.0793,0.0667 0.0833,0.12534 0.004,0.032 -0.0429,0.048 -0.0416,0.0827 10e-4,0.0507 0.0377,0.0853 0.0416,0.12534 0.009,0.0987 -0.0647,0.14093 -0.0833,0.2084 -0.009,0.032 0.008,0.0573 0,0.0827 -0.016,0.0493 -0.082,0.108 -0.0833,0.16667 -10e-4,0.0413 0.0793,0.0667 0.0833,0.12533 0.003,0.0387 -0.0496,0.088 -0.0416,0.12534 0.0147,0.072 0.15235,0.15226 0.20833,0.20826 0.076,0.076 0.17502,0.128 0.20834,0.2084 0.028,0.068 0.0313,0.1992 0.0833,0.25 0.0387,0.0373 0.11733,0.044 0.16667,0.0827 0.0467,0.036 0.0757,0.044 0.12493,0.0827 0.0813,0.064 0.204,0.2176 0.33333,0.20826 0.068,-0.0133 0.13227,-0.0707 0.20834,-0.0827 0.0787,-0.0133 0.17,-0.048 0.25,-0.0413 0.0613,0.0133 0.14433,0.0453 0.20833,0.0413 0.0667,-0.0133 0.1324,-0.0133 0.20833,-0.0413 0.132,-0.0573 0.34968,-0.15266 0.54167,-0.12533 0.14665,0.0213 0.14733,0.18467 0.25,0.25 0.11733,0.0133 0.19833,-0.0227 0.29167,0 0.0707,0.0173 0.16,0.11067 0.16666,0.16667 0.007,0.0573 -0.0753,0.13066 -0.0833,0.16666 -0.0187,0.0773 0.0133,0.15907 0,0.2084 -0.0107,0.0387 -0.0429,0.0867 -0.0416,0.12534 0,0.0347 0.0473,0.12133 0.0833,0.16666 0.044,0.056 0.11334,0.10667 0.16667,0.16667 0.0973,0.112 0.14033,0.22707 0.20833,0.37507 0.0173,0.0373 -0.016,0.0773 0,0.12533 -0.0293,0.22387 -0.10333,0.3772 -0.25,0.62507 -0.0693,0.08 -0.168,0.15013 -0.16666,0.25 -0.005,0.24 0.13566,0.39293 0.12493,0.62493 -0.024,0.31187 0.024,0.33347 0,0.5 0.10533,0.0533 0.0307,0.22253 0,0.33333 -0.0453,0.132 -0.0996,0.162 -0.12493,0.25 0.0708,0.0307 0.17136,0.0187 0.25,0 -0.0397,0.0413 -0.0843,0.084 -0.12494,0.12534 -0.30161,0.3016 -0.64533,0.5936 -1,0.83333 -0.68806,0.4648 -1.45334,0.81787 -2.29166,1 -0.45806,0.1 -0.92882,0.12533 -1.41667,0.12533 -0.25379,0 -0.50419,-0.0133 -0.75,-0.0413 -0.19581,-0.0227 -0.39305,-0.044 -0.58333,-0.0827 -0.37758,-0.0773 -0.73196,-0.23693 -1.08334,-0.37506 -0.012,-0.0227 -0.0445,-0.056 -0.0416,-0.0827 0.0693,-0.0293 0.19934,0.0987 0.25,0 0.0253,-0.0467 -0.0333,-0.1616 0,-0.20827 0.024,-0.032 0.159,-0.032 0.20834,-0.0413 0.0707,-0.0133 0.16833,-0.0227 0.20833,-0.0413 0.044,-0.028 0.0913,-0.12667 0.0833,-0.2084 -0.004,-0.0387 -0.0528,-0.048 -0.0833,-0.0827 -0.0253,-0.0293 0.0173,-0.056 0,-0.0827 -0.032,-0.0467 -0.11173,-0.0573 -0.12493,-0.12533 0.096,-0.0187 0.23634,0.08 0.375,0.0413 0.0653,-0.0187 0.17766,-0.1468 0.20833,-0.20826 0.009,-0.0187 -0.0107,-0.0587 0,-0.0827 0.012,-0.024 0.0376,-0.0707 0.0416,-0.0827 0.009,-0.036 -0.008,-0.0173 0,-0.0413 0.024,-0.068 0.0849,-0.11867 0.12493,-0.16667 0.0307,-0.0373 0.0969,-0.0867 0.12494,-0.12533 0.032,-0.0413 0.0204,-0.0453 0.0416,-0.0827 0.02,-0.12133 -0.0709,-0.2268 -0.0416,-0.33333 0.032,-0.12 0.21734,-0.19533 0.33333,-0.25 0.04,-0.0187 0.0917,-0.0293 0.12493,-0.0413 0.08,-0.028 0.17534,-0.0573 0.25,-0.0827 0.12534,-0.0453 0.147,-0.13547 0.20834,-0.25 0.0293,-0.0533 0.078,-0.128 0.0833,-0.16667 0.005,-0.0347 -0.007,-0.0427 0,-0.0827 0.007,-0.0387 -0.0107,-0.08 0,-0.12534 0.0147,-0.0573 0.0416,-0.18613 0.0416,-0.25 0,-0.0533 -0.0404,-0.0773 -0.0416,-0.12533 -0.009,-0.17333 0.0611,-0.15533 0.12493,-0.25 0.032,-0.0467 0.0608,-0.13333 0.0833,-0.16667 0.108,-0.16 0.305,-0.2156 0.29166,-0.45826 -0.005,-0.08 -0.0664,-0.2664 -0.12493,-0.29174 -0.0333,-0.0147 -0.0756,-0.024 -0.12493,-0.0413 -0.15732,-0.0587 -0.29436,-0.23667 -0.45834,-0.25 l -0.0833,0 c -0.064,0 -0.13635,-0.032 -0.20833,-0.0413 -0.0453,-0.0133 -0.14,0.0133 -0.16667,0 -0.0413,-0.02 -0.05,-0.10267 -0.0833,-0.12534 -0.0267,-0.0187 -0.0837,-0.0267 -0.12494,-0.0413 -0.0653,-0.024 -0.0907,-0.0787 -0.16666,-0.0827 -0.024,0 -0.0567,0.0133 -0.0833,0 -0.0413,-0.0133 -0.0864,-0.0173 -0.12493,-0.0413 -0.048,-0.0293 -0.10507,-0.0413 -0.12493,-0.0827 0.044,-0.14386 -0.0957,-0.166 -0.12494,-0.25 -0.0133,-0.0387 0.0133,-0.132 0,-0.16666 -0.0173,-0.0493 -0.0704,-0.084 -0.12493,-0.12534 -0.096,-0.0747 -0.15435,-0.108 -0.29167,-0.12533 -0.0613,-0.0133 -0.13501,0.0133 -0.20833,0 -0.0773,-0.0133 -0.19135,-0.0587 -0.25,-0.12533 -0.056,-0.0653 -0.0757,-0.13587 -0.12493,-0.16667 -0.0467,-0.0293 -0.0931,-0.0533 -0.12494,-0.0827 -0.0147,-0.0133 -0.0283,-0.0133 -0.0416,-0.0413 -0.024,-0.0493 -0.0709,-0.0653 -0.0416,-0.12533 -0.0533,-0.0267 -0.026,0.0507 -0.0833,0.0413 -0.052,-0.0733 -0.0911,-0.1464 -0.20833,-0.12533 -0.0533,0.0133 -0.104,0.124 -0.16667,0.12533 -0.052,0 -0.0987,-0.11467 -0.16667,-0.12533 -0.052,-0.0133 -0.13066,0.048 -0.16666,0.0413 -0.0573,-0.0133 -0.0731,-0.048 -0.12494,-0.0827 -0.0387,-0.0253 -0.1036,-0.084 -0.12493,-0.0827 -0.0667,0 -0.1164,0.132 -0.20833,0.0827 -0.0453,-0.0573 0.0951,-0.072 0.0416,-0.12533 -0.04,-0.0387 -0.0513,0.0227 -0.0833,0.0413 -0.0373,0.024 -0.0837,0.0267 -0.12493,0.0413 -0.092,0.0347 -0.17801,0.0453 -0.25,0.0827 -0.0667,0.0347 -0.0864,0.0573 -0.12493,0.12534 -0.0307,0.056 -0.0784,0.164 -0.12494,0.16666 -0.056,0 -0.0743,-0.06 -0.12493,-0.0827 -0.15332,-0.0667 -0.24835,0.0387 -0.375,0.0413 -0.11733,0 -0.297,-0.18093 -0.29167,-0.2916 0.004,-0.068 0.0337,-0.166 0.0416,-0.25 0.007,-0.0667 0.0821,-0.1476 0.0833,-0.2084 10e-4,-0.0827 -0.15502,-0.116 -0.20834,-0.12533 -0.12533,-0.0227 -0.27401,0.056 -0.41666,0 -0.0267,-0.0453 0.0257,-0.08 0.0416,-0.12534 0.009,-0.024 -0.009,-0.056 0,-0.0827 0.016,-0.0427 0.10506,-0.08 0.12493,-0.12534 0.0147,-0.0347 -0.0147,-0.0813 0,-0.12533 0.0173,-0.048 0.0793,-0.0907 0.0833,-0.12533 0.005,-0.0453 -0.0475,-0.096 -0.0833,-0.12534 -0.11067,0.0133 -0.186,0.0133 -0.25,0.0413 -0.14399,0.0653 -0.10467,0.24626 -0.25,0.2916 -0.0493,0.016 -0.11067,0.032 -0.16667,0.0413 -0.0244,0.0133 -0.056,0 -0.0833,0 0.003,-0.0133 -0.003,-0.028 0,-0.0413 0.007,-0.0307 0.0351,-0.0533 0.0416,-0.0827 0.0951,-0.43333 0.24185,-0.8528 0.41667,-1.25 l 0.0416,0 c 0.0507,0.0133 0.0809,0.08 0.12493,0.0827 0.12267,0.0133 0.14867,-0.11334 0.25,-0.16667 0.104,0.0147 0.15533,-0.0133 0.25,0 0.064,0.0133 0.15767,0.0773 0.20833,0.0827 0.0427,0 0.0433,-0.0467 0.0833,-0.0413 0.04,0.0133 0.1184,0.0773 0.12493,0.12534 0.007,0.06 -0.0591,0.14226 -0.0416,0.2084 0.0627,0.064 0.20233,0.088 0.29167,0.12533 0.0587,-0.0493 0.009,-0.13893 0,-0.20827 -10e-4,-0.0307 0.004,-0.0973 0,-0.12533 -0.007,-0.048 -0.0416,-0.084 -0.0416,-0.12533 0,-0.19067 0.16368,-0.2588 0.29166,-0.33334 0.0547,-0.032 0.11867,-0.10133 0.16667,-0.12533 0.068,-0.0333 0.11067,-0.0133 0.16667,-0.0413 0.10133,-0.0573 0.17133,-0.14347 0.25,-0.2084 0.036,-0.0867 -0.004,-0.20627 0,-0.2916 0.036,-0.0227 0.0864,0 0.12493,0 0.0613,-0.0133 0.0903,-0.0907 0.12493,-0.12534 0.02,-0.02 0.0593,-0.0213 0.0833,-0.0413 0.0613,-0.048 0.0716,-0.104 0.12493,-0.12533 0.0187,-0.0133 0.054,-0.032 0.0833,-0.0413 0.04,-0.0133 0.10267,-0.0173 0.16667,-0.0413 0.0413,-0.0147 0.15067,-0.024 0.16667,-0.0413 0.02,-0.02 -0.005,-0.0947 0,-0.12534 0.032,-0.15053 0.24034,-0.15746 0.375,-0.20826 0.0933,-0.0347 0.18766,-0.14374 0.29166,-0.12534 -0.02,0.072 -0.10066,0.08 -0.0833,0.16667 0.0227,0.12133 0.16567,-0.024 0.20833,-0.0413 0.0813,-0.0347 0.22667,-0.0853 0.33334,-0.12534 0.0933,-0.0333 0.25465,-0.0587 0.16666,-0.16666 -0.0733,-0.0133 -0.10266,0.0573 -0.16666,0.0827 -0.044,0.0133 -0.046,-0.0373 -0.0833,-0.0413 -0.036,0 -0.0473,0.048 -0.0833,0.0413 -0.036,-0.0133 -0.078,-0.0813 -0.0833,-0.12533 -0.0147,-0.112 0.0797,-0.12533 0.12493,-0.2084 -0.0307,-0.10133 -0.16468,-0.044 -0.25,-0.0827 0.009,-0.06 0.0544,-0.112 0.12493,-0.12533 0.0573,-0.0133 0.21534,0.0133 0.25,0.0413 0.02,0.0173 -0.0305,0.056 0,0.0827 0.0347,0.0307 0.0797,0.0133 0.12494,0 0.016,-0.076 -0.0967,-0.0333 -0.0833,-0.0827 0.0907,-0.0587 0.26434,-0.0267 0.375,-0.0413 0.064,-0.0133 0.151,-0.052 0.20834,-0.0827 0.0533,-0.0307 0.0691,-0.092 0.12493,-0.0413 0.016,0.0547 -0.0107,0.096 -0.0416,0.12533 -0.10267,0.0907 -0.21168,0.1864 -0.29167,0.2916 0.0493,0.048 0.1256,0.032 0.20834,0.0413 0.032,0.0133 0.0916,0 0.12493,0 0.04,0.0133 0.0929,-0.0133 0.12493,0 0.056,0.0133 0.0691,0.12533 0.12494,0.12533 0.0907,0 0.052,-0.10667 0,-0.16667 0.016,-0.0627 0.0644,-0.12266 0.0416,-0.16666 -0.0413,-0.0827 -0.20034,0.024 -0.20834,-0.0827 -0.005,-0.0667 0.0593,-0.0747 0.0833,-0.12533 -0.0107,-0.128 0.0967,-0.134 0.0833,-0.25 -0.007,-0.048 -0.05,-0.0373 -0.0833,-0.0827 -0.0173,-0.024 -0.0217,-0.10667 -0.0416,-0.12533 -0.0693,-0.0587 -0.20034,-0.0133 -0.20834,-0.12534 -0.004,-0.0667 0.009,-0.13693 0,-0.2084 -0.009,-0.068 -0.0664,-0.27826 -0.12493,-0.2916 -0.0747,-0.016 -0.11907,0.12534 -0.20833,0.16667 -0.048,0.0227 -0.15902,0.0493 -0.20834,0.0413 -0.032,-0.0133 -0.0793,-0.02 -0.0833,-0.0827 -0.005,-0.056 0.0624,-0.0813 0.0833,-0.12534 0.005,-0.0133 -0.003,-0.0267 0,-0.0413 0.0968,-0.0267 0.19328,-0.06 0.29167,-0.0827 0.0559,-0.0133 0.11027,-0.0307 0.16667,-0.0413 0.0399,-0.0133 0.0849,0.0133 0.12493,0 0.17807,-0.0333 0.35892,-0.0653 0.54167,-0.0827 0.22165,-0.0227 0.43853,-0.0413 0.66666,-0.0413 z m -2.70833,0.62507 c -0.0424,0.24333 -0.27034,0.34027 -0.54167,0.33333 -0.0613,0.0587 -0.008,0.16867 -0.0416,0.25 -0.028,0.068 -0.14035,0.13067 -0.20833,0.12534 -0.0493,0 -0.12494,-0.0787 -0.12494,-0.12534 0,-0.0573 0.0911,-0.06 0.0416,-0.12533 0.003,-0.0133 0.0277,-0.028 0.0416,-0.0413 0.0269,-0.0173 0.0561,-0.0253 0.0833,-0.0413 0.2416,-0.14866 0.48928,-0.2576 0.75,-0.37493 z m 5.58333,0.25 c -0.0245,0.0133 -0.02,0.028 -0.0416,0.0413 -0.0507,0.0307 -0.0863,0.0693 -0.12493,0.0827 -0.0547,0.02 -0.11694,0.0333 -0.12494,0.0827 -0.007,0.0413 0.0431,0.0453 0.0416,0.0827 -0.02,0.0493 -0.0309,0.0653 -0.0416,0.12534 0.068,0.11066 0.20768,-0.024 0.29167,-0.0413 0.0373,-0.0133 0.0633,-0.0133 0.0833,-0.0413 0.0227,-0.036 0.0244,-0.0747 0.0416,-0.12533 0.0187,-0.056 0.09,-0.076 0.0833,-0.12534 -0.005,-0.0493 -0.12574,-0.0893 -0.20834,-0.0827 z m -7.29167,0.83333 c 0.0632,0.0507 0.15208,0.1608 0.0416,0.20827 -0.0133,0.0133 -0.17634,0.0467 -0.20833,0.0413 -0.0133,0 -0.0304,-0.032 -0.0416,-0.0413 0.0689,-0.0667 0.1366,-0.14427 0.20833,-0.20827 z m 0.25,0.25 c 0.032,0 0.046,0.0813 0.0833,0.0827 0.036,0 0.062,-0.0467 0.0833,-0.0413 0.056,0.0147 0.0951,0.12533 0.0416,0.16666 -0.044,0.0133 -0.0513,-0.0467 -0.0833,-0.0413 -0.0907,0.016 -0.14035,0.2136 -0.20834,0.20827 -0.064,-0.0133 -0.10706,-0.1616 -0.0416,-0.20827 10e-4,-0.04 -0.003,-0.0413 0,-0.0827 0.02,-0.024 0.0716,-0.0867 0.12494,-0.0827 z m -0.33333,0.0413 c 0.0187,0 0.0349,-0.0133 0.0416,0 -0.009,0.0707 -0.0287,0.092 -0.0833,0.12533 -0.0947,0.0573 -0.17767,0.128 -0.20834,0.25 -0.009,0.036 -0.12133,0.13387 -0.16666,0.12533 -0.10534,-0.0227 0.0593,-0.21946 0.0833,-0.25 0.0267,-0.0333 0.0527,-0.0453 0.0833,-0.0827 0.0307,-0.0373 0.054,-0.104 0.0833,-0.12534 0.032,-0.0227 0.11066,-0.044 0.16666,-0.0413 z m 9.04167,0.2084 c 0.10533,-0.0133 0.16033,0.10266 0.20833,0.16666 0.04,0.052 0.14299,0.13067 0.20833,0.16667 0.0373,0.02 0.0836,0.0653 0.12494,0.0827 0.0867,0.0387 0.24598,0.16466 0.25,0.25 10e-4,0.0427 -0.0484,0.0853 -0.0416,0.12533 0.0653,0.0133 0.12373,-0.10133 0.12493,-0.16667 0.12253,0.17334 0.22747,0.35694 0.33333,0.54174 0.05,0.0867 0.12054,0.16 0.16667,0.25 -0.0588,0.0173 -0.0739,0.0267 -0.0833,0.0827 -0.0133,0.0747 0.0287,0.19507 -0.0833,0.20827 -0.0707,0.0133 -0.15268,-0.06 -0.25,-0.0827 -0.04,-0.0133 -0.0929,0.0133 -0.12493,0 -0.0733,-0.024 -0.0623,-0.12266 -0.12493,-0.16666 -0.036,-0.0253 -0.151,-0.0773 -0.20834,-0.0827 -0.036,0 -0.046,0.0133 -0.0833,0 -0.0453,-0.0133 -0.12933,0.0187 -0.16667,0 -0.036,-0.0227 -0.1156,-0.0947 -0.12493,-0.12533 -0.0147,-0.0493 0.12227,-0.0827 0.12493,-0.12534 0.003,-0.032 -0.0351,-0.076 -0.0416,-0.12533 -0.005,-0.0293 0.007,-0.0627 0,-0.0827 -0.009,-0.0347 -0.0704,-0.04 -0.12493,-0.0413 -0.048,0 -0.0837,0 -0.12493,0 -0.0587,0 -0.17668,0 -0.25,0 -0.044,0 -0.0836,0 -0.12494,0 -0.116,0.0133 -0.20101,-0.0133 -0.29166,0 -0.0653,0 -0.18868,0.056 -0.25,0.0827 -0.0307,0.0147 -0.0433,0.0213 -0.0833,0.0413 -0.0187,0.0133 -0.0593,0.0307 -0.0833,0.0413 -0.0373,0.0173 -0.0891,0.072 -0.12493,0.0827 -0.052,0.0133 -0.11374,-0.0133 -0.20834,0 -0.068,0 -0.16533,-0.044 -0.16666,-0.12533 -10e-4,-0.124 0.21601,-0.06 0.33333,-0.0827 0.044,-0.0133 0.0716,-0.0507 0.12493,-0.0827 0.0253,-0.0147 0.0177,-0.0253 0.0416,-0.0413 0.04,-0.028 0.1184,-0.0933 0.12494,-0.12533 0.005,-0.0293 -0.004,-0.06 0,-0.0827 0.005,-0.028 0.0473,-0.0453 0.0833,-0.0827 0.056,-0.056 0.0973,-0.13066 0.16667,-0.16666 0.0467,-0.024 0.10373,-0.0453 0.12493,-0.0827 0.005,-0.0427 -10e-4,-0.0427 0,-0.0827 0.0293,-0.0267 0.0593,-0.036 0.0833,-0.0413 0.072,-0.016 0.1244,0 0.20834,0 0.036,0 0.0864,0.0173 0.12493,0 0.032,-0.0213 0.0513,-0.068 0.0833,-0.0827 0.0347,-0.0187 0.0823,-0.0387 0.12494,-0.0413 z m 0.75,0.7916 -0.16667,0 c -0.0587,0 -0.132,-0.0307 -0.16667,0 0.0493,0.08 0.13934,0.10533 0.25,0.12533 0.04,-0.0293 0.0647,-0.0733 0.0833,-0.12533 z m -9.125,-0.75 0.12493,0 c 0.0333,0 0.07,-0.0133 0.0833,0 -0.0213,0.088 -0.22234,0.0733 -0.29166,0.0413 0.004,-0.0333 0.0407,-0.036 0.0833,-0.0413 z m -0.29167,0.16666 c -0.0583,0.0427 -0.11587,0.096 -0.20833,0.12534 -0.0507,0.016 -0.1156,0.0147 -0.12494,-0.0413 -0.0107,-0.0693 0.0796,-0.0347 0.12494,-0.0413 0.0587,-0.0133 0.14033,-0.0387 0.20833,-0.0413 z m 8.66667,0 c -0.044,0.0147 -0.0653,0.112 0,0.12534 0.0307,-0.0187 0.0497,-0.068 0.0416,-0.12534 -0.0173,-0.0187 -0.0284,-0.0133 -0.0416,0 z m -0.0833,0.2084 c 0.001,0.0747 0.0147,0.14347 0,0.20827 0.0427,0.0827 0.14534,0.0147 0.16667,-0.0413 0.0253,-0.13867 -0.0193,-0.184 -0.0833,-0.16667 -0.0213,0.0133 -0.0608,-0.0173 -0.0833,0 z m -11.04166,3.12494 c 0.0752,0.068 0.1184,0.16386 0.20833,0.2084 0.0333,0.0173 0.0824,0.0307 0.12493,0.0413 0.0347,0.0133 0.05,-0.0133 0.0833,0 0.0707,0.024 0.15234,0.0573 0.20833,0.0827 0.0853,0.0373 0.17667,0.16573 0.25,0.2084 0.004,0.0427 -0.0133,0.0933 0,0.12533 0.0347,0.0467 0.0689,0.0933 0.12493,0.12533 0.068,0.0373 0.10267,0.096 0.16667,0.12534 0.0227,0.0133 0.0487,-0.0133 0.0833,0 0.088,0.0267 0.13227,0.14746 0.20834,0.12533 0.0493,-0.0147 0.0337,-0.0773 0.0416,-0.12533 0.0333,-0.036 0.0729,-0.0827 0.12493,-0.0827 0.0827,0 0.0944,0.128 0.12493,0.2084 0.0173,0.0453 0.0713,0.0773 0.0833,0.12533 0.02,0.0827 0.0173,0.32574 0,0.37507 -0.0213,0.0613 -0.116,0.0573 -0.16667,0.12533 -0.024,0.032 -0.0231,0.10267 -0.0416,0.12534 -0.032,0.0387 -0.0593,0.0467 -0.0833,0.0827 -0.0133,0.02 -0.0297,0.056 -0.0416,0.0827 -0.04,0.0853 -0.11667,0.14733 -0.0833,0.25 0.0133,0.0413 0.0833,0.076 0.0833,0.12533 0,0.0587 -0.1156,0.10267 -0.12494,0.16667 -0.007,0.0467 0.0271,0.104 0.0416,0.16667 0.0107,0.0467 0.0969,0.0947 0.12494,0.12533 0.0467,0.052 0.0824,0.14227 0.12493,0.20827 0.084,0.12933 0.12573,0.29 0.20833,0.41666 0.044,0.0653 0.13734,0.0973 0.16667,0.16667 0.0147,0.0347 -0.0133,0.0933 0,0.12533 0.048,0.108 0.267,0.2384 0.375,0.2916 0.0507,0.0253 0.12,0.0147 0.16667,0.0413 0.0707,0.04 0.214,0.14613 0.25,0.20826 0.032,0.056 0.0257,0.20254 0.0416,0.29174 0.02,0.11733 -0.005,0.20653 0,0.33333 0.004,0.0693 0.0416,0.0973 0.0416,0.16667 0,0.024 0.001,0.1 0,0.12533 -10e-4,0.0827 0.007,0.166 0,0.25 -0.004,0.0453 -0.003,0.0867 0,0.12533 0.004,0.0413 0.0391,0.0467 0.0416,0.0827 0.003,0.0387 -0.0457,0.0947 -0.0416,0.12533 0.009,0.084 0.0673,0.13067 0.0833,0.2084 0.0133,0.0613 0.0496,0.21827 0.0416,0.2916 -0.005,0.0387 -0.0363,0.0813 -0.0416,0.12534 -0.004,0.0347 0.005,0.052 0,0.0827 -0.004,0.0307 0.008,0.0573 0,0.0827 -0.0424,-0.0267 -0.0832,-0.0547 -0.12493,-0.0827 -0.35467,-0.23973 -0.6984,-0.53173 -1,-0.83333 -0.0408,-0.0413 -0.0853,-0.0827 -0.12494,-0.12533 -0.24077,-0.25347 -0.46781,-0.5444 -0.66666,-0.83334 -0.018,-0.0267 -0.024,-0.0573 -0.0416,-0.0827 -0.23074,-0.34574 -0.41959,-0.69614 -0.58334,-1.08334 -0.012,-0.028 -0.0303,-0.0547 -0.0416,-0.0827 -0.1405,-0.34534 -0.2519,-0.712 -0.33333,-1.08334 -0.0153,-0.0707 -0.0285,-0.13746 -0.0416,-0.20826 -0.0331,-0.17814 -0.0648,-0.35894 -0.0833,-0.54174 -0.0228,-0.226 -0.0416,-0.4384 -0.0416,-0.66853 0,-0.3168 0.0405,-0.6116 0.0833,-0.91667 z m 2.58333,0.70866 c 0.064,-0.0293 0.052,0.0747 0,0.0827 -0.0493,0.0133 -0.048,-0.0587 0,-0.0827 z"
               id="path26" />
          </g>
        </g>
      </g>
    </g>
  </g>
</svg>
