<?xml version="1.0" encoding="UTF-8" standalone="no"?>
<!-- Created with Inkscape (http://www.inkscape.org/) -->

<svg
   xmlns:sketch="http://www.bohemiancoding.com/sketch/ns"
   xmlns:dc="http://purl.org/dc/elements/1.1/"
   xmlns:cc="http://creativecommons.org/ns#"
   xmlns:rdf="http://www.w3.org/1999/02/22-rdf-syntax-ns#"
   xmlns:svg="http://www.w3.org/2000/svg"
   xmlns="http://www.w3.org/2000/svg"
   xmlns:sodipodi="http://sodipodi.sourceforge.net/DTD/sodipodi-0.dtd"
   xmlns:inkscape="http://www.inkscape.org/namespaces/inkscape"
   width="32"
   height="32"
   id="svg5453"
   version="1.1"
   inkscape:version="0.91 r13725"
   sodipodi:docname="folder-camera.svg">
  <defs
     id="defs5455" />
  <sodipodi:namedview
     id="base"
     pagecolor="#ffffff"
     bordercolor="#666666"
     borderopacity="1.0"
     inkscape:pageopacity="0"
     inkscape:pageshadow="2"
     inkscape:zoom="15"
     inkscape:cx="13.10091"
     inkscape:cy="15.369188"
     inkscape:document-units="px"
     inkscape:current-layer="layer1"
     showgrid="false"
     fit-margin-top="0"
     fit-margin-left="0"
     fit-margin-right="0"
     fit-margin-bottom="0"
     inkscape:window-width="1366"
     inkscape:window-height="635"
     inkscape:window-x="0"
     inkscape:window-y="36"
     inkscape:window-maximized="1"
     inkscape:showpageshadow="false"
     borderlayer="true"
     showguides="false"
     inkscape:guide-bbox="true"
     inkscape:object-nodes="true"
     inkscape:snap-bbox="true">
    <inkscape:grid
       type="xygrid"
       id="grid4063" />
    <sodipodi:guide
       position="2.0000117,30.000026"
       orientation="28,0"
       id="guide4167" />
    <sodipodi:guide
       position="17,5"
       orientation="0,28"
       id="guide4169" />
    <sodipodi:guide
       position="30.000012,2.0000264"
       orientation="-28,0"
       id="guide4171" />
    <sodipodi:guide
       position="30.000012,30.000026"
       orientation="0,-28"
       id="guide4173" />
    <sodipodi:guide
       position="2.0000117,30.000026"
       orientation="28,0"
       id="guide4181" />
    <sodipodi:guide
       position="16.000012,30.000026"
       orientation="0,-14"
       id="guide4187" />
    <sodipodi:guide
       position="5.0000117,30.000026"
       orientation="28,0"
       id="guide4143" />
    <sodipodi:guide
       position="5.0000117,2.0000264"
       orientation="0,22"
       id="guide4145" />
    <sodipodi:guide
       position="27.000012,2.0000264"
       orientation="-28,0"
       id="guide4147" />
    <sodipodi:guide
       position="27.000012,30.000026"
       orientation="0,-22"
       id="guide4149" />
    <sodipodi:guide
       position="27,30"
       orientation="0,-7"
       id="guide4155" />
    <sodipodi:guide
       position="27.00001,23"
       orientation="-7,-1e-05"
       id="guide4162" />
    <sodipodi:guide
       position="24,27"
       orientation="0,1"
       id="guide3378" />
  </sodipodi:namedview>
  <metadata
     id="metadata5458">
    <rdf:RDF>
      <cc:Work
         rdf:about="">
        <dc:format>image/svg+xml</dc:format>
        <dc:type
           rdf:resource="http://purl.org/dc/dcmitype/StillImage" />
        <dc:title></dc:title>
      </cc:Work>
    </rdf:RDF>
  </metadata>
  <g
     inkscape:label="Capa 1"
     inkscape:groupmode="layer"
     id="layer1"
     transform="translate(-384.57143,-515.798)">
    <g
       id="g4187"
       transform="matrix(0.7863692,0,0,0.78394543,93.325829,112.35451)">
      <g
         transform="matrix(0.10752924,0,0,0.10752924,446.17455,491.51412)"
         id="g4956"
         style="stroke:#60aae5;stroke-opacity:1;stroke-width:4.73780576;stroke-miterlimit:4;stroke-dasharray:none">
        <g
           style="fill:#bddef8;fill-opacity:1;stroke:#60aae5;stroke-width:1.81468021;stroke-miterlimit:4;stroke-dasharray:none;stroke-opacity:1"
           transform="matrix(2.6108213,0,0,2.6108213,-768.22476,390.2786)"
           id="layer1-7-5-6">
          <path
             sodipodi:nodetypes="scccssccccs"
             d="m 43.886832,-36.6986 c -1.108,0 -1.999909,0.892 -1.999909,2 l 0,81.609112 110.999917,0.239943 0,-70.041215 c 0,-1.108 -0.892,-2.000003 -2,-2.000005 l -60.173559,-1.02e-4 c -2.038523,0.180281 -2.301118,-0.09036 -3.308458,-1.434967 -1.428506,-1.911776 -3.585547,-7.064534 -4.99187,-8.929393 -1.128792,-1.632735 -1.311871,-1.443378 -3.183935,-1.443378 z"
             inkscape:connector-curvature="0"
             id="rect8678-4-5-5-1"
             style="color:#000000;display:inline;overflow:visible;visibility:visible;fill:#b5d5f7;fill-opacity:1;fill-rule:nonzero;stroke:#6998c9;stroke-width:1.81468022;stroke-miterlimit:4;stroke-dasharray:none;stroke-opacity:1;marker:none;enable-background:accumulate" />
        </g>
      </g>
    </g>
    <path
       style="opacity:1;fill:#6a98ca;fill-opacity:1;stroke:none;stroke-width:1;stroke-linecap:round;stroke-linejoin:round;stroke-miterlimit:4;stroke-dasharray:none;stroke-opacity:1"
       d="m 388.57144,522.66235 8.59999,0 1.8,2.63365 -10.39999,0 z"
       id="rect4206"
       inkscape:connector-curvature="0"
       sodipodi:nodetypes="ccccc" />
    <path
       inkscape:connector-curvature="0"
       d="m 406.03001,530.2042 c -0.30842,-0.30042 -0.68043,-0.45067 -1.11634,-0.45067 l -1.38159,0 -0.31447,-0.81729 c -0.0781,-0.19627 -0.22096,-0.36556 -0.42871,-0.50784 -0.20765,-0.14223 -0.42045,-0.2134 -0.6384,-0.2134 l -3.15798,0 c -0.21795,0 -0.43076,0.0712 -0.63842,0.2134 -0.20764,0.14228 -0.3505,0.31157 -0.42863,0.50784 l -0.31455,0.81729 -1.38159,0 c -0.43591,0 -0.80798,0.15025 -1.1164,0.45067 -0.30834,0.30051 -0.46255,0.66305 -0.46255,1.08776 l 0,5.3846 c 0,0.42472 0.15421,0.78734 0.46255,1.08768 0.30842,0.30052 0.68049,0.45076 1.1164,0.45076 l 8.68428,0 c 0.43589,0 0.8079,-0.15024 1.11633,-0.45076 0.30833,-0.30034 0.46254,-0.66296 0.46254,-1.08768 l 0,-5.3846 c 6e-5,-0.42471 -0.15413,-0.78725 -0.46247,-1.08776 l 0,0 z m -3.50645,5.68214 c -0.54067,0.52689 -1.19135,0.79029 -1.95209,0.79029 -0.76074,0 -1.41134,-0.2634 -1.9521,-0.79029 -0.54076,-0.52681 -0.81108,-1.16084 -0.81108,-1.902 0,-0.74123 0.2704,-1.37514 0.81108,-1.90202 0.54067,-0.52688 1.19136,-0.79028 1.9521,-0.79028 0.76074,0 1.41135,0.26348 1.95209,0.79028 0.54075,0.5268 0.8111,1.16079 0.8111,1.90202 0,0.74116 -0.27042,1.37512 -0.8111,1.902 z m -1.95209,-3.63282 c -0.48935,0 -0.90769,0.16928 -1.25518,0.50786 -0.34747,0.33855 -0.5212,0.74616 -0.5212,1.22296 0,0.47679 0.17373,0.88439 0.5212,1.22296 0.34749,0.33849 0.76583,0.50777 1.25518,0.50777 0.48927,0 0.90769,-0.16928 1.25517,-0.50777 0.34747,-0.33857 0.52122,-0.74617 0.52122,-1.22296 0,-0.4768 -0.17375,-0.88441 -0.52122,-1.22296 -0.34748,-0.33858 -0.7659,-0.50786 -1.25517,-0.50786 z"
       id="Camera"
       sketch:type="MSShapeGroup"
       style="fill:#6998c9;fill-opacity:1" />
  </g>
</svg>
