<?xml version="1.0" encoding="UTF-8" standalone="no"?>
<!-- Created with Inkscape (http://www.inkscape.org/) -->

<svg
   xmlns:sketch="http://www.bohemiancoding.com/sketch/ns"
   xmlns:dc="http://purl.org/dc/elements/1.1/"
   xmlns:cc="http://creativecommons.org/ns#"
   xmlns:rdf="http://www.w3.org/1999/02/22-rdf-syntax-ns#"
   xmlns:svg="http://www.w3.org/2000/svg"
   xmlns="http://www.w3.org/2000/svg"
   xmlns:sodipodi="http://sodipodi.sourceforge.net/DTD/sodipodi-0.dtd"
   xmlns:inkscape="http://www.inkscape.org/namespaces/inkscape"
   width="32"
   height="32"
   id="svg5453"
   version="1.1"
   inkscape:version="0.91 r13725"
   sodipodi:docname="folder-development.svg">
  <defs
     id="defs5455" />
  <sodipodi:namedview
     id="base"
     pagecolor="#ffffff"
     bordercolor="#666666"
     borderopacity="1.0"
     inkscape:pageopacity="0"
     inkscape:pageshadow="2"
     inkscape:zoom="15"
     inkscape:cx="13.10091"
     inkscape:cy="15.369188"
     inkscape:document-units="px"
     inkscape:current-layer="layer1"
     showgrid="false"
     fit-margin-top="0"
     fit-margin-left="0"
     fit-margin-right="0"
     fit-margin-bottom="0"
     inkscape:window-width="1366"
     inkscape:window-height="635"
     inkscape:window-x="0"
     inkscape:window-y="36"
     inkscape:window-maximized="1"
     inkscape:showpageshadow="false"
     borderlayer="true"
     showguides="false"
     inkscape:guide-bbox="true"
     inkscape:object-nodes="true"
     inkscape:snap-bbox="true">
    <inkscape:grid
       type="xygrid"
       id="grid4063" />
    <sodipodi:guide
       position="2.0000117,30.000026"
       orientation="28,0"
       id="guide4167" />
    <sodipodi:guide
       position="17,5"
       orientation="0,28"
       id="guide4169" />
    <sodipodi:guide
       position="30.000012,2.0000264"
       orientation="-28,0"
       id="guide4171" />
    <sodipodi:guide
       position="30.000012,30.000026"
       orientation="0,-28"
       id="guide4173" />
    <sodipodi:guide
       position="2.0000117,30.000026"
       orientation="28,0"
       id="guide4181" />
    <sodipodi:guide
       position="16.000012,30.000026"
       orientation="0,-14"
       id="guide4187" />
    <sodipodi:guide
       position="5.0000117,30.000026"
       orientation="28,0"
       id="guide4143" />
    <sodipodi:guide
       position="5.0000117,2.0000264"
       orientation="0,22"
       id="guide4145" />
    <sodipodi:guide
       position="27.000012,2.0000264"
       orientation="-28,0"
       id="guide4147" />
    <sodipodi:guide
       position="27.000012,30.000026"
       orientation="0,-22"
       id="guide4149" />
    <sodipodi:guide
       position="27,30"
       orientation="0,-7"
       id="guide4155" />
    <sodipodi:guide
       position="27.00001,23"
       orientation="-7,-1e-05"
       id="guide4162" />
    <sodipodi:guide
       position="24,27"
       orientation="0,1"
       id="guide3378" />
  </sodipodi:namedview>
  <metadata
     id="metadata5458">
    <rdf:RDF>
      <cc:Work
         rdf:about="">
        <dc:format>image/svg+xml</dc:format>
        <dc:type
           rdf:resource="http://purl.org/dc/dcmitype/StillImage" />
        <dc:title></dc:title>
      </cc:Work>
    </rdf:RDF>
  </metadata>
  <g
     inkscape:label="Capa 1"
     inkscape:groupmode="layer"
     id="layer1"
     transform="translate(-384.57143,-515.798)">
    <g
       id="g4187"
       transform="matrix(0.7863692,0,0,0.78394543,93.325829,112.35451)">
      <g
         transform="matrix(0.10752924,0,0,0.10752924,446.17455,491.51412)"
         id="g4956"
         style="stroke:#60aae5;stroke-opacity:1;stroke-width:4.73780576;stroke-miterlimit:4;stroke-dasharray:none">
        <g
           style="fill:#bddef8;fill-opacity:1;stroke:#60aae5;stroke-width:1.81468021;stroke-miterlimit:4;stroke-dasharray:none;stroke-opacity:1"
           transform="matrix(2.6108213,0,0,2.6108213,-768.22476,390.2786)"
           id="layer1-7-5-6">
          <path
             sodipodi:nodetypes="scccssccccs"
             d="m 43.886832,-36.6986 c -1.108,0 -1.999909,0.892 -1.999909,2 l 0,81.609112 110.999917,0.239943 0,-70.041215 c 0,-1.108 -0.892,-2.000003 -2,-2.000005 l -60.173559,-1.02e-4 c -2.038523,0.180281 -2.301118,-0.09036 -3.308458,-1.434967 -1.428506,-1.911776 -3.585547,-7.064534 -4.99187,-8.929393 -1.128792,-1.632735 -1.311871,-1.443378 -3.183935,-1.443378 z"
             inkscape:connector-curvature="0"
             id="rect8678-4-5-5-1"
             style="color:#000000;display:inline;overflow:visible;visibility:visible;fill:#b5d5f7;fill-opacity:1;fill-rule:nonzero;stroke:#6998c9;stroke-width:1.81468022;stroke-miterlimit:4;stroke-dasharray:none;stroke-opacity:1;marker:none;enable-background:accumulate" />
        </g>
      </g>
    </g>
    <path
       style="opacity:1;fill:#6a98ca;fill-opacity:1;stroke:none;stroke-width:1;stroke-linecap:round;stroke-linejoin:round;stroke-miterlimit:4;stroke-dasharray:none;stroke-opacity:1"
       d="m 388.57144,522.66235 8.59999,0 1.8,2.63365 -10.39999,0 z"
       id="rect4206"
       inkscape:connector-curvature="0"
       sodipodi:nodetypes="ccccc" />
    <path
       inkscape:connector-curvature="0"
       d="m 399.70338,528.40595 0.0693,0.0146 c 0.80602,-0.26759 2.61501,0.7864 2.21201,1.72571 -0.10213,0.14745 -0.0848,0.40958 0.0382,0.57432 l -2.26215,2.25908 c -0.12674,-0.12652 -0.40849,-0.12378 -0.53796,0 l -3.74108,3.58429 c -0.34101,0.32676 -0.073,0.60437 0.0711,0.75091 l 0.67108,0.6699 c 0.14679,0.14562 0.5343,0.34222 0.80967,0.051 l 3.53046,-3.71446 c 0.12308,-0.12924 0.124,-0.40685 0,-0.53427 0,0 0.002,-0.002 0,-0.002 l 2.27126,-2.26636 c 0.23981,0.21572 0.46628,0.23436 0.68112,0.17567 0.41491,-0.11336 0.64621,0.29187 0.89447,0.58798 l -0.11211,0.10985 c -0.16595,0.16748 -0.15044,0.44964 0.0356,0.63531 0.186,0.18568 0.46957,0.20115 0.63552,0.0355 l 0.7422,-0.73998 c 0.16594,-0.16747 0.15044,-0.44964 -0.0365,-0.6344 -0.16777,-0.16838 -0.41122,-0.19023 -0.58081,-0.0701 -0.50879,-0.56977 -0.24163,-0.65532 -0.91271,-1.39712 l -1.25737,-1.28245 c -0.90539,-0.88652 -2.08162,-0.88561 -3.22135,-0.53337 l 0,0 z"
       id="Developer"
       sketch:type="MSShapeGroup"
       style="fill:#6998c9;fill-opacity:1" />
  </g>
</svg>
