<?xml version="1.0" encoding="UTF-8" standalone="no"?>
<!-- Created with Inkscape (http://www.inkscape.org/) -->

<svg
   xmlns:sketch="http://www.bohemiancoding.com/sketch/ns"
   xmlns:osb="http://www.openswatchbook.org/uri/2009/osb"
   xmlns:dc="http://purl.org/dc/elements/1.1/"
   xmlns:cc="http://creativecommons.org/ns#"
   xmlns:rdf="http://www.w3.org/1999/02/22-rdf-syntax-ns#"
   xmlns:svg="http://www.w3.org/2000/svg"
   xmlns="http://www.w3.org/2000/svg"
   xmlns:sodipodi="http://sodipodi.sourceforge.net/DTD/sodipodi-0.dtd"
   xmlns:inkscape="http://www.inkscape.org/namespaces/inkscape"
   width="32"
   height="32"
   id="svg5453"
   version="1.1"
   inkscape:version="0.91 r13725"
   sodipodi:docname="folder-private.svg">
  <defs
     id="defs5455">
    <linearGradient
       id="linearGradient4207"
       osb:paint="gradient">
      <stop
         style="stop-color:#3498db;stop-opacity:1;"
         offset="0"
         id="stop3371" />
      <stop
         style="stop-color:#3498db;stop-opacity:0;"
         offset="1"
         id="stop3373" />
    </linearGradient>
  </defs>
  <sodipodi:namedview
     id="base"
     pagecolor="#ffffff"
     bordercolor="#666666"
     borderopacity="1.0"
     inkscape:pageopacity="0"
     inkscape:pageshadow="2"
     inkscape:zoom="15"
     inkscape:cx="13.10091"
     inkscape:cy="15.369188"
     inkscape:document-units="px"
     inkscape:current-layer="layer1"
     showgrid="false"
     fit-margin-top="0"
     fit-margin-left="0"
     fit-margin-right="0"
     fit-margin-bottom="0"
     inkscape:window-width="1366"
     inkscape:window-height="635"
     inkscape:window-x="0"
     inkscape:window-y="36"
     inkscape:window-maximized="1"
     inkscape:showpageshadow="false"
     borderlayer="true"
     showguides="false"
     inkscape:guide-bbox="true"
     inkscape:object-nodes="true"
     inkscape:snap-bbox="true">
    <inkscape:grid
       type="xygrid"
       id="grid4063" />
    <sodipodi:guide
       position="2.0000117,30.000026"
       orientation="28,0"
       id="guide4167" />
    <sodipodi:guide
       position="17,5"
       orientation="0,28"
       id="guide4169" />
    <sodipodi:guide
       position="30.000012,2.0000264"
       orientation="-28,0"
       id="guide4171" />
    <sodipodi:guide
       position="30.000012,30.000026"
       orientation="0,-28"
       id="guide4173" />
    <sodipodi:guide
       position="2.0000117,30.000026"
       orientation="28,0"
       id="guide4181" />
    <sodipodi:guide
       position="16.000012,30.000026"
       orientation="0,-14"
       id="guide4187" />
    <sodipodi:guide
       position="5.0000117,30.000026"
       orientation="28,0"
       id="guide4143" />
    <sodipodi:guide
       position="5.0000117,2.0000264"
       orientation="0,22"
       id="guide4145" />
    <sodipodi:guide
       position="27.000012,2.0000264"
       orientation="-28,0"
       id="guide4147" />
    <sodipodi:guide
       position="27.000012,30.000026"
       orientation="0,-22"
       id="guide4149" />
    <sodipodi:guide
       position="27,30"
       orientation="0,-7"
       id="guide4155" />
    <sodipodi:guide
       position="27.00001,23"
       orientation="-7,-1e-05"
       id="guide4162" />
    <sodipodi:guide
       position="24,27"
       orientation="0,1"
       id="guide3378" />
  </sodipodi:namedview>
  <metadata
     id="metadata5458">
    <rdf:RDF>
      <cc:Work
         rdf:about="">
        <dc:format>image/svg+xml</dc:format>
        <dc:type
           rdf:resource="http://purl.org/dc/dcmitype/StillImage" />
        <dc:title></dc:title>
      </cc:Work>
    </rdf:RDF>
  </metadata>
  <g
     inkscape:label="Capa 1"
     inkscape:groupmode="layer"
     id="layer1"
     transform="translate(-384.57143,-515.798)">
    <g
       id="g4187"
       transform="matrix(0.7863692,0,0,0.78394543,93.325829,112.35451)">
      <g
         transform="matrix(0.10752924,0,0,0.10752924,446.17455,491.51412)"
         id="g4956"
         style="stroke:#60aae5;stroke-opacity:1;stroke-width:4.73780576;stroke-miterlimit:4;stroke-dasharray:none">
        <g
           style="fill:#bddef8;fill-opacity:1;stroke:#60aae5;stroke-width:1.81468021;stroke-miterlimit:4;stroke-dasharray:none;stroke-opacity:1"
           transform="matrix(2.6108213,0,0,2.6108213,-768.22476,390.2786)"
           id="layer1-7-5-6">
          <path
             sodipodi:nodetypes="scccssccccs"
             d="m 43.886832,-36.6986 c -1.108,0 -1.999909,0.892 -1.999909,2 l 0,81.609112 110.999917,0.239943 0,-70.041215 c 0,-1.108 -0.892,-2.000003 -2,-2.000005 l -60.173559,-1.02e-4 c -2.038523,0.180281 -2.301118,-0.09036 -3.308458,-1.434967 -1.428506,-1.911776 -3.585547,-7.064534 -4.99187,-8.929393 -1.128792,-1.632735 -1.311871,-1.443378 -3.183935,-1.443378 z"
             inkscape:connector-curvature="0"
             id="rect8678-4-5-5-1"
             style="color:#000000;display:inline;overflow:visible;visibility:visible;fill:#b5d5f7;fill-opacity:1;fill-rule:nonzero;stroke:#6998c9;stroke-width:1.81468022;stroke-miterlimit:4;stroke-dasharray:none;stroke-opacity:1;marker:none;enable-background:accumulate" />
        </g>
      </g>
    </g>
    <path
       style="opacity:1;fill:#6a98ca;fill-opacity:1;stroke:none;stroke-width:1;stroke-linecap:round;stroke-linejoin:round;stroke-miterlimit:4;stroke-dasharray:none;stroke-opacity:1"
       d="m 388.57144,522.66235 8.59999,0 1.8,2.63365 -10.39999,0 z"
       id="rect4206"
       inkscape:connector-curvature="0"
       sodipodi:nodetypes="ccccc" />
    <path
       inkscape:connector-curvature="0"
       d="m 395.61795,530.65626 c 0.14874,0.13414 0.34243,0.20802 0.54535,0.20802 0.12969,0 0.25832,-0.0314 0.37215,-0.0905 0.0417,-0.0217 0.0821,-0.0474 0.12001,-0.0765 l 0.23132,-0.17741 0.61833,0.57758 c 0.016,0.015 0.0371,0.0232 0.0587,0.0232 0.002,0 0.005,0 0.008,-3e-4 0.0246,-0.002 0.0469,-0.0151 0.0614,-0.035 0.15599,-0.21422 0.34042,-0.41161 0.54819,-0.58658 0.0188,-0.0158 0.03,-0.0389 0.0306,-0.0636 0.002,-0.0247 -0.009,-0.0484 -0.0273,-0.0651 l -0.63298,-0.59117 0.14723,-0.23978 c 0.2048,-0.33345 0.1424,-0.76588 -0.14841,-1.02824 -0.14874,-0.13406 -0.34248,-0.20785 -0.54558,-0.20785 -0.12983,0 -0.25847,0.0312 -0.37215,0.0904 -0.086,0.0447 -0.16292,0.10427 -0.22866,0.17723 -0.10556,0.11707 -0.17401,0.26158 -0.198,0.41785 l -0.0343,0.22354 -0.21869,0.0573 c -0.15272,0.04 -0.28935,0.12327 -0.39528,0.24079 -0.14507,0.16104 -0.21884,0.36892 -0.2075,0.58554 0.0112,0.21631 0.1062,0.41545 0.26732,0.56065 z m 2.76966,5.17457 0,-0.62858 c 0,-0.0235 -0.01,-0.046 -0.0266,-0.0622 -0.017,-0.0163 -0.0396,-0.0249 -0.0633,-0.0238 -0.0639,0.002 -0.12712,-0.008 -0.18713,-0.0304 -0.0307,-0.0117 -0.0655,-0.005 -0.0895,0.0174 l -1.0516,0.98239 -0.23127,-0.1772 c -0.0382,-0.0293 -0.0786,-0.0551 -0.11996,-0.0765 -0.11392,-0.0593 -0.24279,-0.0906 -0.37262,-0.0906 -0.20287,0 -0.39639,0.0738 -0.54489,0.2078 -0.1612,0.1452 -0.25613,0.34442 -0.26732,0.56084 -0.0113,0.21656 0.0624,0.42467 0.20773,0.58616 0.10561,0.1173 0.24209,0.20032 0.39469,0.24006 l 0.21915,0.0571 0.0343,0.224 c 0.0239,0.15594 0.0924,0.30059 0.19833,0.41834 0.0653,0.0726 0.14227,0.13207 0.22838,0.17686 0.11377,0.0592 0.24251,0.0904 0.37224,0.0904 0.20292,0 0.39647,-0.0738 0.54498,-0.20781 0.16113,-0.14523 0.25613,-0.34455 0.26761,-0.56129 0.009,-0.16548 -0.0324,-0.32679 -0.11851,-0.46644 l -0.14814,-0.23996 0.75583,-0.70608 c 0.0231,-0.0216 0.0325,-0.0542 0.0245,-0.0848 -0.0178,-0.0676 -0.0267,-0.13685 -0.0267,-0.20572 z m 7.19773,-6.3208 c -0.10588,-0.11753 -0.24255,-0.20077 -0.39523,-0.24079 l -0.21874,-0.0573 -0.0344,-0.22354 c -0.024,-0.1563 -0.0925,-0.30077 -0.19801,-0.41783 -0.0658,-0.0729 -0.14268,-0.13259 -0.22865,-0.17724 -0.11368,-0.0592 -0.24233,-0.0904 -0.37211,-0.0904 -0.2031,0 -0.39685,0.0738 -0.54558,0.20785 -0.29081,0.26235 -0.35324,0.69484 -0.1484,1.02823 l 0.1472,0.23979 -0.63287,0.59126 c -0.018,0.0168 -0.028,0.0404 -0.0273,0.0651 0.002,0.0247 0.0118,0.0478 0.0306,0.0637 0.20777,0.17498 0.39221,0.37235 0.54818,0.58658 0.0145,0.02 0.0369,0.0326 0.0613,0.035 0.002,3.2e-4 0.005,3.2e-4 0.008,3.2e-4 0.0216,0 0.0427,-0.008 0.0587,-0.0231 l 0.61833,-0.57759 0.23132,0.17742 c 0.0379,0.029 0.0783,0.0548 0.12001,0.0765 0.11377,0.0592 0.24247,0.0905 0.37215,0.0905 0.20292,0 0.39661,-0.0739 0.54534,-0.20803 0.16113,-0.1452 0.2561,-0.34432 0.26733,-0.5607 0.0112,-0.21666 -0.0624,-0.42453 -0.2075,-0.58557 z m -0.14254,6.43905 c -0.14851,-0.13394 -0.34201,-0.20779 -0.54488,-0.20779 -0.12983,0 -0.25866,0.0314 -0.37262,0.0906 -0.0414,0.0214 -0.0818,0.0473 -0.11997,0.0766 l -0.23131,0.1772 -1.05151,-0.98236 c -0.0241,-0.0225 -0.059,-0.0291 -0.0896,-0.0174 -0.06,0.023 -0.12327,0.0334 -0.18713,0.0304 -0.0237,-0.002 -0.0463,0.008 -0.0633,0.0237 -0.017,0.0161 -0.0266,0.0387 -0.0266,0.0623 l 0,0.62857 c 0,0.0688 -0.009,0.13804 -0.0267,0.20573 -0.008,0.0306 0.002,0.0631 0.0245,0.0848 l 0.75583,0.70608 -0.14813,0.23996 c -0.0862,0.1396 -0.12712,0.30091 -0.11851,0.46644 0.0115,0.21674 0.10648,0.41605 0.26761,0.5613 0.14855,0.134 0.34206,0.20779 0.54498,0.20779 0.12973,0 0.25846,-0.0312 0.37224,-0.0904 0.0861,-0.0448 0.16291,-0.10425 0.22833,-0.17685 0.10589,-0.11776 0.17447,-0.26236 0.19833,-0.41835 l 0.0342,-0.22399 0.21921,-0.0571 c 0.15259,-0.0397 0.28907,-0.1228 0.39468,-0.24006 0.14529,-0.1615 0.21902,-0.3696 0.20773,-0.58617 -0.0111,-0.21648 -0.10612,-0.41568 -0.26733,-0.56089 z m -2.63257,-1.17765 c 0.0364,0.005 0.0732,-0.007 0.099,-0.0333 0.5148,-0.52181 0.79822,-1.1939 0.79822,-1.89227 0,-1.55939 -1.40077,-2.83145 -3.13572,-2.86229 -1.73489,0.0308 -3.13567,1.30286 -3.13567,2.86224 0,0.69838 0.28349,1.37051 0.79819,1.89229 0.0258,0.0261 0.0625,0.0385 0.099,0.0333 0.0364,-0.005 0.0681,-0.0275 0.0855,-0.06 l 0.28177,-0.52609 c 0.008,-0.0155 0.0263,-0.0235 0.0434,-0.0192 0.0171,0.004 0.0291,0.0197 0.0291,0.0374 l 0,1.62732 c 0,0.18218 0.10538,0.35213 0.26866,0.43303 0.31581,0.15585 0.83249,0.34016 1.52991,0.35767 0.69743,-0.0175 1.2141,-0.20178 1.52992,-0.35767 0.16327,-0.0809 0.26865,-0.25085 0.26865,-0.43303 l 0,-1.62732 c 0,-0.0177 0.0121,-0.0331 0.0293,-0.0374 0.0171,-0.004 0.0352,0.004 0.0434,0.0192 l 0.28178,0.52609 c 0.0174,0.0325 0.0491,0.0548 0.0855,0.06 z m -3.30702,-1.18368 c -0.43997,0 -0.7979,-0.42563 -0.7979,-0.9488 0,-0.12029 0.0979,-0.21817 0.21838,-0.21817 l 1.15843,0 c 0.12053,0 0.21866,0.0982 0.21885,0.21917 -1.1e-4,0.52252 -0.35793,0.9478 -0.79776,0.9478 l 0,0 z m 1.61354,1.0594 -0.22314,0.19251 c -0.0117,0.0101 -0.0293,0.0122 -0.0431,0.005 l -0.24003,-0.12593 c -0.0316,-0.0165 -0.046,-0.0165 -0.0774,0 l -0.24003,0.12593 c -0.0138,0.007 -0.0314,0.005 -0.0431,-0.005 l -0.22315,-0.19251 c -0.0161,-0.0139 -0.0179,-0.0383 -0.004,-0.0545 l 0.44024,-0.51124 c 0.0659,-0.0769 0.15157,-0.0769 0.21759,0 l 0.44024,0.51124 c 0.014,0.0161 0.0122,0.0406 -0.004,0.0545 l 0,0 z m 0.52351,-1.0594 c -0.43977,0 -0.79771,-0.42528 -0.79776,-0.94784 1.6e-4,-0.12102 0.0983,-0.21918 0.21884,-0.21918 l 1.1584,0 c 0.12044,0 0.21838,0.0979 0.21838,0.21817 0,0.52316 -0.3579,0.94885 -0.79786,0.94885 l 0,0 z"
       id="Skull"
       sketch:type="MSShapeGroup"
       style="fill:#6998c9;fill-opacity:1" />
  </g>
</svg>
