<?xml version="1.0" encoding="UTF-8" standalone="no"?>
<!-- Created with Inkscape (http://www.inkscape.org/) -->

<svg
   xmlns:osb="http://www.openswatchbook.org/uri/2009/osb"
   xmlns:dc="http://purl.org/dc/elements/1.1/"
   xmlns:cc="http://creativecommons.org/ns#"
   xmlns:rdf="http://www.w3.org/1999/02/22-rdf-syntax-ns#"
   xmlns:svg="http://www.w3.org/2000/svg"
   xmlns="http://www.w3.org/2000/svg"
   xmlns:sodipodi="http://sodipodi.sourceforge.net/DTD/sodipodi-0.dtd"
   xmlns:inkscape="http://www.inkscape.org/namespaces/inkscape"
   width="32"
   height="32"
   id="svg5453"
   version="1.1"
   inkscape:version="0.91 r13725"
   sodipodi:docname="folder-vbox.svg">
  <defs
     id="defs5455">
    <linearGradient
       id="linearGradient4207"
       osb:paint="gradient">
      <stop
         style="stop-color:#3498db;stop-opacity:1;"
         offset="0"
         id="stop3371" />
      <stop
         style="stop-color:#3498db;stop-opacity:0;"
         offset="1"
         id="stop3373" />
    </linearGradient>
  </defs>
  <sodipodi:namedview
     id="base"
     pagecolor="#ffffff"
     bordercolor="#666666"
     borderopacity="1.0"
     inkscape:pageopacity="0"
     inkscape:pageshadow="2"
     inkscape:zoom="15"
     inkscape:cx="13.10091"
     inkscape:cy="15.369188"
     inkscape:document-units="px"
     inkscape:current-layer="layer1"
     showgrid="false"
     fit-margin-top="0"
     fit-margin-left="0"
     fit-margin-right="0"
     fit-margin-bottom="0"
     inkscape:window-width="1366"
     inkscape:window-height="635"
     inkscape:window-x="0"
     inkscape:window-y="36"
     inkscape:window-maximized="1"
     inkscape:showpageshadow="false"
     borderlayer="true"
     showguides="false"
     inkscape:guide-bbox="true"
     inkscape:object-nodes="true"
     inkscape:snap-bbox="true">
    <inkscape:grid
       type="xygrid"
       id="grid4063" />
    <sodipodi:guide
       position="2.0000117,30.000026"
       orientation="28,0"
       id="guide4167" />
    <sodipodi:guide
       position="17,5"
       orientation="0,28"
       id="guide4169" />
    <sodipodi:guide
       position="30.000012,2.0000264"
       orientation="-28,0"
       id="guide4171" />
    <sodipodi:guide
       position="30.000012,30.000026"
       orientation="0,-28"
       id="guide4173" />
    <sodipodi:guide
       position="2.0000117,30.000026"
       orientation="28,0"
       id="guide4181" />
    <sodipodi:guide
       position="16.000012,30.000026"
       orientation="0,-14"
       id="guide4187" />
    <sodipodi:guide
       position="5.0000117,30.000026"
       orientation="28,0"
       id="guide4143" />
    <sodipodi:guide
       position="5.0000117,2.0000264"
       orientation="0,22"
       id="guide4145" />
    <sodipodi:guide
       position="27.000012,2.0000264"
       orientation="-28,0"
       id="guide4147" />
    <sodipodi:guide
       position="27.000012,30.000026"
       orientation="0,-22"
       id="guide4149" />
    <sodipodi:guide
       position="27,30"
       orientation="0,-7"
       id="guide4155" />
    <sodipodi:guide
       position="27.00001,23"
       orientation="-7,-1e-05"
       id="guide4162" />
    <sodipodi:guide
       position="24,27"
       orientation="0,1"
       id="guide3378" />
  </sodipodi:namedview>
  <metadata
     id="metadata5458">
    <rdf:RDF>
      <cc:Work
         rdf:about="">
        <dc:format>image/svg+xml</dc:format>
        <dc:type
           rdf:resource="http://purl.org/dc/dcmitype/StillImage" />
        <dc:title></dc:title>
      </cc:Work>
    </rdf:RDF>
  </metadata>
  <g
     inkscape:label="Capa 1"
     inkscape:groupmode="layer"
     id="layer1"
     transform="translate(-384.57143,-515.798)">
    <g
       id="g4187"
       transform="matrix(0.7863692,0,0,0.78394543,93.325829,112.35451)">
      <g
         transform="matrix(0.10752924,0,0,0.10752924,446.17455,491.51412)"
         id="g4956"
         style="stroke:#60aae5;stroke-opacity:1;stroke-width:4.73780576;stroke-miterlimit:4;stroke-dasharray:none">
        <g
           style="fill:#bddef8;fill-opacity:1;stroke:#60aae5;stroke-width:1.81468021;stroke-miterlimit:4;stroke-dasharray:none;stroke-opacity:1"
           transform="matrix(2.6108213,0,0,2.6108213,-768.22476,390.2786)"
           id="layer1-7-5-6">
          <path
             sodipodi:nodetypes="scccssccccs"
             d="m 43.886832,-36.6986 c -1.108,0 -1.999909,0.892 -1.999909,2 l 0,81.609112 110.999917,0.239943 0,-70.041215 c 0,-1.108 -0.892,-2.000003 -2,-2.000005 l -60.173559,-1.02e-4 c -2.038523,0.180281 -2.301118,-0.09036 -3.308458,-1.434967 -1.428506,-1.911776 -3.585547,-7.064534 -4.99187,-8.929393 -1.128792,-1.632735 -1.311871,-1.443378 -3.183935,-1.443378 z"
             inkscape:connector-curvature="0"
             id="rect8678-4-5-5-1"
             style="color:#000000;display:inline;overflow:visible;visibility:visible;fill:#b5d5f7;fill-opacity:1;fill-rule:nonzero;stroke:#6998c9;stroke-width:1.81468022;stroke-miterlimit:4;stroke-dasharray:none;stroke-opacity:1;marker:none;enable-background:accumulate" />
        </g>
      </g>
    </g>
    <path
       style="opacity:1;fill:#6a98ca;fill-opacity:1;stroke:none;stroke-width:1;stroke-linecap:round;stroke-linejoin:round;stroke-miterlimit:4;stroke-dasharray:none;stroke-opacity:1"
       d="m 388.57144,522.66235 8.59999,0 1.8,2.63365 -10.39999,0 z"
       id="rect4206"
       inkscape:connector-curvature="0"
       sodipodi:nodetypes="ccccc" />
    <path
       inkscape:connector-curvature="0"
       style="opacity:1;fill:#6a98ca;fill-opacity:1;stroke:none;stroke-width:5.23831511;stroke-linecap:butt;stroke-linejoin:miter;stroke-miterlimit:4;stroke-dasharray:none;stroke-dashoffset:0;stroke-opacity:1"
       d="m 400.57106,528.298 a 5.0001062,5.0001062 0 0 0 -4.99963,5.00037 5.0001062,5.0001062 0 0 0 4.99963,4.99963 5.0001062,5.0001062 0 0 0 5.00037,-4.99963 5.0001062,5.0001062 0 0 0 -5.00037,-5.00037 z m 1.26207,2.22658 c 0.0184,8.3e-4 0.0402,0.009 0.0573,0.0145 0.0881,0.0252 0.16284,0.1008 0.18797,0.18941 l 0.91081,3.31738 0.47754,-0.64737 c 0.0487,-0.072 0.12249,-0.12177 0.20901,-0.1241 l 0.35416,0 0.15966,0 0.0137,0 c 0.0105,0 0.0217,0.0113 0.0217,0.0217 l 0,0.50947 c 0,0.0104 -0.0106,0.0145 -0.021,0.0145 l -0.0145,0 -0.15966,0 -0.21627,0 -0.70107,0.97467 c -0.11998,0.15799 -0.41926,0.10293 -0.47754,-0.0871 l -0.83097,-2.95378 -0.57116,1.88403 c -0.035,0.10706 -0.14791,0.17982 -0.25982,0.18217 l -0.3977,0 -0.0798,0 -0.19524,0 -0.0718,0 -0.20248,0 -0.77364,2.56041 c -0.0387,0.13883 -0.2024,0.23079 -0.33965,0.18942 -0.0881,-0.0253 -0.16285,-0.10078 -0.18796,-0.18942 l -0.91807,-3.3239 -0.46956,0.64736 c -0.0487,0.0721 -0.13048,0.11379 -0.217,0.11613 l -0.3469,0 -0.17345,0 -0.0217,0 c -0.0104,0 -0.0145,-0.004 -0.0145,-0.0145 l 0,-0.50948 c 0,-0.0105 0.004,-0.0218 0.0145,-0.0217 l 0.0217,0 0.17345,0 0.21699,0 0.70107,-0.96015 c 0.11999,-0.15795 0.41855,-0.10283 0.47682,0.0871 l 0.82445,2.95378 0.57768,-1.89129 c 0.035,-0.10706 0.14138,-0.18709 0.25329,-0.18942 l 0.40496,0 0.0718,0 0.19524,0 0.0798,0 0.19523,0 0.78016,-2.54591 c 0.0291,-0.10411 0.12615,-0.18223 0.23152,-0.19667 0.0176,-0.002 0.0324,-0.007 0.0508,-0.007 z"
       id="path3340" />
  </g>
</svg>
