<?xml version="1.0" encoding="UTF-8" standalone="no"?>
<!-- Created with Inkscape (http://www.inkscape.org/) -->

<svg
   xmlns:dc="http://purl.org/dc/elements/1.1/"
   xmlns:cc="http://creativecommons.org/ns#"
   xmlns:rdf="http://www.w3.org/1999/02/22-rdf-syntax-ns#"
   xmlns:svg="http://www.w3.org/2000/svg"
   xmlns="http://www.w3.org/2000/svg"
   xmlns:sodipodi="http://sodipodi.sourceforge.net/DTD/sodipodi-0.dtd"
   xmlns:inkscape="http://www.inkscape.org/namespaces/inkscape"
   width="16"
   height="16"
   id="svg2"
   version="1.1"
   inkscape:version="0.91 r13725"
   viewBox="0 0 16 16"
   sodipodi:docname="computer.svg">
  <defs
     id="defs4" />
  <sodipodi:namedview
     id="base"
     pagecolor="#ffffff"
     bordercolor="#666666"
     borderopacity="1.0"
     inkscape:pageopacity="0.0"
     inkscape:pageshadow="2"
     inkscape:zoom="16.338034"
     inkscape:cx="9.2004392"
     inkscape:cy="14.010296"
     inkscape:document-units="px"
     inkscape:current-layer="g4644"
     showgrid="true"
     inkscape:showpageshadow="false"
     units="px"
     inkscape:window-width="1366"
     inkscape:window-height="634"
     inkscape:window-x="0"
     inkscape:window-y="36"
     inkscape:window-maximized="1"
     inkscape:snap-bbox="true"
     inkscape:object-nodes="true">
    <inkscape:grid
       type="xygrid"
       id="grid4101" />
    <sodipodi:guide
       position="2,20.000017"
       orientation="18,0"
       id="guide4107" />
    <sodipodi:guide
       position="2,2.0000174"
       orientation="0,18"
       id="guide4109" />
    <sodipodi:guide
       position="20,2.0000174"
       orientation="-18,0"
       id="guide4111" />
    <sodipodi:guide
       position="20,20.000017"
       orientation="0,-18"
       id="guide4113" />
    <sodipodi:guide
       position="3,19.000017"
       orientation="16,0"
       id="guide4115" />
    <sodipodi:guide
       position="3,3.0000174"
       orientation="0,16"
       id="guide4117" />
    <sodipodi:guide
       position="19,3.0000174"
       orientation="-16,0"
       id="guide4119" />
    <sodipodi:guide
       position="19,19.000017"
       orientation="0,-16"
       id="guide4121" />
  </sodipodi:namedview>
  <metadata
     id="metadata7">
    <rdf:RDF>
      <cc:Work
         rdf:about="">
        <dc:format>image/svg+xml</dc:format>
        <dc:type
           rdf:resource="http://purl.org/dc/dcmitype/StillImage" />
        <dc:title />
      </cc:Work>
    </rdf:RDF>
  </metadata>
  <g
     inkscape:label="Capa 1"
     inkscape:groupmode="layer"
     id="layer1"
     transform="translate(0,-1036.3622)">
    <g
       transform="translate(0,39.500035)"
       id="g4644">
      <g
         id="g3"
         transform="matrix(0.02287578,0,0,0.02287578,0.99999988,997.8622)"
         style="fill:#4d4d4d;fill-opacity:1">
        <path
           d="m 578.766,51.487 0,-0.895 -2.996,0 -539.84,0 -2.996,0 0,0.895 C 15.272,52.701 2.095,66.753 0,83.808 l 0,3.002 0,355.724 c 0,6.898 1.795,12.712 4.791,17.949 6.893,12.137 17.068,18.269 31.14,18.269 l 197.012,0 0,49.695 -37.425,0 c -9.281,0 -16.467,7.218 -16.467,16.48 0,9.262 7.186,16.479 16.467,16.479 l 220.666,0 c 9.281,0 16.768,-7.218 16.768,-16.479 0,-9.263 -7.486,-16.48 -16.768,-16.48 l -37.425,0 0,-49.695 197.011,0 c 14.078,0 24.343,-6.132 31.14,-18.269 3.085,-5.493 5.091,-11.37 5.091,-17.949 l 0,-355.723 0,-3.002 C 609.905,66.753 595.833,52.701 578.766,51.487 Z m 0,35.324 0,355.724 c 0,2.108 -0.895,3.002 -2.996,3.002 l -539.84,0 c -2.095,0 -2.996,-0.894 -2.996,-3.002 l 0,-355.724 0,-3.002 545.831,0 0,3.002 z"
           id="path5"
           inkscape:connector-curvature="0"
           style="fill:#4d4d4d;fill-opacity:1" />
      </g>
      <g
         transform="matrix(0.41666835,0,0,0.41666835,4.5668064,568.90949)"
         id="layer1-22"
         inkscape:label="Capa 1"
         style="fill:#4d4d4d;fill-opacity:1">
        <g
           style="fill:#4d4d4d;fill-opacity:1;stroke:#4f96d1;stroke-opacity:1"
           inkscape:label="Capa 1"
           id="layer1-0"
           transform="matrix(0.90537551,0,0,0.90537551,-365.91682,562.06022)" />
        <g
           inkscape:label="Capa 1"
           id="layer1-00"
           transform="translate(-401.01229,510.63371)"
           style="fill:#4d4d4d;fill-opacity:1">
          <path
             id="path7811"
             d="m 409.29314,527.72866 c -1.33716,0.0434 3.56209,6.80252 -0.21121,6.37082 3.14656,0.87181 3.8672,-3.18931 3.22457,-5.17621 -0.63634,-1.96786 -0.96725,-0.73992 -2.86395,-1.17703 -0.0567,-0.013 -0.10651,-0.019 -0.14941,-0.0175 z m -3.74928,0.94219 c -2.06822,-0.003 -1.00256,0.69168 -2.00447,2.36082 -0.95683,1.59391 7.55828,-1.2609 5.931,2.30551 1.80129,-2.72281 -1.83849,-4.66351 -3.92659,-4.66621 z m 1.45507,3.05131 c -1.65488,-0.004 -3.32027,1.8765 -3.78589,3.30301 -0.6418,1.96621 0.34768,1.1676 1.62548,2.63611 1.22016,1.4028 1.13706,-7.57863 4.0262,-4.92872 -0.57183,-0.7185 -1.21806,-1.0086 -1.86579,-1.0104 z m 7.11306,0.31935 c -1.1172,0.10691 -5.19267,5.28722 -5.8749,1.9254 0.14332,3.26162 4.22931,2.69225 5.9199,1.46719 1.67495,-1.21353 0.40433,-1.14928 0.2338,-3.08851 -0.0204,-0.23151 -0.11932,-0.31938 -0.27892,-0.30411 z m -6.0096,1.07988 c -3.05776,1.14423 -1.25338,4.85432 0.43421,6.08372 1.67168,1.21798 1.21794,0.0295 3.00944,-0.73185 1.71105,-0.72717 -6.85653,-3.42301 -3.44387,-5.35202 z"
             inkscape:connector-curvature="0"
             style="fill:#4d4d4d;fill-opacity:1;fill-rule:evenodd;stroke:none" />
        </g>
      </g>
    </g>
  </g>
</svg>
