<?xml version="1.0" encoding="UTF-8" standalone="no"?>
<svg
   xmlns:osb="http://www.openswatchbook.org/uri/2009/osb"
   xmlns:dc="http://purl.org/dc/elements/1.1/"
   xmlns:cc="http://creativecommons.org/ns#"
   xmlns:rdf="http://www.w3.org/1999/02/22-rdf-syntax-ns#"
   xmlns:svg="http://www.w3.org/2000/svg"
   xmlns="http://www.w3.org/2000/svg"
   xmlns:xlink="http://www.w3.org/1999/xlink"
   xmlns:sodipodi="http://sodipodi.sourceforge.net/DTD/sodipodi-0.dtd"
   xmlns:inkscape="http://www.inkscape.org/namespaces/inkscape"
   width="64"
   viewBox="0 0 64 64"
   height="64"
   id="svg2"
   version="1.1"
   inkscape:version="0.91 r13725"
   sodipodi:docname="application-x-kvtml.svg"
   inkscape:export-filename="E:\Usuarios\David\Desktop\android.png"
   inkscape:export-xdpi="90"
   inkscape:export-ydpi="90">
  <metadata
     id="metadata14">
    <rdf:RDF>
      <cc:Work
         rdf:about="">
        <dc:format>image/svg+xml</dc:format>
        <dc:type
           rdf:resource="http://purl.org/dc/dcmitype/StillImage" />
        <dc:title></dc:title>
      </cc:Work>
    </rdf:RDF>
  </metadata>
  <defs
     id="defs12">
    <linearGradient
       osb:paint="gradient"
       id="linearGradient4207">
      <stop
         id="stop3371"
         offset="0"
         style="stop-color:#3498db;stop-opacity:1;" />
      <stop
         id="stop3373"
         offset="1"
         style="stop-color:#3498db;stop-opacity:0;" />
    </linearGradient>
    <linearGradient
       inkscape:collect="always"
       xlink:href="#linearGradient6789"
       id="linearGradient4182"
       x1="-74.929466"
       y1="52.199436"
       x2="-75.259552"
       y2="2.3564887"
       gradientUnits="userSpaceOnUse"
       gradientTransform="matrix(1.0749904,0,0,1.0292896,56.688954,-0.01528455)" />
    <linearGradient
       id="linearGradient6789"
       inkscape:collect="always">
      <stop
         id="stop6791"
         offset="0"
         style="stop-color:#4dbf03;stop-opacity:1" />
      <stop
         id="stop6793"
         offset="1"
         style="stop-color:#8cff58;stop-opacity:1" />
    </linearGradient>
  </defs>
  <sodipodi:namedview
     pagecolor="#747474"
     bordercolor="#666666"
     borderopacity="1"
     objecttolerance="10"
     gridtolerance="10"
     guidetolerance="10"
     inkscape:pageopacity="1"
     inkscape:pageshadow="2"
     inkscape:window-width="1366"
     inkscape:window-height="635"
     id="namedview10"
     showgrid="false"
     inkscape:zoom="5.2716365"
     inkscape:cx="29.386266"
     inkscape:cy="36.15766"
     inkscape:window-x="0"
     inkscape:window-y="36"
     inkscape:window-maximized="1"
     inkscape:current-layer="g4184"
     inkscape:snap-bbox="true"
     inkscape:bbox-nodes="true"
     inkscape:object-nodes="true"
     borderlayer="false"
     showguides="true"
     inkscape:snap-nodes="true"
     inkscape:object-paths="false"
     inkscape:showpageshadow="false"
     showborder="true">
    <inkscape:grid
       type="xygrid"
       id="grid4160"
       visible="true" />
    <sodipodi:guide
       position="28.888657,63.404975"
       orientation="0,35.2"
       id="guide6108" />
    <sodipodi:guide
       position="54,55.679691"
       orientation="51.200004,0"
       id="guide6112" />
    <sodipodi:guide
       position="58.527669,62"
       orientation="0,1"
       id="guide6114"
       inkscape:label=""
       inkscape:color="rgb(0,0,255)" />
    <sodipodi:guide
       position="10,4"
       orientation="-56,0"
       id="guide6116" />
    <sodipodi:guide
       position="11,4"
       orientation="-2.8421709e-014,0"
       id="guide6118" />
    <sodipodi:guide
       position="12,62"
       orientation="0,35.2"
       id="guide6120" />
    <sodipodi:guide
       position="52,2"
       orientation="0,-40"
       id="guide6126" />
    <sodipodi:guide
       position="12,62"
       orientation="0,35.2"
       id="guide6138" />
    <sodipodi:guide
       position="55,3"
       orientation="0,-40"
       id="guide6156" />
    <sodipodi:guide
       position="53,4.3973202"
       orientation="-56,0"
       id="guide6158" />
    <sodipodi:guide
       position="43,48"
       orientation="22,0"
       id="guide4240" />
    <sodipodi:guide
       position="43,26"
       orientation="0,-22"
       id="guide4242" />
    <sodipodi:guide
       position="21,26"
       orientation="-22,0"
       id="guide4244" />
  </sodipodi:namedview>
  <g
     id="g4186"
     transform="translate(56.391766,-0.17677665)">
    <g
       id="g4239"
       transform="translate(0,0.26550102)">
      <rect
         style="opacity:1;fill:#235503;fill-opacity:1;stroke:none;stroke-width:0.185;stroke-linecap:round;stroke-linejoin:round;stroke-miterlimit:4;stroke-dasharray:none;stroke-dashoffset:0;stroke-opacity:1"
         id="rect4162"
         width="44"
         height="7.6992903"
         x="-46.391766"
         y="54.477486"
         ry="2.5" />
      <rect
         style="opacity:1;fill:url(#linearGradient4182);fill-opacity:1.0;stroke:none;stroke-width:0.30000001;stroke-linecap:round;stroke-linejoin:round;stroke-miterlimit:4;stroke-dasharray:none;stroke-dashoffset:0;stroke-opacity:1"
         id="rect4174"
         width="44"
         height="52.831711"
         x="-46.391766"
         y="1.6457753"
         ry="2.5" />
      <rect
         style="opacity:1;fill:#235503;fill-opacity:1;stroke:none;stroke-width:0.185;stroke-linecap:round;stroke-linejoin:round;stroke-miterlimit:4;stroke-dasharray:none;stroke-dashoffset:0;stroke-opacity:1"
         id="rect4184"
         width="44"
         height="7.9118414"
         x="-46.391766"
         y="51.264462"
         ry="0" />
    </g>
    <g
       inkscape:transform-center-y="-9.4924686"
       inkscape:transform-center-x="5.4653607"
       inkscape:label="Capa 1"
       id="layer1-4"
       transform="translate(-509.70748,-515.64674)">
      <g
         id="layer1-3-65"
         inkscape:label="Capa 1"
         transform="translate(0.41988239,0.03484499)" />
    </g>
    <g
       id="g4184"
       transform="translate(86.228316,3.7995266)">
      <path
         style="opacity:0.98000004;fill:#e8f9de;fill-opacity:1;stroke:#ffffff;stroke-width:0.23408796;stroke-linecap:butt;stroke-linejoin:miter;stroke-miterlimit:4;stroke-dasharray:none;stroke-opacity:1"
         d="m -122.9041,12.494294 c -0.43229,0 -0.7803,0.348011 -0.7803,0.780293 l 0,12.501455 c 0,0.432283 0.34801,0.780294 0.7803,0.780294 l 4.32666,0 0,6.923577 c 0,0.432282 0.34801,0.780293 0.78029,0.780293 l 19.310729,0 c 0.43228,0 0.78029,-0.348011 0.78029,-0.780293 l 0,-12.501455 c 0,-0.432282 -0.34801,-0.780293 -0.78029,-0.780293 l -4.326659,0 0,-6.923578 c 0,-0.432282 -0.34801,-0.780293 -0.7803,-0.780293 l -19.31072,0 z"
         id="rect4166"
         inkscape:connector-curvature="0" />
      <g
         style="font-style:normal;font-weight:normal;font-size:25px;line-height:125%;font-family:sans-serif;letter-spacing:0px;word-spacing:0px;fill:#ffffff;fill-opacity:1;stroke:none;stroke-width:1px;stroke-linecap:butt;stroke-linejoin:miter;stroke-opacity:1"
         id="text4195"
         transform="matrix(0.31877695,0,0,0.31877695,-64.702853,48.73478)">
        <path
           d="m -170.59904,5.2971455 0,11.0249995 5.3,-5.375 2.95,0 0,0.1 -4.775,4.775 5,7.275 0,0.1 -2.775,0 -3.85,-5.775 -1.85,1.85 0,3.925 -2.3,0 0,-17.8999995 2.3,0 z"
           style="font-style:normal;font-variant:normal;font-weight:normal;font-stretch:normal;font-family:'Product Sans';-inkscape-font-specification:'Product Sans';fill:#ffffff;fill-opacity:1"
           id="path4200"
           inkscape:connector-curvature="0" />
        <path
           d="m -157.18849,23.197145 -4.95,-12.25 2.5,0 3.6,9.5 0.05,0 3.65,-9.5 2.45,0 -5,12.25 -2.3,0 z"
           style="font-style:normal;font-variant:normal;font-weight:normal;font-stretch:normal;font-family:'Product Sans';-inkscape-font-specification:'Product Sans';fill:#ffffff;fill-opacity:1"
           id="path4202"
           inkscape:connector-curvature="0" />
        <path
           d="m -143.08732,23.397145 q -1.925,0 -2.95,-1.025 -1,-1.025 -1,-2.9 l 0,-6.425 -2.15,0 0,-2.1 2.15,0 0,-3.7499995 2.3,0 0,3.7499995 3,0 0,2.1 -3,0 0,6.25 q 0,2 1.65,2 0.625,0 1.05,-0.2 l 0.8,1.975 q -0.75,0.325 -1.85,0.325 z"
           style="font-style:normal;font-variant:normal;font-weight:normal;font-stretch:normal;font-family:'Product Sans';-inkscape-font-specification:'Product Sans';fill:#ffffff;fill-opacity:1"
           id="path4204"
           inkscape:connector-curvature="0" />
        <path
           d="m -139.40295,23.197145 0,-12.25 2.2,0 0,1.7 0.1,0 q 0.525,-0.875 1.6,-1.475 1.1,-0.625 2.175,-0.625 2.85,0 3.875,2.35 1.5,-2.35 4.275,-2.35 2.175,0 3.275,1.4 1.1,1.375 1.1,3.75 l 0,7.5 -2.3,0 0,-7.15 q 0,-1.85 -0.675,-2.625 -0.675,-0.775 -2.05,-0.775 -1.35,0 -2.25,1.15 -0.875,1.15 -0.875,2.625 l 0,6.775 -2.3,0 0,-7.15 q 0,-1.85 -0.675,-2.625 -0.675,-0.775 -2.05,-0.775 -1.35,0 -2.25,1.15 -0.875,1.15 -0.875,2.625 l 0,6.775 -2.3,0 z"
           style="font-style:normal;font-variant:normal;font-weight:normal;font-stretch:normal;font-family:'Product Sans';-inkscape-font-specification:'Product Sans';fill:#ffffff;fill-opacity:1"
           id="path4206"
           inkscape:connector-curvature="0" />
        <path
           d="m -115.81389,23.197145 -2.3,0 0,-17.8999995 2.3,0 0,17.8999995 z"
           style="font-style:normal;font-variant:normal;font-weight:normal;font-stretch:normal;font-family:'Product Sans';-inkscape-font-specification:'Product Sans';fill:#ffffff;fill-opacity:1"
           id="path4208"
           inkscape:connector-curvature="0" />
      </g>
    </g>
  </g>
</svg>
