<?xml version="1.0" encoding="UTF-8" standalone="no"?>
<svg
   xmlns:osb="http://www.openswatchbook.org/uri/2009/osb"
   xmlns:dc="http://purl.org/dc/elements/1.1/"
   xmlns:cc="http://creativecommons.org/ns#"
   xmlns:rdf="http://www.w3.org/1999/02/22-rdf-syntax-ns#"
   xmlns:svg="http://www.w3.org/2000/svg"
   xmlns="http://www.w3.org/2000/svg"
   xmlns:xlink="http://www.w3.org/1999/xlink"
   xmlns:sodipodi="http://sodipodi.sourceforge.net/DTD/sodipodi-0.dtd"
   xmlns:inkscape="http://www.inkscape.org/namespaces/inkscape"
   width="64"
   viewBox="0 0 64 64"
   height="64"
   id="svg2"
   version="1.1"
   inkscape:version="0.91 r13725"
   sodipodi:docname="application-x-java-archive.svg"
   inkscape:export-filename="E:\Usuarios\David\Desktop\android.png"
   inkscape:export-xdpi="90"
   inkscape:export-ydpi="90">
  <metadata
     id="metadata14">
    <rdf:RDF>
      <cc:Work
         rdf:about="">
        <dc:format>image/svg+xml</dc:format>
        <dc:type
           rdf:resource="http://purl.org/dc/dcmitype/StillImage" />
        <dc:title></dc:title>
      </cc:Work>
    </rdf:RDF>
  </metadata>
  <defs
     id="defs12">
    <linearGradient
       osb:paint="gradient"
       id="linearGradient4207">
      <stop
         id="stop3371"
         offset="0"
         style="stop-color:#3498db;stop-opacity:1;" />
      <stop
         id="stop3373"
         offset="1"
         style="stop-color:#3498db;stop-opacity:0;" />
    </linearGradient>
    <linearGradient
       inkscape:collect="always"
       xlink:href="#linearGradient4422-8"
       id="linearGradient4182"
       x1="-74.929466"
       y1="52.199436"
       x2="-75.259552"
       y2="2.3564887"
       gradientUnits="userSpaceOnUse"
       gradientTransform="matrix(1.0749904,0,0,1.0292896,56.688956,-0.01528455)" />
    <linearGradient
       id="linearGradient4422-8">
      <stop
         style="stop-color:#14b59e;stop-opacity:1"
         offset="0"
         id="stop4424-5" />
      <stop
         style="stop-color:#33d6b6;stop-opacity:1"
         offset="1"
         id="stop4426-0" />
    </linearGradient>
  </defs>
  <sodipodi:namedview
     pagecolor="#747474"
     bordercolor="#666666"
     borderopacity="1"
     objecttolerance="10"
     gridtolerance="10"
     guidetolerance="10"
     inkscape:pageopacity="1"
     inkscape:pageshadow="2"
     inkscape:window-width="1366"
     inkscape:window-height="635"
     id="namedview10"
     showgrid="false"
     inkscape:zoom="7.4552197"
     inkscape:cx="-0.66766872"
     inkscape:cy="32.481141"
     inkscape:window-x="0"
     inkscape:window-y="36"
     inkscape:window-maximized="1"
     inkscape:current-layer="layer1"
     inkscape:snap-bbox="true"
     inkscape:bbox-nodes="true"
     inkscape:object-nodes="true"
     borderlayer="false"
     showguides="true"
     inkscape:snap-nodes="true"
     inkscape:object-paths="false"
     inkscape:showpageshadow="false"
     showborder="true">
    <inkscape:grid
       type="xygrid"
       id="grid4160"
       visible="true" />
    <sodipodi:guide
       position="28.888657,63.404975"
       orientation="0,35.2"
       id="guide6108" />
    <sodipodi:guide
       position="54,55.679691"
       orientation="51.200004,0"
       id="guide6112" />
    <sodipodi:guide
       position="58.527669,62"
       orientation="0,1"
       id="guide6114"
       inkscape:label=""
       inkscape:color="rgb(0,0,255)" />
    <sodipodi:guide
       position="10,4"
       orientation="-56,0"
       id="guide6116" />
    <sodipodi:guide
       position="11,4"
       orientation="-2.8421709e-014,0"
       id="guide6118" />
    <sodipodi:guide
       position="12,62"
       orientation="0,35.2"
       id="guide6120" />
    <sodipodi:guide
       position="52,2"
       orientation="0,-40"
       id="guide6126" />
    <sodipodi:guide
       position="12,62"
       orientation="0,35.2"
       id="guide6138" />
    <sodipodi:guide
       position="55,3"
       orientation="0,-40"
       id="guide6156" />
    <sodipodi:guide
       position="53,4.3973202"
       orientation="-56,0"
       id="guide6158" />
    <sodipodi:guide
       position="21,48"
       orientation="0,22"
       id="guide4238" />
    <sodipodi:guide
       position="43,48"
       orientation="22,0"
       id="guide4240" />
    <sodipodi:guide
       position="43,26"
       orientation="0,-22"
       id="guide4242" />
    <sodipodi:guide
       position="21,26"
       orientation="-22,0"
       id="guide4244" />
  </sodipodi:namedview>
  <g
     id="g4186"
     transform="translate(56.391766,-0.17677665)">
    <g
       id="g4173"
       transform="translate(0,0.26550102)">
      <rect
         style="opacity:1;fill:#0a5045;fill-opacity:1;stroke:none;stroke-width:0.185;stroke-linecap:round;stroke-linejoin:round;stroke-miterlimit:4;stroke-dasharray:none;stroke-dashoffset:0;stroke-opacity:1"
         id="rect4162"
         width="44"
         height="7.6992903"
         x="-46.391766"
         y="54.477486"
         ry="2.5" />
      <rect
         style="opacity:1;fill:url(#linearGradient4182);fill-opacity:1.0;stroke:none;stroke-width:0.30000001;stroke-linecap:round;stroke-linejoin:round;stroke-miterlimit:4;stroke-dasharray:none;stroke-dashoffset:0;stroke-opacity:1"
         id="rect4174"
         width="44"
         height="52.831711"
         x="-46.391766"
         y="1.6457753"
         ry="2.5" />
      <rect
         style="opacity:1;fill:#0a5045;fill-opacity:1;stroke:none;stroke-width:0.185;stroke-linecap:round;stroke-linejoin:round;stroke-miterlimit:4;stroke-dasharray:none;stroke-dashoffset:0;stroke-opacity:1"
         id="rect4184"
         width="44"
         height="7.9118414"
         x="-46.391766"
         y="51.264462"
         ry="0" />
      <g
         transform="matrix(0.81954967,0,0,0.81954967,-4.3342833,10.721775)"
         id="text4161"
         style="font-style:normal;font-weight:normal;font-size:9.36996746px;line-height:125%;font-family:sans-serif;letter-spacing:0px;word-spacing:0px;fill:#ffffff;fill-opacity:1;stroke:none;stroke-width:1px;stroke-linecap:butt;stroke-linejoin:miter;stroke-opacity:1">
        <g
           transform="translate(-0.12934026,-0.12201681)"
           id="text4269"
           style="font-style:normal;font-weight:normal;font-size:13.75px;line-height:125%;font-family:sans-serif;letter-spacing:0px;word-spacing:0px;fill:#ffffff;fill-opacity:1;stroke:none;stroke-width:1px;stroke-linecap:butt;stroke-linejoin:miter;stroke-opacity:1">
          <path
             inkscape:connector-curvature="0"
             id="path4171"
             style="font-style:normal;font-variant:normal;font-weight:normal;font-stretch:normal;font-size:10px;font-family:'Product Sans';-inkscape-font-specification:'Product Sans';fill:#ffffff;fill-opacity:1"
             d="m -31.149042,53.164537 q -0.19,0.19 -0.46,0.19 -0.27,0 -0.46,-0.19 -0.19,-0.19 -0.19,-0.46 0,-0.27 0.19,-0.46 0.19,-0.19 0.46,-0.19 0.27,0 0.46,0.19 0.19,0.19 0.19,0.46 0,0.27 -0.19,0.46 z m -1.47,8.39 q -0.27,0 -0.54,-0.1 l 0.24,-0.8 q 0.13,0.06 0.27,0.06 0.58,0 0.58,-0.76 l 0,-5.56 0.92,0 0,5.56 q 0,0.81 -0.39,1.2 -0.39,0.4 -1.08,0.4 z" />
          <path
             inkscape:connector-curvature="0"
             id="path4173"
             style="font-style:normal;font-variant:normal;font-weight:normal;font-stretch:normal;font-size:10px;font-family:'Product Sans';-inkscape-font-specification:'Product Sans';fill:#ffffff;fill-opacity:1"
             d="m -28.450604,59.454537 q -0.78,0 -1.31,-0.45 -0.52,-0.45 -0.52,-1.19 0,-0.8 0.62,-1.25 0.62,-0.46 1.53,-0.46 0.81,0 1.33,0.3 l 0,-0.14 q 0,-0.54 -0.37,-0.86 -0.37,-0.33 -0.91,-0.33 -0.4,0 -0.73,0.19 -0.32,0.19 -0.44,0.52 l -0.84,-0.36 q 0.17,-0.44 0.67,-0.81 0.5,-0.38 1.32,-0.38 0.94,0 1.56,0.55 0.62,0.55 0.62,1.55 l 0,2.96 -0.88,0 0,-0.68 -0.04,0 q -0.55,0.84 -1.61,0.84 z m 0.15,-0.84 q 0.57,0 1.03,-0.42 0.47,-0.43 0.47,-1.01 -0.39,-0.32 -1.17,-0.32 -0.67,0 -1.01,0.29 -0.34,0.29 -0.34,0.68 0,0.36 0.31,0.57 0.31,0.21 0.71,0.21 z" />
          <path
             inkscape:connector-curvature="0"
             id="path4175"
             style="font-style:normal;font-variant:normal;font-weight:normal;font-stretch:normal;font-size:10px;font-family:'Product Sans';-inkscape-font-specification:'Product Sans';fill:#ffffff;fill-opacity:1"
             d="m -23.521073,59.294537 -1.98,-4.9 1,0 1.44,3.8 0.02,0 1.46,-3.8 0.98,0 -2,4.9 -0.92,0 z" />
          <path
             inkscape:connector-curvature="0"
             id="path4177"
             style="font-style:normal;font-variant:normal;font-weight:normal;font-stretch:normal;font-size:10px;font-family:'Product Sans';-inkscape-font-specification:'Product Sans';fill:#ffffff;fill-opacity:1"
             d="m -18.54826,59.454537 q -0.78,0 -1.31,-0.45 -0.52,-0.45 -0.52,-1.19 0,-0.8 0.62,-1.25 0.62,-0.46 1.53,-0.46 0.81,0 1.33,0.3 l 0,-0.14 q 0,-0.54 -0.37,-0.86 -0.37,-0.33 -0.91,-0.33 -0.4,0 -0.73,0.19 -0.32,0.19 -0.44,0.52 l -0.84,-0.36 q 0.17,-0.44 0.67,-0.81 0.5,-0.38 1.32,-0.38 0.94,0 1.56,0.55 0.62,0.55 0.62,1.55 l 0,2.96 -0.88,0 0,-0.68 -0.04,0 q -0.55,0.84 -1.61,0.84 z m 0.15,-0.84 q 0.57,0 1.03,-0.42 0.47,-0.43 0.47,-1.01 -0.39,-0.32 -1.17,-0.32 -0.67,0 -1.01,0.29 -0.34,0.29 -0.34,0.68 0,0.36 0.31,0.57 0.31,0.21 0.71,0.21 z" />
        </g>
      </g>
      <g
         transform="matrix(1.8333332,0,0,1.8333332,-39.232603,-1886.0668)"
         id="layer1"
         inkscape:label="Capa 1"
         style="fill:#6f350c;fill-opacity:1">
        <g
           inkscape:label="Capa 1"
           id="layer1-4-1"
           transform="translate(-412.78675,511.08398)"
           style="fill:#6f350c;fill-opacity:1">
          <g
             transform="translate(392.57143,-514.5642)"
             id="layer1-7"
             inkscape:label="Capa 1"
             style="fill:#6f350c;fill-opacity:1" />
          <g
             id="g4240"
             transform="translate(341.79698,500.25245)"
             style="fill:#6f350c;fill-opacity:1">
            <g
               inkscape:transform-center-y="-9.4924686"
               inkscape:transform-center-x="5.4653607"
               inkscape:label="Capa 1"
               id="layer1-1"
               transform="translate(-392.98822,-511.27795)"
               style="fill:#6f350c;fill-opacity:1">
              <g
                 style="fill:#6f350c;fill-opacity:1"
                 transform="matrix(0.03680419,0,0,0.03680419,466.07423,537.38418)"
                 id="g4190">
                <g
                   style="fill:#6f350c;fill-opacity:1"
                   id="g4150">
                  <path
                     style="fill:#fcffff;fill-opacity:0.84552848"
                     inkscape:connector-curvature="0"
                     d="M 14.257,275.602 C -17.052,220.391 4.253,133.798 69.023,69.01 142.576,-4.533 244.279,-22.066 296.205,29.85 c 0.061,0.068 0.112,0.145 0.195,0.214 C 286.008,60.299 252.914,124.631 153.714,159.412 62.842,191.29 27.788,241.972 14.257,275.602 Z M 310.81,48.75 c -7.871,18.361 -21.57,42.356 -45.173,65.957 -23.725,23.735 -57.445,47.046 -105.208,63.8 C 63.49,212.5 36.405,268.149 28.848,295.116 c 0.357,0.36 0.664,0.733 1.011,1.083 51.921,51.918 153.628,34.386 227.176,-39.169 65.444,-65.445 86.491,-153.161 53.775,-208.28 z"
                     id="path4152" />
                </g>
                <g
                   style="fill:#6f350c;fill-opacity:1"
                   id="g4154" />
                <g
                   style="fill:#6f350c;fill-opacity:1"
                   id="g4156" />
                <g
                   style="fill:#6f350c;fill-opacity:1"
                   id="g4158" />
                <g
                   style="fill:#6f350c;fill-opacity:1"
                   id="g4160" />
                <g
                   style="fill:#6f350c;fill-opacity:1"
                   id="g4162" />
                <g
                   style="fill:#6f350c;fill-opacity:1"
                   id="g4164" />
                <g
                   style="fill:#6f350c;fill-opacity:1"
                   id="g4166" />
                <g
                   style="fill:#6f350c;fill-opacity:1"
                   id="g4168" />
                <g
                   style="fill:#6f350c;fill-opacity:1"
                   id="g4170" />
                <g
                   style="fill:#6f350c;fill-opacity:1"
                   id="g4172" />
                <g
                   style="fill:#6f350c;fill-opacity:1"
                   id="g4174" />
                <g
                   style="fill:#6f350c;fill-opacity:1"
                   id="g4176" />
                <g
                   style="fill:#6f350c;fill-opacity:1"
                   id="g4178" />
                <g
                   style="fill:#6f350c;fill-opacity:1"
                   id="g4180" />
                <g
                   style="fill:#6f350c;fill-opacity:1"
                   id="g4182" />
              </g>
            </g>
          </g>
        </g>
      </g>
    </g>
  </g>
</svg>
