<?xml version="1.0" encoding="UTF-8" standalone="no"?>
<svg
   xmlns:osb="http://www.openswatchbook.org/uri/2009/osb"
   xmlns:dc="http://purl.org/dc/elements/1.1/"
   xmlns:cc="http://creativecommons.org/ns#"
   xmlns:rdf="http://www.w3.org/1999/02/22-rdf-syntax-ns#"
   xmlns:svg="http://www.w3.org/2000/svg"
   xmlns="http://www.w3.org/2000/svg"
   xmlns:xlink="http://www.w3.org/1999/xlink"
   xmlns:sodipodi="http://sodipodi.sourceforge.net/DTD/sodipodi-0.dtd"
   xmlns:inkscape="http://www.inkscape.org/namespaces/inkscape"
   width="64"
   viewBox="0 0 64 64"
   height="64"
   id="svg2"
   version="1.1"
   inkscape:version="0.91 r13725"
   sodipodi:docname="audio-prs.sid.svg"
   inkscape:export-filename="E:\Usuarios\David\Desktop\android.png"
   inkscape:export-xdpi="90"
   inkscape:export-ydpi="90">
  <metadata
     id="metadata14">
    <rdf:RDF>
      <cc:Work
         rdf:about="">
        <dc:format>image/svg+xml</dc:format>
        <dc:type
           rdf:resource="http://purl.org/dc/dcmitype/StillImage" />
        <dc:title></dc:title>
      </cc:Work>
    </rdf:RDF>
  </metadata>
  <defs
     id="defs12">
    <linearGradient
       osb:paint="gradient"
       id="linearGradient4207">
      <stop
         id="stop3371"
         offset="0"
         style="stop-color:#3498db;stop-opacity:1;" />
      <stop
         id="stop3373"
         offset="1"
         style="stop-color:#3498db;stop-opacity:0;" />
    </linearGradient>
    <linearGradient
       inkscape:collect="always"
       xlink:href="#linearGradient4531-4"
       id="linearGradient4182"
       x1="-74.929466"
       y1="52.199436"
       x2="-75.259552"
       y2="2.3564887"
       gradientUnits="userSpaceOnUse"
       gradientTransform="matrix(1.0749904,0,0,1.0292896,56.688954,-0.01528455)" />
    <linearGradient
       inkscape:collect="always"
       id="linearGradient4531-4">
      <stop
         style="stop-color:#5dae33;stop-opacity:1"
         offset="0"
         id="stop4533-8" />
      <stop
         style="stop-color:#9be058;stop-opacity:1"
         offset="1"
         id="stop4535-8" />
    </linearGradient>
  </defs>
  <sodipodi:namedview
     pagecolor="#747474"
     bordercolor="#666666"
     borderopacity="1"
     objecttolerance="10"
     gridtolerance="10"
     guidetolerance="10"
     inkscape:pageopacity="1"
     inkscape:pageshadow="2"
     inkscape:window-width="1366"
     inkscape:window-height="635"
     id="namedview10"
     showgrid="false"
     inkscape:zoom="3.7276098"
     inkscape:cx="42.839624"
     inkscape:cy="52.698492"
     inkscape:window-x="0"
     inkscape:window-y="36"
     inkscape:window-maximized="1"
     inkscape:current-layer="g4241"
     inkscape:snap-bbox="true"
     inkscape:bbox-nodes="true"
     inkscape:object-nodes="true"
     borderlayer="false"
     showguides="false"
     inkscape:snap-nodes="true"
     inkscape:object-paths="false"
     inkscape:showpageshadow="false"
     showborder="true">
    <inkscape:grid
       type="xygrid"
       id="grid4160"
       visible="true" />
    <sodipodi:guide
       position="28.888657,63.404975"
       orientation="0,35.2"
       id="guide6108" />
    <sodipodi:guide
       position="54,55.679691"
       orientation="51.200004,0"
       id="guide6112" />
    <sodipodi:guide
       position="58.527669,62"
       orientation="0,1"
       id="guide6114"
       inkscape:label=""
       inkscape:color="rgb(0,0,255)" />
    <sodipodi:guide
       position="10,4"
       orientation="-56,0"
       id="guide6116" />
    <sodipodi:guide
       position="11,4"
       orientation="-2.8421709e-014,0"
       id="guide6118" />
    <sodipodi:guide
       position="12,62"
       orientation="0,35.2"
       id="guide6120" />
    <sodipodi:guide
       position="52,2"
       orientation="0,-40"
       id="guide6126" />
    <sodipodi:guide
       position="12,62"
       orientation="0,35.2"
       id="guide6138" />
    <sodipodi:guide
       position="55,3"
       orientation="0,-40"
       id="guide6156" />
    <sodipodi:guide
       position="53,4.3973202"
       orientation="-56,0"
       id="guide6158" />
    <sodipodi:guide
       position="21,48"
       orientation="0,22"
       id="guide4238" />
    <sodipodi:guide
       position="43,48"
       orientation="22,0"
       id="guide4240" />
    <sodipodi:guide
       position="43,26"
       orientation="0,-22"
       id="guide4242" />
    <sodipodi:guide
       position="21,26"
       orientation="-22,0"
       id="guide4244" />
  </sodipodi:namedview>
  <g
     id="g4186"
     transform="translate(56.391766,-0.17677665)">
    <g
       id="g4241"
       transform="translate(0,0.26550102)">
      <rect
         style="opacity:1;fill:#357719;fill-opacity:1;stroke:none;stroke-width:0.185;stroke-linecap:round;stroke-linejoin:round;stroke-miterlimit:4;stroke-dasharray:none;stroke-dashoffset:0;stroke-opacity:1"
         id="rect4162"
         width="44"
         height="7.6992903"
         x="-46.391766"
         y="54.477486"
         ry="2.5" />
      <rect
         style="opacity:1;fill:url(#linearGradient4182);fill-opacity:1.0;stroke:none;stroke-width:0.30000001;stroke-linecap:round;stroke-linejoin:round;stroke-miterlimit:4;stroke-dasharray:none;stroke-dashoffset:0;stroke-opacity:1"
         id="rect4174"
         width="44"
         height="52.831711"
         x="-46.391766"
         y="1.6457753"
         ry="2.5" />
      <rect
         style="opacity:1;fill:#357719;fill-opacity:1;stroke:none;stroke-width:0.185;stroke-linecap:round;stroke-linejoin:round;stroke-miterlimit:4;stroke-dasharray:none;stroke-dashoffset:0;stroke-opacity:1"
         id="rect4184"
         width="44"
         height="7.9118414"
         x="-46.391766"
         y="51.264462"
         ry="0" />
      <g
         style="fill:#0c426b;fill-opacity:1"
         transform="translate(-512.40474,-513.11533)"
         id="layer1"
         inkscape:label="Capa 1"
         inkscape:transform-center-x="5.4653607"
         inkscape:transform-center-y="-9.4924686" />
      <g
         transform="matrix(1.8333333,0,0,1.8333333,-39.01865,-1887.8794)"
         id="layer1-77"
         inkscape:label="Capa 1"
         style="fill:#ffffff;fill-opacity:0.84959352">
        <g
           inkscape:label="Capa 1"
           id="layer1-4"
           transform="translate(-412.88298,512.00351)"
           style="fill:#ffffff;fill-opacity:0.84959352">
          <g
             transform="translate(392.57143,-514.5642)"
             id="layer1-7"
             inkscape:label="Capa 1"
             style="fill:#ffffff;fill-opacity:0.84959352" />
          <g
             id="g4240"
             transform="translate(341.79698,500.25245)"
             style="fill:#ffffff;fill-opacity:0.84959352">
            <path
               inkscape:connector-curvature="0"
               d="m 83.298405,29.694904 0,2.417882 -1.32228,0 0,-2.417882 z m -1.20894,-1.189671 0,2.417882 -1.32228,0 0,-2.417882 z m -1.16172,-1.190052 0,2.417882 -1.32228,0 0,-2.417882 z m -1.18062,-1.208931 0,7.574773 -1.30143,-1e-5 0,-7.574773 z m -1.24515,8.222049 0,3.777941 -2.43678,0 0,-3.777941 z m -3.62838,0.127191 3.77794,0 0,2.436773 -3.77794,0 z m 1.0956,-1.171161 3.77793,-3.4e-5 0,3.626858 -3.77793,0 z"
               style="opacity:0.98000004;fill:#ffffff;fill-opacity:0.84959352;stroke:none;stroke-width:0.30000001;stroke-linecap:butt;stroke-linejoin:miter;stroke-miterlimit:4;stroke-dasharray:none;stroke-opacity:1"
               id="rect4156-8-3-3-5-2" />
          </g>
        </g>
      </g>
      <g
         style="font-style:normal;font-weight:normal;font-size:25px;line-height:125%;font-family:sans-serif;letter-spacing:0px;word-spacing:0px;fill:#ffffff;fill-opacity:1;stroke:none;stroke-width:1px;stroke-linecap:butt;stroke-linejoin:miter;stroke-opacity:1"
         id="text4170"
         transform="matrix(0.36057617,0,0,0.34371857,12.755569,43.834069)">
        <path
           d="m -113.49226,43.255194 q -1.4,0 -2.525,-0.6 -1.1,-0.6 -1.65,-1.5 l -0.1,0 0.1,1.7 0,5.4 -2.3,0 0,-17.65 2.2,0 0,1.7 0.1,0 q 0.55,-0.9 1.65,-1.5 1.125,-0.6 2.525,-0.6 2.375,0 4.1,1.875 1.725,1.875 1.725,4.65 0,2.775 -1.725,4.65 -1.725,1.875 -4.1,1.875 z m -0.375,-2.1 q 1.6,0 2.75,-1.2 1.15,-1.225 1.15,-3.225 0,-2 -1.15,-3.2 -1.15,-1.225 -2.75,-1.225 -1.625,0 -2.775,1.2 -1.125,1.2 -1.125,3.225 0,2.025 1.125,3.225 1.15,1.2 2.775,1.2 z"
           style="font-style:normal;font-variant:normal;font-weight:normal;font-stretch:normal;font-family:'Product Sans';-inkscape-font-specification:'Product Sans';fill:#ffffff;fill-opacity:1"
           id="path4175"
           inkscape:connector-curvature="0" />
        <path
           d="m -103.4071,42.855194 -2.3,0 0,-12.25 2.2,0 0,2 0.1,0 q 0.35,-1 1.425,-1.65 1.1,-0.65 2.124999,-0.65 1.025,0 1.725,0.3 l -0.875,2.15 q -0.45,-0.175 -1.224999,-0.175 -1.25,0 -2.225,1 -0.95,0.975 -0.95,2.575 l 0,6.7 z"
           style="font-style:normal;font-variant:normal;font-weight:normal;font-stretch:normal;font-family:'Product Sans';-inkscape-font-specification:'Product Sans';fill:#ffffff;fill-opacity:1"
           id="path4177"
           inkscape:connector-curvature="0" />
        <path
           d="m -92.563351,43.255194 q -2.05,0 -3.4,-1 -1.325,-1 -1.95,-2.5 l 2.05,-0.85 q 0.975,2.3 3.325,2.3 1.075,0 1.75,-0.475 0.7,-0.475 0.7,-1.25 0,-1.2 -1.675,-1.625 l -2.475,-0.6 q -1.175,-0.3 -2.225,-1.125 -1.05,-0.85 -1.05,-2.275 0,-1.625 1.425,-2.625 1.45,-1.025 3.425,-1.025 1.625,0 2.9,0.75 1.275,0.725 1.825,2.1 l -2,0.825 q -0.675,-1.625 -2.8,-1.625 -1.025,0 -1.725,0.425 -0.7,0.425 -0.7,1.15 0,1.05 1.625,1.425 l 2.425,0.575 q 1.725,0.4 2.55,1.375 0.825,0.975 0.825,2.2 0,1.65 -1.35,2.75 -1.35,1.1 -3.475,1.1 z"
           style="font-style:normal;font-variant:normal;font-weight:normal;font-stretch:normal;font-family:'Product Sans';-inkscape-font-specification:'Product Sans';fill:#ffffff;fill-opacity:1"
           id="path4179"
           inkscape:connector-curvature="0" />
      </g>
    </g>
  </g>
</svg>
