<?xml version="1.0" encoding="UTF-8" standalone="no"?>
<svg
   xmlns:osb="http://www.openswatchbook.org/uri/2009/osb"
   xmlns:dc="http://purl.org/dc/elements/1.1/"
   xmlns:cc="http://creativecommons.org/ns#"
   xmlns:rdf="http://www.w3.org/1999/02/22-rdf-syntax-ns#"
   xmlns:svg="http://www.w3.org/2000/svg"
   xmlns="http://www.w3.org/2000/svg"
   xmlns:xlink="http://www.w3.org/1999/xlink"
   xmlns:sodipodi="http://sodipodi.sourceforge.net/DTD/sodipodi-0.dtd"
   xmlns:inkscape="http://www.inkscape.org/namespaces/inkscape"
   width="64"
   viewBox="0 0 64 64"
   height="64"
   id="svg2"
   version="1.1"
   inkscape:version="0.91 r13725"
   sodipodi:docname="audio-midi.svg"
   inkscape:export-filename="E:\Usuarios\David\Desktop\android.png"
   inkscape:export-xdpi="90"
   inkscape:export-ydpi="90">
  <metadata
     id="metadata14">
    <rdf:RDF>
      <cc:Work
         rdf:about="">
        <dc:format>image/svg+xml</dc:format>
        <dc:type
           rdf:resource="http://purl.org/dc/dcmitype/StillImage" />
        <dc:title />
      </cc:Work>
    </rdf:RDF>
  </metadata>
  <defs
     id="defs12">
    <linearGradient
       osb:paint="gradient"
       id="linearGradient4207">
      <stop
         id="stop3371"
         offset="0"
         style="stop-color:#3498db;stop-opacity:1;" />
      <stop
         id="stop3373"
         offset="1"
         style="stop-color:#3498db;stop-opacity:0;" />
    </linearGradient>
    <linearGradient
       inkscape:collect="always"
       xlink:href="#linearGradient4531-8"
       id="linearGradient4182"
       x1="-74.929466"
       y1="52.199436"
       x2="-75.259552"
       y2="2.3564887"
       gradientUnits="userSpaceOnUse"
       gradientTransform="matrix(1.0749904,0,0,1.0292896,56.688954,-0.01528455)" />
    <linearGradient
       id="linearGradient4531-8"
       inkscape:collect="always">
      <stop
         id="stop4533-5"
         offset="0"
         style="stop-color:#1b92f4;stop-opacity:1" />
      <stop
         id="stop4535-9"
         offset="1"
         style="stop-color:#20b9fa;stop-opacity:1" />
    </linearGradient>
  </defs>
  <sodipodi:namedview
     pagecolor="#747474"
     bordercolor="#666666"
     borderopacity="1"
     objecttolerance="10"
     gridtolerance="10"
     guidetolerance="10"
     inkscape:pageopacity="1"
     inkscape:pageshadow="2"
     inkscape:window-width="1366"
     inkscape:window-height="635"
     id="namedview10"
     showgrid="false"
     inkscape:zoom="5.2716363"
     inkscape:cx="-25.088933"
     inkscape:cy="27.632702"
     inkscape:window-x="0"
     inkscape:window-y="36"
     inkscape:window-maximized="1"
     inkscape:current-layer="g4241"
     inkscape:snap-bbox="true"
     inkscape:bbox-nodes="true"
     inkscape:object-nodes="true"
     borderlayer="false"
     showguides="false"
     inkscape:snap-nodes="true"
     inkscape:object-paths="false"
     inkscape:showpageshadow="false"
     showborder="true">
    <inkscape:grid
       type="xygrid"
       id="grid4160"
       visible="true" />
    <sodipodi:guide
       position="28.888657,63.404975"
       orientation="0,35.2"
       id="guide6108" />
    <sodipodi:guide
       position="54,55.679691"
       orientation="51.200004,0"
       id="guide6112" />
    <sodipodi:guide
       position="58.527669,62"
       orientation="0,1"
       id="guide6114"
       inkscape:label=""
       inkscape:color="rgb(0,0,255)" />
    <sodipodi:guide
       position="10,4"
       orientation="-56,0"
       id="guide6116" />
    <sodipodi:guide
       position="11,4"
       orientation="-2.8421709e-014,0"
       id="guide6118" />
    <sodipodi:guide
       position="12,62"
       orientation="0,35.2"
       id="guide6120" />
    <sodipodi:guide
       position="52,2"
       orientation="0,-40"
       id="guide6126" />
    <sodipodi:guide
       position="12,62"
       orientation="0,35.2"
       id="guide6138" />
    <sodipodi:guide
       position="55,3"
       orientation="0,-40"
       id="guide6156" />
    <sodipodi:guide
       position="53,4.3973202"
       orientation="-56,0"
       id="guide6158" />
    <sodipodi:guide
       position="21,48"
       orientation="0,22"
       id="guide4238" />
    <sodipodi:guide
       position="43,48"
       orientation="22,0"
       id="guide4240" />
    <sodipodi:guide
       position="43,26"
       orientation="0,-22"
       id="guide4242" />
    <sodipodi:guide
       position="21,26"
       orientation="-22,0"
       id="guide4244" />
  </sodipodi:namedview>
  <g
     id="g4186"
     transform="translate(56.391766,-0.17677665)">
    <g
       id="g4241"
       transform="translate(0,0.26550102)">
      <rect
         style="opacity:1;fill:#0c426b;fill-opacity:1;stroke:none;stroke-width:0.185;stroke-linecap:round;stroke-linejoin:round;stroke-miterlimit:4;stroke-dasharray:none;stroke-dashoffset:0;stroke-opacity:1"
         id="rect4162"
         width="44"
         height="7.6992903"
         x="-46.391766"
         y="54.477486"
         ry="2.5" />
      <rect
         style="opacity:1;fill:url(#linearGradient4182);fill-opacity:1;stroke:none;stroke-width:0.30000001;stroke-linecap:round;stroke-linejoin:round;stroke-miterlimit:4;stroke-dasharray:none;stroke-dashoffset:0;stroke-opacity:1"
         id="rect4174"
         width="44"
         height="52.831711"
         x="-46.391766"
         y="1.6457753"
         ry="2.5" />
      <rect
         style="opacity:1;fill:#0c426b;fill-opacity:1;stroke:none;stroke-width:0.185;stroke-linecap:round;stroke-linejoin:round;stroke-miterlimit:4;stroke-dasharray:none;stroke-dashoffset:0;stroke-opacity:1"
         id="rect4184"
         width="44"
         height="7.9118414"
         x="-46.391766"
         y="51.264462"
         ry="0" />
      <g
         style="fill:#0c426b;fill-opacity:1"
         transform="translate(-512.40474,-513.11533)"
         id="layer1"
         inkscape:label="Capa 1"
         inkscape:transform-center-x="5.4653607"
         inkscape:transform-center-y="-9.4924686" />
      <g
         transform="matrix(1.8333333,0,0,1.8333333,-39.01865,-1887.8794)"
         id="layer1-77"
         inkscape:label="Capa 1"
         style="fill:#ffffff;fill-opacity:0.84959352">
        <g
           inkscape:label="Capa 1"
           id="layer1-4"
           transform="translate(-412.88298,512.00351)"
           style="fill:#ffffff;fill-opacity:0.84959352">
          <g
             transform="translate(392.57143,-514.5642)"
             id="layer1-7"
             inkscape:label="Capa 1"
             style="fill:#ffffff;fill-opacity:0.84959352" />
          <g
             id="g4240"
             transform="translate(341.79698,500.25245)"
             style="fill:#ffffff;fill-opacity:0.84959352">
            <path
               inkscape:connector-curvature="0"
               d="m 83.298405,29.694904 0,2.417882 -1.32228,0 0,-2.417882 z m -1.20894,-1.189671 0,2.417882 -1.32228,0 0,-2.417882 z m -1.16172,-1.190052 0,2.417882 -1.32228,0 0,-2.417882 z m -1.18062,-1.208931 0,7.574773 -1.30143,-1e-5 0,-7.574773 z m -1.24515,8.222049 0,3.777941 -2.43678,0 0,-3.777941 z m -3.62838,0.127191 3.77794,0 0,2.436773 -3.77794,0 z m 1.0956,-1.171161 3.77793,-3.4e-5 0,3.626858 -3.77793,0 z"
               style="opacity:0.98000004;fill:#ffffff;fill-opacity:0.84959352;stroke:none;stroke-width:0.30000001;stroke-linecap:butt;stroke-linejoin:miter;stroke-miterlimit:4;stroke-dasharray:none;stroke-opacity:1"
               id="rect4156-8-3-3-5-2" />
          </g>
        </g>
      </g>
      <g
         style="font-style:normal;font-weight:normal;font-size:80px;line-height:125%;font-family:sans-serif;letter-spacing:0px;word-spacing:0px;fill:#ffffff;fill-opacity:1;stroke:none;stroke-width:1px;stroke-linecap:butt;stroke-linejoin:miter;stroke-opacity:1"
         id="text4211"
         transform="matrix(0.33790917,0,0,0.33790917,4.6976921,41.393596)">
        <path
           d="m -109.29108,53.651981 0,-12.25 2.2,0 0,1.7 0.1,0 q 0.525,-0.875 1.6,-1.475 1.1,-0.625 2.175,-0.625 2.85,0 3.875002,2.35 1.5,-2.35 4.275,-2.35 2.175,0 3.275,1.4 1.1,1.375 1.1,3.75 l 0,7.5 -2.3,0 0,-7.15 q 0,-1.85 -0.675,-2.625 -0.675,-0.775 -2.05,-0.775 -1.35,0 -2.25,1.15 -0.875,1.15 -0.875,2.625 l 0,6.775 -2.300002,0 0,-7.15 q 0,-1.85 -0.675,-2.625 -0.675,-0.775 -2.05,-0.775 -1.35,0 -2.25,1.15 -0.875,1.15 -0.875,2.625 l 0,6.775 -2.3,0 z"
           style="font-style:normal;font-variant:normal;font-weight:normal;font-stretch:normal;font-size:25px;font-family:'Product Sans';-inkscape-font-specification:'Product Sans';fill:#ffffff;fill-opacity:1"
           id="path4216"
           inkscape:connector-curvature="0" />
        <path
           d="m -85.502016,38.326981 q -0.475,0.475 -1.15,0.475 -0.675,0 -1.15,-0.475 -0.475,-0.475 -0.475,-1.15 0,-0.675 0.475,-1.15 0.475,-0.475 1.15,-0.475 0.675,0 1.15,0.475 0.475,0.475 0.475,1.15 0,0.675 -0.475,1.15 z m 0,15.325 -2.3,0 0,-12.25 2.3,0 0,12.25 z"
           style="font-style:normal;font-variant:normal;font-weight:normal;font-stretch:normal;font-size:25px;font-family:'Product Sans';-inkscape-font-specification:'Product Sans';fill:#ffffff;fill-opacity:1"
           id="path4218"
           inkscape:connector-curvature="0" />
        <path
           d="m -77.505922,54.051981 q -2.375,0 -4.1,-1.875 -1.725,-1.875 -1.725,-4.65 0,-2.775 1.725,-4.65 1.725,-1.875 4.1,-1.875 1.4,0 2.5,0.6 1.125,0.6 1.675,1.5 l 0.1,0 -0.1,-1.7 0,-5.65 2.3,0 0,17.9 -2.2,0 0,-1.7 -0.1,0 q -0.55,0.9 -1.675,1.5 -1.1,0.6 -2.5,0.6 z m 0.375,-2.1 q 1.625,0 2.75,-1.2 1.15,-1.2 1.15,-3.225 0,-2.025 -1.15,-3.225 -1.125,-1.2 -2.75,-1.2 -1.6,0 -2.75,1.225 -1.15,1.2 -1.15,3.2 0,2 1.15,3.225 1.15,1.2 2.75,1.2 z"
           style="font-style:normal;font-variant:normal;font-weight:normal;font-stretch:normal;font-size:25px;font-family:'Product Sans';-inkscape-font-specification:'Product Sans';fill:#ffffff;fill-opacity:1"
           id="path4220"
           inkscape:connector-curvature="0" />
        <path
           d="m -65.726625,38.326981 q -0.475,0.475 -1.15,0.475 -0.675,0 -1.15,-0.475 -0.475,-0.475 -0.475,-1.15 0,-0.675 0.475,-1.15 0.475,-0.475 1.15,-0.475 0.675,0 1.15,0.475 0.475,0.475 0.475,1.15 0,0.675 -0.475,1.15 z m 0,15.325 -2.3,0 0,-12.25 2.3,0 0,12.25 z"
           style="font-style:normal;font-variant:normal;font-weight:normal;font-stretch:normal;font-size:25px;font-family:'Product Sans';-inkscape-font-specification:'Product Sans';fill:#ffffff;fill-opacity:1"
           id="path4222"
           inkscape:connector-curvature="0" />
      </g>
    </g>
  </g>
</svg>
