<?xml version="1.0" encoding="UTF-8" standalone="no"?>
<svg
   xmlns:osb="http://www.openswatchbook.org/uri/2009/osb"
   xmlns:dc="http://purl.org/dc/elements/1.1/"
   xmlns:cc="http://creativecommons.org/ns#"
   xmlns:rdf="http://www.w3.org/1999/02/22-rdf-syntax-ns#"
   xmlns:svg="http://www.w3.org/2000/svg"
   xmlns="http://www.w3.org/2000/svg"
   xmlns:xlink="http://www.w3.org/1999/xlink"
   xmlns:sodipodi="http://sodipodi.sourceforge.net/DTD/sodipodi-0.dtd"
   xmlns:inkscape="http://www.inkscape.org/namespaces/inkscape"
   width="64"
   viewBox="0 0 64 64"
   height="64"
   id="svg2"
   version="1.1"
   inkscape:version="0.91 r13725"
   sodipodi:docname="virtualbox-extpack.svg"
   inkscape:export-filename="E:\Usuarios\David\Desktop\android.png"
   inkscape:export-xdpi="90"
   inkscape:export-ydpi="90">
  <metadata
     id="metadata14">
    <rdf:RDF>
      <cc:Work
         rdf:about="">
        <dc:format>image/svg+xml</dc:format>
        <dc:type
           rdf:resource="http://purl.org/dc/dcmitype/StillImage" />
        <dc:title />
      </cc:Work>
    </rdf:RDF>
  </metadata>
  <defs
     id="defs12">
    <linearGradient
       osb:paint="gradient"
       id="linearGradient4207">
      <stop
         id="stop3371"
         offset="0"
         style="stop-color:#3498db;stop-opacity:1;" />
      <stop
         id="stop3373"
         offset="1"
         style="stop-color:#3498db;stop-opacity:0;" />
    </linearGradient>
    <linearGradient
       inkscape:collect="always"
       xlink:href="#linearGradient6789"
       id="linearGradient4182"
       x1="-74.929466"
       y1="52.199436"
       x2="-75.259552"
       y2="2.3564887"
       gradientUnits="userSpaceOnUse"
       gradientTransform="matrix(1.0749904,0,0,1.0292896,56.688954,-0.01528455)" />
    <linearGradient
       id="linearGradient6789"
       inkscape:collect="always">
      <stop
         id="stop6791"
         offset="0"
         style="stop-color:#4dbf03;stop-opacity:1" />
      <stop
         id="stop6793"
         offset="1"
         style="stop-color:#8cff58;stop-opacity:1" />
    </linearGradient>
  </defs>
  <sodipodi:namedview
     pagecolor="#747474"
     bordercolor="#666666"
     borderopacity="1"
     objecttolerance="10"
     gridtolerance="10"
     guidetolerance="10"
     inkscape:pageopacity="1"
     inkscape:pageshadow="2"
     inkscape:window-width="1366"
     inkscape:window-height="635"
     id="namedview10"
     showgrid="false"
     inkscape:zoom="5.2716365"
     inkscape:cx="-11.867943"
     inkscape:cy="36.15766"
     inkscape:window-x="0"
     inkscape:window-y="36"
     inkscape:window-maximized="1"
     inkscape:current-layer="g4184"
     inkscape:snap-bbox="true"
     inkscape:bbox-nodes="true"
     inkscape:object-nodes="true"
     borderlayer="false"
     showguides="true"
     inkscape:snap-nodes="true"
     inkscape:object-paths="false"
     inkscape:showpageshadow="false"
     showborder="true">
    <inkscape:grid
       type="xygrid"
       id="grid4160"
       visible="true" />
    <sodipodi:guide
       position="28.888657,63.404975"
       orientation="0,35.2"
       id="guide6108" />
    <sodipodi:guide
       position="54,55.679691"
       orientation="51.200004,0"
       id="guide6112" />
    <sodipodi:guide
       position="58.527669,62"
       orientation="0,1"
       id="guide6114"
       inkscape:label=""
       inkscape:color="rgb(0,0,255)" />
    <sodipodi:guide
       position="10,4"
       orientation="-56,0"
       id="guide6116" />
    <sodipodi:guide
       position="11,4"
       orientation="-2.8421709e-014,0"
       id="guide6118" />
    <sodipodi:guide
       position="12,62"
       orientation="0,35.2"
       id="guide6120" />
    <sodipodi:guide
       position="52,2"
       orientation="0,-40"
       id="guide6126" />
    <sodipodi:guide
       position="12,62"
       orientation="0,35.2"
       id="guide6138" />
    <sodipodi:guide
       position="55,3"
       orientation="0,-40"
       id="guide6156" />
    <sodipodi:guide
       position="53,4.3973202"
       orientation="-56,0"
       id="guide6158" />
    <sodipodi:guide
       position="43,48"
       orientation="22,0"
       id="guide4240" />
    <sodipodi:guide
       position="43,26"
       orientation="0,-22"
       id="guide4242" />
    <sodipodi:guide
       position="21,26"
       orientation="-22,0"
       id="guide4244" />
  </sodipodi:namedview>
  <g
     id="g4186"
     transform="translate(56.391766,-0.17677665)">
    <g
       id="g4239"
       transform="translate(0,0.26550102)">
      <rect
         style="opacity:1;fill:#235503;fill-opacity:1;stroke:none;stroke-width:0.185;stroke-linecap:round;stroke-linejoin:round;stroke-miterlimit:4;stroke-dasharray:none;stroke-dashoffset:0;stroke-opacity:1"
         id="rect4162"
         width="44"
         height="7.6992903"
         x="-46.391766"
         y="54.477486"
         ry="2.5" />
      <rect
         style="opacity:1;fill:url(#linearGradient4182);fill-opacity:1.0;stroke:none;stroke-width:0.30000001;stroke-linecap:round;stroke-linejoin:round;stroke-miterlimit:4;stroke-dasharray:none;stroke-dashoffset:0;stroke-opacity:1"
         id="rect4174"
         width="44"
         height="52.831711"
         x="-46.391766"
         y="1.6457753"
         ry="2.5" />
      <rect
         style="opacity:1;fill:#235503;fill-opacity:1;stroke:none;stroke-width:0.185;stroke-linecap:round;stroke-linejoin:round;stroke-miterlimit:4;stroke-dasharray:none;stroke-dashoffset:0;stroke-opacity:1"
         id="rect4184"
         width="44"
         height="7.9118414"
         x="-46.391766"
         y="51.264462"
         ry="0" />
    </g>
    <g
       inkscape:transform-center-y="-9.4924686"
       inkscape:transform-center-x="5.4653607"
       inkscape:label="Capa 1"
       id="layer1-4"
       transform="translate(-509.70748,-515.64674)">
      <g
         id="layer1-3-65"
         inkscape:label="Capa 1"
         transform="translate(0.41988239,0.03484499)" />
    </g>
    <g
       id="g4184"
       transform="translate(86.228316,3.7995266)">
      <path
         inkscape:connector-curvature="0"
         style="opacity:1;fill:#ffffff;fill-opacity:0.84677423;stroke:none;stroke-width:5.23831511;stroke-linecap:butt;stroke-linejoin:miter;stroke-miterlimit:4;stroke-dasharray:none;stroke-dashoffset:0;stroke-opacity:1"
         d="m -110.62088,12.566252 a 11.000228,11.000228 0 0 0 -10.9992,11.000798 11.000228,11.000228 0 0 0 10.9992,10.999202 11.000228,11.000228 0 0 0 11.000797,-10.999202 11.000228,11.000228 0 0 0 -11.000797,-11.000798 z m 2.77654,4.898468 c 0.0405,0.002 0.0884,0.02062 0.12614,0.03193 0.19377,0.05564 0.35826,0.221777 0.41353,0.416721 l 2.00377,7.298208 1.05058,-1.424197 c 0.10707,-0.158467 0.2695,-0.267894 0.45983,-0.273024 l 0.77916,0 0.35126,0 0.0303,0 c 0.023,-1e-6 0.0479,0.02485 0.0479,0.0479 l 0,1.120835 c 0,0.02301 -0.0233,0.03194 -0.0463,0.03193 l -0.0319,0 -0.35126,0 -0.4758,0 -1.54234,2.144278 c -0.26397,0.347572 -0.92239,0.226423 -1.05059,-0.191596 l -1.82814,-6.498295 -1.25655,4.144859 c -0.0769,0.235523 -0.3254,0.395615 -0.5716,0.400754 l -0.87495,0 -0.17563,0 -0.42949,0 -0.15807,0 -0.44546,0 -1.70201,5.63292 c -0.0853,0.305407 -0.44527,0.507716 -0.74723,0.41672 -0.19377,-0.05574 -0.35826,-0.221725 -0.41352,-0.41672 l -2.01974,-7.312578 -1.03302,1.424197 c -0.10707,0.158518 -0.28706,0.250331 -0.4774,0.255461 l -0.76319,0 -0.38159,0 -0.0479,0 c -0.023,1.7e-5 -0.0319,-0.0089 -0.0319,-0.03193 l 0,-1.120835 c 0,-0.02304 0.009,-0.0479 0.0319,-0.0479 l 0.0479,0 0.38159,0 0.47739,0 1.54235,-2.112344 c 0.26397,-0.347471 0.92079,-0.22622 1.04899,0.191595 l 1.81377,6.498294 1.27092,-4.160824 c 0.0769,-0.235527 0.31104,-0.411582 0.55723,-0.416721 l 0.89092,0 0.15807,0 0.42949,0 0.17563,0 0.42949,0 1.71638,-5.600987 c 0.0639,-0.229067 0.27753,-0.400926 0.50933,-0.432688 0.0386,-0.0052 0.0713,-0.01597 0.11176,-0.01597 z"
         id="path3340" />
      <g
         style="font-style:normal;font-weight:normal;font-size:25px;line-height:125%;font-family:sans-serif;letter-spacing:0px;word-spacing:0px;fill:#ffffff;fill-opacity:1;stroke:none;stroke-width:1px;stroke-linecap:butt;stroke-linejoin:miter;stroke-opacity:1"
         id="text6928"
         transform="matrix(0.33725102,0,0,0.33725102,-121.02004,38.844275)">
        <path
           d="m 19.501144,49.992361 q -2.775,0 -4.525,-1.85 -1.725,-1.85 -1.725,-4.675 0,-2.675 1.675,-4.6 1.7,-1.925 4.325,-1.925 2.725,0 4.35,1.775 1.65,1.775 1.65,4.75 l -0.025,0.425 -9.675,0 q 0.1,1.85 1.225,2.925 1.15,1.075 2.675,1.075 2.475,0 3.35,-2.1 l 2.05,0.85 q -0.6,1.425 -1.975,2.4 -1.375,0.95 -3.375,0.95 z m 3.3,-8 q -0.075,-1.05 -0.975,-2 -0.875,-0.95 -2.625,-0.95 -1.275,0 -2.225,0.8 -0.925,0.8 -1.275,2.15 l 7.1,0 z"
           style="font-style:normal;font-variant:normal;font-weight:normal;font-stretch:normal;font-family:'Product Sans';-inkscape-font-specification:'Product Sans';fill:#ffffff;fill-opacity:1"
           id="path6933"
           inkscape:connector-curvature="0" />
        <path
           d="m 37.285909,49.592361 -2.7,0 -3.025,-4.525 -2.975,4.525 -2.7,0 4.325,-6.225 -4.225,-6.025 2.6,0 3.025,4.325 2.875,-4.325 2.7,0 -4.275,6.025 4.375,6.225 z"
           style="font-style:normal;font-variant:normal;font-weight:normal;font-stretch:normal;font-family:'Product Sans';-inkscape-font-specification:'Product Sans';fill:#ffffff;fill-opacity:1"
           id="path6935"
           inkscape:connector-curvature="0" />
        <path
           d="m 44.202316,49.792361 q -1.925,0 -2.95,-1.025 -1,-1.025 -1,-2.9 l 0,-6.425 -2.15,0 0,-2.1 2.15,0 0,-3.75 2.3,0 0,3.75 3,0 0,2.1 -3,0 0,6.25 q 0,2 1.65,2 0.625,0 1.05,-0.2 l 0.8,1.975 q -0.75,0.325 -1.85,0.325 z"
           style="font-style:normal;font-variant:normal;font-weight:normal;font-stretch:normal;font-family:'Product Sans';-inkscape-font-specification:'Product Sans';fill:#ffffff;fill-opacity:1"
           id="path6937"
           inkscape:connector-curvature="0" />
      </g>
    </g>
  </g>
</svg>
