<?xml version="1.0" encoding="UTF-8" standalone="no"?>
<svg
   xmlns:osb="http://www.openswatchbook.org/uri/2009/osb"
   xmlns:dc="http://purl.org/dc/elements/1.1/"
   xmlns:cc="http://creativecommons.org/ns#"
   xmlns:rdf="http://www.w3.org/1999/02/22-rdf-syntax-ns#"
   xmlns:svg="http://www.w3.org/2000/svg"
   xmlns="http://www.w3.org/2000/svg"
   xmlns:xlink="http://www.w3.org/1999/xlink"
   xmlns:sodipodi="http://sodipodi.sourceforge.net/DTD/sodipodi-0.dtd"
   xmlns:inkscape="http://www.inkscape.org/namespaces/inkscape"
   width="64"
   viewBox="0 0 64 64"
   height="64"
   id="svg2"
   version="1.1"
   inkscape:version="0.91 r13725"
   sodipodi:docname="virtualbox-ova.svg"
   inkscape:export-filename="E:\Usuarios\David\Desktop\android.png"
   inkscape:export-xdpi="90"
   inkscape:export-ydpi="90">
  <metadata
     id="metadata14">
    <rdf:RDF>
      <cc:Work
         rdf:about="">
        <dc:format>image/svg+xml</dc:format>
        <dc:type
           rdf:resource="http://purl.org/dc/dcmitype/StillImage" />
        <dc:title />
      </cc:Work>
    </rdf:RDF>
  </metadata>
  <defs
     id="defs12">
    <linearGradient
       osb:paint="gradient"
       id="linearGradient4207">
      <stop
         id="stop3371"
         offset="0"
         style="stop-color:#3498db;stop-opacity:1;" />
      <stop
         id="stop3373"
         offset="1"
         style="stop-color:#3498db;stop-opacity:0;" />
    </linearGradient>
    <linearGradient
       inkscape:collect="always"
       xlink:href="#linearGradient4422"
       id="linearGradient4182"
       x1="-74.929466"
       y1="52.199436"
       x2="-75.259552"
       y2="2.3564887"
       gradientUnits="userSpaceOnUse"
       gradientTransform="matrix(1.0749904,0,0,1.0292896,56.688954,-0.01528455)" />
    <linearGradient
       id="linearGradient4422">
      <stop
         style="stop-color:#ff721a;stop-opacity:1"
         offset="0"
         id="stop4424" />
      <stop
         style="stop-color:#fbb521;stop-opacity:1"
         offset="1"
         id="stop4426" />
    </linearGradient>
  </defs>
  <sodipodi:namedview
     pagecolor="#747474"
     bordercolor="#666666"
     borderopacity="1"
     objecttolerance="10"
     gridtolerance="10"
     guidetolerance="10"
     inkscape:pageopacity="1"
     inkscape:pageshadow="2"
     inkscape:window-width="1366"
     inkscape:window-height="635"
     id="namedview10"
     showgrid="false"
     inkscape:zoom="10.543273"
     inkscape:cx="24.275485"
     inkscape:cy="5.2015734"
     inkscape:window-x="0"
     inkscape:window-y="36"
     inkscape:window-maximized="1"
     inkscape:current-layer="g4299"
     inkscape:snap-bbox="true"
     inkscape:bbox-nodes="true"
     inkscape:object-nodes="true"
     borderlayer="false"
     showguides="true"
     inkscape:snap-nodes="true"
     inkscape:object-paths="false"
     inkscape:showpageshadow="false"
     showborder="true">
    <inkscape:grid
       type="xygrid"
       id="grid4160"
       visible="true" />
    <sodipodi:guide
       position="28.888657,63.404975"
       orientation="0,35.2"
       id="guide6108" />
    <sodipodi:guide
       position="54,55.679691"
       orientation="51.200004,0"
       id="guide6112" />
    <sodipodi:guide
       position="58.527669,62"
       orientation="0,1"
       id="guide6114"
       inkscape:label=""
       inkscape:color="rgb(0,0,255)" />
    <sodipodi:guide
       position="10,4"
       orientation="-56,0"
       id="guide6116" />
    <sodipodi:guide
       position="11,4"
       orientation="-2.8421709e-014,0"
       id="guide6118" />
    <sodipodi:guide
       position="12,62"
       orientation="0,35.2"
       id="guide6120" />
    <sodipodi:guide
       position="52,2"
       orientation="0,-40"
       id="guide6126" />
    <sodipodi:guide
       position="12,62"
       orientation="0,35.2"
       id="guide6138" />
    <sodipodi:guide
       position="55,3"
       orientation="0,-40"
       id="guide6156" />
    <sodipodi:guide
       position="53,4.3973202"
       orientation="-56,0"
       id="guide6158" />
    <sodipodi:guide
       position="43,48"
       orientation="22,0"
       id="guide4240" />
    <sodipodi:guide
       position="43,26"
       orientation="0,-22"
       id="guide4242" />
    <sodipodi:guide
       position="21,26"
       orientation="-22,0"
       id="guide4244" />
  </sodipodi:namedview>
  <g
     id="g4186"
     transform="translate(56.391766,-0.17677665)">
    <g
       id="g4239"
       transform="translate(0,0.26550102)">
      <rect
         style="opacity:1;fill:#6f350c;fill-opacity:1;stroke:none;stroke-width:0.185;stroke-linecap:round;stroke-linejoin:round;stroke-miterlimit:4;stroke-dasharray:none;stroke-dashoffset:0;stroke-opacity:1"
         id="rect4162"
         width="44"
         height="7.6992903"
         x="-46.391766"
         y="54.477486"
         ry="2.5" />
      <rect
         style="opacity:1;fill:url(#linearGradient4182);fill-opacity:1.0;stroke:none;stroke-width:0.30000001;stroke-linecap:round;stroke-linejoin:round;stroke-miterlimit:4;stroke-dasharray:none;stroke-dashoffset:0;stroke-opacity:1"
         id="rect4174"
         width="44"
         height="52.831711"
         x="-46.391766"
         y="1.6457753"
         ry="2.5" />
      <rect
         style="opacity:1;fill:#6f350c;fill-opacity:1;stroke:none;stroke-width:0.185;stroke-linecap:round;stroke-linejoin:round;stroke-miterlimit:4;stroke-dasharray:none;stroke-dashoffset:0;stroke-opacity:1"
         id="rect4184"
         width="44"
         height="7.9118414"
         x="-46.391766"
         y="51.264462"
         ry="0" />
    </g>
    <g
       inkscape:transform-center-y="-9.4924686"
       inkscape:transform-center-x="5.4653607"
       inkscape:label="Capa 1"
       id="layer1-4"
       transform="translate(-509.70748,-515.64674)">
      <g
         id="layer1-3-65"
         inkscape:label="Capa 1"
         transform="translate(0.41988239,0.03484499)" />
    </g>
    <g
       transform="matrix(0.37687911,0,0,0.37687911,3.1879778,37.439656)"
       style="font-style:normal;font-weight:normal;font-size:25px;line-height:125%;font-family:sans-serif;letter-spacing:0px;word-spacing:0px;fill:#ffffff;fill-opacity:1;stroke:none;stroke-width:1px;stroke-linecap:butt;stroke-linejoin:miter;stroke-opacity:1"
       id="g4299">
      <path
         inkscape:connector-curvature="0"
         style="opacity:1;fill:#ffffff;fill-opacity:0.84677423;stroke:none;stroke-width:5.23831511;stroke-linecap:butt;stroke-linejoin:miter;stroke-miterlimit:4;stroke-dasharray:none;stroke-dashoffset:0;stroke-opacity:1"
         d="M 34.542969,20.996094 A 13.456333,13.456333 0 0 0 21.087891,34.453125 13.456333,13.456333 0 0 0 34.542969,47.908203 13.456333,13.456333 0 0 0 48,34.453125 13.456333,13.456333 0 0 0 34.542969,20.996094 Z m 3.396484,5.992187 c 0.04951,0.0025 0.108125,0.02523 0.154297,0.03906 0.23704,0.06807 0.438259,0.271295 0.505859,0.509765 l 2.451172,8.927735 1.285157,-1.742188 c 0.130967,-0.193849 0.329665,-0.327709 0.5625,-0.333984 l 0.953124,0 0.429688,0 0.03711,0 c 0.02817,-10e-7 0.05859,0.0304 0.05859,0.05859 l 0,1.371093 c 0,0.02815 -0.02847,0.03907 -0.05664,0.03906 l -0.03906,0 -0.429688,0 -0.582031,0 -1.886719,2.623047 c -0.322907,0.425178 -1.128335,0.276978 -1.285156,-0.234375 l -2.236328,-7.949219 -1.537109,5.070313 c -0.09412,0.28811 -0.398057,0.483948 -0.699219,0.490234 l -1.070312,0 -0.214844,0 -0.525391,0 -0.193359,0 -0.544922,0 -2.082031,6.890625 c -0.104299,0.373598 -0.544693,0.621078 -0.914063,0.509765 -0.237042,-0.06819 -0.438256,-0.271232 -0.505859,-0.509765 l -2.470703,-8.945313 -1.263672,1.742188 c -0.130971,0.193912 -0.351151,0.306224 -0.583985,0.3125 l -0.933593,0 -0.466797,0 -0.05859,0 c -0.02817,2.1e-5 -0.03906,-0.01087 -0.03906,-0.03906 l 0,-1.371093 c 0,-0.02818 0.01089,-0.0586 0.03906,-0.05859 l 0.05859,0 0.466797,0 0.583984,0 1.886719,-2.583984 c 0.322906,-0.425053 1.126385,-0.276729 1.283203,0.234374 l 2.21875,7.949219 1.554687,-5.089843 c 0.09412,-0.288115 0.380479,-0.50348 0.681641,-0.509766 l 1.089844,0 0.193359,0 0.525391,0 0.214844,0 0.52539,0 2.09961,-6.851563 c 0.07823,-0.280212 0.339495,-0.490444 0.623046,-0.529297 0.04726,-0.0063 0.08721,-0.01954 0.136719,-0.01953 z"
         transform="matrix(2.1690665,0,0,2.1690666,-148.1074,-102.58376)"
         id="path3340" />
      <g
         id="g4165"
         transform="matrix(0.92286136,0,0,0.92286136,-6.193061,3.5177205)">
        <path
           inkscape:connector-curvature="0"
           id="path5422"
           style="font-style:normal;font-variant:normal;font-weight:normal;font-stretch:normal;font-family:'Product Sans';-inkscape-font-specification:'Product Sans';fill:#ffffff;fill-opacity:1"
           d="m -90.686316,48.186529 q 1.775,-1.875 4.525,-1.875 2.75,0 4.525,1.875 1.775,1.85 1.775,4.65 0,2.8 -1.775,4.675 -1.775,1.85 -4.525,1.85 -2.75,0 -4.525,-1.85 -1.775,-1.875 -1.775,-4.675 0,-2.8 1.775,-4.65 z m 1.7,7.875 q 1.2,1.2 2.825,1.2 1.625,0 2.8,-1.2 1.2,-1.225 1.2,-3.225 0,-2 -1.2,-3.2 -1.175,-1.225 -2.8,-1.225 -1.625,0 -2.825,1.225 -1.175,1.2 -1.175,3.2 0,2 1.175,3.225 z" />
        <path
           inkscape:connector-curvature="0"
           id="path5424"
           style="font-style:normal;font-variant:normal;font-weight:normal;font-stretch:normal;font-family:'Product Sans';-inkscape-font-specification:'Product Sans';fill:#ffffff;fill-opacity:1"
           d="m -74.341785,58.961529 -4.95,-12.25 2.5,0 3.6,9.5 0.05,0 3.65,-9.5 2.45,0 -5,12.25 -2.3,0 z" />
        <path
           inkscape:connector-curvature="0"
           id="path5426"
           style="font-style:normal;font-variant:normal;font-weight:normal;font-stretch:normal;font-family:'Product Sans';-inkscape-font-specification:'Product Sans';fill:#ffffff;fill-opacity:1"
           d="m -61.909753,59.361529 q -1.95,0 -3.275,-1.125 -1.3,-1.125 -1.3,-2.975 0,-2 1.55,-3.125 1.55,-1.15 3.825,-1.15 2.025,0 3.325,0.75 l 0,-0.35 q 0,-1.35 -0.925,-2.15 -0.925,-0.825 -2.275,-0.825 -1,0 -1.825,0.475 -0.8,0.475 -1.1,1.3 l -2.1,-0.9 q 0.425,-1.1 1.675,-2.025 1.25,-0.95 3.3,-0.95 2.35,0 3.9,1.375 1.55,1.375 1.55,3.875 l 0,7.4 -2.2,0 0,-1.7 -0.1,0 q -1.375,2.1 -4.025,2.1 z m 0.375,-2.1 q 1.425,0 2.575,-1.05 1.175,-1.075 1.175,-2.525 -0.975,-0.8 -2.925,-0.8 -1.675,0 -2.525,0.725 -0.85,0.725 -0.85,1.7 0,0.9 0.775,1.425 0.775,0.525 1.775,0.525 z" />
      </g>
    </g>
  </g>
</svg>
