<?xml version="1.0" encoding="UTF-8" standalone="no"?>
<svg
   xmlns:osb="http://www.openswatchbook.org/uri/2009/osb"
   xmlns:dc="http://purl.org/dc/elements/1.1/"
   xmlns:cc="http://creativecommons.org/ns#"
   xmlns:rdf="http://www.w3.org/1999/02/22-rdf-syntax-ns#"
   xmlns:svg="http://www.w3.org/2000/svg"
   xmlns="http://www.w3.org/2000/svg"
   xmlns:xlink="http://www.w3.org/1999/xlink"
   xmlns:sodipodi="http://sodipodi.sourceforge.net/DTD/sodipodi-0.dtd"
   xmlns:inkscape="http://www.inkscape.org/namespaces/inkscape"
   width="64"
   viewBox="0 0 64 64"
   height="64"
   id="svg2"
   version="1.1"
   inkscape:version="0.91 r13725"
   sodipodi:docname="application-vnd.openxmlformats-officedocument.wordprocessingml.document.svg"
   inkscape:export-filename="E:\Usuarios\David\Desktop\android.png"
   inkscape:export-xdpi="90"
   inkscape:export-ydpi="90">
  <metadata
     id="metadata14">
    <rdf:RDF>
      <cc:Work
         rdf:about="">
        <dc:format>image/svg+xml</dc:format>
        <dc:type
           rdf:resource="http://purl.org/dc/dcmitype/StillImage" />
        <dc:title></dc:title>
      </cc:Work>
    </rdf:RDF>
  </metadata>
  <defs
     id="defs12">
    <linearGradient
       osb:paint="gradient"
       id="linearGradient4207">
      <stop
         id="stop3371"
         offset="0"
         style="stop-color:#3498db;stop-opacity:1;" />
      <stop
         id="stop3373"
         offset="1"
         style="stop-color:#3498db;stop-opacity:0;" />
    </linearGradient>
    <linearGradient
       inkscape:collect="always"
       xlink:href="#linearGradient4143"
       id="linearGradient4182"
       x1="-74.929466"
       y1="52.199436"
       x2="-75.259552"
       y2="2.3564887"
       gradientUnits="userSpaceOnUse"
       gradientTransform="matrix(1.0749904,0,0,1.0292896,56.688954,-0.01528455)" />
    <linearGradient
       inkscape:collect="always"
       id="linearGradient4143">
      <stop
         style="stop-color:#197cf1;stop-opacity:1"
         offset="0"
         id="stop4145" />
      <stop
         style="stop-color:#20bcfa;stop-opacity:1"
         offset="1"
         id="stop4147" />
    </linearGradient>
  </defs>
  <sodipodi:namedview
     pagecolor="#747474"
     bordercolor="#666666"
     borderopacity="1"
     objecttolerance="10"
     gridtolerance="10"
     guidetolerance="10"
     inkscape:pageopacity="1"
     inkscape:pageshadow="2"
     inkscape:window-width="1366"
     inkscape:window-height="633"
     id="namedview10"
     showgrid="false"
     inkscape:zoom="5.2716365"
     inkscape:cx="24.202368"
     inkscape:cy="34.747229"
     inkscape:window-x="0"
     inkscape:window-y="33"
     inkscape:window-maximized="1"
     inkscape:current-layer="svg2"
     inkscape:snap-bbox="true"
     inkscape:bbox-nodes="true"
     inkscape:object-nodes="true"
     borderlayer="false"
     showguides="true"
     inkscape:snap-nodes="true"
     inkscape:object-paths="false"
     inkscape:showpageshadow="false"
     showborder="true">
    <inkscape:grid
       type="xygrid"
       id="grid4160"
       visible="true" />
    <sodipodi:guide
       position="28.888657,63.404975"
       orientation="0,35.2"
       id="guide6108" />
    <sodipodi:guide
       position="54,55.679691"
       orientation="51.200004,0"
       id="guide6112" />
    <sodipodi:guide
       position="58.527669,62"
       orientation="0,1"
       id="guide6114"
       inkscape:label=""
       inkscape:color="rgb(0,0,255)" />
    <sodipodi:guide
       position="10,4"
       orientation="-56,0"
       id="guide6116" />
    <sodipodi:guide
       position="11,4"
       orientation="-2.8421709e-014,0"
       id="guide6118" />
    <sodipodi:guide
       position="12,62"
       orientation="0,35.2"
       id="guide6120" />
    <sodipodi:guide
       position="12,62"
       orientation="0,35.2"
       id="guide6138" />
    <sodipodi:guide
       position="55,3"
       orientation="0,-40"
       id="guide6156" />
    <sodipodi:guide
       position="53,4.3973202"
       orientation="-56,0"
       id="guide6158" />
    <sodipodi:guide
       position="43,48"
       orientation="22,0"
       id="guide4240" />
    <sodipodi:guide
       position="43,26"
       orientation="0,-22"
       id="guide4242" />
    <sodipodi:guide
       position="21,26"
       orientation="-22,0"
       id="guide4244" />
  </sodipodi:namedview>
  <g
     id="g4186"
     transform="translate(56.391766,-0.17677665)">
    <g
       id="g4239"
       transform="translate(0,0.26550102)">
      <rect
         style="opacity:1;fill:#0b3969;fill-opacity:1;stroke:none;stroke-width:0.185;stroke-linecap:round;stroke-linejoin:round;stroke-miterlimit:4;stroke-dasharray:none;stroke-dashoffset:0;stroke-opacity:1"
         id="rect4162"
         width="44"
         height="7.6992903"
         x="-46.391766"
         y="54.477486"
         ry="2.5" />
      <rect
         style="opacity:1;fill:url(#linearGradient4182);fill-opacity:1.0;stroke:none;stroke-width:0.30000001;stroke-linecap:round;stroke-linejoin:round;stroke-miterlimit:4;stroke-dasharray:none;stroke-dashoffset:0;stroke-opacity:1"
         id="rect4174"
         width="44"
         height="52.831711"
         x="-46.391766"
         y="1.6457753"
         ry="2.5" />
      <rect
         style="opacity:1;fill:#0b3969;fill-opacity:1;stroke:none;stroke-width:0.185;stroke-linecap:round;stroke-linejoin:round;stroke-miterlimit:4;stroke-dasharray:none;stroke-dashoffset:0;stroke-opacity:1"
         id="rect4184"
         width="44"
         height="7.9118414"
         x="-46.391766"
         y="51.264462"
         ry="0" />
    </g>
    <g
       inkscape:transform-center-y="-9.4924686"
       inkscape:transform-center-x="5.4653607"
       inkscape:label="Capa 1"
       id="layer1-4"
       transform="translate(-509.70748,-515.64674)">
      <g
         id="layer1-3-65"
         inkscape:label="Capa 1"
         transform="translate(0.41988239,0.03484499)" />
    </g>
  </g>
  <path
     style="color:#000000;display:inline;overflow:visible;visibility:visible;fill:#ffffff;fill-opacity:1;fill-rule:nonzero;stroke:none;stroke-width:0.99999994;marker:none;enable-background:accumulate"
     id="rect3139"
     d="m 33.571428,15.999999 -13.357143,2.357143 0,17.285715 L 33.571428,38 l 0,-22.000001 z m 0.785714,2.357143 0,2.357143 7.07143,0 0,0.785714 -7.07143,0 0,1.571429 7.07143,0 0,0.785714 -7.07143,0 0,1.571428 7.07143,0 0,0.785716 -7.07143,0 0,1.571428 7.07143,0 0,0.785715 -7.07143,0 0,1.571428 7.07143,0 0,0.785714 -7.07143,0 0,1.571429 7.07143,0 0,0.785714 -7.07143,0 0,2.357143 9.428572,0 0,-17.285715 -9.428572,0 z m -4.616071,4.640625 0.76116,0 c 0.69812,0 0.742317,0.04668 0.662947,0.392857 -0.04725,0.206101 -0.447072,2.037785 -0.883928,4.075894 l -0.785714,3.707589 -0.810268,0 c -0.441822,0 -0.801802,-0.02621 -0.810268,-0.04911 -0.0085,-0.0229 -0.262254,-1.235287 -0.564732,-2.700893 -0.302477,-1.465606 -0.589363,-2.568205 -0.638393,-2.430804 -0.04903,0.137402 -0.306975,1.342375 -0.564732,2.651786 l -0.466518,2.381697 -0.736607,-0.04911 -0.761162,-0.04911 -0.613838,-3.265625 c -0.342487,-1.786208 -0.665763,-3.440667 -0.712054,-3.683036 -0.07659,-0.400995 -0.02411,-0.452614 0.515625,-0.515625 0.752027,-0.08779 0.784224,-0.01014 1.227679,2.872769 0.18945,1.231615 0.342604,2.257784 0.368303,2.283482 0.0257,0.0257 0.295703,-1.142196 0.589285,-2.578126 0.293584,-1.435929 0.623433,-2.653562 0.736608,-2.725447 0.325722,-0.206885 1.240693,-0.155587 1.325892,0.07366 0.04256,0.114501 0.306609,1.353094 0.564733,2.750001 0.431858,2.337113 0.735298,3.18833 0.736607,2.0625 5.01e-4,-0.449645 0.345353,-2.596565 0.6875,-4.32143 l 0.171875,-0.883928 z"
     inkscape:connector-curvature="0" />
  <g
     id="g4540"
     transform="translate(37.449549,10.986605)">
    <path
       d="m -12.626882,48.813395 q -0.791667,0 -1.366667,-0.625 -0.575,-0.625 -0.575,-1.55 0,-0.925 0.575,-1.55 0.575,-0.625 1.366667,-0.625 0.466666,0 0.833333,0.2 0.375,0.2 0.558333,0.5 l 0.03333,0 -0.03333,-0.566666 0,-1.883333 0.766667,0 0,5.966666 -0.733333,0 0,-0.566667 -0.03333,0 q -0.183333,0.3 -0.558333,0.5 -0.366667,0.2 -0.833333,0.2 z m 0.125,-0.7 q 0.541666,0 0.916666,-0.4 0.383334,-0.4 0.383334,-1.075 0,-0.675 -0.383334,-1.075 -0.375,-0.4 -0.916666,-0.4 -0.533334,0 -0.916667,0.408334 -0.383333,0.4 -0.383333,1.066666 0,0.666667 0.383333,1.075 0.383333,0.4 0.916667,0.4 z"
       style="font-style:normal;font-variant:normal;font-weight:normal;font-stretch:normal;font-size:25px;line-height:125%;font-family:'Product Sans';-inkscape-font-specification:'Product Sans';letter-spacing:0px;word-spacing:0px;fill:#ffffff;fill-opacity:1;stroke:none;stroke-width:1px;stroke-linecap:butt;stroke-linejoin:miter;stroke-opacity:1"
       id="path4693"
       inkscape:connector-curvature="0" />
    <g
       id="g4535">
      <path
         inkscape:connector-curvature="0"
         id="path4695"
         style="font-style:normal;font-variant:normal;font-weight:normal;font-stretch:normal;font-size:25px;line-height:125%;font-family:'Product Sans';-inkscape-font-specification:'Product Sans';letter-spacing:0px;word-spacing:0px;fill:#ffffff;fill-opacity:1;stroke:none;stroke-width:1px;stroke-linecap:butt;stroke-linejoin:miter;stroke-opacity:1"
         d="m -9.2242785,45.088395 q 0.591666,-0.625 1.508333,-0.625 0.916667,0 1.508333,0.625 0.591667,0.616667 0.591667,1.55 0,0.933334 -0.591667,1.558334 -0.591666,0.616666 -1.508333,0.616666 -0.916667,0 -1.508333,-0.616666 -0.591667,-0.625 -0.591667,-1.558334 0,-0.933333 0.591667,-1.55 z m 0.566666,2.625 q 0.4,0.4 0.941667,0.4 0.541667,0 0.933333,-0.4 0.4,-0.408333 0.4,-1.075 0,-0.666666 -0.4,-1.066666 -0.391666,-0.408334 -0.933333,-0.408334 -0.541667,0 -0.941667,0.408334 -0.391666,0.4 -0.391666,1.066666 0,0.666667 0.391666,1.075 z" />
      <path
         inkscape:connector-curvature="0"
         id="path4697"
         style="font-style:normal;font-variant:normal;font-weight:normal;font-stretch:normal;font-size:25px;line-height:125%;font-family:'Product Sans';-inkscape-font-specification:'Product Sans';letter-spacing:0px;word-spacing:0px;fill:#ffffff;fill-opacity:1;stroke:none;stroke-width:1px;stroke-linecap:butt;stroke-linejoin:miter;stroke-opacity:1"
         d="m -3.0447215,48.813395 q -0.916667,0 -1.508333,-0.616666 -0.591667,-0.625 -0.591667,-1.558334 0,-0.933333 0.591667,-1.55 0.591666,-0.625 1.508333,-0.625 0.683333,0 1.133333,0.333334 0.45,0.333333 0.658334,0.841666 l -0.7,0.291667 q -0.316667,-0.766667 -1.141667,-0.766667 -0.508333,0 -0.9,0.416667 -0.383333,0.416667 -0.383333,1.058333 0,0.641667 0.383333,1.058334 0.391667,0.416666 0.9,0.416666 0.858333,0 1.183333,-0.766666 l 0.683334,0.291666 q -0.208334,0.5 -0.675,0.841667 -0.458334,0.333333 -1.141667,0.333333 z" />
      <path
         inkscape:connector-curvature="0"
         id="path4699"
         style="font-style:normal;font-variant:normal;font-weight:normal;font-stretch:normal;font-size:25px;line-height:125%;font-family:'Product Sans';-inkscape-font-specification:'Product Sans';letter-spacing:0px;word-spacing:0px;fill:#ffffff;fill-opacity:1;stroke:none;stroke-width:1px;stroke-linecap:butt;stroke-linejoin:miter;stroke-opacity:1"
         d="m 2.8343145,48.680062 -0.9,0 -1.00833297,-1.508333 -0.991667,1.508333 -0.9,0 1.441667,-2.075 -1.408333,-2.008333 0.866666,0 1.008334,1.441666 0.95833297,-1.441666 0.9,0 -1.425,2.008333 1.458333,2.075 z" />
    </g>
  </g>
</svg>
