<?xml version="1.0" encoding="UTF-8" standalone="no"?>
<svg
   xmlns:sketch="http://www.bohemiancoding.com/sketch/ns"
   xmlns:osb="http://www.openswatchbook.org/uri/2009/osb"
   xmlns:dc="http://purl.org/dc/elements/1.1/"
   xmlns:cc="http://creativecommons.org/ns#"
   xmlns:rdf="http://www.w3.org/1999/02/22-rdf-syntax-ns#"
   xmlns:svg="http://www.w3.org/2000/svg"
   xmlns="http://www.w3.org/2000/svg"
   xmlns:xlink="http://www.w3.org/1999/xlink"
   xmlns:sodipodi="http://sodipodi.sourceforge.net/DTD/sodipodi-0.dtd"
   xmlns:inkscape="http://www.inkscape.org/namespaces/inkscape"
   width="64"
   viewBox="0 0 64 64"
   height="64"
   id="svg2"
   version="1.1"
   inkscape:version="0.91 r13725"
   sodipodi:docname="x-media-podcast.svg"
   inkscape:export-filename="E:\Usuarios\David\Desktop\android.png"
   inkscape:export-xdpi="90"
   inkscape:export-ydpi="90">
  <metadata
     id="metadata14">
    <rdf:RDF>
      <cc:Work
         rdf:about="">
        <dc:format>image/svg+xml</dc:format>
        <dc:type
           rdf:resource="http://purl.org/dc/dcmitype/StillImage" />
        <dc:title />
      </cc:Work>
    </rdf:RDF>
  </metadata>
  <defs
     id="defs12">
    <linearGradient
       osb:paint="gradient"
       id="linearGradient4207">
      <stop
         id="stop3371"
         offset="0"
         style="stop-color:#3498db;stop-opacity:1;" />
      <stop
         id="stop3373"
         offset="1"
         style="stop-color:#3498db;stop-opacity:0;" />
    </linearGradient>
    <linearGradient
       inkscape:collect="always"
       xlink:href="#linearGradient4531"
       id="linearGradient4182"
       x1="-74.929466"
       y1="52.199436"
       x2="-75.259552"
       y2="2.3564887"
       gradientUnits="userSpaceOnUse"
       gradientTransform="matrix(1.0749904,0,0,1.0292896,56.688954,-0.01528455)" />
    <linearGradient
       id="linearGradient4531"
       inkscape:collect="always">
      <stop
         id="stop4533"
         offset="0"
         style="stop-color:#ac5dd3;stop-opacity:1" />
      <stop
         id="stop4535"
         offset="1"
         style="stop-color:#c972eb;stop-opacity:1" />
    </linearGradient>
  </defs>
  <sodipodi:namedview
     pagecolor="#747474"
     bordercolor="#666666"
     borderopacity="1"
     objecttolerance="10"
     gridtolerance="10"
     guidetolerance="10"
     inkscape:pageopacity="1"
     inkscape:pageshadow="2"
     inkscape:window-width="1366"
     inkscape:window-height="642"
     id="namedview10"
     showgrid="false"
     inkscape:zoom="5.2716364"
     inkscape:cx="-55.589036"
     inkscape:cy="33.166989"
     inkscape:window-x="0"
     inkscape:window-y="33"
     inkscape:window-maximized="1"
     inkscape:current-layer="g4240"
     inkscape:snap-bbox="true"
     inkscape:bbox-nodes="true"
     inkscape:object-nodes="true"
     borderlayer="false"
     showguides="false"
     inkscape:snap-nodes="true"
     inkscape:object-paths="false"
     inkscape:showpageshadow="false"
     showborder="true">
    <inkscape:grid
       type="xygrid"
       id="grid4160"
       visible="true" />
    <sodipodi:guide
       position="28.888657,63.404975"
       orientation="0,35.2"
       id="guide6108" />
    <sodipodi:guide
       position="54,55.679691"
       orientation="51.200004,0"
       id="guide6112" />
    <sodipodi:guide
       position="58.527669,62"
       orientation="0,1"
       id="guide6114"
       inkscape:label=""
       inkscape:color="rgb(0,0,255)" />
    <sodipodi:guide
       position="10,4"
       orientation="-56,0"
       id="guide6116" />
    <sodipodi:guide
       position="11,4"
       orientation="-2.8421709e-014,0"
       id="guide6118" />
    <sodipodi:guide
       position="12,62"
       orientation="0,35.2"
       id="guide6120" />
    <sodipodi:guide
       position="52,2"
       orientation="0,-40"
       id="guide6126" />
    <sodipodi:guide
       position="12,62"
       orientation="0,35.2"
       id="guide6138" />
    <sodipodi:guide
       position="55,3"
       orientation="0,-40"
       id="guide6156" />
    <sodipodi:guide
       position="53,4.3973202"
       orientation="-56,0"
       id="guide6158" />
    <sodipodi:guide
       position="21,48"
       orientation="0,22"
       id="guide4238" />
    <sodipodi:guide
       position="43,48"
       orientation="22,0"
       id="guide4240" />
    <sodipodi:guide
       position="43,26"
       orientation="0,-22"
       id="guide4242" />
    <sodipodi:guide
       position="21,26"
       orientation="-22,0"
       id="guide4244" />
  </sodipodi:namedview>
  <g
     id="g4186"
     transform="translate(56.391766,-0.17677665)">
    <g
       style="font-style:normal;font-weight:normal;font-size:9.36996746px;line-height:125%;font-family:sans-serif;letter-spacing:0px;word-spacing:0px;fill:#ffffff;fill-opacity:1;stroke:none;stroke-width:1px;stroke-linecap:butt;stroke-linejoin:miter;stroke-opacity:1"
       id="text4161"
       transform="matrix(0.81954967,0,0,0.81954967,-4.3342871,10.921958)">
      <g
         inkscape:transform-center-y="-9.4924686"
         inkscape:transform-center-x="5.4653607"
         inkscape:label="Capa 1"
         id="layer1-01"
         transform="matrix(1.2201823,0,0,1.2201823,-603.71763,-636.87748)">
        <g
           id="layer1-3-7"
           inkscape:label="Capa 1"
           transform="translate(0.41988239,0.03484499)" />
      </g>
      <g
         id="g4240"
         transform="translate(0,0.32395978)">
        <rect
           style="opacity:1;fill:#4c295d;fill-opacity:1;stroke:none;stroke-width:0.185;stroke-linecap:round;stroke-linejoin:round;stroke-miterlimit:4;stroke-dasharray:none;stroke-dashoffset:0;stroke-opacity:1"
           id="rect4162"
           width="44"
           height="7.6992903"
           x="-46.391766"
           y="54.477486"
           ry="2.5"
           transform="matrix(1.2201823,0,0,1.2201823,5.2886204,-13.32678)" />
        <rect
           style="opacity:1;fill:url(#linearGradient4182);fill-opacity:1;stroke:none;stroke-width:0.30000001;stroke-linecap:round;stroke-linejoin:round;stroke-miterlimit:4;stroke-dasharray:none;stroke-dashoffset:0;stroke-opacity:1"
           id="rect4174"
           width="44"
           height="52.831711"
           x="-46.391766"
           y="1.6457753"
           ry="2.5"
           transform="matrix(1.2201823,0,0,1.2201823,5.2886204,-13.32678)" />
        <rect
           style="opacity:1;fill:#4c295d;fill-opacity:1;stroke:none;stroke-width:0.185;stroke-linecap:round;stroke-linejoin:round;stroke-miterlimit:4;stroke-dasharray:none;stroke-dashoffset:0;stroke-opacity:1"
           id="rect4184"
           width="44"
           height="7.9118414"
           x="-46.391766"
           y="51.264462"
           ry="0"
           transform="matrix(1.2201823,0,0,1.2201823,5.2886204,-13.32678)" />
        <g
           transform="translate(-0.36605426,0)"
           id="text4269"
           style="font-style:normal;font-weight:normal;font-size:13.75px;line-height:125%;font-family:sans-serif;letter-spacing:0px;word-spacing:0px;fill:#ffffff;fill-opacity:1;stroke:none;stroke-width:1px;stroke-linecap:butt;stroke-linejoin:miter;stroke-opacity:1">
          <path
             inkscape:connector-curvature="0"
             id="path4232"
             style="font-style:normal;font-variant:normal;font-weight:normal;font-stretch:normal;font-size:10px;font-family:'Product Sans';-inkscape-font-specification:'Product Sans';fill:#ffffff;fill-opacity:1"
             d="m -38.629563,58.722149 q -0.56,0 -1.01,-0.24 -0.44,-0.24 -0.66,-0.6 l -0.04,0 0.04,0.68 0,2.16 -0.92,0 0,-7.06 0.88,0 0,0.68 0.04,0 q 0.22,-0.36 0.66,-0.6 0.45,-0.24 1.01,-0.24 0.95,0 1.64,0.75 0.69,0.75 0.69,1.86 0,1.11 -0.69,1.86 -0.69,0.75 -1.64,0.75 z m -0.15,-0.84 q 0.64,0 1.1,-0.48 0.46,-0.49 0.46,-1.29 0,-0.8 -0.46,-1.28 -0.46,-0.49 -1.1,-0.49 -0.65,0 -1.11,0.48 -0.45,0.48 -0.45,1.29 0,0.81 0.45,1.29 0.46,0.48 1.11,0.48 z" />
          <path
             inkscape:connector-curvature="0"
             id="path4234"
             style="font-style:normal;font-variant:normal;font-weight:normal;font-stretch:normal;font-size:10px;font-family:'Product Sans';-inkscape-font-specification:'Product Sans';fill:#ffffff;fill-opacity:1"
             d="m -35.026907,54.252149 q 0.71,-0.75 1.81,-0.75 1.1,0 1.81,0.75 0.71,0.74 0.71,1.86 0,1.12 -0.71,1.87 -0.71,0.74 -1.81,0.74 -1.1,0 -1.81,-0.74 -0.71,-0.75 -0.71,-1.87 0,-1.12 0.71,-1.86 z m 0.68,3.15 q 0.48,0.48 1.13,0.48 0.65,0 1.12,-0.48 0.48,-0.49 0.48,-1.29 0,-0.8 -0.48,-1.28 -0.47,-0.49 -1.12,-0.49 -0.65,0 -1.13,0.49 -0.47,0.48 -0.47,1.28 0,0.8 0.47,1.29 z" />
          <path
             inkscape:connector-curvature="0"
             id="path4236"
             style="font-style:normal;font-variant:normal;font-weight:normal;font-stretch:normal;font-size:10px;font-family:'Product Sans';-inkscape-font-specification:'Product Sans';fill:#ffffff;fill-opacity:1"
             d="m -27.801438,58.722149 q -0.95,0 -1.64,-0.75 -0.69,-0.75 -0.69,-1.86 0,-1.11 0.69,-1.86 0.69,-0.75 1.64,-0.75 0.56,0 1,0.24 0.45,0.24 0.67,0.6 l 0.04,0 -0.04,-0.68 0,-2.26 0.92,0 0,7.16 -0.88,0 0,-0.68 -0.04,0 q -0.22,0.36 -0.67,0.6 -0.44,0.24 -1,0.24 z m 0.15,-0.84 q 0.65,0 1.1,-0.48 0.46,-0.48 0.46,-1.29 0,-0.81 -0.46,-1.29 -0.45,-0.48 -1.1,-0.48 -0.64,0 -1.1,0.49 -0.46,0.48 -0.46,1.28 0,0.8 0.46,1.29 0.46,0.48 1.1,0.48 z" />
          <path
             inkscape:connector-curvature="0"
             id="path4238"
             style="font-style:normal;font-variant:normal;font-weight:normal;font-stretch:normal;font-size:10px;font-family:'Product Sans';-inkscape-font-specification:'Product Sans';fill:#ffffff;fill-opacity:1"
             d="m -21.908313,58.722149 q -1.1,0 -1.81,-0.74 -0.71,-0.75 -0.71,-1.87 0,-1.12 0.71,-1.86 0.71,-0.75 1.81,-0.75 0.82,0 1.36,0.4 0.54,0.4 0.79,1.01 l -0.84,0.35 q -0.38,-0.92 -1.37,-0.92 -0.61,0 -1.08,0.5 -0.46,0.5 -0.46,1.27 0,0.77 0.46,1.27 0.47,0.5 1.08,0.5 1.03,0 1.42,-0.92 l 0.82,0.35 q -0.25,0.6 -0.81,1.01 -0.55,0.4 -1.37,0.4 z" />
          <path
             inkscape:connector-curvature="0"
             id="path4240"
             style="font-style:normal;font-variant:normal;font-weight:normal;font-stretch:normal;font-size:10px;font-family:'Product Sans';-inkscape-font-specification:'Product Sans';fill:#ffffff;fill-opacity:1"
             d="m -17.442063,58.722149 q -0.78,0 -1.31,-0.45 -0.52,-0.45 -0.52,-1.19 0,-0.8 0.62,-1.25 0.62,-0.46 1.53,-0.46 0.81,0 1.33,0.3 l 0,-0.14 q 0,-0.54 -0.37,-0.86 -0.37,-0.33 -0.91,-0.33 -0.4,0 -0.73,0.19 -0.32,0.19 -0.44,0.52 l -0.84,-0.36 q 0.17,-0.44 0.67,-0.81 0.5,-0.38 1.32,-0.38 0.94,0 1.56,0.55 0.62,0.55 0.62,1.55 l 0,2.96 -0.88,0 0,-0.68 -0.04,0 q -0.55,0.84 -1.61,0.84 z m 0.15,-0.84 q 0.57,0 1.03,-0.42 0.47,-0.43 0.47,-1.01 -0.39,-0.32 -1.17,-0.32 -0.67,0 -1.01,0.29 -0.34,0.29 -0.34,0.68 0,0.36 0.31,0.57 0.31,0.21 0.71,0.21 z" />
          <path
             inkscape:connector-curvature="0"
             id="path4242"
             style="font-style:normal;font-variant:normal;font-weight:normal;font-stretch:normal;font-size:10px;font-family:'Product Sans';-inkscape-font-specification:'Product Sans';fill:#ffffff;fill-opacity:1"
             d="m -12.113469,58.722149 q -0.82,0 -1.36,-0.4 -0.53,-0.4 -0.78,-1 l 0.82,-0.34 q 0.39,0.92 1.33,0.92 0.43,0 0.7,-0.19 0.28,-0.19 0.28,-0.5 0,-0.48 -0.67,-0.65 l -0.99,-0.24 q -0.47,-0.12 -0.89,-0.45 -0.42,-0.34 -0.42,-0.91 0,-0.65 0.57,-1.05 0.58,-0.41 1.37,-0.41 0.65,0 1.16,0.3 0.51,0.29 0.73,0.84 l -0.8,0.33 q -0.27,-0.65 -1.12,-0.65 -0.41,0 -0.69,0.17 -0.28,0.17 -0.28,0.46 0,0.42 0.65,0.57 l 0.97,0.23 q 0.69,0.16 1.02,0.55 0.33,0.39 0.33,0.88 0,0.66 -0.54,1.1 -0.54,0.44 -1.39,0.44 z" />
          <path
             inkscape:connector-curvature="0"
             id="path4244"
             style="font-style:normal;font-variant:normal;font-weight:normal;font-stretch:normal;font-size:10px;font-family:'Product Sans';-inkscape-font-specification:'Product Sans';fill:#ffffff;fill-opacity:1"
             d="m -7.3212817,58.642149 q -0.77,0 -1.18,-0.41 -0.4,-0.41 -0.4,-1.16 l 0,-2.57 -0.86,0 0,-0.84 0.86,0 0,-1.5 0.92,0 0,1.5 1.2,0 0,0.84 -1.2,0 0,2.5 q 0,0.8 0.66,0.8 0.25,0 0.42,-0.08 l 0.32,0.79 q -0.3,0.13 -0.74,0.13 z" />
        </g>
        <g
           transform="matrix(2.5036247,0,0,2.5036247,-90.291262,-2587.6055)"
           id="layer1-5"
           inkscape:label="Capa 1"
           style="font-style:normal;font-weight:normal;font-size:9.36996746px;line-height:125%;font-family:sans-serif;letter-spacing:0px;word-spacing:0px;fill:#4d2a5d;fill-opacity:1;stroke:none;stroke-width:1px;stroke-linecap:butt;stroke-linejoin:miter;stroke-opacity:1">
          <g
             style="fill:#4d2a5d;fill-opacity:1"
             transform="matrix(0.07908756,0,0,0.07908756,22.539801,1036.0878)"
             sketch:type="MSLayerGroup"
             id="microphone28">
            <g
               style="fill:#4d2a5d;fill-opacity:1"
               sketch:type="MSShapeGroup"
               id="g4987">
              <path
                 style="fill:#4d2a5d;fill-opacity:1"
                 inkscape:connector-curvature="0"
                 id="path4989"
                 d="m 47,94.07 c 7.17,0 13.307,-2.553 18.412,-7.657 C 70.517,81.309 73.07,75.17 73.07,68 l 0,-41.714 C 73.07,19.116 70.519,12.979 65.412,7.873 60.307,2.768 54.17,0.214 47,0.214 c -7.17,0 -13.307,2.554 -18.413,7.659 -5.106,5.105 -7.659,11.243 -7.659,18.413 l 0,41.714 c 0,7.17 2.554,13.309 7.659,18.413 C 33.692,91.517 39.83,94.07 47,94.07 l 0,0 z" />
              <path
                 style="fill:#4d2a5d;fill-opacity:1"
                 inkscape:connector-curvature="0"
                 id="path4991"
                 d="m 92.38,53.905 c -1.03,-1.032 -2.254,-1.548 -3.666,-1.548 -1.412,0 -2.634,0.516 -3.666,1.548 -1.032,1.032 -1.548,2.254 -1.548,3.666 L 83.5,68 C 83.5,78.049 79.928,86.643 72.786,93.786 65.645,100.929 57.049,104.5 47,104.5 36.951,104.5 28.356,100.929 21.213,93.786 14.071,86.645 10.5,78.049 10.5,68 l 0,-10.429 C 10.5,56.159 9.984,54.937 8.952,53.905 7.92,52.873 6.699,52.357 5.286,52.357 c -1.413,0 -2.635,0.516 -3.667,1.548 -1.032,1.032 -1.548,2.254 -1.548,3.666 l 0,10.429 c 0,12.004 4.006,22.446 12.017,31.326 8.011,8.88 17.91,13.972 29.697,15.275 l 0,10.756 -20.857,0 c -1.412,0 -2.634,0.516 -3.666,1.548 -1.032,1.032 -1.548,2.254 -1.548,3.666 0,1.411 0.516,2.635 1.548,3.666 1.032,1.032 2.254,1.549 3.666,1.549 l 52.142,0 c 1.412,0 2.636,-0.517 3.666,-1.549 1.033,-1.031 1.55,-2.255 1.55,-3.666 0,-1.412 -0.517,-2.634 -1.55,-3.666 -1.03,-1.032 -2.254,-1.548 -3.666,-1.548 l -20.855,0 0,-10.756 C 64,113.298 73.899,108.206 81.911,99.326 89.923,90.446 93.93,80.004 93.93,68 l 0,-10.429 c 0,-1.412 -0.517,-2.633 -1.55,-3.666 l 0,0 z" />
            </g>
          </g>
        </g>
      </g>
    </g>
  </g>
</svg>
