<?xml version="1.0" encoding="UTF-8" standalone="no"?>
<svg
   xmlns:osb="http://www.openswatchbook.org/uri/2009/osb"
   xmlns:dc="http://purl.org/dc/elements/1.1/"
   xmlns:cc="http://creativecommons.org/ns#"
   xmlns:rdf="http://www.w3.org/1999/02/22-rdf-syntax-ns#"
   xmlns:svg="http://www.w3.org/2000/svg"
   xmlns="http://www.w3.org/2000/svg"
   xmlns:xlink="http://www.w3.org/1999/xlink"
   xmlns:sodipodi="http://sodipodi.sourceforge.net/DTD/sodipodi-0.dtd"
   xmlns:inkscape="http://www.inkscape.org/namespaces/inkscape"
   viewBox="0 0 48 48"
   id="svg2"
   version="1.1"
   inkscape:version="0.91 r13725"
   sodipodi:docname="org.kde.plasma.devicenotifier.svg">
  <metadata
     id="metadata77">
    <rdf:RDF>
      <cc:Work
         rdf:about="">
        <dc:format>image/svg+xml</dc:format>
        <dc:type
           rdf:resource="http://purl.org/dc/dcmitype/StillImage" />
        <dc:title></dc:title>
      </cc:Work>
    </rdf:RDF>
  </metadata>
  <sodipodi:namedview
     pagecolor="#5e5e5e"
     bordercolor="#666666"
     borderopacity="1"
     objecttolerance="10"
     gridtolerance="10"
     guidetolerance="10"
     inkscape:pageopacity="0"
     inkscape:pageshadow="2"
     inkscape:window-width="1366"
     inkscape:window-height="687"
     id="namedview75"
     showgrid="false"
     showborder="false"
     inkscape:zoom="2.4583333"
     inkscape:cx="92.949154"
     inkscape:cy="6.6573779"
     inkscape:window-x="0"
     inkscape:window-y="0"
     inkscape:window-maximized="1"
     inkscape:current-layer="svg2" />
  <defs
     id="defs4">
    <linearGradient
       id="linearGradient4232">
      <stop
         id="stop4234-0"
         offset="0"
         style="stop-color:#3889e9;stop-opacity:1" />
      <stop
         id="stop4236"
         offset="1"
         style="stop-color:#5ea5fb;stop-opacity:1" />
    </linearGradient>
    <linearGradient
       osb:paint="gradient"
       id="linearGradient4207">
      <stop
         id="stop3371"
         offset="0"
         style="stop-color:#3498db;stop-opacity:1;" />
      <stop
         id="stop3373"
         offset="1"
         style="stop-color:#3498db;stop-opacity:0;" />
    </linearGradient>
    <linearGradient
       id="linearGradient4422">
      <stop
         style="stop-color:#ff9300;stop-opacity:1"
         offset="0"
         id="stop4424" />
      <stop
         style="stop-color:#ffd702;stop-opacity:1"
         offset="1"
         id="stop4426" />
    </linearGradient>
    <linearGradient
       inkscape:collect="always"
       xlink:href="#linearGradient4232"
       id="linearGradient4237"
       x1="399.57144"
       y1="545.79797"
       x2="399.57144"
       y2="517.79797"
       gradientUnits="userSpaceOnUse" />
    <linearGradient
       id="linearGradient4180-0">
      <stop
         style="stop-color:#2b65bd;stop-opacity:1"
         offset="0"
         id="stop4182-2" />
      <stop
         style="stop-color:#64a3dc;stop-opacity:1"
         offset="1"
         id="stop4184-3" />
    </linearGradient>
    <linearGradient
       gradientTransform="matrix(0.13837079,0,0,0.13837079,60.144134,-41.024217)"
       inkscape:collect="always"
       xlink:href="#linearGradient4180-0"
       id="linearGradient5299"
       gradientUnits="userSpaceOnUse"
       x1="-318.57867"
       y1="653.95679"
       x2="-318.57867"
       y2="301.29816" />
  </defs>
  <g
     id="g33" />
  <g
     id="g6326"
     transform="translate(8.949152,-1.2203388)">
    <circle
       style="opacity:1;fill:url(#linearGradient5299);fill-opacity:1;stroke:none;stroke-width:15.44461155;stroke-linecap:round;stroke-linejoin:round;stroke-miterlimit:4;stroke-dasharray:none;stroke-opacity:1"
       id="path4217"
       cx="15.050848"
       cy="25.220339"
       r="24" />
    <path
       d="m 11.181568,22.528031 c 0.01382,-1.759042 -1.4370133,-3.247996 -3.1925933,-3.282623 -1.831759,-0.03812 -3.327637,1.437013 -3.327637,3.258384 0,1.447436 0.948774,2.659375 2.250743,3.085284 l 0,1.239641 c 0,0.76179 0.356656,1.478565 0.966088,1.935639 l 6.2743803,4.726561 c -1.610147,0.463965 -2.787459,1.94949 -2.787459,3.708532 0,2.133012 1.727878,3.860891 3.86089,3.860891 2.133012,0 3.860891,-1.727879 3.860891,-3.860891 0,-1.776356 -1.201516,-3.272234 -2.835937,-3.722383 l 0,-1.821371 5.761903,-4.002895 c 0.651019,-0.453611 1.042267,-1.198088 1.042267,-1.991042 l 0,-1.714027 0.65791,0 c 0.955769,0 1.731341,-0.775607 1.731341,-1.731341 l 0,-2.811698 c 0,-0.9557 -0.775572,-1.731341 -1.731341,-1.731341 l -3.3311,0 c -0.9557,0 -1.731341,0.775641 -1.731341,1.731341 l 0,2.811698 c 0,0.955734 0.775641,1.731341 1.731341,1.731341 l 0.657909,0 0,1.928713 -4.788923,3.324175 0,-12.683804 1.693251,0 c 1.211939,0 1.959878,-1.326242 1.333133,-2.365046 L 16.708008,9.8961667 C 16.039676,8.7881085 14.436489,8.7811831 13.754341,9.8788533 l -2.638564,4.2590987 c -0.644059,1.038805 0.10388,2.378863 1.326207,2.378863 l 1.797132,0 0,14.5121 -5.3082923,-3.9959 0,-1.443939 C 10.225833,25.166595 11.17118,23.961581 11.181568,22.528031 Z"
       id="path5"
       inkscape:connector-curvature="0"
       style="fill:#ffffff;fill-opacity:0.84677423" />
  </g>
</svg>
