<?xml version="1.0" encoding="UTF-8" standalone="no"?>
<svg
   xmlns:sketch="http://www.bohemiancoding.com/sketch/ns"
   xmlns:osb="http://www.openswatchbook.org/uri/2009/osb"
   xmlns:dc="http://purl.org/dc/elements/1.1/"
   xmlns:cc="http://creativecommons.org/ns#"
   xmlns:rdf="http://www.w3.org/1999/02/22-rdf-syntax-ns#"
   xmlns:svg="http://www.w3.org/2000/svg"
   xmlns="http://www.w3.org/2000/svg"
   xmlns:xlink="http://www.w3.org/1999/xlink"
   xmlns:sodipodi="http://sodipodi.sourceforge.net/DTD/sodipodi-0.dtd"
   xmlns:inkscape="http://www.inkscape.org/namespaces/inkscape"
   viewBox="0 0 48 48"
   id="svg2"
   version="1.1"
   inkscape:version="0.91 r13725"
   sodipodi:docname="org.kde.plasma.networkmanagement.svg">
  <metadata
     id="metadata77">
    <rdf:RDF>
      <cc:Work
         rdf:about="">
        <dc:format>image/svg+xml</dc:format>
        <dc:type
           rdf:resource="http://purl.org/dc/dcmitype/StillImage" />
        <dc:title></dc:title>
      </cc:Work>
    </rdf:RDF>
  </metadata>
  <sodipodi:namedview
     pagecolor="#5e5e5e"
     bordercolor="#666666"
     borderopacity="1"
     objecttolerance="10"
     gridtolerance="10"
     guidetolerance="10"
     inkscape:pageopacity="0"
     inkscape:pageshadow="2"
     inkscape:window-width="1366"
     inkscape:window-height="687"
     id="namedview75"
     showgrid="false"
     showborder="false"
     inkscape:zoom="2.4583333"
     inkscape:cx="92.949154"
     inkscape:cy="6.6573779"
     inkscape:window-x="0"
     inkscape:window-y="0"
     inkscape:window-maximized="1"
     inkscape:current-layer="svg2" />
  <defs
     id="defs4">
    <linearGradient
       id="linearGradient4232">
      <stop
         id="stop4234-0"
         offset="0"
         style="stop-color:#3889e9;stop-opacity:1" />
      <stop
         id="stop4236"
         offset="1"
         style="stop-color:#5ea5fb;stop-opacity:1" />
    </linearGradient>
    <linearGradient
       osb:paint="gradient"
       id="linearGradient4207">
      <stop
         id="stop3371"
         offset="0"
         style="stop-color:#3498db;stop-opacity:1;" />
      <stop
         id="stop3373"
         offset="1"
         style="stop-color:#3498db;stop-opacity:0;" />
    </linearGradient>
    <linearGradient
       id="linearGradient4422">
      <stop
         style="stop-color:#ff9300;stop-opacity:1"
         offset="0"
         id="stop4424" />
      <stop
         style="stop-color:#ffd702;stop-opacity:1"
         offset="1"
         id="stop4426" />
    </linearGradient>
    <linearGradient
       inkscape:collect="always"
       xlink:href="#linearGradient4232"
       id="linearGradient4237"
       x1="399.57144"
       y1="545.79797"
       x2="399.57144"
       y2="517.79797"
       gradientUnits="userSpaceOnUse" />
    <linearGradient
       gradientTransform="matrix(0.1383708,0,0,0.1383708,60.957696,-32.481849)"
       inkscape:collect="always"
       xlink:href="#linearGradient4180-0"
       id="linearGradient4379"
       gradientUnits="userSpaceOnUse"
       x1="-318.57867"
       y1="653.95679"
       x2="-318.57867"
       y2="301.29816" />
    <linearGradient
       id="linearGradient4180-0">
      <stop
         style="stop-color:#2b65bd;stop-opacity:1"
         offset="0"
         id="stop4182-2" />
      <stop
         style="stop-color:#64a3dc;stop-opacity:1"
         offset="1"
         id="stop4184-3" />
    </linearGradient>
  </defs>
  <g
     id="g33" />
  <g
     id="g4171"
     transform="translate(8.1355934,-9.7627106)">
    <circle
       style="opacity:1;fill:url(#linearGradient4379);fill-opacity:1;stroke:none;stroke-width:15.44461155;stroke-linecap:round;stroke-linejoin:round;stroke-miterlimit:4;stroke-dasharray:none;stroke-opacity:1"
       id="path4217"
       cx="15.864407"
       cy="33.762711"
       r="24.000002" />
    <path
       style="display:inline;fill:#ffffff;fill-opacity:0.8508065;stroke:none;stroke-opacity:0.8"
       sketch:type="MSShapeGroup"
       id="Remote-5"
       d="m 21.311768,43.145131 c -0.544811,0 -1.088272,-0.234072 -1.483516,-0.693775 -1.01347,-1.181685 -2.456928,-1.857123 -3.961803,-1.857123 -1.530239,0 -2.936317,0.655706 -3.959141,1.847251 -0.742414,0.867228 -2.0082679,0.933516 -2.8294779,0.146666 -0.819865,-0.785443 -0.882625,-2.122258 -0.138815,-2.986644 1.7652499,-2.057374 4.2902859,-3.23765 6.9274699,-3.23765 2.633189,0 5.158225,1.183106 6.928821,3.244695 0.743749,0.865819 0.680988,2.202608 -0.138815,2.988049 -0.381892,0.368034 -0.863929,0.548531 -1.344628,0.548531 z m 4.443824,-5.292174 c -0.511411,0 -1.022837,-0.205887 -1.412733,-0.616216 -2.267321,-2.381696 -5.277053,-3.693104 -8.47641,-3.693104 -3.206025,0 -6.2170949,1.30858 -8.4804289,3.684626 -0.783805,0.823514 -2.05233,0.819287 -2.832125,-0.0084 -0.779822,-0.827737 -0.777148,-2.167355 0.0084,-2.990879 3.01775,-3.169944 7.0329709,-4.915665 11.3045599,-4.915665 4.264921,0 8.278794,1.748552 11.301878,4.924128 0.785155,0.823524 0.787838,2.163131 0.0084,2.992277 -0.391235,0.413182 -0.906655,0.623271 -1.420741,0.623271 z m 4.434496,-5.283723 c -0.498061,0 -0.997457,-0.196016 -1.386019,-0.588008 -3.497127,-3.539409 -8.090519,-5.4882 -12.93762,-5.4882 -4.856443,0 -9.4525199,1.945962 -12.9402909,5.482541 -0.797167,0.808006 -2.06568251,0.781218 -2.83213771,-0.062 -0.7664566,-0.84327 -0.739754,-2.182875 0.057306,-2.990868 4.23821671,-4.295221 9.81838671,-6.66 15.71502661,-6.66 5.884614,0 11.463446,2.367596 15.709658,6.664213 0.798517,0.80803 0.82522,2.147624 0.0602,2.99088 -0.393908,0.432903 -0.920019,0.651467 -1.446109,0.651467 z M 15.615415,48.262696 c 1.336262,0 2.419536,-1.08532 2.419536,-2.424122 0,-1.338787 -1.083274,-2.424109 -2.419536,-2.424109 -1.336272,0 -2.419547,1.085322 -2.419547,2.424109 0,1.338802 1.083275,2.424122 2.419547,2.424122 z"
       inkscape:connector-curvature="0" />
  </g>
</svg>
