<?xml version="1.0" encoding="UTF-8" standalone="no"?>
<!-- Created with Inkscape (http://www.inkscape.org/) -->

<svg
   xmlns:osb="http://www.openswatchbook.org/uri/2009/osb"
   xmlns:dc="http://purl.org/dc/elements/1.1/"
   xmlns:cc="http://creativecommons.org/ns#"
   xmlns:rdf="http://www.w3.org/1999/02/22-rdf-syntax-ns#"
   xmlns:svg="http://www.w3.org/2000/svg"
   xmlns="http://www.w3.org/2000/svg"
   xmlns:xlink="http://www.w3.org/1999/xlink"
   xmlns:sodipodi="http://sodipodi.sourceforge.net/DTD/sodipodi-0.dtd"
   xmlns:inkscape="http://www.inkscape.org/namespaces/inkscape"
   width="48"
   height="48"
   id="svg5453"
   version="1.1"
   inkscape:version="0.91 r13725"
   sodipodi:docname="org.kde.weatherWidget.svg">
  <defs
     id="defs5455">
    <linearGradient
       id="linearGradient4207"
       osb:paint="gradient">
      <stop
         style="stop-color:#3498db;stop-opacity:1;"
         offset="0"
         id="stop3371" />
      <stop
         style="stop-color:#3498db;stop-opacity:0;"
         offset="1"
         id="stop3373" />
    </linearGradient>
    <linearGradient
       y2="154.5808"
       x2="-111.09196"
       y1="260.25372"
       x1="-112.5251"
       gradientTransform="matrix(0.4335522,0,0,0.43481104,365.62632,448.96773)"
       gradientUnits="userSpaceOnUse"
       id="linearGradient4611"
       xlink:href="#linearGradient4422-3"
       inkscape:collect="always" />
    <linearGradient
       id="linearGradient4422-3">
      <stop
         style="stop-color:#197ff1;stop-opacity:1"
         offset="0"
         id="stop4424-9" />
      <stop
         style="stop-color:#21c6fb;stop-opacity:1"
         offset="1"
         id="stop4426-1" />
    </linearGradient>
  </defs>
  <sodipodi:namedview
     id="base"
     pagecolor="#555555"
     bordercolor="#666666"
     borderopacity="1.0"
     inkscape:pageopacity="0.33333333"
     inkscape:pageshadow="2"
     inkscape:zoom="5.590563"
     inkscape:cx="-35.560989"
     inkscape:cy="15.185549"
     inkscape:document-units="px"
     inkscape:current-layer="g4227"
     showgrid="false"
     fit-margin-top="0"
     fit-margin-left="0"
     fit-margin-right="0"
     fit-margin-bottom="0"
     inkscape:window-width="1366"
     inkscape:window-height="634"
     inkscape:window-x="0"
     inkscape:window-y="36"
     inkscape:window-maximized="1"
     inkscape:showpageshadow="false"
     borderlayer="true"
     showguides="false"
     showborder="false">
    <inkscape:grid
       type="xygrid"
       id="grid4063" />
    <sodipodi:guide
       position="1.1650391e-05,32.000026"
       orientation="32,0"
       id="guide4157" />
    <sodipodi:guide
       position="1.1650391e-05,2.6367188e-05"
       orientation="0,32"
       id="guide4159" />
    <sodipodi:guide
       position="32.000012,2.6367188e-05"
       orientation="-32,0"
       id="guide4161" />
    <sodipodi:guide
       position="32.000012,32.000026"
       orientation="0,-32"
       id="guide4163" />
    <sodipodi:guide
       position="2.0000117,30.000026"
       orientation="28,0"
       id="guide4167" />
    <sodipodi:guide
       position="30.000012,2.0000264"
       orientation="-28,0"
       id="guide4171" />
    <sodipodi:guide
       position="30.000012,30.000026"
       orientation="0,-28"
       id="guide4173" />
    <sodipodi:guide
       position="2.0000117,30.000026"
       orientation="28,0"
       id="guide4181" />
    <sodipodi:guide
       position="2.0000117,2.0000264"
       orientation="0,14"
       id="guide4183" />
    <sodipodi:guide
       position="16.000012,2.0000264"
       orientation="-28,0"
       id="guide4185" />
    <sodipodi:guide
       position="16.000012,30.000026"
       orientation="0,-14"
       id="guide4187" />
    <sodipodi:guide
       position="9.0000117,23.000026"
       orientation="14,0"
       id="guide4193" />
    <sodipodi:guide
       position="9.0000117,9.0000264"
       orientation="0,14.000031"
       id="guide4195" />
    <sodipodi:guide
       position="23.000042,9.0000264"
       orientation="-14,0"
       id="guide4197" />
    <sodipodi:guide
       position="23.000042,23.000026"
       orientation="0,-14.000031"
       id="guide4199" />
  </sodipodi:namedview>
  <metadata
     id="metadata5458">
    <rdf:RDF>
      <cc:Work
         rdf:about="">
        <dc:format>image/svg+xml</dc:format>
        <dc:type
           rdf:resource="http://purl.org/dc/dcmitype/StillImage" />
        <dc:title></dc:title>
      </cc:Work>
    </rdf:RDF>
  </metadata>
  <g
     inkscape:label="Capa 1"
     inkscape:groupmode="layer"
     id="layer1"
     transform="translate(-384.57143,-499.798)">
    <g
       id="g3"
       transform="matrix(0.13843294,0,0,0.13843294,416.5917,530.60461)">
      <g
         transform="matrix(7.2237142,0,0,7.2237142,-2235.4188,-3907.0815)"
         id="layer1-07"
         inkscape:label="Capa 1">
        <g
           transform="translate(-18.529541,0.82112905)"
           id="g4227">
          <g
             id="g4182"
             transform="translate(0.74651602,-6.4704497)">
            <rect
               style="opacity:1;fill:url(#linearGradient4611);fill-opacity:1;stroke:none;stroke-width:0.60000002;stroke-linecap:round;stroke-linejoin:round;stroke-miterlimit:4;stroke-dasharray:none;stroke-dashoffset:0;stroke-opacity:1"
               id="rect4204-2"
               width="48"
               height="47.851208"
               x="295.21835"
               y="515.78589"
               ry="3.7523136" />
            <path
               sodipodi:nodetypes="ssssssscccccccccccsccssssssssssssssssssscsccccc"
               d="m 327.6714,522.56306 c 0.10478,-0.55664 0.66446,-0.93898 1.22111,-0.83419 0.55664,0.10479 0.93898,0.66446 0.83419,1.2211 l -0.45945,2.44067 c -0.10479,0.55664 -0.6564,0.89616 -1.21304,0.79137 -0.55665,-0.10479 -0.94705,-0.62164 -0.84227,-1.17828 z m -8.78898,2.64608 c -0.31282,-0.4579 -0.19191,-1.10019 0.27406,-1.45583 0.50073,-0.30476 1.14302,-0.18385 1.45583,0.27406 l 1.38228,2.078 c 0.31281,0.45791 0.19191,1.10019 -0.266,1.41301 -0.45792,0.31282 -1.10019,0.19191 -1.41303,-0.266 z m 16.88774,1.67168 c 0.4579,-0.31283 1.10019,-0.19192 1.45583,0.27406 0.30476,0.50073 0.18385,1.14302 -0.27406,1.45583 l -2.078,1.38227 c -0.50072,0.30476 -1.10019,0.19191 -1.41301,-0.266 -0.31282,-0.45791 -0.19191,-1.10019 0.266,-1.41301 z m -10.45655,13.85956 c -3.4255,-0.64484 -5.7276,-3.96006 -5.07469,-7.42838 0.64484,-3.4255 4.00289,-5.71953 7.42838,-5.07469 3.4255,0.64485 5.71953,4.00289 5.07469,7.42838 -0.65291,3.46832 -4.00289,5.71954 -7.42838,5.07469 z m -10.74895,-7.43248 c -0.55664,-0.10479 -0.93897,-0.66446 -0.83419,-1.22111 0.10479,-0.55664 0.66446,-0.93898 1.2211,-0.83419 l 2.44067,0.45945 c 0.55665,0.10479 0.89617,0.6564 0.79138,1.21304 -0.10479,0.55665 -0.62164,0.94705 -1.17829,0.84226 z m 21.024,3.95774 c -0.55664,-0.10479 -0.89616,-0.6564 -0.79137,-1.21304 0.10479,-0.55665 0.62163,-0.94704 1.17828,-0.84225 l 2.44067,0.45945 c 0.55664,0.10479 0.93898,0.66445 0.83419,1.2211 -0.10479,0.55664 -0.66446,0.93898 -1.2211,0.8342 z m -4.6104,5.6495 c -0.30476,-0.50073 -0.18385,-1.143 0.27406,-1.45583 0.45791,-0.31282 1.10019,-0.19191 1.41301,0.266 l 1.43315,2.04323 c 0.30477,0.50073 0.18386,1.14302 -0.27406,1.45585 -0.54355,0.29669 -1.05737,0.19996 -1.45583,-0.27406 z"
               style="font-style:normal;font-variant:normal;font-weight:normal;font-stretch:normal;font-size:86.15384674px;line-height:125%;font-family:'artill clean weather icons';-inkscape-font-specification:'artill clean weather icons';letter-spacing:0px;word-spacing:0px;fill:#dbedfc;fill-opacity:1;stroke:none;stroke-width:1px;stroke-linecap:butt;stroke-linejoin:miter;stroke-opacity:1"
               id="path4168"
               inkscape:connector-curvature="0" />
            <path
               sodipodi:nodetypes="sscscssss"
               inkscape:connector-curvature="0"
               id="path4484"
               style="font-style:normal;font-variant:normal;font-weight:normal;font-stretch:normal;font-size:80px;line-height:125%;font-family:'artill clean weather icons';-inkscape-font-specification:'artill clean weather icons';letter-spacing:0px;word-spacing:0px;fill:#dbedfc;fill-opacity:1;stroke:none;stroke-width:1px;stroke-linecap:butt;stroke-linejoin:miter;stroke-opacity:1"
               d="m 306.46804,557.71155 c -4.01981,0 -7.29913,-3.27933 -7.29913,-7.29913 0,-3.43799 2.38015,-6.34706 5.65948,-7.08756 0.84627,-4.01981 4.39004,-6.87599 8.56854,-6.87599 4.07269,0 7.56358,2.80329 8.51564,6.66442 l 0.47603,0 c 4.01981,0 7.29913,3.27933 7.29913,7.29913 0,4.0198 -3.27932,7.29913 -7.29913,7.29913 z" />
          </g>
        </g>
      </g>
    </g>
  </g>
</svg>
