<?xml version="1.0" encoding="UTF-8" standalone="no"?>
<!-- Created with Inkscape (http://www.inkscape.org/) -->

<svg
   xmlns:dc="http://purl.org/dc/elements/1.1/"
   xmlns:cc="http://creativecommons.org/ns#"
   xmlns:rdf="http://www.w3.org/1999/02/22-rdf-syntax-ns#"
   xmlns:svg="http://www.w3.org/2000/svg"
   xmlns="http://www.w3.org/2000/svg"
   xmlns:sodipodi="http://sodipodi.sourceforge.net/DTD/sodipodi-0.dtd"
   xmlns:inkscape="http://www.inkscape.org/namespaces/inkscape"
   width="16"
   height="16"
   id="svg2"
   version="1.1"
   inkscape:version="0.91 r13725"
   viewBox="0 0 16 16"
   sodipodi:docname="drive-harddisk.svg">
  <defs
     id="defs4" />
  <sodipodi:namedview
     id="base"
     pagecolor="#ffffff"
     bordercolor="#666666"
     borderopacity="1.0"
     inkscape:pageopacity="0.0"
     inkscape:pageshadow="2"
     inkscape:zoom="18.194143"
     inkscape:cx="-5.1960781"
     inkscape:cy="9.5778231"
     inkscape:document-units="px"
     inkscape:current-layer="layer1-9"
     showgrid="false"
     inkscape:showpageshadow="false"
     borderlayer="true"
     units="px"
     inkscape:window-width="1366"
     inkscape:window-height="629"
     inkscape:window-x="0"
     inkscape:window-y="37"
     inkscape:window-maximized="1">
    <inkscape:grid
       type="xygrid"
       id="grid4062" />
    <sodipodi:guide
       position="2,14.000017"
       orientation="12,0"
       id="guide4066" />
    <sodipodi:guide
       position="2,2.0000174"
       orientation="0,12"
       id="guide4068" />
    <sodipodi:guide
       position="14,2.0000174"
       orientation="-12,0"
       id="guide4070" />
    <sodipodi:guide
       position="14,14.000017"
       orientation="0,-12"
       id="guide4072" />
  </sodipodi:namedview>
  <metadata
     id="metadata7">
    <rdf:RDF>
      <cc:Work
         rdf:about="">
        <dc:format>image/svg+xml</dc:format>
        <dc:type
           rdf:resource="http://purl.org/dc/dcmitype/StillImage" />
        <dc:title />
      </cc:Work>
    </rdf:RDF>
  </metadata>
  <g
     inkscape:label="Capa 1"
     inkscape:groupmode="layer"
     id="layer1"
     transform="translate(0,-1036.3622)">
    <g
       id="g4164"
       transform="matrix(0.33041456,0,0,0.33041456,1.9623858,1038.6839)">
      <g
         id="g4399"
         transform="matrix(1.1483543,0,0,1.1483543,-2.2928463,-1.978147)">
        <g
           style="fill:#4d4d4d;fill-opacity:1"
           id="g4140">
          <path
             sodipodi:nodetypes="sccccccss"
             style="opacity:1;fill:#4d4d4d;fill-opacity:1"
             inkscape:connector-curvature="0"
             d="m 4.8,32.019455 c -0.5,0 -0.9,-0.343969 -1,-0.77393 L 3.1,26 l 8.1,0 13.6,0 8.1,0 -0.7,5.245525 c -0.1,0.429961 -0.5,0.77393 -1,0.77393 z"
             id="path4142" />
          <g
             transform="matrix(1,0,0,0.82171911,0,4.4570224)"
             style="fill:#4d4d4d;fill-opacity:1"
             id="g4144">
            <path
               style="fill:#4d4d4d;fill-opacity:1"
               sodipodi:nodetypes="cccccccccccsscc"
               inkscape:connector-curvature="0"
               d="m 31.8,27 -0.5,5 -26.5,0 -0.5,-5 6.4,0 14.8,0 6.3,0 M 34,25 24,25 2,25 2.4967786,32.2 c 0.1,1 0.6978671,1.8 1.6978671,1.8 l 27.7106433,0 c 1,0 1.597867,-0.8 1.697867,-1.8 z"
               id="path4146" />
          </g>
        </g>
        <path
           sodipodi:nodetypes="cccccsscccc"
           style="fill-opacity:0.12000002;stroke:#4d4d4d;stroke-width:2;stroke-linejoin:round;stroke-miterlimit:10;stroke-opacity:1;fill:none"
           inkscape:connector-curvature="0"
           stroke-miterlimit="10"
           d="M 25,26 11,26 3.2,26 3,25 5.7,3.7 C 5.8,2.7 6.3966837,2 7.3966837,2 L 28.603376,2 C 29.603376,2 30.1,2.7 30.3,3.7 L 33,25 32.4,26 Z"
           id="path4148" />
      </g>
    </g>
    <g
       transform="translate(-415.54483,508.82119)"
       id="layer1-6"
       inkscape:label="Capa 1">
      <g
         transform="translate(400.14523,-508.46478)"
         id="layer1-9"
         inkscape:label="Capa 1">
        <g
           inkscape:label="Capa 1"
           id="layer1-6-2"
           transform="translate(-400.1003,508.43645)" />
        <g
           transform="matrix(0.50000202,0,0,0.42671807,19.436768,597.26027)"
           id="layer1-94"
           inkscape:label="Capa 1">
          <g
             style="fill:none;fill-opacity:1;stroke:#4f96d1;stroke-opacity:1"
             inkscape:label="Capa 1"
             id="layer1-0"
             transform="matrix(0.90537551,0,0,0.90537551,-365.91682,562.06022)" />
          <g
             inkscape:label="Capa 1"
             id="layer1-00"
             transform="translate(-401.01229,510.63371)">
            <path
               id="path7811"
               d="m 409.29314,527.72866 c -1.33716,0.0434 3.56209,6.80252 -0.21121,6.37082 3.14656,0.87181 3.8672,-3.18931 3.22457,-5.17621 -0.63634,-1.96786 -0.96725,-0.73992 -2.86395,-1.17703 -0.0567,-0.013 -0.10651,-0.019 -0.14941,-0.0175 z m -3.74928,0.94219 c -2.06822,-0.003 -1.00256,0.69168 -2.00447,2.36082 -0.95683,1.59391 7.55828,-1.2609 5.931,2.30551 1.80129,-2.72281 -1.83849,-4.66351 -3.92659,-4.66621 z m 1.45507,3.05131 c -1.65488,-0.004 -3.32027,1.8765 -3.78589,3.30301 -0.6418,1.96621 0.34768,1.1676 1.62548,2.63611 1.22016,1.4028 1.13706,-7.57863 4.0262,-4.92872 -0.57183,-0.7185 -1.21806,-1.0086 -1.86579,-1.0104 z m 7.11306,0.31935 c -1.1172,0.10691 -5.19267,5.28722 -5.8749,1.9254 0.14332,3.26162 4.22931,2.69225 5.9199,1.46719 1.67495,-1.21353 0.40433,-1.14928 0.2338,-3.08851 -0.0204,-0.23151 -0.11932,-0.31938 -0.27892,-0.30411 z m -6.0096,1.07988 c -3.05776,1.14423 -1.25338,4.85432 0.43421,6.08372 1.67168,1.21798 1.21794,0.0295 3.00944,-0.73185 1.71105,-0.72717 -6.85653,-3.42301 -3.44387,-5.35202 z"
               inkscape:connector-curvature="0"
               style="fill:#4d4d4d;fill-opacity:1;fill-rule:evenodd;stroke:none" />
          </g>
        </g>
      </g>
    </g>
  </g>
</svg>
