<?xml version="1.0" encoding="UTF-8" standalone="no"?>
<!-- Created with Inkscape (http://www.inkscape.org/) -->

<svg
   xmlns:dc="http://purl.org/dc/elements/1.1/"
   xmlns:cc="http://creativecommons.org/ns#"
   xmlns:rdf="http://www.w3.org/1999/02/22-rdf-syntax-ns#"
   xmlns:svg="http://www.w3.org/2000/svg"
   xmlns="http://www.w3.org/2000/svg"
   xmlns:xlink="http://www.w3.org/1999/xlink"
   xmlns:sodipodi="http://sodipodi.sourceforge.net/DTD/sodipodi-0.dtd"
   xmlns:inkscape="http://www.inkscape.org/namespaces/inkscape"
   width="64"
   height="64"
   id="svg3809"
   version="1.1"
   inkscape:version="0.91 r13725"
   sodipodi:docname="battery-missing.svg">
  <defs
     id="defs3811">
    <linearGradient
       gradientTransform="matrix(1.4358974,0,0,1.4358974,750.5495,170.90797)"
       inkscape:collect="always"
       xlink:href="#linearGradient4503"
       id="linearGradient4567"
       x1="24.065989"
       y1="43.213505"
       x2="24.029203"
       y2="5.1963286"
       gradientUnits="userSpaceOnUse" />
    <linearGradient
       inkscape:collect="always"
       id="linearGradient4503">
      <stop
         style="stop-color:#141414;stop-opacity:1"
         offset="0"
         id="stop4505-8" />
      <stop
         style="stop-color:#2d2d2f;stop-opacity:1"
         offset="1"
         id="stop4507" />
    </linearGradient>
  </defs>
  <sodipodi:namedview
     id="base"
     pagecolor="#ffffff"
     bordercolor="#666666"
     borderopacity="1.0"
     inkscape:pageopacity="0.0"
     inkscape:pageshadow="2"
     inkscape:zoom="7.0710678"
     inkscape:cx="21.320082"
     inkscape:cy="31.026333"
     inkscape:document-units="px"
     inkscape:current-layer="g4418"
     showgrid="true"
     fit-margin-top="0"
     fit-margin-left="0"
     fit-margin-right="0"
     fit-margin-bottom="0"
     inkscape:snap-bbox="true"
     inkscape:window-width="1366"
     inkscape:window-height="634"
     inkscape:window-x="0"
     inkscape:window-y="36"
     inkscape:window-maximized="1"
     inkscape:showpageshadow="false"
     borderlayer="true"
     showguides="true">
    <inkscape:grid
       type="xygrid"
       id="grid3830"
       empspacing="5"
       visible="true"
       enabled="true"
       snapvisiblegridlinesonly="true"
       originx="21.000002"
       originy="20.999999" />
    <sodipodi:guide
       position="-2.265625e-06,9.9121092e-07"
       orientation="-64,0"
       id="guide4172" />
    <sodipodi:guide
       position="-2.265625e-06,64.000001"
       orientation="0,64"
       id="guide4174" />
    <sodipodi:guide
       position="63.999998,64.000001"
       orientation="64,0"
       id="guide4176" />
    <sodipodi:guide
       position="63.999998,9.9121092e-07"
       orientation="0,-64"
       id="guide4178" />
    <sodipodi:guide
       position="2.9999977,6.000001"
       orientation="0,58"
       id="guide4182" />
    <sodipodi:guide
       position="60.999998,58.000001"
       orientation="0,-58"
       id="guide4186" />
    <sodipodi:guide
       position="5.9999977,58.000001"
       orientation="52,0"
       id="guide4197" />
    <sodipodi:guide
       position="57.999998,6.000001"
       orientation="-52,0"
       id="guide4201" />
    <sodipodi:guide
       position="19.999998,20.000001"
       orientation="-24,0"
       id="guide4323" />
    <sodipodi:guide
       position="43.999998,44.000001"
       orientation="24,0"
       id="guide4327" />
    <sodipodi:guide
       position="43.999998,20.000001"
       orientation="0,-24"
       id="guide4329" />
    <sodipodi:guide
       position="19.999998,51.000001"
       orientation="24,0"
       id="guide4245" />
    <sodipodi:guide
       position="19.999998,27.000001"
       orientation="0,24"
       id="guide4247" />
    <sodipodi:guide
       position="43.999998,27.000001"
       orientation="-24,0"
       id="guide4249" />
    <sodipodi:guide
       position="-38.999998,20.999999"
       orientation="0,-24"
       id="guide4251" />
  </sodipodi:namedview>
  <metadata
     id="metadata3814">
    <rdf:RDF>
      <cc:Work
         rdf:about="">
        <dc:format>image/svg+xml</dc:format>
        <dc:type
           rdf:resource="http://purl.org/dc/dcmitype/StillImage" />
        <dc:title></dc:title>
      </cc:Work>
    </rdf:RDF>
  </metadata>
  <g
     inkscape:label="Layer 1"
     inkscape:groupmode="layer"
     id="layer1"
     transform="translate(-736.85718,-157.93361)">
    <g
       id="g4418"
       transform="matrix(0.92857143,0,0,0.92857143,54.918368,13.566686)">
      <g
         id="g4178"
         transform="translate(-16.153844,-16.15385)">
        <path
           inkscape:connector-curvature="0"
           style="fill:url(#linearGradient4567);fill-opacity:1;stroke:none;stroke-width:9.51243782;stroke-miterlimit:4;stroke-dasharray:none;stroke-opacity:1"
           d="m 777.69429,178.08746 c -0.79405,0 -1.29882,0.64293 -1.29882,1.43555 l 0,4.30892 -10.18783,0 c -0.79405,0 -1.29883,0.64293 -1.29883,1.43554 l 0,38.76888 0,8.61556 c 0,0.79262 0.51989,1.43555 1.3125,1.43555 l 37.33334,0 c 0.79262,0 1.55859,-0.64293 1.55859,-1.43555 l 0,-8.61556 0,-38.76888 c 0,-0.79261 -0.77966,-1.43554 -1.57227,-1.43554 l -9.91438,0 0,-4.30892 c 0,-0.79262 -0.77966,-1.43555 -1.57227,-1.43555 l -14.36003,0 z"
           id="path4219" />
        <path
           d="m 786.77522,222.54165 q -0.72087,0.75881 -1.82114,0.75881 -1.10027,0 -1.85907,-0.75881 -0.72087,-0.75881 -0.72087,-1.82114 0,-1.06233 0.72087,-1.82114 0.7588,-0.7588 1.85907,-0.7588 1.10027,0 1.82114,0.7588 0.75881,0.75881 0.75881,1.82114 0,1.06233 -0.75881,1.82114 z m -0.0379,-7.8916 -3.56639,0 0,-1.7832 q 0,-1.70731 0.72086,-2.9214 0.72087,-1.25204 2.54201,-2.92141 1.02439,-0.94851 1.44173,-1.4038 0.45529,-0.49322 0.87263,-1.32791 0.45529,-0.87263 0.45529,-1.7832 0,-1.74526 -1.13822,-2.80759 -1.10027,-1.06233 -3.07317,-1.06233 -3.26287,0 -4.47696,3.64228 l -3.26287,-1.36586 q 0.79675,-2.1626 2.7317,-3.86991 1.9729,-1.74526 5.00813,-1.74526 3.45258,0 5.61518,2.04878 2.1626,2.01084 2.1626,5.15989 0,1.36585 -0.72086,2.76965 -0.72087,1.40379 -1.28998,2.01084 -0.53116,0.5691 -1.51761,1.47967 -0.11382,0.11383 -0.18971,0.18971 -2.31436,2.08672 -2.31436,4.17344 l 0,1.51761 z"
           style="font-style:normal;font-variant:normal;font-weight:normal;font-stretch:normal;font-size:86.15384674px;line-height:125%;font-family:'Product Sans';-inkscape-font-specification:'Product Sans';letter-spacing:0px;word-spacing:0px;fill:#eaeaea;fill-opacity:1;stroke:none;stroke-width:1px;stroke-linecap:butt;stroke-linejoin:miter;stroke-opacity:1"
           id="path4187"
           inkscape:connector-curvature="0" />
      </g>
    </g>
  </g>
</svg>
