<?xml version="1.0" encoding="UTF-8" standalone="no"?>
<!-- Created with Inkscape (http://www.inkscape.org/) -->

<svg
   xmlns:osb="http://www.openswatchbook.org/uri/2009/osb"
   xmlns:dc="http://purl.org/dc/elements/1.1/"
   xmlns:cc="http://creativecommons.org/ns#"
   xmlns:rdf="http://www.w3.org/1999/02/22-rdf-syntax-ns#"
   xmlns:svg="http://www.w3.org/2000/svg"
   xmlns="http://www.w3.org/2000/svg"
   xmlns:xlink="http://www.w3.org/1999/xlink"
   xmlns:sodipodi="http://sodipodi.sourceforge.net/DTD/sodipodi-0.dtd"
   xmlns:inkscape="http://www.inkscape.org/namespaces/inkscape"
   width="64"
   height="64"
   id="svg3809"
   version="1.1"
   inkscape:version="0.91 r13725"
   sodipodi:docname="weather-freezing-rain.svg">
  <defs
     id="defs3811">
    <linearGradient
       inkscape:collect="always"
       xlink:href="#linearGradient4760"
       id="linearGradient4222"
       x1="409.57144"
       y1="542.79797"
       x2="409.57144"
       y2="507.798"
       gradientUnits="userSpaceOnUse"
       gradientTransform="matrix(1.2727273,0,0,1.6470589,243.47249,-674.43961)" />
    <linearGradient
       id="linearGradient4207"
       osb:paint="gradient">
      <stop
         style="stop-color:#3498db;stop-opacity:1;"
         offset="0"
         id="stop3371" />
      <stop
         style="stop-color:#3498db;stop-opacity:0;"
         offset="1"
         id="stop3373" />
    </linearGradient>
    <linearGradient
       inkscape:collect="always"
       id="linearGradient4760">
      <stop
         style="stop-color:#124da4;stop-opacity:1"
         offset="0"
         id="stop4762" />
      <stop
         style="stop-color:#2896ff;stop-opacity:1"
         offset="1"
         id="stop4764" />
    </linearGradient>
  </defs>
  <sodipodi:namedview
     id="base"
     pagecolor="#ffffff"
     bordercolor="#666666"
     borderopacity="1.0"
     inkscape:pageopacity="0.0"
     inkscape:pageshadow="2"
     inkscape:zoom="4"
     inkscape:cx="-15.897977"
     inkscape:cy="43.374999"
     inkscape:document-units="px"
     inkscape:current-layer="g4173"
     showgrid="true"
     fit-margin-top="0"
     fit-margin-left="0"
     fit-margin-right="0"
     fit-margin-bottom="0"
     inkscape:snap-bbox="true"
     inkscape:window-width="1366"
     inkscape:window-height="634"
     inkscape:window-x="0"
     inkscape:window-y="36"
     inkscape:window-maximized="1"
     inkscape:showpageshadow="false"
     borderlayer="true"
     showguides="true">
    <inkscape:grid
       type="xygrid"
       id="grid3830"
       empspacing="5"
       visible="true"
       enabled="true"
       snapvisiblegridlinesonly="true"
       originx="21.000002"
       originy="20.999999" />
    <sodipodi:guide
       position="-2.265625e-06,9.9121092e-07"
       orientation="-64,0"
       id="guide4172" />
    <sodipodi:guide
       position="-2.265625e-06,64.000001"
       orientation="0,64"
       id="guide4174" />
    <sodipodi:guide
       position="63.999998,64.000001"
       orientation="64,0"
       id="guide4176" />
    <sodipodi:guide
       position="63.999998,9.9121092e-07"
       orientation="0,-64"
       id="guide4178" />
    <sodipodi:guide
       position="2.9999977,6.000001"
       orientation="0,58"
       id="guide4182" />
    <sodipodi:guide
       position="60.999998,58.000001"
       orientation="0,-58"
       id="guide4186" />
    <sodipodi:guide
       position="5.9999977,58.000001"
       orientation="52,0"
       id="guide4197" />
    <sodipodi:guide
       position="57.999998,6.000001"
       orientation="-52,0"
       id="guide4201" />
    <sodipodi:guide
       position="19.999998,20.000001"
       orientation="-24,0"
       id="guide4323" />
    <sodipodi:guide
       position="43.999998,44.000001"
       orientation="24,0"
       id="guide4327" />
    <sodipodi:guide
       position="43.999998,20.000001"
       orientation="0,-24"
       id="guide4329" />
    <sodipodi:guide
       position="19.999998,51.000001"
       orientation="24,0"
       id="guide4245" />
    <sodipodi:guide
       position="19.999998,27.000001"
       orientation="0,24"
       id="guide4247" />
    <sodipodi:guide
       position="43.999998,27.000001"
       orientation="-24,0"
       id="guide4249" />
    <sodipodi:guide
       position="-38.999998,20.999999"
       orientation="0,-24"
       id="guide4251" />
  </sodipodi:namedview>
  <metadata
     id="metadata3814">
    <rdf:RDF>
      <cc:Work
         rdf:about="">
        <dc:format>image/svg+xml</dc:format>
        <dc:type
           rdf:resource="http://purl.org/dc/dcmitype/StillImage" />
        <dc:title />
      </cc:Work>
    </rdf:RDF>
  </metadata>
  <g
     inkscape:label="Layer 1"
     inkscape:groupmode="layer"
     id="layer1"
     transform="translate(-736.85718,-157.93361)">
    <g
       id="g4418"
       transform="matrix(0.92857143,0,0,0.92857143,54.918368,13.566686)">
      <g
         id="g4173"
         transform="translate(5.3846315,-7.468048e-7)">
        <rect
           ry="2.6352942"
           y="161.93361"
           x="735.47253"
           height="56"
           width="56"
           id="rect4195"
           style="opacity:1;fill:url(#linearGradient4222);fill-opacity:1.0;stroke:none;stroke-width:0.2;stroke-linecap:round;stroke-linejoin:round;stroke-miterlimit:4;stroke-dasharray:none;stroke-opacity:1" />
        <g
           style="font-style:normal;font-weight:normal;font-size:86.15384674px;line-height:125%;font-family:sans-serif;letter-spacing:0px;word-spacing:0px;fill:#def1fe;fill-opacity:1;stroke:none;stroke-width:1px;stroke-linecap:butt;stroke-linejoin:miter;stroke-opacity:1"
           id="text4171"
           transform="matrix(2.4268747,0,0,2.4268747,-651.47824,-229.74283)">
          <path
             d="m 586.85716,167.45284 c -0.48462,-1.96538 -2.26154,-3.3923 -4.36154,-3.3923 -2.12692,0 -3.93077,1.45384 -4.36154,3.5 -1.66923,0.37692 -2.85384,1.85769 -2.85384,3.60769 0,1.69615 1.10384,3.09615 2.63846,3.55384 0.0808,0.0269 0.13461,0 0.18846,-0.0538 l 0.86154,-1.07693 c -1.34616,0 -2.42308,-1.07692 -2.42308,-2.42307 0,-1.26539 0.94231,-2.31539 2.20769,-2.42308 l 0.40385,-0.0538 c 0.0808,0 0.10769,-0.0269 0.10769,-0.10769 l 0.0539,-0.40384 c 0.18846,-1.64231 1.53461,-2.85385 3.17692,-2.85385 1.64231,0 3.01538,1.21154 3.17692,2.85385 l 0.0539,0.43077 c 0.0269,0.0808 0.0808,0.13461 0.16154,0.13461 l 1.21154,0 c 1.34615,0 2.42307,1.07692 2.42307,2.42308 0,1.26538 -0.96923,2.28846 -2.18077,2.42307 -0.2423,0.0269 -0.51153,0 -0.67307,0.21539 l -3.52693,4.38846 c -0.21538,0.26923 -0.16153,0.67308 0.1077,0.88846 0.18846,0.16154 0.64615,0.26923 0.88846,-0.10769 l 3.33846,-4.11923 c 1.85769,-0.18846 3.31154,-1.77692 3.31154,-3.68846 0,-2.04616 -1.64231,-3.71539 -3.68846,-3.71539 l -0.24231,0 z m -3.82308,5.14231 c 0.24231,-0.29615 0.18846,-0.67308 -0.0808,-0.91538 -0.26923,-0.21539 -0.67307,-0.16154 -0.88846,0.10769 l -3.52692,4.38846 c -0.24231,0.26923 -0.18846,0.67308 0.0808,0.88846 0.32307,0.18846 0.64615,0.21539 0.91538,-0.10769 l 3.5,-4.36154 z m -3.66154,6.40769 c -0.21538,0.29616 -0.16153,0.7 0.1077,0.91539 0.29615,0.21538 0.61923,0.18846 0.88846,-0.10769 l 5.00769,-6.21924 c 0.21538,-0.26923 0.16154,-0.67307 -0.10769,-0.88846 -0.26923,-0.21538 -0.67308,-0.16154 -0.88846,0.1077 l -5.0077,6.1923 z m -1.15769,-0.37692 c 0.13462,-0.32308 0,-0.67308 -0.32308,-0.80769 -0.32307,-0.16154 -0.7,0 -0.83461,0.32307 -0.13462,0.29616 0,0.67308 0.32308,0.8077 0.32307,0.13461 0.7,0 0.83461,-0.32308 z m 4.55,1.05 c -0.32308,-0.13462 -0.7,0 -0.83461,0.32308 -0.13462,0.32307 0,0.67307 0.32307,0.83461 0.32308,0.13462 0.7,-0.0269 0.83462,-0.32307 0.13461,-0.32308 0,-0.7 -0.32308,-0.83462 z m -3.87692,0.91538 c -0.32308,-0.13461 -0.7,0 -0.83462,0.32308 -0.13461,0.32308 0.0269,0.67308 0.32308,0.83462 0.32308,0.13461 0.7,-0.0269 0.83462,-0.32308 0.13461,-0.32308 0,-0.7 -0.32308,-0.83462 z"
             style="font-style:normal;font-variant:normal;font-weight:normal;font-stretch:normal;font-size:26.92307663px;font-family:'artill clean weather icons';-inkscape-font-specification:'artill clean weather icons';fill:#def1fe;fill-opacity:1"
             id="path4176"
             inkscape:connector-curvature="0" />
        </g>
      </g>
    </g>
  </g>
</svg>
