<?xml version="1.0" encoding="UTF-8" standalone="no"?>
<!-- Created with Inkscape (http://www.inkscape.org/) -->

<svg
   xmlns:osb="http://www.openswatchbook.org/uri/2009/osb"
   xmlns:dc="http://purl.org/dc/elements/1.1/"
   xmlns:cc="http://creativecommons.org/ns#"
   xmlns:rdf="http://www.w3.org/1999/02/22-rdf-syntax-ns#"
   xmlns:svg="http://www.w3.org/2000/svg"
   xmlns="http://www.w3.org/2000/svg"
   xmlns:xlink="http://www.w3.org/1999/xlink"
   xmlns:sodipodi="http://sodipodi.sourceforge.net/DTD/sodipodi-0.dtd"
   xmlns:inkscape="http://www.inkscape.org/namespaces/inkscape"
   width="64"
   height="64"
   id="svg3809"
   version="1.1"
   inkscape:version="0.91 r13725"
   sodipodi:docname="weather-snow-scattered-night.svg">
  <defs
     id="defs3811">
    <linearGradient
       inkscape:collect="always"
       xlink:href="#linearGradient4180"
       id="linearGradient4222"
       x1="409.57144"
       y1="542.79797"
       x2="409.57144"
       y2="507.798"
       gradientUnits="userSpaceOnUse"
       gradientTransform="matrix(1.2727273,0,0,1.6470589,243.47249,-674.43961)" />
    <linearGradient
       id="linearGradient4207"
       osb:paint="gradient">
      <stop
         style="stop-color:#3498db;stop-opacity:1;"
         offset="0"
         id="stop3371" />
      <stop
         style="stop-color:#3498db;stop-opacity:0;"
         offset="1"
         id="stop3373" />
    </linearGradient>
    <linearGradient
       inkscape:collect="always"
       id="linearGradient4180">
      <stop
         style="stop-color:#abbfc8;stop-opacity:1"
         offset="0"
         id="stop4182" />
      <stop
         style="stop-color:#e0eff5;stop-opacity:1"
         offset="1"
         id="stop4184" />
    </linearGradient>
  </defs>
  <sodipodi:namedview
     id="base"
     pagecolor="#ffffff"
     bordercolor="#666666"
     borderopacity="1.0"
     inkscape:pageopacity="0.0"
     inkscape:pageshadow="2"
     inkscape:zoom="4"
     inkscape:cx="62.248715"
     inkscape:cy="26.548445"
     inkscape:document-units="px"
     inkscape:current-layer="g4173"
     showgrid="true"
     fit-margin-top="0"
     fit-margin-left="0"
     fit-margin-right="0"
     fit-margin-bottom="0"
     inkscape:snap-bbox="true"
     inkscape:window-width="1366"
     inkscape:window-height="634"
     inkscape:window-x="0"
     inkscape:window-y="36"
     inkscape:window-maximized="1"
     inkscape:showpageshadow="false"
     borderlayer="true"
     showguides="true">
    <inkscape:grid
       type="xygrid"
       id="grid3830"
       empspacing="5"
       visible="true"
       enabled="true"
       snapvisiblegridlinesonly="true"
       originx="21.000002"
       originy="20.999999" />
    <sodipodi:guide
       position="-2.265625e-06,9.9121092e-07"
       orientation="-64,0"
       id="guide4172" />
    <sodipodi:guide
       position="-2.265625e-06,64.000001"
       orientation="0,64"
       id="guide4174" />
    <sodipodi:guide
       position="63.999998,64.000001"
       orientation="64,0"
       id="guide4176" />
    <sodipodi:guide
       position="63.999998,9.9121092e-07"
       orientation="0,-64"
       id="guide4178" />
    <sodipodi:guide
       position="2.9999977,6.000001"
       orientation="0,58"
       id="guide4182" />
    <sodipodi:guide
       position="60.999998,58.000001"
       orientation="0,-58"
       id="guide4186" />
    <sodipodi:guide
       position="5.9999977,58.000001"
       orientation="52,0"
       id="guide4197" />
    <sodipodi:guide
       position="57.999998,6.000001"
       orientation="-52,0"
       id="guide4201" />
    <sodipodi:guide
       position="19.999998,20.000001"
       orientation="-24,0"
       id="guide4323" />
    <sodipodi:guide
       position="43.999998,44.000001"
       orientation="24,0"
       id="guide4327" />
    <sodipodi:guide
       position="43.999998,20.000001"
       orientation="0,-24"
       id="guide4329" />
    <sodipodi:guide
       position="19.999998,51.000001"
       orientation="24,0"
       id="guide4245" />
    <sodipodi:guide
       position="19.999998,27.000001"
       orientation="0,24"
       id="guide4247" />
    <sodipodi:guide
       position="43.999998,27.000001"
       orientation="-24,0"
       id="guide4249" />
    <sodipodi:guide
       position="-63.999998,9.9121092e-07"
       orientation="0,-24"
       id="guide4251" />
    <sodipodi:guide
       position="-14.75,-88.25"
       orientation="0,1"
       id="guide4167" />
    <sodipodi:guide
       position="-14.75,-88.25"
       orientation="0,1"
       id="guide4169" />
  </sodipodi:namedview>
  <metadata
     id="metadata3814">
    <rdf:RDF>
      <cc:Work
         rdf:about="">
        <dc:format>image/svg+xml</dc:format>
        <dc:type
           rdf:resource="http://purl.org/dc/dcmitype/StillImage" />
        <dc:title></dc:title>
      </cc:Work>
    </rdf:RDF>
  </metadata>
  <g
     inkscape:label="Layer 1"
     inkscape:groupmode="layer"
     id="layer1"
     transform="translate(-736.85718,-157.93361)">
    <g
       id="g4418"
       transform="matrix(0.92857143,0,0,0.92857143,54.918368,13.566686)">
      <g
         id="g4173"
         transform="translate(5.3846315,-7.468048e-7)">
        <rect
           ry="2.6352942"
           y="161.93361"
           x="735.47253"
           height="56"
           width="56"
           id="rect4195"
           style="opacity:1;fill:url(#linearGradient4222);fill-opacity:1.0;stroke:none;stroke-width:0.2;stroke-linecap:round;stroke-linejoin:round;stroke-miterlimit:4;stroke-dasharray:none;stroke-opacity:1" />
        <g
           id="g4196"
           transform="matrix(1.1383458,0,0,1.1383458,-100.66576,-30.184208)">
          <g
             transform="matrix(0.64276051,0,0,0.64276051,336.4253,65.193725)"
             id="text4163"
             style="font-style:normal;font-weight:normal;font-size:86.15384674px;line-height:125%;font-family:sans-serif;letter-spacing:0px;word-spacing:0px;fill:#000000;fill-opacity:0.64634148;stroke:none;stroke-width:1px;stroke-linecap:butt;stroke-linejoin:miter;stroke-opacity:1">
            <path
               sodipodi:nodetypes="sssssssssssssssssssssssssssssssssss"
               inkscape:connector-curvature="0"
               id="path4168"
               style="font-style:normal;font-variant:normal;font-weight:normal;font-stretch:normal;font-family:'artill clean weather icons';-inkscape-font-specification:'artill clean weather icons';fill:#000000;fill-opacity:0.64634148"
               d="m 656.98637,204.45053 c -1.03385,0 -1.98154,0.86154 -1.98154,1.98154 0,1.12 0.94769,1.98154 1.98154,1.98154 1.12,0 2.06769,-0.86154 2.06769,-1.98154 0,-1.12 -0.94769,-1.98154 -2.06769,-1.98154 z m -7.6677,4.04924 c -1.12,0 -1.98153,0.94769 -1.98153,1.98153 0,1.12 0.86153,2.0677 1.98153,2.0677 1.12,0 1.98154,-0.9477 1.98154,-2.0677 0,-1.03384 -0.86154,-1.98153 -1.98154,-1.98153 z m 15.42154,0 c -1.12,0 -1.98154,0.94769 -1.98154,1.98153 0,1.12 0.86154,2.0677 1.98154,2.0677 1.12,0 1.98154,-0.9477 1.98154,-2.0677 0,-1.03384 -0.86154,-1.98153 -1.98154,-1.98153 z m -7.75384,4.56615 c -1.03385,0 -1.98154,0.94769 -1.98154,2.06769 0,1.12 0.94769,1.98154 1.98154,1.98154 1.12,0 2.06769,-0.86154 2.06769,-1.98154 0,-1.12 -0.94769,-2.06769 -2.06769,-2.06769 z m -7.6677,4.13538 c -1.12,0 -1.98153,0.86154 -1.98153,1.98154 0,1.12 0.86153,1.98154 1.98153,1.98154 1.12,0 1.98154,-0.86154 1.98154,-1.98154 0,-1.12 -0.86154,-1.98154 -1.98154,-1.98154 z m 15.42154,0 c -1.12,0 -1.98154,0.86154 -1.98154,1.98154 0,1.12 0.86154,1.98154 1.98154,1.98154 1.12,0 1.98154,-0.86154 1.98154,-1.98154 0,-1.12 -0.86154,-1.98154 -1.98154,-1.98154 z m -7.75384,4.65231 c -1.03385,0 -1.98154,0.94769 -1.98154,2.06769 0,1.12 0.94769,1.98154 1.98154,1.98154 1.12,0 2.06769,-0.86154 2.06769,-1.98154 0,-1.12 -0.94769,-2.06769 -2.06769,-2.06769 z" />
          </g>
          <g
             transform="matrix(0.653897,0,0,0.653897,325.22731,63.268031)"
             id="text4189"
             style="font-style:normal;font-weight:normal;font-size:86.15384674px;line-height:125%;font-family:sans-serif;letter-spacing:0px;word-spacing:0px;fill:#000000;fill-opacity:1;stroke:none;stroke-width:1px;stroke-linecap:butt;stroke-linejoin:miter;stroke-opacity:1">
            <path
               sodipodi:nodetypes="ccccccscscsscsccccsccssscsscsccccccccccsc"
               inkscape:connector-curvature="0"
               id="path4194"
               style="font-style:normal;font-variant:normal;font-weight:normal;font-stretch:normal;font-family:'artill clean weather icons';-inkscape-font-specification:'artill clean weather icons';fill:#000000;fill-opacity:0.64634148"
               d="m 687.87255,185.8413 c -4.30769,-1.20615 -6.89231,-5.6 -5.94462,-9.99384 l 0.34462,-1.46462 c 0.0861,-0.25846 -0.0862,-0.43077 -0.34462,-0.51692 l -1.89538,-0.60308 c -5.34154,-1.29231 -10.94154,1.12 -13.78462,5.77231 -1.72307,-0.77539 -3.61846,-1.12 -5.6,-1.12 -6.80615,0 -12.57846,4.65231 -14.04307,11.2 -5.25539,1.20615 -9.13231,5.94462 -9.13231,11.54462 0,6.37538 5.08308,11.63076 11.45846,11.88923 0.25846,0 0.43077,-0.17231 0.43077,-0.43077 l 0,-3.27385 c 0,-0.25846 -0.17231,-0.43077 -0.43077,-0.43077 -4.13538,-0.25846 -7.40923,-3.61846 -7.40923,-7.75384 0,-4.04924 3.10154,-7.40924 7.06461,-7.75385 l 1.29231,-0.17231 c 0.34462,0 0.43077,-0.0862 0.43077,-0.43077 l 0.17231,-1.20615 c 0.51692,-5.16923 4.91077,-9.13231 10.16615,-9.13231 5.16923,0 9.56308,3.87692 10.16616,9.13231 l 0.1723,1.37846 c 0,0.25846 0.17231,0.43077 0.43077,0.43077 l 3.87693,0 c 4.30769,0 7.84,3.44615 7.84,7.75385 0,4.13538 -3.27385,7.49538 -7.40923,7.75384 -0.25847,0 -0.43077,0.17231 -0.43077,0.43077 l 0,3.27385 c 0,0.25846 0.1723,0.43077 0.43077,0.43077 6.37538,-0.25847 11.45846,-5.51385 11.45846,-11.88923 0,-2.15385 -0.60308,-4.22154 -1.63693,-5.94462 1.80924,-1.63692 3.10154,-3.79077 3.70462,-6.20308 l 0.34462,-1.72307 c 0.0861,-0.25847 -0.0862,-0.43077 -0.34462,-0.51693 z m -13.35385,2.92923 c -0.68923,-3.01538 -2.41231,-5.68615 -4.73846,-7.58153 1.63692,-2.75693 4.73846,-4.39385 7.92615,-4.13539 -0.25846,4.99692 2.49847,9.73539 7.06462,11.97539 -0.43077,0.94769 -1.03385,1.80923 -1.80923,2.58461 -2.06769,-1.72308 -4.73846,-2.84308 -7.66769,-2.84308 z" />
          </g>
        </g>
      </g>
    </g>
  </g>
</svg>
