<?xml version="1.0" encoding="UTF-8" standalone="no"?>
<!-- Created with Inkscape (http://www.inkscape.org/) -->

<svg
   xmlns:osb="http://www.openswatchbook.org/uri/2009/osb"
   xmlns:dc="http://purl.org/dc/elements/1.1/"
   xmlns:cc="http://creativecommons.org/ns#"
   xmlns:rdf="http://www.w3.org/1999/02/22-rdf-syntax-ns#"
   xmlns:svg="http://www.w3.org/2000/svg"
   xmlns="http://www.w3.org/2000/svg"
   xmlns:xlink="http://www.w3.org/1999/xlink"
   xmlns:sodipodi="http://sodipodi.sourceforge.net/DTD/sodipodi-0.dtd"
   xmlns:inkscape="http://www.inkscape.org/namespaces/inkscape"
   width="64"
   height="64"
   id="svg3809"
   version="1.1"
   inkscape:version="0.91 r13725"
   sodipodi:docname="weather-snow.svg">
  <defs
     id="defs3811">
    <linearGradient
       inkscape:collect="always"
       xlink:href="#linearGradient4180"
       id="linearGradient4222"
       x1="409.57144"
       y1="542.79797"
       x2="409.57144"
       y2="507.798"
       gradientUnits="userSpaceOnUse"
       gradientTransform="matrix(1.2727273,0,0,1.6470589,243.47249,-674.43961)" />
    <linearGradient
       id="linearGradient4207"
       osb:paint="gradient">
      <stop
         style="stop-color:#3498db;stop-opacity:1;"
         offset="0"
         id="stop3371" />
      <stop
         style="stop-color:#3498db;stop-opacity:0;"
         offset="1"
         id="stop3373" />
    </linearGradient>
    <linearGradient
       id="linearGradient4180"
       inkscape:collect="always">
      <stop
         id="stop4182"
         offset="0"
         style="stop-color:#abbfc8;stop-opacity:1" />
      <stop
         id="stop4184"
         offset="1"
         style="stop-color:#e0eff5;stop-opacity:1" />
    </linearGradient>
  </defs>
  <sodipodi:namedview
     id="base"
     pagecolor="#ffffff"
     bordercolor="#666666"
     borderopacity="1.0"
     inkscape:pageopacity="0.0"
     inkscape:pageshadow="2"
     inkscape:zoom="4"
     inkscape:cx="-26"
     inkscape:cy="43.375008"
     inkscape:document-units="px"
     inkscape:current-layer="g4173"
     showgrid="true"
     fit-margin-top="0"
     fit-margin-left="0"
     fit-margin-right="0"
     fit-margin-bottom="0"
     inkscape:snap-bbox="true"
     inkscape:window-width="1366"
     inkscape:window-height="634"
     inkscape:window-x="0"
     inkscape:window-y="36"
     inkscape:window-maximized="1"
     inkscape:showpageshadow="false"
     borderlayer="true"
     showguides="true">
    <inkscape:grid
       type="xygrid"
       id="grid3830"
       empspacing="5"
       visible="true"
       enabled="true"
       snapvisiblegridlinesonly="true"
       originx="21.000002"
       originy="20.999999" />
    <sodipodi:guide
       position="57.999998,40.999999"
       orientation="-64,0"
       id="guide4172" />
    <sodipodi:guide
       position="-2.265625e-06,64.000001"
       orientation="0,64"
       id="guide4174" />
    <sodipodi:guide
       position="63.999998,64.000001"
       orientation="64,0"
       id="guide4176" />
    <sodipodi:guide
       position="63.999998,9.9121092e-07"
       orientation="0,-64"
       id="guide4178" />
    <sodipodi:guide
       position="2.9999977,6.000001"
       orientation="0,58"
       id="guide4182" />
    <sodipodi:guide
       position="60.999998,58.000001"
       orientation="0,-58"
       id="guide4186" />
    <sodipodi:guide
       position="5.9999977,58.000001"
       orientation="52,0"
       id="guide4197" />
    <sodipodi:guide
       position="57.999998,6.000001"
       orientation="-52,0"
       id="guide4201" />
    <sodipodi:guide
       position="19.999998,20.000001"
       orientation="-24,0"
       id="guide4323" />
    <sodipodi:guide
       position="43.999998,44.000001"
       orientation="24,0"
       id="guide4327" />
    <sodipodi:guide
       position="43.999998,20.000001"
       orientation="0,-24"
       id="guide4329" />
    <sodipodi:guide
       position="19.999998,51.000001"
       orientation="24,0"
       id="guide4245" />
    <sodipodi:guide
       position="19.999998,27.000001"
       orientation="0,24"
       id="guide4247" />
    <sodipodi:guide
       position="43.999998,27.000001"
       orientation="-24,0"
       id="guide4249" />
    <sodipodi:guide
       position="-38.999998,20.999999"
       orientation="0,-24"
       id="guide4251" />
    <sodipodi:guide
       position="-14.75,-88.25"
       orientation="0,1"
       id="guide4167" />
    <sodipodi:guide
       position="-14.75,-88.25"
       orientation="0,1"
       id="guide4169" />
  </sodipodi:namedview>
  <metadata
     id="metadata3814">
    <rdf:RDF>
      <cc:Work
         rdf:about="">
        <dc:format>image/svg+xml</dc:format>
        <dc:type
           rdf:resource="http://purl.org/dc/dcmitype/StillImage" />
        <dc:title></dc:title>
      </cc:Work>
    </rdf:RDF>
  </metadata>
  <g
     inkscape:label="Layer 1"
     inkscape:groupmode="layer"
     id="layer1"
     transform="translate(-736.85718,-157.93361)">
    <g
       id="g4418"
       transform="matrix(0.92857143,0,0,0.92857143,54.918368,13.566686)">
      <g
         id="g4173"
         transform="translate(5.3846315,-7.468048e-7)">
        <rect
           ry="2.6352942"
           y="161.93361"
           x="735.47253"
           height="56"
           width="56"
           id="rect4195"
           style="opacity:1;fill:url(#linearGradient4222);fill-opacity:1.0;stroke:none;stroke-width:0.2;stroke-linecap:round;stroke-linejoin:round;stroke-miterlimit:4;stroke-dasharray:none;stroke-opacity:1" />
        <g
           style="font-style:normal;font-weight:normal;font-size:86.15384674px;line-height:125%;font-family:sans-serif;letter-spacing:0px;word-spacing:0px;fill:#dce7f4;fill-opacity:1;stroke:none;stroke-width:1px;stroke-linecap:butt;stroke-linejoin:miter;stroke-opacity:1"
           id="text4208"
           transform="matrix(0.76301619,0,0,0.76301619,211.67898,42.652895)">
          <path
             d="m 736.14028,200.04591 c 0,-0.25847 0.17231,-0.43077 0.43077,-0.43077 4.13538,-0.25846 7.40923,-3.70462 7.40923,-7.75385 0,-4.30769 -3.53231,-7.84 -7.84,-7.84 l -3.87692,0 c -0.25847,0 -0.43077,-0.17231 -0.43077,-0.43077 l -0.17231,-1.37846 c -0.60308,-5.16923 -4.99692,-9.13231 -10.16616,-9.13231 -5.25538,0 -9.64923,3.96308 -10.16615,9.21846 l -0.17231,1.20616 c 0,0.34461 -0.0861,0.43077 -0.43077,0.43077 l -1.2923,0.1723 c -3.96308,0.34462 -7.06462,3.70462 -7.06462,7.75385 0,4.04923 3.27385,7.49539 7.40923,7.75385 0.25846,0 0.43077,0.1723 0.43077,0.43077 l 0,3.18769 c 0,0.25846 -0.17231,0.43077 -0.43077,0.43077 -6.37538,-0.25846 -11.45846,-5.51385 -11.45846,-11.80308 0,-5.68615 3.87692,-10.33846 9.13231,-11.63077 1.46461,-6.46154 7.23692,-11.2 14.04307,-11.2 6.63385,0 12.32,4.56616 13.87077,10.94154 l 0.77539,0 c 6.54769,0 11.88923,5.34154 11.88923,11.88923 0,6.28923 -5.08308,11.54462 -11.45846,11.80308 -0.25846,0 -0.43077,-0.17231 -0.43077,-0.43077 l 0,-3.18769 z m -10.85539,-2.49847 c 0,1.12 -0.94769,1.98154 -2.06769,1.98154 -1.03384,0 -1.98154,-0.86154 -1.98154,-1.98154 0,-1.12 0.9477,-1.98153 1.98154,-1.98153 1.12,0 2.06769,0.86153 2.06769,1.98153 z m -7.75384,4.04924 c 0,1.12 -0.86154,2.06769 -1.98154,2.06769 -1.12,0 -1.98154,-0.94769 -1.98154,-2.06769 0,-1.03385 0.86154,-1.98154 1.98154,-1.98154 1.12,0 1.98154,0.94769 1.98154,1.98154 z m 15.42154,0 c 0,1.12 -0.86154,2.06769 -1.98154,2.06769 -1.12,0 -1.98154,-0.94769 -1.98154,-2.06769 0,-1.03385 0.86154,-1.98154 1.98154,-1.98154 1.12,0 1.98154,0.94769 1.98154,1.98154 z m -7.6677,4.6523 c 0,1.12 -0.94769,1.98154 -2.06769,1.98154 -1.03384,0 -1.98154,-0.86154 -1.98154,-1.98154 0,-1.12 0.9477,-2.06769 1.98154,-2.06769 1.12,0 2.06769,0.94769 2.06769,2.06769 z m -7.75384,4.04923 c 0,1.12 -0.86154,1.98154 -1.98154,1.98154 -1.12,0 -1.98154,-0.86154 -1.98154,-1.98154 0,-1.12 0.86154,-1.98153 1.98154,-1.98153 1.12,0 1.98154,0.86153 1.98154,1.98153 z m 15.42154,0 c 0,1.12 -0.86154,1.98154 -1.98154,1.98154 -1.12,0 -1.98154,-0.86154 -1.98154,-1.98154 0,-1.12 0.86154,-1.98153 1.98154,-1.98153 1.12,0 1.98154,0.86153 1.98154,1.98153 z m -7.6677,4.73847 c 0,1.12 -0.94769,1.98153 -2.06769,1.98153 -1.03384,0 -1.98154,-0.86153 -1.98154,-1.98153 0,-1.12 0.9477,-2.0677 1.98154,-2.0677 1.12,0 2.06769,0.9477 2.06769,2.0677 z"
             style="font-style:normal;font-variant:normal;font-weight:normal;font-stretch:normal;font-family:'artill clean weather icons';-inkscape-font-specification:'artill clean weather icons';fill:#484e50;fill-opacity:1"
             id="path4213"
             inkscape:connector-curvature="0" />
        </g>
      </g>
    </g>
  </g>
</svg>
