<?xml version="1.0" encoding="UTF-8" standalone="no"?>
<!-- Created with Inkscape (http://www.inkscape.org/) -->

<svg
   xmlns:osb="http://www.openswatchbook.org/uri/2009/osb"
   xmlns:dc="http://purl.org/dc/elements/1.1/"
   xmlns:cc="http://creativecommons.org/ns#"
   xmlns:rdf="http://www.w3.org/1999/02/22-rdf-syntax-ns#"
   xmlns:svg="http://www.w3.org/2000/svg"
   xmlns="http://www.w3.org/2000/svg"
   xmlns:xlink="http://www.w3.org/1999/xlink"
   xmlns:sodipodi="http://sodipodi.sourceforge.net/DTD/sodipodi-0.dtd"
   xmlns:inkscape="http://www.inkscape.org/namespaces/inkscape"
   width="64"
   height="64"
   id="svg3809"
   version="1.1"
   inkscape:version="0.91 r13725"
   sodipodi:docname="weather-clouds-night.svg">
  <defs
     id="defs3811">
    <linearGradient
       inkscape:collect="always"
       xlink:href="#linearGradient4408"
       id="linearGradient4222"
       x1="409.57144"
       y1="542.79797"
       x2="409.57144"
       y2="507.798"
       gradientUnits="userSpaceOnUse"
       gradientTransform="matrix(1.2727273,0,0,1.6470589,243.47249,-674.43961)" />
    <linearGradient
       id="linearGradient4207"
       osb:paint="gradient">
      <stop
         style="stop-color:#3498db;stop-opacity:1;"
         offset="0"
         id="stop3371" />
      <stop
         style="stop-color:#3498db;stop-opacity:0;"
         offset="1"
         id="stop3373" />
    </linearGradient>
    <linearGradient
       inkscape:collect="always"
       id="linearGradient4408">
      <stop
         style="stop-color:#183b69;stop-opacity:1"
         offset="0"
         id="stop4410" />
      <stop
         style="stop-color:#245aa1;stop-opacity:1"
         offset="1"
         id="stop4412" />
    </linearGradient>
  </defs>
  <sodipodi:namedview
     id="base"
     pagecolor="#ffffff"
     bordercolor="#666666"
     borderopacity="1.0"
     inkscape:pageopacity="0.0"
     inkscape:pageshadow="2"
     inkscape:zoom="5.6568542"
     inkscape:cx="-40.13755"
     inkscape:cy="42.816291"
     inkscape:document-units="px"
     inkscape:current-layer="text4274"
     showgrid="true"
     fit-margin-top="0"
     fit-margin-left="0"
     fit-margin-right="0"
     fit-margin-bottom="0"
     inkscape:snap-bbox="true"
     inkscape:window-width="1366"
     inkscape:window-height="634"
     inkscape:window-x="0"
     inkscape:window-y="36"
     inkscape:window-maximized="1"
     inkscape:showpageshadow="false"
     borderlayer="true"
     showguides="true">
    <inkscape:grid
       type="xygrid"
       id="grid3830"
       empspacing="5"
       visible="true"
       enabled="true"
       snapvisiblegridlinesonly="true"
       originx="21.000002"
       originy="20.999999" />
    <sodipodi:guide
       position="-2.265625e-06,9.9121092e-07"
       orientation="-64,0"
       id="guide4172" />
    <sodipodi:guide
       position="-2.265625e-06,64.000001"
       orientation="0,64"
       id="guide4174" />
    <sodipodi:guide
       position="63.999998,64.000001"
       orientation="64,0"
       id="guide4176" />
    <sodipodi:guide
       position="63.999998,9.9121092e-07"
       orientation="0,-64"
       id="guide4178" />
    <sodipodi:guide
       position="2.9999977,6.000001"
       orientation="0,58"
       id="guide4182" />
    <sodipodi:guide
       position="60.999998,58.000001"
       orientation="0,-58"
       id="guide4186" />
    <sodipodi:guide
       position="5.9999977,58.000001"
       orientation="52,0"
       id="guide4197" />
    <sodipodi:guide
       position="57.999998,6.000001"
       orientation="-52,0"
       id="guide4201" />
    <sodipodi:guide
       position="19.999998,20.000001"
       orientation="-24,0"
       id="guide4323" />
    <sodipodi:guide
       position="43.999998,44.000001"
       orientation="24,0"
       id="guide4327" />
    <sodipodi:guide
       position="43.999998,20.000001"
       orientation="0,-24"
       id="guide4329" />
    <sodipodi:guide
       position="19.999998,51.000001"
       orientation="24,0"
       id="guide4245" />
    <sodipodi:guide
       position="19.999998,27.000001"
       orientation="0,24"
       id="guide4247" />
    <sodipodi:guide
       position="43.999998,27.000001"
       orientation="-24,0"
       id="guide4249" />
    <sodipodi:guide
       position="-38.999998,20.999999"
       orientation="0,-24"
       id="guide4251" />
  </sodipodi:namedview>
  <metadata
     id="metadata3814">
    <rdf:RDF>
      <cc:Work
         rdf:about="">
        <dc:format>image/svg+xml</dc:format>
        <dc:type
           rdf:resource="http://purl.org/dc/dcmitype/StillImage" />
        <dc:title />
      </cc:Work>
    </rdf:RDF>
  </metadata>
  <g
     inkscape:label="Layer 1"
     inkscape:groupmode="layer"
     id="layer1"
     transform="translate(-736.85718,-157.93361)">
    <g
       id="g4418"
       transform="matrix(0.92857143,0,0,0.92857143,54.918368,13.566686)">
      <g
         id="g4173"
         transform="translate(5.3846315,-7.468048e-7)">
        <rect
           ry="2.6352942"
           y="161.93361"
           x="735.47253"
           height="56"
           width="56"
           id="rect4195"
           style="opacity:1;fill:url(#linearGradient4222);fill-opacity:1.0;stroke:none;stroke-width:0.2;stroke-linecap:round;stroke-linejoin:round;stroke-miterlimit:4;stroke-dasharray:none;stroke-opacity:1" />
        <g
           style="font-style:normal;font-weight:normal;font-size:70.57546997px;line-height:125%;font-family:sans-serif;letter-spacing:0px;word-spacing:0px;fill:#000000;fill-opacity:1;stroke:none;stroke-width:1px;stroke-linecap:butt;stroke-linejoin:miter;stroke-opacity:1"
           id="text4267" />
        <g
           style="font-style:normal;font-weight:normal;font-size:69.32881927px;line-height:125%;font-family:sans-serif;letter-spacing:0px;word-spacing:0px;fill:#000000;fill-opacity:1;stroke:none;stroke-width:1px;stroke-linecap:butt;stroke-linejoin:miter;stroke-opacity:1"
           id="text4274">
          <g
             id="g4283"
             transform="translate(0.02555865,1.1430759)"
             style="fill-opacity:0.8536585;fill:#ffffff">
            <path
               style="font-style:normal;font-variant:normal;font-weight:normal;font-stretch:normal;font-family:'artill clean weather icons';-inkscape-font-specification:'artill clean weather icons';fill:#ffffff;fill-opacity:0.8536585"
               d="M 43.894531 16.984375 C 40.111985 16.984375 37.013874 19.775772 36.457031 23.365234 C 34.644361 21.965478 32.3792 21.136719 29.939453 21.136719 C 24.853686 21.136719 20.539793 24.613226 19.509766 29.505859 C 15.518403 30.407131 12.621094 33.948326 12.621094 38.132812 C 12.621094 43.025446 16.613226 47.015625 21.505859 47.015625 L 40.882812 47.015625 C 45.775446 47.015625 49.767578 43.025446 49.767578 38.132812 C 49.767578 35.48926 48.596939 33.114273 46.753906 31.484375 C 49.481515 30.358788 51.415879 27.674946 51.376953 24.517578 L 51.376953 23.486328 C 51.376953 23.331507 51.273961 23.228516 51.119141 23.228516 L 50.242188 23.175781 C 47.558579 23.072571 45.442161 20.906256 45.390625 18.222656 L 45.339844 17.292969 C 45.339844 17.138148 45.236861 17.035911 45.082031 16.984375 L 43.894531 16.984375 z M 43.068359 19.511719 C 43.636032 22.453368 45.907141 24.827973 48.900391 25.447266 C 48.435928 27.821233 46.371709 29.626953 43.894531 29.626953 C 43.683197 29.626953 43.476667 29.609884 43.271484 29.583984 C 42.970802 29.499608 42.664046 29.43333 42.351562 29.380859 C 41.068689 28.964036 40.014291 28.035724 39.390625 26.855469 C 39.346586 26.771703 39.300076 26.689823 39.253906 26.607422 C 38.959068 25.965761 38.785156 25.260433 38.785156 24.517578 C 38.785156 21.98879 40.642792 19.87297 43.068359 19.511719 z M 29.939453 24.162109 C 33.866428 24.162109 37.084521 27.059344 37.535156 30.986328 L 37.664062 32.015625 C 37.664062 32.208759 37.793195 32.337891 37.986328 32.337891 L 40.882812 32.337891 C 44.10165 32.337891 46.742188 34.913975 46.742188 38.132812 C 46.742188 41.35165 44.10165 43.925781 40.882812 43.925781 L 21.505859 43.925781 C 18.287022 43.925781 15.646484 41.35165 15.646484 38.132812 C 15.646484 35.1071 17.964456 32.595402 20.925781 32.337891 L 21.892578 32.208984 C 22.150117 32.208984 22.212891 32.146183 22.212891 31.888672 L 22.341797 30.986328 C 22.728055 27.059344 26.012469 24.162109 29.939453 24.162109 z "
               transform="matrix(1.0769231,0,0,1.0769231,728.98545,154.329)"
               id="path4281" />
          </g>
        </g>
      </g>
    </g>
  </g>
</svg>
