<?xml version="1.0" encoding="UTF-8" standalone="no"?>
<!-- Created with Inkscape (http://www.inkscape.org/) -->

<svg
   xmlns:osb="http://www.openswatchbook.org/uri/2009/osb"
   xmlns:dc="http://purl.org/dc/elements/1.1/"
   xmlns:cc="http://creativecommons.org/ns#"
   xmlns:rdf="http://www.w3.org/1999/02/22-rdf-syntax-ns#"
   xmlns:svg="http://www.w3.org/2000/svg"
   xmlns="http://www.w3.org/2000/svg"
   xmlns:xlink="http://www.w3.org/1999/xlink"
   xmlns:sodipodi="http://sodipodi.sourceforge.net/DTD/sodipodi-0.dtd"
   xmlns:inkscape="http://www.inkscape.org/namespaces/inkscape"
   width="64"
   height="64"
   id="svg3809"
   version="1.1"
   inkscape:version="0.91 r13725"
   sodipodi:docname="weather-storm-day.svg">
  <defs
     id="defs3811">
    <linearGradient
       inkscape:collect="always"
       xlink:href="#linearGradient4760"
       id="linearGradient4222"
       x1="409.57144"
       y1="542.79797"
       x2="409.57144"
       y2="507.798"
       gradientUnits="userSpaceOnUse"
       gradientTransform="matrix(1.2727273,0,0,1.6470589,243.47249,-674.43961)" />
    <linearGradient
       id="linearGradient4207"
       osb:paint="gradient">
      <stop
         style="stop-color:#3498db;stop-opacity:1;"
         offset="0"
         id="stop3371" />
      <stop
         style="stop-color:#3498db;stop-opacity:0;"
         offset="1"
         id="stop3373" />
    </linearGradient>
    <linearGradient
       id="linearGradient4760"
       inkscape:collect="always">
      <stop
         id="stop4762"
         offset="0"
         style="stop-color:#0f428d;stop-opacity:1" />
      <stop
         id="stop4764"
         offset="1"
         style="stop-color:#217ed6;stop-opacity:1" />
    </linearGradient>
  </defs>
  <sodipodi:namedview
     id="base"
     pagecolor="#ffffff"
     bordercolor="#666666"
     borderopacity="1.0"
     inkscape:pageopacity="0.0"
     inkscape:pageshadow="2"
     inkscape:zoom="2.8284271"
     inkscape:cx="-61.944476"
     inkscape:cy="44.737648"
     inkscape:document-units="px"
     inkscape:current-layer="g4173"
     showgrid="true"
     fit-margin-top="0"
     fit-margin-left="0"
     fit-margin-right="0"
     fit-margin-bottom="0"
     inkscape:snap-bbox="true"
     inkscape:window-width="1366"
     inkscape:window-height="634"
     inkscape:window-x="0"
     inkscape:window-y="36"
     inkscape:window-maximized="1"
     inkscape:showpageshadow="false"
     borderlayer="true"
     showguides="true">
    <inkscape:grid
       type="xygrid"
       id="grid3830"
       empspacing="5"
       visible="true"
       enabled="true"
       snapvisiblegridlinesonly="true"
       originx="21.000002"
       originy="20.999999" />
    <sodipodi:guide
       position="-2.265625e-06,9.9121092e-07"
       orientation="-64,0"
       id="guide4172" />
    <sodipodi:guide
       position="-2.265625e-06,64.000001"
       orientation="0,64"
       id="guide4174" />
    <sodipodi:guide
       position="63.999998,64.000001"
       orientation="64,0"
       id="guide4176" />
    <sodipodi:guide
       position="63.999998,9.9121092e-07"
       orientation="0,-64"
       id="guide4178" />
    <sodipodi:guide
       position="2.9999977,6.000001"
       orientation="0,58"
       id="guide4182" />
    <sodipodi:guide
       position="60.999998,58.000001"
       orientation="0,-58"
       id="guide4186" />
    <sodipodi:guide
       position="5.9999977,58.000001"
       orientation="52,0"
       id="guide4197" />
    <sodipodi:guide
       position="57.999998,6.000001"
       orientation="-52,0"
       id="guide4201" />
    <sodipodi:guide
       position="19.999998,20.000001"
       orientation="-24,0"
       id="guide4323" />
    <sodipodi:guide
       position="43.999998,44.000001"
       orientation="24,0"
       id="guide4327" />
    <sodipodi:guide
       position="43.999998,20.000001"
       orientation="0,-24"
       id="guide4329" />
    <sodipodi:guide
       position="19.999998,51.000001"
       orientation="24,0"
       id="guide4245" />
    <sodipodi:guide
       position="19.999998,27.000001"
       orientation="0,24"
       id="guide4247" />
    <sodipodi:guide
       position="43.999998,27.000001"
       orientation="-24,0"
       id="guide4249" />
    <sodipodi:guide
       position="-38.999998,20.999999"
       orientation="0,-24"
       id="guide4251" />
    <sodipodi:guide
       position="-14.75,-88.25"
       orientation="0,1"
       id="guide4167" />
    <sodipodi:guide
       position="-14.75,-88.25"
       orientation="0,1"
       id="guide4169" />
  </sodipodi:namedview>
  <metadata
     id="metadata3814">
    <rdf:RDF>
      <cc:Work
         rdf:about="">
        <dc:format>image/svg+xml</dc:format>
        <dc:type
           rdf:resource="http://purl.org/dc/dcmitype/StillImage" />
        <dc:title></dc:title>
      </cc:Work>
    </rdf:RDF>
  </metadata>
  <g
     inkscape:label="Layer 1"
     inkscape:groupmode="layer"
     id="layer1"
     transform="translate(-736.85718,-157.93361)">
    <g
       id="g4418"
       transform="matrix(0.92857143,0,0,0.92857143,54.918368,13.566686)">
      <g
         id="g4173"
         transform="translate(5.3846315,-7.468048e-7)">
        <rect
           ry="2.6352942"
           y="161.93361"
           x="735.47253"
           height="56"
           width="56"
           id="rect4195"
           style="opacity:1;fill:url(#linearGradient4222);fill-opacity:1.0;stroke:none;stroke-width:0.2;stroke-linecap:round;stroke-linejoin:round;stroke-miterlimit:4;stroke-dasharray:none;stroke-opacity:1" />
        <g
           style="font-style:normal;font-weight:normal;font-size:86.15384674px;line-height:125%;font-family:sans-serif;letter-spacing:0px;word-spacing:0px;fill:#ffffff;fill-opacity:0.84552848;stroke:none;stroke-width:1px;stroke-linecap:butt;stroke-linejoin:miter;stroke-opacity:1"
           id="text4164"
           transform="matrix(0.721884,0,0,0.721884,308.01798,46.790861)">
          <path
             d="m 612.14333,210.69669 c -0.0861,0.34462 0,0.51692 0.34462,0.51692 l 5.08307,0 -5.7723,15.42154 0.68923,0 12.75077,-18.86769 c 0.1723,-0.25846 0.0862,-0.51692 -0.25847,-0.51692 l -5.25538,0 5.94462,-11.11385 c 0.1723,-0.34461 0,-0.51692 -0.34462,-0.51692 l -7.06462,0 c -0.25846,0 -0.34461,0.0862 -0.51692,0.34461 l -2.58461,6.89231 c -3.36,-0.86154 -5.94462,-3.87692 -5.94462,-7.58154 0,-4.04923 3.10154,-7.32307 7.06462,-7.75384 l 1.2923,-0.0862 c 0.25847,0 0.43077,-0.17231 0.43077,-0.43077 l 0.17231,-1.2923 c 0.51692,-5.16924 4.91077,-9.13231 10.16615,-9.13231 5.16924,0 9.56308,3.96307 10.16616,9.13231 l 0.17231,1.37846 c 0,0.25846 0.1723,0.43077 0.43077,0.43077 l 3.87692,0 c 4.30769,0 7.84,3.5323 7.84,7.75384 0,4.13539 -3.27385,7.58154 -7.40923,7.84 -0.25846,0 -0.43077,0.17231 -0.43077,0.43077 l 0,3.18769 c 0,0.25847 0.17231,0.43077 0.43077,0.43077 6.37538,-0.25846 11.45846,-5.51384 11.45846,-11.88923 0,-1.72307 -0.34462,-3.36 -1.03385,-4.82461 1.80923,-2.15385 2.84308,-4.99693 2.84308,-7.92616 0,-6.8923 -5.68615,-12.57846 -12.57846,-12.57846 -3.61846,0 -6.97846,1.55077 -9.30462,4.13539 -1.98154,-1.03385 -4.13538,-1.55077 -6.46154,-1.55077 -6.80615,0 -12.57846,4.73846 -14.04307,11.2 -5.25539,1.20615 -9.13231,5.94461 -9.13231,11.54461 0,5.42769 3.61846,9.99385 8.52923,11.37231 l -1.55077,4.04923 z m 30.06769,-27.22461 c -0.68923,-2.75693 -2.06769,-5.16924 -4.04923,-7.06462 1.55077,-1.46462 3.70462,-2.32615 5.94462,-2.32615 4.65231,0 8.44308,3.79077 8.44308,8.44307 0,1.55077 -0.43077,3.10154 -1.20616,4.39385 -2.15384,-2.15385 -5.08308,-3.44615 -8.35692,-3.44615 l -0.77539,0 z m -18.78153,38.16615 c -0.34462,1.12 0.34461,2.24 1.37846,2.49846 1.03384,0.25846 2.15384,-0.17231 2.49846,-1.37846 l 6.72,-24.64 c 0.34461,-1.12 -0.34462,-2.24 -1.37846,-2.49846 -1.12,-0.34462 -2.24,0.34461 -2.49846,1.37846 l -6.72,24.64 z m 9.99384,-7.23692 c -0.34461,1.03384 0.25846,2.15384 1.37846,2.49846 0.86154,0.25846 2.0677,0.0862 2.49846,-1.46462 l 4.73847,-17.31692 c 0.34461,-1.12 -0.34462,-2.24 -1.37847,-2.49846 -1.12,-0.34462 -2.24,0.34461 -2.49846,1.37846 l -4.73846,17.40308 z"
             style="font-style:normal;font-variant:normal;font-weight:normal;font-stretch:normal;font-family:'artill clean weather icons';-inkscape-font-specification:'artill clean weather icons';fill:#ffffff;fill-opacity:0.84552848"
             id="path4169"
             inkscape:connector-curvature="0" />
        </g>
      </g>
    </g>
  </g>
</svg>
