<?xml version="1.0" encoding="UTF-8" standalone="no"?>
<!-- Created with Inkscape (http://www.inkscape.org/) -->

<svg
   xmlns:osb="http://www.openswatchbook.org/uri/2009/osb"
   xmlns:dc="http://purl.org/dc/elements/1.1/"
   xmlns:cc="http://creativecommons.org/ns#"
   xmlns:rdf="http://www.w3.org/1999/02/22-rdf-syntax-ns#"
   xmlns:svg="http://www.w3.org/2000/svg"
   xmlns="http://www.w3.org/2000/svg"
   xmlns:xlink="http://www.w3.org/1999/xlink"
   xmlns:sodipodi="http://sodipodi.sourceforge.net/DTD/sodipodi-0.dtd"
   xmlns:inkscape="http://www.inkscape.org/namespaces/inkscape"
   width="64"
   height="64"
   id="svg3809"
   version="1.1"
   inkscape:version="0.91 r13725"
   sodipodi:docname="weather-snow-scattered-day.svg">
  <defs
     id="defs3811">
    <linearGradient
       inkscape:collect="always"
       xlink:href="#linearGradient4180"
       id="linearGradient4222"
       x1="409.57144"
       y1="542.79797"
       x2="409.57144"
       y2="507.798"
       gradientUnits="userSpaceOnUse"
       gradientTransform="matrix(1.2727273,0,0,1.6470589,243.47249,-674.43961)" />
    <linearGradient
       id="linearGradient4207"
       osb:paint="gradient">
      <stop
         style="stop-color:#3498db;stop-opacity:1;"
         offset="0"
         id="stop3371" />
      <stop
         style="stop-color:#3498db;stop-opacity:0;"
         offset="1"
         id="stop3373" />
    </linearGradient>
    <linearGradient
       inkscape:collect="always"
       id="linearGradient4180">
      <stop
         style="stop-color:#abbfc8;stop-opacity:1"
         offset="0"
         id="stop4182" />
      <stop
         style="stop-color:#e0eff5;stop-opacity:1"
         offset="1"
         id="stop4184" />
    </linearGradient>
  </defs>
  <sodipodi:namedview
     id="base"
     pagecolor="#ffffff"
     bordercolor="#666666"
     borderopacity="1.0"
     inkscape:pageopacity="0.0"
     inkscape:pageshadow="2"
     inkscape:zoom="4"
     inkscape:cx="-32.913574"
     inkscape:cy="34.006291"
     inkscape:document-units="px"
     inkscape:current-layer="g4173"
     showgrid="true"
     fit-margin-top="0"
     fit-margin-left="0"
     fit-margin-right="0"
     fit-margin-bottom="0"
     inkscape:snap-bbox="true"
     inkscape:window-width="1366"
     inkscape:window-height="634"
     inkscape:window-x="0"
     inkscape:window-y="36"
     inkscape:window-maximized="1"
     inkscape:showpageshadow="false"
     borderlayer="true"
     showguides="true">
    <inkscape:grid
       type="xygrid"
       id="grid3830"
       empspacing="5"
       visible="true"
       enabled="true"
       snapvisiblegridlinesonly="true"
       originx="21.000002"
       originy="20.999999" />
    <sodipodi:guide
       position="-2.265625e-06,9.9121092e-07"
       orientation="-64,0"
       id="guide4172" />
    <sodipodi:guide
       position="-2.265625e-06,64.000001"
       orientation="0,64"
       id="guide4174" />
    <sodipodi:guide
       position="63.999998,64.000001"
       orientation="64,0"
       id="guide4176" />
    <sodipodi:guide
       position="63.999998,9.9121092e-07"
       orientation="0,-64"
       id="guide4178" />
    <sodipodi:guide
       position="2.9999977,6.000001"
       orientation="0,58"
       id="guide4182" />
    <sodipodi:guide
       position="60.999998,58.000001"
       orientation="0,-58"
       id="guide4186" />
    <sodipodi:guide
       position="5.9999977,58.000001"
       orientation="52,0"
       id="guide4197" />
    <sodipodi:guide
       position="57.999998,6.000001"
       orientation="-52,0"
       id="guide4201" />
    <sodipodi:guide
       position="19.999998,20.000001"
       orientation="-24,0"
       id="guide4323" />
    <sodipodi:guide
       position="43.999998,44.000001"
       orientation="24,0"
       id="guide4327" />
    <sodipodi:guide
       position="43.999998,20.000001"
       orientation="0,-24"
       id="guide4329" />
    <sodipodi:guide
       position="19.999998,51.000001"
       orientation="24,0"
       id="guide4245" />
    <sodipodi:guide
       position="19.999998,27.000001"
       orientation="0,24"
       id="guide4247" />
    <sodipodi:guide
       position="43.999998,27.000001"
       orientation="-24,0"
       id="guide4249" />
    <sodipodi:guide
       position="-38.999998,20.999999"
       orientation="0,-24"
       id="guide4251" />
    <sodipodi:guide
       position="-14.75,-88.25"
       orientation="0,1"
       id="guide4167" />
    <sodipodi:guide
       position="-14.75,-88.25"
       orientation="0,1"
       id="guide4169" />
  </sodipodi:namedview>
  <metadata
     id="metadata3814">
    <rdf:RDF>
      <cc:Work
         rdf:about="">
        <dc:format>image/svg+xml</dc:format>
        <dc:type
           rdf:resource="http://purl.org/dc/dcmitype/StillImage" />
        <dc:title />
      </cc:Work>
    </rdf:RDF>
  </metadata>
  <g
     inkscape:label="Layer 1"
     inkscape:groupmode="layer"
     id="layer1"
     transform="translate(-736.85718,-157.93361)">
    <g
       id="g4418"
       transform="matrix(0.92857143,0,0,0.92857143,54.918368,13.566686)">
      <g
         id="g4173"
         transform="translate(5.3846315,-7.468048e-7)">
        <rect
           ry="2.6352942"
           y="161.93361"
           x="735.47253"
           height="56"
           width="56"
           id="rect4195"
           style="opacity:1;fill:url(#linearGradient4222);fill-opacity:1.0;stroke:none;stroke-width:0.2;stroke-linecap:round;stroke-linejoin:round;stroke-miterlimit:4;stroke-dasharray:none;stroke-opacity:1" />
        <g
           style="font-style:normal;font-weight:normal;font-size:86.15384674px;line-height:125%;font-family:sans-serif;letter-spacing:0px;word-spacing:0px;fill:#000000;fill-opacity:0.64634148;stroke:none;stroke-width:1px;stroke-linecap:butt;stroke-linejoin:miter;stroke-opacity:1"
           id="text4163"
           transform="matrix(0.67659001,0,0,0.67659001,313.94913,58.628468)">
          <path
             d="m 673.01098,164.30284 c 0,-1.12 -0.86154,-2.06769 -1.98154,-2.06769 -1.12,0 -2.06769,0.94769 -2.06769,2.06769 l 0,4.91077 c 0,1.12 0.94769,1.98154 2.06769,1.98154 1.12,0 1.98154,-0.86154 1.98154,-1.98154 l 0,-4.91077 z m 16.11077,8.35692 c 0.86154,-0.86153 0.86154,-2.06769 0,-2.92923 -0.77538,-0.77538 -2.06769,-0.77538 -2.84308,0 l -3.44615,3.53231 c -0.86154,0.77539 -0.86154,2.06769 0,2.84308 0.51692,0.60308 2.06769,1.03384 2.84308,0 l 3.44615,-3.44616 z m -34.72,1.55077 c 0.60308,0.60308 1.89539,1.03385 2.92923,0 0.77539,-0.77538 0.77539,-2.06769 0,-2.92923 l -1.55077,-1.46461 c -0.77538,-0.86154 -2.06769,-0.86154 -2.92923,0 -0.77538,0.77538 -0.77538,2.06769 0,2.84307 l 1.55077,1.55077 z m -10.42461,34.72 c 0,-0.25846 -0.17231,-0.43076 -0.43077,-0.43076 -4.13539,-0.25847 -7.40923,-3.70462 -7.40923,-7.75385 0,-4.04923 3.10153,-7.32308 7.06461,-7.75385 l 1.29231,-0.1723 c 0.34461,0 0.43077,-0.0862 0.43077,-0.43077 l 0.17231,-1.20616 c 0.51692,-5.25538 4.91076,-9.21846 10.16615,-9.21846 5.16923,0 9.64923,3.96308 10.16615,9.13231 l 0.17231,1.37846 c 0,0.25846 0.17231,0.43077 0.43077,0.43077 l 3.87692,0 c 4.3077,0 7.84,3.53231 7.84,7.84 0,4.04923 -3.27384,7.49538 -7.40923,7.75385 -0.25846,0 -0.43077,0.1723 -0.43077,0.43076 l 0,3.1877 c 0,0.25846 0.17231,0.43077 0.43077,0.43077 6.37539,-0.25847 11.45846,-5.51385 11.45846,-11.80308 0,-1.80923 -0.34461,-3.44615 -1.03384,-4.91077 1.80923,-2.24 2.84308,-4.99692 2.84308,-7.92615 0,-6.89231 -5.68616,-12.57847 -12.57847,-12.57847 -3.61846,0 -6.97846,1.55077 -9.30461,4.13539 -1.98154,-1.03385 -4.13539,-1.55077 -6.46154,-1.55077 -6.80615,0 -12.57846,4.73846 -14.04308,11.2 -5.25538,1.29231 -9.13231,5.94462 -9.13231,11.63077 0,6.28923 5.08308,11.54461 11.45847,11.80308 0.25846,0 0.43077,-0.17231 0.43077,-0.43077 l 0,-3.1877 z m 25.15692,-20.07384 c -0.68923,-2.75692 -2.06769,-5.16923 -4.04923,-7.06462 1.55077,-1.46461 3.70461,-2.41231 5.94461,-2.41231 4.65231,0 8.44308,3.87693 8.44308,8.52924 0,1.55077 -0.43077,3.10153 -1.20615,4.39384 -2.15385,-2.15384 -5.08308,-3.44615 -8.35693,-3.44615 l -0.77538,0 z m 20.59077,-3.01539 c -1.12,0 -2.06769,0.9477 -2.06769,2.0677 0,1.12 0.94769,2.06769 2.06769,2.06769 l 4.91077,0 c 1.12,0 2.06769,-0.94769 2.06769,-2.06769 0,-1.12 -0.94769,-2.0677 -2.06769,-2.0677 l -4.91077,0 z m -2.06769,15.76616 c -0.86154,-0.77539 -2.15385,-0.77539 -2.92923,0 -0.77539,0.86154 -0.77539,2.15384 0,2.92923 l 1.55076,1.55077 c 0.9477,0.77538 1.98154,0.86154 2.84308,0 0.86154,-0.86154 0.86154,-2.15385 0,-2.92923 l -1.46461,-1.55077 z m -30.67077,2.84307 c -1.03385,0 -1.98154,0.86154 -1.98154,1.98154 0,1.12 0.94769,1.98154 1.98154,1.98154 1.12,0 2.06769,-0.86154 2.06769,-1.98154 0,-1.12 -0.94769,-1.98154 -2.06769,-1.98154 z m -7.6677,4.04924 c -1.12,0 -1.98153,0.94769 -1.98153,1.98153 0,1.12 0.86153,2.0677 1.98153,2.0677 1.12,0 1.98154,-0.9477 1.98154,-2.0677 0,-1.03384 -0.86154,-1.98153 -1.98154,-1.98153 z m 15.42154,0 c -1.12,0 -1.98154,0.94769 -1.98154,1.98153 0,1.12 0.86154,2.0677 1.98154,2.0677 1.12,0 1.98154,-0.9477 1.98154,-2.0677 0,-1.03384 -0.86154,-1.98153 -1.98154,-1.98153 z m -7.75384,4.56615 c -1.03385,0 -1.98154,0.94769 -1.98154,2.06769 0,1.12 0.94769,1.98154 1.98154,1.98154 1.12,0 2.06769,-0.86154 2.06769,-1.98154 0,-1.12 -0.94769,-2.06769 -2.06769,-2.06769 z m -7.6677,4.13538 c -1.12,0 -1.98153,0.86154 -1.98153,1.98154 0,1.12 0.86153,1.98154 1.98153,1.98154 1.12,0 1.98154,-0.86154 1.98154,-1.98154 0,-1.12 -0.86154,-1.98154 -1.98154,-1.98154 z m 15.42154,0 c -1.12,0 -1.98154,0.86154 -1.98154,1.98154 0,1.12 0.86154,1.98154 1.98154,1.98154 1.12,0 1.98154,-0.86154 1.98154,-1.98154 0,-1.12 -0.86154,-1.98154 -1.98154,-1.98154 z m -7.75384,4.65231 c -1.03385,0 -1.98154,0.94769 -1.98154,2.06769 0,1.12 0.94769,1.98154 1.98154,1.98154 1.12,0 2.06769,-0.86154 2.06769,-1.98154 0,-1.12 -0.94769,-2.06769 -2.06769,-2.06769 z"
             style="font-style:normal;font-variant:normal;font-weight:normal;font-stretch:normal;font-family:'artill clean weather icons';-inkscape-font-specification:'artill clean weather icons';fill:#000000;fill-opacity:0.64634148"
             id="path4168"
             inkscape:connector-curvature="0" />
        </g>
      </g>
    </g>
  </g>
</svg>
