<?xml version="1.0" encoding="UTF-8" standalone="no"?>
<!-- Created with Inkscape (http://www.inkscape.org/) -->

<svg
   xmlns:osb="http://www.openswatchbook.org/uri/2009/osb"
   xmlns:dc="http://purl.org/dc/elements/1.1/"
   xmlns:cc="http://creativecommons.org/ns#"
   xmlns:rdf="http://www.w3.org/1999/02/22-rdf-syntax-ns#"
   xmlns:svg="http://www.w3.org/2000/svg"
   xmlns="http://www.w3.org/2000/svg"
   xmlns:xlink="http://www.w3.org/1999/xlink"
   xmlns:sodipodi="http://sodipodi.sourceforge.net/DTD/sodipodi-0.dtd"
   xmlns:inkscape="http://www.inkscape.org/namespaces/inkscape"
   width="64"
   height="64"
   id="svg3809"
   version="1.1"
   inkscape:version="0.91 r13725"
   sodipodi:docname="weather-showers-night.svg">
  <defs
     id="defs3811">
    <linearGradient
       inkscape:collect="always"
       xlink:href="#linearGradient4408"
       id="linearGradient4222"
       x1="409.57144"
       y1="542.79797"
       x2="409.57144"
       y2="507.798"
       gradientUnits="userSpaceOnUse"
       gradientTransform="matrix(1.2727273,0,0,1.6470589,243.47249,-674.43961)" />
    <linearGradient
       id="linearGradient4207"
       osb:paint="gradient">
      <stop
         style="stop-color:#3498db;stop-opacity:1;"
         offset="0"
         id="stop3371" />
      <stop
         style="stop-color:#3498db;stop-opacity:0;"
         offset="1"
         id="stop3373" />
    </linearGradient>
    <linearGradient
       inkscape:collect="always"
       id="linearGradient4408">
      <stop
         style="stop-color:#183b69;stop-opacity:1"
         offset="0"
         id="stop4410" />
      <stop
         style="stop-color:#245aa1;stop-opacity:1"
         offset="1"
         id="stop4412" />
    </linearGradient>
  </defs>
  <sodipodi:namedview
     id="base"
     pagecolor="#ffffff"
     bordercolor="#666666"
     borderopacity="1.0"
     inkscape:pageopacity="0.0"
     inkscape:pageshadow="2"
     inkscape:zoom="5.6568542"
     inkscape:cx="55.988218"
     inkscape:cy="29.291034"
     inkscape:document-units="px"
     inkscape:current-layer="g4173"
     showgrid="true"
     fit-margin-top="0"
     fit-margin-left="0"
     fit-margin-right="0"
     fit-margin-bottom="0"
     inkscape:snap-bbox="true"
     inkscape:window-width="1366"
     inkscape:window-height="634"
     inkscape:window-x="0"
     inkscape:window-y="36"
     inkscape:window-maximized="1"
     inkscape:showpageshadow="false"
     borderlayer="true"
     showguides="true">
    <inkscape:grid
       type="xygrid"
       id="grid3830"
       empspacing="5"
       visible="true"
       enabled="true"
       snapvisiblegridlinesonly="true"
       originx="21.000002"
       originy="20.999999" />
    <sodipodi:guide
       position="-2.265625e-06,9.9121092e-07"
       orientation="-64,0"
       id="guide4172" />
    <sodipodi:guide
       position="-2.265625e-06,64.000001"
       orientation="0,64"
       id="guide4174" />
    <sodipodi:guide
       position="63.999998,64.000001"
       orientation="64,0"
       id="guide4176" />
    <sodipodi:guide
       position="63.999998,9.9121092e-07"
       orientation="0,-64"
       id="guide4178" />
    <sodipodi:guide
       position="2.9999977,6.000001"
       orientation="0,58"
       id="guide4182" />
    <sodipodi:guide
       position="60.999998,58.000001"
       orientation="0,-58"
       id="guide4186" />
    <sodipodi:guide
       position="5.9999977,58.000001"
       orientation="52,0"
       id="guide4197" />
    <sodipodi:guide
       position="57.999998,6.000001"
       orientation="-52,0"
       id="guide4201" />
    <sodipodi:guide
       position="19.999998,20.000001"
       orientation="-24,0"
       id="guide4323" />
    <sodipodi:guide
       position="43.999998,44.000001"
       orientation="24,0"
       id="guide4327" />
    <sodipodi:guide
       position="43.999998,20.000001"
       orientation="0,-24"
       id="guide4329" />
    <sodipodi:guide
       position="19.999998,51.000001"
       orientation="24,0"
       id="guide4245" />
    <sodipodi:guide
       position="19.999998,27.000001"
       orientation="0,24"
       id="guide4247" />
    <sodipodi:guide
       position="43.999998,27.000001"
       orientation="-24,0"
       id="guide4249" />
    <sodipodi:guide
       position="-38.999998,20.999999"
       orientation="0,-24"
       id="guide4251" />
  </sodipodi:namedview>
  <metadata
     id="metadata3814">
    <rdf:RDF>
      <cc:Work
         rdf:about="">
        <dc:format>image/svg+xml</dc:format>
        <dc:type
           rdf:resource="http://purl.org/dc/dcmitype/StillImage" />
        <dc:title></dc:title>
      </cc:Work>
    </rdf:RDF>
  </metadata>
  <g
     inkscape:label="Layer 1"
     inkscape:groupmode="layer"
     id="layer1"
     transform="translate(-736.85718,-157.93361)">
    <g
       id="g4418"
       transform="matrix(0.92857143,0,0,0.92857143,54.918368,13.566686)">
      <g
         id="g4173"
         transform="translate(5.3846315,-7.468048e-7)">
        <rect
           ry="2.6352942"
           y="161.93361"
           x="735.47253"
           height="56"
           width="56"
           id="rect4195"
           style="opacity:1;fill:url(#linearGradient4222);fill-opacity:1.0;stroke:none;stroke-width:0.2;stroke-linecap:round;stroke-linejoin:round;stroke-miterlimit:4;stroke-dasharray:none;stroke-opacity:1" />
        <g
           style="font-style:normal;font-weight:normal;font-size:70.57546997px;line-height:125%;font-family:sans-serif;letter-spacing:0px;word-spacing:0px;fill:#000000;fill-opacity:1;stroke:none;stroke-width:1px;stroke-linecap:butt;stroke-linejoin:miter;stroke-opacity:1"
           id="text4267" />
        <g
           style="font-style:normal;font-weight:normal;font-size:69.32881927px;line-height:125%;font-family:sans-serif;letter-spacing:0px;word-spacing:0px;fill:#000000;fill-opacity:1;stroke:none;stroke-width:1px;stroke-linecap:butt;stroke-linejoin:miter;stroke-opacity:1"
           id="text4274"
           transform="translate(0,0.75379855)">
          <g
             style="font-style:normal;font-weight:normal;font-size:86.15384674px;line-height:125%;font-family:sans-serif;letter-spacing:0px;word-spacing:0px;fill:#dee4eb;fill-opacity:1;stroke:none;stroke-width:1px;stroke-linecap:butt;stroke-linejoin:miter;stroke-opacity:1"
             id="text4163"
             transform="matrix(0.79190196,0,0,0.79190196,259.17432,56.479699)">
            <path
               d="m 660.94945,159.00438 c -4.30769,-1.20616 -6.97846,-5.6 -5.94461,-9.99385 l 0.34461,-1.46461 c 0.0862,-0.25847 -0.0862,-0.43077 -0.34461,-0.51693 l -1.89539,-0.60307 c -5.42769,-1.29231 -11.02769,1.12 -13.78461,5.68615 -1.72308,-0.68923 -3.61846,-1.12 -5.6,-1.12 -6.80616,0 -12.57846,4.73846 -14.04308,11.2 -5.25538,1.20615 -9.13231,5.94461 -9.13231,11.54461 0,6.37539 5.08308,11.63077 11.45846,11.88924 0.25847,0 0.43077,-0.17231 0.43077,-0.43077 l 0,-3.1877 c 0,-0.25846 -0.1723,-0.43077 -0.43077,-0.43077 -4.13538,-0.25846 -7.40923,-3.70461 -7.40923,-7.84 0,-4.04923 3.10154,-7.32307 7.06462,-7.75384 l 1.29231,-0.0862 c 0.25846,0 0.43077,-0.1723 0.43077,-0.43076 l 0.1723,-1.29231 c 0.51693,-5.16923 4.91077,-9.13231 10.16616,-9.13231 5.16923,0 9.56307,3.96308 10.16615,9.13231 l 0.17231,1.37846 c 0,0.25846 0.17231,0.43077 0.43077,0.43077 l 3.87692,0 c 4.30769,0 7.84,3.53231 7.84,7.75384 0,4.13539 -3.27384,7.58154 -7.40923,7.84 -0.25846,0 -0.43077,0.17231 -0.43077,0.43077 l 0,3.1877 c 0,0.25846 0.17231,0.43077 0.43077,0.43077 6.37539,-0.25847 11.45846,-5.51385 11.45846,-11.88924 0,-2.15384 -0.60307,-4.13538 -1.63692,-5.85846 1.80923,-1.72307 3.10154,-3.87692 3.70461,-6.20307 l 0.34462,-1.72308 c 0.0861,-0.25846 -0.0862,-0.43077 -0.34462,-0.51692 l -1.37846,-0.43077 z m -13.35384,2.92923 c -0.77539,-3.10154 -2.41231,-5.77231 -4.82462,-7.66769 1.72308,-2.75693 4.73846,-4.3077 7.92616,-4.04924 -0.25847,4.99693 2.58461,9.73539 7.15076,11.97539 -0.43076,0.94769 -1.03384,1.80923 -1.80923,2.49846 -2.06769,-1.72308 -4.73846,-2.75692 -7.66769,-2.75692 l -0.77538,0 z m -7.58154,7.49538 c 0,-1.55077 -2.24,-3.87692 -2.24,-3.87692 0,0 -2.32616,2.32615 -2.32616,3.87692 0,1.20616 1.03385,2.24 2.32616,2.24 1.20615,0 2.24,-1.03384 2.24,-2.24 z m -11.80308,0.60308 c 0,0 -3.44615,3.44615 -3.44615,5.77231 0,1.89538 1.55077,3.36 3.44615,3.36 1.89539,0 3.36,-1.46462 3.36,-3.36 0,-2.32616 -3.36,-5.77231 -3.36,-5.77231 z m 9.30462,6.46154 c 0,0 -5.6,5.08307 -5.6,8.87384 0,3.10154 2.49846,5.6 5.6,5.6 3.10154,0 5.6,-2.49846 5.6,-5.6 0,-3.79077 -5.6,-8.87384 -5.6,-8.87384 z"
               style="font-style:normal;font-variant:normal;font-weight:normal;font-stretch:normal;font-family:'artill clean weather icons';-inkscape-font-specification:'artill clean weather icons';fill:#dee4eb;fill-opacity:1"
               id="path4168"
               inkscape:connector-curvature="0" />
          </g>
        </g>
      </g>
    </g>
  </g>
</svg>
