<?xml version="1.0" encoding="UTF-8" standalone="no"?>
<!-- Created with Inkscape (http://www.inkscape.org/) -->

<svg
   xmlns:dc="http://purl.org/dc/elements/1.1/"
   xmlns:cc="http://creativecommons.org/ns#"
   xmlns:rdf="http://www.w3.org/1999/02/22-rdf-syntax-ns#"
   xmlns:svg="http://www.w3.org/2000/svg"
   xmlns="http://www.w3.org/2000/svg"
   xmlns:sodipodi="http://sodipodi.sourceforge.net/DTD/sodipodi-0.dtd"
   xmlns:inkscape="http://www.inkscape.org/namespaces/inkscape"
   width="32"
   height="32"
   id="svg5453"
   version="1.1"
   inkscape:version="0.91 r13725"
   sodipodi:docname="folder-chakra.svg">
  <defs
     id="defs5455" />
  <sodipodi:namedview
     id="base"
     pagecolor="#ffffff"
     bordercolor="#666666"
     borderopacity="1.0"
     inkscape:pageopacity="0"
     inkscape:pageshadow="2"
     inkscape:zoom="10.606602"
     inkscape:cx="33.264426"
     inkscape:cy="17.69994"
     inkscape:document-units="px"
     inkscape:current-layer="layer1"
     showgrid="true"
     fit-margin-top="0"
     fit-margin-left="0"
     fit-margin-right="0"
     fit-margin-bottom="0"
     inkscape:window-width="1366"
     inkscape:window-height="629"
     inkscape:window-x="0"
     inkscape:window-y="37"
     inkscape:window-maximized="1"
     inkscape:showpageshadow="false"
     borderlayer="true"
     showguides="true"
     inkscape:guide-bbox="true"
     inkscape:object-nodes="true"
     inkscape:snap-bbox="true">
    <inkscape:grid
       type="xygrid"
       id="grid4063" />
    <sodipodi:guide
       position="2.0000117,30.000026"
       orientation="28,0"
       id="guide4167" />
    <sodipodi:guide
       position="17,5"
       orientation="0,28"
       id="guide4169" />
    <sodipodi:guide
       position="30.000012,2.0000264"
       orientation="-28,0"
       id="guide4171" />
    <sodipodi:guide
       position="30.000012,30.000026"
       orientation="0,-28"
       id="guide4173" />
    <sodipodi:guide
       position="2.0000117,30.000026"
       orientation="28,0"
       id="guide4181" />
    <sodipodi:guide
       position="16.000012,30.000026"
       orientation="0,-14"
       id="guide4187" />
    <sodipodi:guide
       position="5.0000117,30.000026"
       orientation="28,0"
       id="guide4143" />
    <sodipodi:guide
       position="5.0000117,2.0000264"
       orientation="0,22"
       id="guide4145" />
    <sodipodi:guide
       position="27.000012,2.0000264"
       orientation="-28,0"
       id="guide4147" />
    <sodipodi:guide
       position="27.000012,30.000026"
       orientation="0,-22"
       id="guide4149" />
    <sodipodi:guide
       position="27,30"
       orientation="0,-7"
       id="guide4155" />
    <sodipodi:guide
       position="27.00001,23"
       orientation="-7,-1e-05"
       id="guide4162" />
    <sodipodi:guide
       position="24,27"
       orientation="0,1"
       id="guide3378" />
  </sodipodi:namedview>
  <metadata
     id="metadata5458">
    <rdf:RDF>
      <cc:Work
         rdf:about="">
        <dc:format>image/svg+xml</dc:format>
        <dc:type
           rdf:resource="http://purl.org/dc/dcmitype/StillImage" />
        <dc:title></dc:title>
      </cc:Work>
    </rdf:RDF>
  </metadata>
  <g
     inkscape:label="Capa 1"
     inkscape:groupmode="layer"
     id="layer1"
     transform="translate(-384.57143,-515.798)">
    <g
       id="g4187"
       transform="matrix(0.7863692,0,0,0.78394543,93.325829,112.35451)">
      <g
         transform="matrix(0.10752924,0,0,0.10752924,446.17455,491.51412)"
         id="g4956"
         style="stroke:#60aae5;stroke-opacity:1;stroke-width:4.73780576;stroke-miterlimit:4;stroke-dasharray:none">
        <g
           style="fill:#bddef8;fill-opacity:1;stroke:#60aae5;stroke-width:1.81468021;stroke-miterlimit:4;stroke-dasharray:none;stroke-opacity:1"
           transform="matrix(2.6108213,0,0,2.6108213,-768.22476,390.2786)"
           id="layer1-7-5-6">
          <path
             sodipodi:nodetypes="scccssccccs"
             d="m 43.886832,-36.6986 c -1.108,0 -1.999909,0.892 -1.999909,2 l 0,81.609112 110.999917,0.239943 0,-70.041215 c 0,-1.108 -0.892,-2.000005 -2,-2.000005 l -60.173559,0 c -2.038523,0.180281 -2.301118,-0.09046 -3.308458,-1.435069 -1.428506,-1.911776 -3.585547,-7.064534 -4.99187,-8.929393 -1.128792,-1.632735 -1.311871,-1.443378 -3.183935,-1.443378 z"
             inkscape:connector-curvature="0"
             id="rect8678-4-5-5-1"
             style="color:#000000;display:inline;overflow:visible;visibility:visible;fill:#b3d4f7;fill-opacity:1;fill-rule:nonzero;stroke:#6a98ca;stroke-width:1.81468021;stroke-miterlimit:4;stroke-dasharray:none;stroke-opacity:1;marker:none;enable-background:accumulate" />
        </g>
      </g>
    </g>
    <path
       style="fill:#6a98ca;fill-opacity:1;fill-rule:evenodd;stroke:none"
       inkscape:connector-curvature="0"
       d="m 400.85228,527.20119 c -1.33716,0.0434 3.56209,6.80252 -0.21121,6.37082 3.14656,0.87181 3.8672,-3.18931 3.22457,-5.17621 -0.63634,-1.96786 -0.96725,-0.73992 -2.86395,-1.17703 -0.0567,-0.013 -0.10651,-0.019 -0.14941,-0.0175 z m -3.74928,0.94219 c -2.06822,-0.003 -1.00256,0.69168 -2.00447,2.36082 -0.95683,1.59391 7.55828,-1.2609 5.931,2.30551 1.80129,-2.72281 -1.83849,-4.66351 -3.92659,-4.66621 z m 1.45507,3.05131 c -1.65488,-0.004 -3.32027,1.8765 -3.78589,3.30301 -0.6418,1.96621 0.34768,1.1676 1.62548,2.63611 1.22016,1.4028 1.13706,-7.57863 4.0262,-4.92872 -0.57183,-0.7185 -1.21806,-1.0086 -1.86579,-1.0104 z m 7.11306,0.31935 c -1.1172,0.10691 -5.19267,5.28722 -5.8749,1.9254 0.14332,3.26162 4.22931,2.69225 5.9199,1.46719 1.67495,-1.21353 0.40433,-1.14928 0.2338,-3.08851 -0.0204,-0.23151 -0.11932,-0.31938 -0.27892,-0.30411 z m -6.0096,1.07988 c -3.05776,1.14423 -1.25338,4.85432 0.43421,6.08372 1.67168,1.21798 1.21794,0.0295 3.00944,-0.73185 1.71105,-0.72717 -6.85653,-3.42301 -3.44387,-5.35202 z"
       id="path7811" />
  </g>
</svg>
