<?xml version="1.0" encoding="UTF-8" standalone="no"?>
<!-- Created with Inkscape (http://www.inkscape.org/) -->

<svg
   xmlns:dc="http://purl.org/dc/elements/1.1/"
   xmlns:cc="http://creativecommons.org/ns#"
   xmlns:rdf="http://www.w3.org/1999/02/22-rdf-syntax-ns#"
   xmlns:svg="http://www.w3.org/2000/svg"
   xmlns="http://www.w3.org/2000/svg"
   xmlns:sodipodi="http://sodipodi.sourceforge.net/DTD/sodipodi-0.dtd"
   xmlns:inkscape="http://www.inkscape.org/namespaces/inkscape"
   width="32"
   height="32"
   id="svg5453"
   version="1.1"
   inkscape:version="0.91 r13725"
   sodipodi:docname="folder-mail.svg">
  <defs
     id="defs5455" />
  <sodipodi:namedview
     id="base"
     pagecolor="#ffffff"
     bordercolor="#666666"
     borderopacity="1.0"
     inkscape:pageopacity="0"
     inkscape:pageshadow="2"
     inkscape:zoom="16"
     inkscape:cx="6.0749098"
     inkscape:cy="19.664245"
     inkscape:document-units="px"
     inkscape:current-layer="layer1"
     showgrid="true"
     fit-margin-top="0"
     fit-margin-left="0"
     fit-margin-right="0"
     fit-margin-bottom="0"
     inkscape:window-width="1366"
     inkscape:window-height="629"
     inkscape:window-x="0"
     inkscape:window-y="37"
     inkscape:window-maximized="1"
     inkscape:showpageshadow="false"
     borderlayer="true"
     showguides="true"
     inkscape:guide-bbox="true"
     inkscape:object-nodes="true"
     inkscape:snap-bbox="true">
    <inkscape:grid
       type="xygrid"
       id="grid4063" />
    <sodipodi:guide
       position="2.0000117,30.000026"
       orientation="28,0"
       id="guide4167" />
    <sodipodi:guide
       position="17,5"
       orientation="0,28"
       id="guide4169" />
    <sodipodi:guide
       position="30.000012,2.0000264"
       orientation="-28,0"
       id="guide4171" />
    <sodipodi:guide
       position="30.000012,30.000026"
       orientation="0,-28"
       id="guide4173" />
    <sodipodi:guide
       position="2.0000117,30.000026"
       orientation="28,0"
       id="guide4181" />
    <sodipodi:guide
       position="16.000012,30.000026"
       orientation="0,-14"
       id="guide4187" />
    <sodipodi:guide
       position="5.0000117,30.000026"
       orientation="28,0"
       id="guide4143" />
    <sodipodi:guide
       position="5.0000117,2.0000264"
       orientation="0,22"
       id="guide4145" />
    <sodipodi:guide
       position="27.000012,2.0000264"
       orientation="-28,0"
       id="guide4147" />
    <sodipodi:guide
       position="27.000012,30.000026"
       orientation="0,-22"
       id="guide4149" />
    <sodipodi:guide
       position="27,30"
       orientation="0,-7"
       id="guide4155" />
    <sodipodi:guide
       position="27.00001,23"
       orientation="-7,-1e-05"
       id="guide4162" />
    <sodipodi:guide
       position="24,27"
       orientation="0,1"
       id="guide3378" />
  </sodipodi:namedview>
  <metadata
     id="metadata5458">
    <rdf:RDF>
      <cc:Work
         rdf:about="">
        <dc:format>image/svg+xml</dc:format>
        <dc:type
           rdf:resource="http://purl.org/dc/dcmitype/StillImage" />
        <dc:title />
      </cc:Work>
    </rdf:RDF>
  </metadata>
  <g
     inkscape:label="Capa 1"
     inkscape:groupmode="layer"
     id="layer1"
     transform="translate(-384.57143,-515.798)">
    <g
       id="g4187"
       transform="matrix(0.7863692,0,0,0.78394543,93.325829,112.35451)">
      <g
         transform="matrix(0.10752924,0,0,0.10752924,446.17455,491.51412)"
         id="g4956"
         style="stroke:#60aae5;stroke-opacity:1;stroke-width:4.73780576;stroke-miterlimit:4;stroke-dasharray:none">
        <g
           style="fill:#bddef8;fill-opacity:1;stroke:#60aae5;stroke-width:1.81468021;stroke-miterlimit:4;stroke-dasharray:none;stroke-opacity:1"
           transform="matrix(2.6108213,0,0,2.6108213,-768.22476,390.2786)"
           id="layer1-7-5-6">
          <path
             sodipodi:nodetypes="scccssccccs"
             d="m 43.886832,-36.6986 c -1.108,0 -1.999909,0.892 -1.999909,2 l 0,81.609112 110.999917,0.239943 0,-70.041215 c 0,-1.108 -0.892,-2.000005 -2,-2.000005 l -60.173559,0 c -2.038523,0.180281 -2.301118,-0.09046 -3.308458,-1.435069 -1.428506,-1.911776 -3.585547,-7.064534 -4.99187,-8.929393 -1.128792,-1.632735 -1.311871,-1.443378 -3.183935,-1.443378 z"
             inkscape:connector-curvature="0"
             id="rect8678-4-5-5-1"
             style="color:#000000;display:inline;overflow:visible;visibility:visible;fill:#b3d4f7;fill-opacity:1;fill-rule:nonzero;stroke:#6998c9;stroke-width:1.81468021;stroke-miterlimit:4;stroke-dasharray:none;stroke-opacity:1;marker:none;enable-background:accumulate" />
        </g>
      </g>
      <g
         transform="scale(0.99845769,1.0015447)"
         style="font-style:normal;font-weight:normal;font-size:20.26753426px;line-height:125%;font-family:sans-serif;letter-spacing:0px;word-spacing:0px;fill:#60aae5;fill-opacity:1;stroke:#60aae5;stroke-width:0.10226244px;stroke-linecap:butt;stroke-linejoin:miter;stroke-opacity:1"
         id="text8822">
        <path
           d="m 391.65408,528.06852 q 3.32387,0 5.59383,2.29023 2.26997,2.29023 2.26997,5.53304 0,1.82407 -0.79044,3.01986 -0.77016,1.19578 -2.24969,1.19578 -1.52007,0 -2.26997,-1.47953 -0.9931,1.47953 -2.83745,1.47953 -1.66194,0 -2.79692,-1.15525 -1.13498,-1.17551 -1.13498,-2.97932 0,-1.78355 1.13498,-2.95906 1.13498,-1.17552 2.71585,-1.17552 1.5606,0 2.59424,1.19578 l 0.0811,0 0,-0.91204 1.45927,0 0,5.28983 q 0,0.52696 0.28374,0.95257 0.30401,0.42562 0.91204,0.42562 1.439,0 1.439,-2.89825 0,-2.67532 -1.86462,-4.51966 -1.86461,-1.84435 -4.53992,-1.84435 -2.67532,0 -4.53993,1.84435 -1.86462,1.84434 -1.86462,4.51966 0,2.67531 1.86462,4.51966 1.86461,1.84434 4.53993,1.84434 1.43899,0 2.57397,-0.56749 l 0.56749,1.37819 q -1.41872,0.64856 -3.14146,0.64856 -3.36442,0 -5.65465,-2.26996 -2.29023,-2.29023 -2.29023,-5.5533 0,-3.24281 2.29023,-5.53304 2.3105,-2.29023 5.65465,-2.29023 z m -1.88489,9.78922 q 0.72964,0.70936 1.74301,0.70936 1.01338,0 1.72274,-0.70936 0.72963,-0.70937 0.72963,-1.88488 0,-1.17552 -0.72963,-1.88489 -0.70936,-0.70936 -1.72274,-0.70936 -1.01337,0 -1.74301,0.70936 -0.70936,0.70937 -0.70936,1.88489 0,1.17551 0.70936,1.88488 z"
           style="font-style:normal;font-variant:normal;font-weight:normal;font-stretch:normal;font-family:'Product Sans';-inkscape-font-specification:'Product Sans';fill:#6998c9;fill-opacity:1;stroke:#6998c9;stroke-width:0.10226244px;stroke-opacity:1"
           id="path4159"
           inkscape:connector-curvature="0" />
      </g>
    </g>
  </g>
</svg>
