<?xml version="1.0" encoding="UTF-8" standalone="no"?>
<!-- Created with Inkscape (http://www.inkscape.org/) -->

<svg
   xmlns:sketch="http://www.bohemiancoding.com/sketch/ns"
   xmlns:dc="http://purl.org/dc/elements/1.1/"
   xmlns:cc="http://creativecommons.org/ns#"
   xmlns:rdf="http://www.w3.org/1999/02/22-rdf-syntax-ns#"
   xmlns:svg="http://www.w3.org/2000/svg"
   xmlns="http://www.w3.org/2000/svg"
   xmlns:sodipodi="http://sodipodi.sourceforge.net/DTD/sodipodi-0.dtd"
   xmlns:inkscape="http://www.inkscape.org/namespaces/inkscape"
   width="32"
   height="32"
   id="svg5453"
   version="1.1"
   inkscape:version="0.91 r13725"
   sodipodi:docname="server-database.svg">
  <defs
     id="defs5455" />
  <sodipodi:namedview
     id="base"
     pagecolor="#ffffff"
     bordercolor="#666666"
     borderopacity="1.0"
     inkscape:pageopacity="0"
     inkscape:pageshadow="2"
     inkscape:zoom="15"
     inkscape:cx="13.8"
     inkscape:cy="16.948198"
     inkscape:document-units="px"
     inkscape:current-layer="layer1"
     showgrid="true"
     fit-margin-top="0"
     fit-margin-left="0"
     fit-margin-right="0"
     fit-margin-bottom="0"
     inkscape:window-width="1366"
     inkscape:window-height="629"
     inkscape:window-x="0"
     inkscape:window-y="37"
     inkscape:window-maximized="1"
     inkscape:showpageshadow="false"
     borderlayer="true"
     showguides="true"
     inkscape:guide-bbox="true"
     inkscape:object-nodes="true"
     inkscape:snap-bbox="true">
    <inkscape:grid
       type="xygrid"
       id="grid4063" />
    <sodipodi:guide
       position="2.0000117,30.000026"
       orientation="28,0"
       id="guide4167" />
    <sodipodi:guide
       position="17,5"
       orientation="0,28"
       id="guide4169" />
    <sodipodi:guide
       position="30.000012,2.0000264"
       orientation="-28,0"
       id="guide4171" />
    <sodipodi:guide
       position="30.000012,30.000026"
       orientation="0,-28"
       id="guide4173" />
    <sodipodi:guide
       position="2.0000117,30.000026"
       orientation="28,0"
       id="guide4181" />
    <sodipodi:guide
       position="16.000012,30.000026"
       orientation="0,-14"
       id="guide4187" />
    <sodipodi:guide
       position="5.0000117,30.000026"
       orientation="28,0"
       id="guide4143" />
    <sodipodi:guide
       position="5.0000117,2.0000264"
       orientation="0,22"
       id="guide4145" />
    <sodipodi:guide
       position="27.000012,2.0000264"
       orientation="-28,0"
       id="guide4147" />
    <sodipodi:guide
       position="27.000012,30.000026"
       orientation="0,-22"
       id="guide4149" />
    <sodipodi:guide
       position="27,30"
       orientation="0,-7"
       id="guide4155" />
    <sodipodi:guide
       position="27.00001,23"
       orientation="-7,-1e-05"
       id="guide4162" />
    <sodipodi:guide
       position="24,27"
       orientation="0,1"
       id="guide3378" />
  </sodipodi:namedview>
  <metadata
     id="metadata5458">
    <rdf:RDF>
      <cc:Work
         rdf:about="">
        <dc:format>image/svg+xml</dc:format>
        <dc:type
           rdf:resource="http://purl.org/dc/dcmitype/StillImage" />
        <dc:title />
      </cc:Work>
    </rdf:RDF>
  </metadata>
  <g
     inkscape:label="Capa 1"
     inkscape:groupmode="layer"
     id="layer1"
     transform="translate(-384.57143,-515.798)">
    <g
       id="g4187"
       transform="matrix(0.7863692,0,0,0.78394543,93.325829,112.35451)">
      <g
         transform="matrix(0.10752924,0,0,0.10752924,446.17455,491.51412)"
         id="g4956"
         style="stroke:#60aae5;stroke-opacity:1;stroke-width:4.73780576;stroke-miterlimit:4;stroke-dasharray:none">
        <g
           style="fill:#bddef8;fill-opacity:1;stroke:#60aae5;stroke-width:1.81468021;stroke-miterlimit:4;stroke-dasharray:none;stroke-opacity:1"
           transform="matrix(2.6108213,0,0,2.6108213,-768.22476,390.2786)"
           id="layer1-7-5-6">
          <path
             sodipodi:nodetypes="scccssccccs"
             d="m 43.886832,-36.6986 c -1.108,0 -1.999909,0.892 -1.999909,2 l 0,81.609112 110.999917,0.239943 0,-70.041215 c 0,-1.108 -0.892,-2.000005 -2,-2.000005 l -60.173559,0 c -2.038523,0.180281 -2.301118,-0.09046 -3.308458,-1.435069 -1.428506,-1.911776 -3.585547,-7.064534 -4.99187,-8.929393 -1.128792,-1.632735 -1.311871,-1.443378 -3.183935,-1.443378 z"
             inkscape:connector-curvature="0"
             id="rect8678-4-5-5-1"
             style="color:#000000;display:inline;overflow:visible;visibility:visible;fill:#b3d4f7;fill-opacity:1;fill-rule:nonzero;stroke:#6998c9;stroke-width:1.81468021;stroke-miterlimit:4;stroke-dasharray:none;stroke-opacity:1;marker:none;enable-background:accumulate" />
        </g>
      </g>
      <g
         id="g10822-9-7"
         transform="matrix(-0.0129682,0,0,0.01300829,435.16386,563.40582)"
         style="fill:#60aae5;fill-opacity:1">
        <g
           transform="matrix(-7.0732846,0,0,7.0017718,2712.2317,-7878.2911)"
           id="g5043"
           style="display:inline;fill:#60aae5;fill-opacity:1">
          <path
             inkscape:connector-curvature="0"
             d="m -67.446998,887.52751 c -3.547248,0 -7.085708,-1.5396 -9.659132,-4.56329 -6.598678,-7.7725 -15.996998,-12.21518 -25.7952,-12.21518 -9.96335,0 -19.11829,4.31289 -25.77787,12.15025 -4.83384,5.70417 -13.07578,6.14018 -18.42266,0.96469 -5.33812,-5.16623 -5.74675,-13.9591 -0.90382,-19.64458 11.4935,-13.53233 27.93394,-21.29557 45.10458,-21.29557 17.144627,0 33.585077,7.78185 45.113384,21.34191 4.842528,5.6949 4.433891,14.4876 -0.903821,19.65382 -2.486489,2.42074 -5.625021,3.60795 -8.754844,3.60795 z m 28.933627,-34.80915 c -3.329784,0 -6.659664,-1.35422 -9.198271,-4.05315 -14.762465,-15.66555 -34.358758,-24.29131 -55.189688,-24.29131 -20.87435,0 -40.47935,8.60716 -55.21586,24.23555 -5.10334,5.41664 -13.36267,5.38884 -18.4399,-0.0554 -5.0774,-5.44442 -5.05999,-14.25573 0.0549,-19.67244 19.6485,-20.85023 45.7915,-32.33267 73.60371,-32.33267 27.768795,0 53.903018,11.50106 73.586245,32.38834 5.112121,5.41671 5.129591,14.22794 0.05495,19.68163 -2.547317,2.7177 -5.903208,4.09955 -9.250408,4.09955 z m 28.8728953,-34.75357 c -3.2428653,0 -6.4944223,-1.28929 -9.0243393,-3.86761 -22.769702,-23.28038 -52.677162,-36.09851 -84.236515,-36.09851 -31.62018,0 -61.54512,12.79952 -84.25391,36.06129 -5.19034,5.31464 -13.44961,5.13844 -18.43998,-0.40781 -4.99038,-5.54659 -4.81652,-14.35781 0.37312,-19.67237 27.59492,-28.25172 63.92727,-43.806 102.32014,-43.806 38.314577,0 74.638214,15.57281 102.28518979,43.83371 5.19912551,5.3148 5.37298651,14.12595 0.3919424,19.67245 -2.56472469,2.84741 -5.99022159,4.28501 -9.41557689,4.28501 z M -104.53581,921.18818 c 8.700372,0 15.75354,-7.13867 15.75354,-15.94461 0,-8.80584 -7.053168,-15.94452 -15.75354,-15.94452 -8.70043,0 -15.75361,7.13868 -15.75361,15.94452 0,8.80594 7.05318,15.94461 15.75361,15.94461 z"
             id="Remote-5"
             sketch:type="MSShapeGroup"
             style="fill:#6998c9;fill-opacity:1" />
        </g>
      </g>
    </g>
  </g>
</svg>
