<?xml version="1.0" encoding="UTF-8" standalone="no"?>
<!-- Created with Inkscape (http://www.inkscape.org/) -->

<svg
   xmlns:dc="http://purl.org/dc/elements/1.1/"
   xmlns:cc="http://creativecommons.org/ns#"
   xmlns:rdf="http://www.w3.org/1999/02/22-rdf-syntax-ns#"
   xmlns:svg="http://www.w3.org/2000/svg"
   xmlns="http://www.w3.org/2000/svg"
   xmlns:sodipodi="http://sodipodi.sourceforge.net/DTD/sodipodi-0.dtd"
   xmlns:inkscape="http://www.inkscape.org/namespaces/inkscape"
   width="22"
   height="22"
   id="svg3869"
   version="1.1"
   inkscape:version="0.91 r13725"
   sodipodi:docname="dialog-transform.svg">
  <defs
     id="defs3871" />
  <sodipodi:namedview
     id="base"
     pagecolor="#ffffff"
     bordercolor="#666666"
     borderopacity="1.0"
     inkscape:pageopacity="0.0"
     inkscape:pageshadow="2"
     inkscape:zoom="11.313708"
     inkscape:cx="12.729762"
     inkscape:cy="5.7317492"
     inkscape:document-units="px"
     inkscape:current-layer="layer1"
     showgrid="true"
     fit-margin-top="0"
     fit-margin-left="0"
     fit-margin-right="0"
     fit-margin-bottom="0"
     inkscape:window-width="1366"
     inkscape:window-height="635"
     inkscape:window-x="0"
     inkscape:window-y="36"
     inkscape:window-maximized="1"
     inkscape:showpageshadow="false"
     inkscape:snap-bbox="true"
     inkscape:object-nodes="true">
    <inkscape:grid
       type="xygrid"
       id="grid4132" />
    <sodipodi:guide
       position="4,18"
       orientation="18,0"
       id="guide4138" />
    <sodipodi:guide
       position="5,3"
       orientation="0,18"
       id="guide4140" />
    <sodipodi:guide
       position="20,2.0000174"
       orientation="-18,0"
       id="guide4142" />
    <sodipodi:guide
       position="2,21"
       orientation="0,-18"
       id="guide4144" />
    <sodipodi:guide
       position="3,19.000017"
       orientation="16,0"
       id="guide4146" />
    <sodipodi:guide
       position="2,4"
       orientation="0,16"
       id="guide4148" />
    <sodipodi:guide
       position="21,20"
       orientation="-16,0"
       id="guide4150" />
    <sodipodi:guide
       position="2,20"
       orientation="0,-16"
       id="guide4152" />
  </sodipodi:namedview>
  <metadata
     id="metadata3874">
    <rdf:RDF>
      <cc:Work
         rdf:about="">
        <dc:format>image/svg+xml</dc:format>
        <dc:type
           rdf:resource="http://purl.org/dc/dcmitype/StillImage" />
        <dc:title />
      </cc:Work>
    </rdf:RDF>
  </metadata>
  <g
     inkscape:label="Capa 1"
     inkscape:groupmode="layer"
     id="layer1"
     transform="translate(-326,-534.3622)">
    <g
       id="g4194"
       transform="matrix(0.04923077,0,0,0.04923077,329,537.3622)"
       style="fill:#4d4d4d;fill-opacity:1">
      <g
         id="g4152"
         style="fill:#4d4d4d;fill-opacity:1">
        <path
           id="path4154"
           d="m 319,55.26 c 3.314,0 6,-2.687 6,-6 L 325,6 c 0,-3.313 -2.686,-6 -6,-6 l -43.26,0 c -3.313,0 -6,2.687 -6,6 l 0,13.63 -79.61,0 0,-13.63 c 0,-3.313 -2.686,-6 -6,-6 l -43.26,0 c -3.314,0 -6,2.687 -6,6 l 0,13.63 -79.61,0 0,-13.63 c 0,-3.313 -2.687,-6 -6,-6 L 6,0 C 2.687,0 0,2.687 0,6 l 0,43.26 c 0,3.313 2.687,6 6,6 l 13.63,0 0,79.611 -13.63,0 c -3.313,0 -6,2.687 -6,6 l 0,43.259 c 0,3.314 2.687,6 6,6 l 13.63,0 0,79.61 -13.63,0 c -3.313,0 -6,2.687 -6,6 L 0,319 c 0,3.314 2.687,6 6,6 l 43.26,0 c 3.313,0 6,-2.686 6,-6 l 0,-13.63 79.61,0 0,13.63 c 0,3.314 2.686,6 6,6 l 43.26,0 c 3.314,0 6,-2.686 6,-6 l 0,-13.63 79.61,0 0,13.63 c 0,3.314 2.687,6 6,6 l 43.26,0 c 3.314,0 6,-2.686 6,-6 l 0,-43.26 c 0,-3.313 -2.686,-6 -6,-6 l -13.63,0 0,-79.61 13.63,0 c 3.314,0 6,-2.686 6,-6 l 0,-43.259 c 0,-3.313 -2.686,-6 -6,-6 l -13.63,0 0,-79.611 13.63,0 z m -29.63,79.611 -13.63,0 c -3.313,0 -6,2.687 -6,6 l 0,43.259 c 0,3.314 2.687,6 6,6 l 13.63,0 0,79.61 -13.63,0 c -3.313,0 -6,2.687 -6,6 l 0,13.63 -79.61,0 0,-13.63 c 0,-3.313 -2.686,-6 -6,-6 l -43.26,0 c -3.314,0 -6,2.687 -6,6 l 0,13.63 -79.61,0 0,-13.63 c 0,-3.313 -2.687,-6 -6,-6 l -13.63,0 0,-79.61 13.63,0 c 3.313,0 6,-2.686 6,-6 l 0,-43.259 c 0,-3.313 -2.687,-6 -6,-6 l -13.63,0 0,-79.611 13.63,0 c 3.313,0 6,-2.687 6,-6 l 0,-13.63 79.61,0 0,13.63 c 0,3.313 2.686,6 6,6 l 43.26,0 c 3.314,0 6,-2.687 6,-6 l 0,-13.63 79.61,0 0,13.63 c 0,3.313 2.687,6 6,6 l 13.63,0 0,79.611 z"
           inkscape:connector-curvature="0"
           style="fill:#4d4d4d;fill-opacity:1" />
        <circle
           id="circle4156"
           r="13.283"
           cy="162.5"
           cx="162.5"
           style="fill:#4d4d4d;fill-opacity:1" />
      </g>
      <g
         id="g4158"
         style="fill:#4d4d4d;fill-opacity:1" />
      <g
         id="g4160"
         style="fill:#4d4d4d;fill-opacity:1" />
      <g
         id="g4162"
         style="fill:#4d4d4d;fill-opacity:1" />
      <g
         id="g4164"
         style="fill:#4d4d4d;fill-opacity:1" />
      <g
         id="g4166"
         style="fill:#4d4d4d;fill-opacity:1" />
      <g
         id="g4168"
         style="fill:#4d4d4d;fill-opacity:1" />
      <g
         id="g4170"
         style="fill:#4d4d4d;fill-opacity:1" />
      <g
         id="g4172"
         style="fill:#4d4d4d;fill-opacity:1" />
      <g
         id="g4174"
         style="fill:#4d4d4d;fill-opacity:1" />
      <g
         id="g4176"
         style="fill:#4d4d4d;fill-opacity:1" />
      <g
         id="g4178"
         style="fill:#4d4d4d;fill-opacity:1" />
      <g
         id="g4180"
         style="fill:#4d4d4d;fill-opacity:1" />
      <g
         id="g4182"
         style="fill:#4d4d4d;fill-opacity:1" />
      <g
         id="g4184"
         style="fill:#4d4d4d;fill-opacity:1" />
      <g
         id="g4186"
         style="fill:#4d4d4d;fill-opacity:1" />
    </g>
  </g>
</svg>
