<?xml version="1.0" encoding="UTF-8" standalone="no"?>
<!-- Created with Inkscape (http://www.inkscape.org/) -->

<svg
   xmlns:sketch="http://www.bohemiancoding.com/sketch/ns"
   xmlns:dc="http://purl.org/dc/elements/1.1/"
   xmlns:cc="http://creativecommons.org/ns#"
   xmlns:rdf="http://www.w3.org/1999/02/22-rdf-syntax-ns#"
   xmlns:svg="http://www.w3.org/2000/svg"
   xmlns="http://www.w3.org/2000/svg"
   xmlns:sodipodi="http://sodipodi.sourceforge.net/DTD/sodipodi-0.dtd"
   xmlns:inkscape="http://www.inkscape.org/namespaces/inkscape"
   width="22"
   height="22"
   id="svg3869"
   version="1.1"
   inkscape:version="0.91 r13725"
   sodipodi:docname="games-solve.svg">
  <defs
     id="defs3871" />
  <sodipodi:namedview
     id="base"
     pagecolor="#ffffff"
     bordercolor="#666666"
     borderopacity="1.0"
     inkscape:pageopacity="0.0"
     inkscape:pageshadow="2"
     inkscape:zoom="11.313708"
     inkscape:cx="-38.068584"
     inkscape:cy="7.3966167"
     inkscape:document-units="px"
     inkscape:current-layer="layer1"
     showgrid="true"
     fit-margin-top="0"
     fit-margin-left="0"
     fit-margin-right="0"
     fit-margin-bottom="0"
     inkscape:window-width="1366"
     inkscape:window-height="633"
     inkscape:window-x="0"
     inkscape:window-y="33"
     inkscape:window-maximized="1"
     inkscape:showpageshadow="false"
     inkscape:object-nodes="true"
     inkscape:snap-bbox="true">
    <inkscape:grid
       type="xygrid"
       id="grid4132" />
    <sodipodi:guide
       position="4,18"
       orientation="18,0"
       id="guide4138" />
    <sodipodi:guide
       position="5,3"
       orientation="0,18"
       id="guide4140" />
    <sodipodi:guide
       position="20,2.0000174"
       orientation="-18,0"
       id="guide4142" />
    <sodipodi:guide
       position="2,21"
       orientation="0,-18"
       id="guide4144" />
    <sodipodi:guide
       position="3,19.000017"
       orientation="16,0"
       id="guide4146" />
    <sodipodi:guide
       position="2,4"
       orientation="0,16"
       id="guide4148" />
    <sodipodi:guide
       position="21,20"
       orientation="-16,0"
       id="guide4150" />
    <sodipodi:guide
       position="2,20"
       orientation="0,-16"
       id="guide4152" />
  </sodipodi:namedview>
  <metadata
     id="metadata3874">
    <rdf:RDF>
      <cc:Work
         rdf:about="">
        <dc:format>image/svg+xml</dc:format>
        <dc:type
           rdf:resource="http://purl.org/dc/dcmitype/StillImage" />
        <dc:title />
      </cc:Work>
    </rdf:RDF>
  </metadata>
  <g
     inkscape:label="Capa 1"
     inkscape:groupmode="layer"
     id="layer1"
     transform="translate(-326,-534.3622)">
    <g
       id="g4308"
       transform="translate(-1,1)">
      <g
         inkscape:label="Capa 1"
         id="layer1-6"
         transform="translate(-224.28572,-74.2857)">
        <path
           style="opacity:1;fill:#4d4d4d;fill-opacity:1;stroke:none"
           d="M 11 3 C 6.5680032 3 3 6.5680032 3 11 C 3 15.431997 6.5680032 19 11 19 C 15.431997 19 19 15.431997 19 11 C 19 6.5680032 15.431997 3 11 3 z M 14.457031 7.4003906 C 14.636556 7.4003906 14.788428 7.4621739 14.914062 7.5878906 L 15.830078 8.5039062 C 15.955712 8.629623 16.019614 8.7833661 16.019531 8.9628906 C 16.019531 9.1424978 15.955712 9.2942051 15.830078 9.4199219 L 10.955078 14.294922 L 10.039062 15.210938 C 9.9133457 15.336572 9.7596027 15.400391 9.5800781 15.400391 C 9.4004709 15.400391 9.248681 15.336654 9.1230469 15.210938 L 8.2070312 14.294922 L 5.7695312 11.857422 C 5.6438145 11.731788 5.5800781 11.579915 5.5800781 11.400391 C 5.5800781 11.220783 5.6438145 11.067123 5.7695312 10.941406 L 6.6855469 10.025391 C 6.8112636 9.8996739 6.9629709 9.8378906 7.1425781 9.8378906 C 7.3221027 9.8378906 7.4758457 9.8996739 7.6015625 10.025391 L 9.5800781 12.013672 L 13.998047 7.5878906 C 14.123681 7.4621739 14.277424 7.4003906 14.457031 7.4003906 z "
           transform="translate(551.28572,607.6479)"
           id="rect4112" />
      </g>
      <g
         transform="matrix(0.65236234,0,0,0.65236234,96.388702,189.83295)"
         inkscape:label="Capa 1"
         id="layer1-8">
        <g
           transform="matrix(0.79999998,0,0,0.79999998,17.542864,118.92381)"
           id="layer1-95"
           inkscape:label="Capa 1">
          <g
             inkscape:label="Capa 1"
             id="layer1-9-9"
             transform="matrix(1.1699988,0,0,1.1699988,-38.953026,-96.85732)">
            <g
               transform="matrix(1.3120824,0,0,1.3120824,-382.5677,-272.0713)"
               id="layer1-3"
               inkscape:label="Capa 1"
               style="fill:#4d4d4d;fill-opacity:1">
              <g
                 style="fill:#4d4d4d;fill-opacity:1"
                 transform="matrix(0.14300539,0,0,0.14300539,554.04072,610.29161)"
                 sketch:type="MSShapeGroup"
                 id="g5548">
                <g
                   style="fill:#4d4d4d;fill-opacity:1"
                   transform="matrix(0.7214167,0,0,0.7214167,123.07951,19.201456)"
                   sketch:type="MSLayerGroup"
                   id="correct8" />
              </g>
            </g>
          </g>
        </g>
      </g>
    </g>
  </g>
</svg>
