<?xml version="1.0" encoding="UTF-8" standalone="no"?>
<!-- Created with Inkscape (http://www.inkscape.org/) -->

<svg
   xmlns:dc="http://purl.org/dc/elements/1.1/"
   xmlns:cc="http://creativecommons.org/ns#"
   xmlns:rdf="http://www.w3.org/1999/02/22-rdf-syntax-ns#"
   xmlns:svg="http://www.w3.org/2000/svg"
   xmlns="http://www.w3.org/2000/svg"
   xmlns:xlink="http://www.w3.org/1999/xlink"
   xmlns:sodipodi="http://sodipodi.sourceforge.net/DTD/sodipodi-0.dtd"
   xmlns:inkscape="http://www.inkscape.org/namespaces/inkscape"
   width="22"
   height="22"
   id="svg3869"
   version="1.1"
   inkscape:version="0.91 r13725"
   sodipodi:docname="merge.svg">
  <defs
     id="defs3871">
    <clipPath
       id="clipPath4160"
       clipPathUnits="userSpaceOnUse">
      <rect
         y="1023.3622"
         x="7"
         height="1"
         width="1"
         id="rect4162"
         style="opacity:1;fill:#f2f2f2;fill-opacity:1;stroke:none;stroke-opacity:1" />
    </clipPath>
    <linearGradient
       gradientTransform="translate(0,-1.9999941)"
       inkscape:collect="always"
       xlink:href="#linearGradient4021-3"
       id="linearGradient4123"
       gradientUnits="userSpaceOnUse"
       x1="3"
       y1="1045.3622"
       x2="15"
       y2="1045.3622" />
    <linearGradient
       id="linearGradient4021-3">
      <stop
         id="stop4023-0"
         offset="0"
         style="stop-color:#b3b3b3;stop-opacity:1;" />
      <stop
         id="stop4025-2"
         offset="1"
         style="stop-color:#4d4d4d;stop-opacity:1;" />
    </linearGradient>
    <clipPath
       id="clipPath4160-8"
       clipPathUnits="userSpaceOnUse">
      <rect
         y="1023.3622"
         x="7"
         height="1"
         width="1"
         id="rect4162-9"
         style="opacity:1;fill:#f2f2f2;fill-opacity:1;stroke:none;stroke-opacity:1" />
    </clipPath>
  </defs>
  <sodipodi:namedview
     id="base"
     pagecolor="#ffffff"
     bordercolor="#666666"
     borderopacity="1.0"
     inkscape:pageopacity="0.0"
     inkscape:pageshadow="2"
     inkscape:zoom="15.999999"
     inkscape:cx="5.0156584"
     inkscape:cy="15.561647"
     inkscape:document-units="px"
     inkscape:current-layer="layer1"
     showgrid="true"
     fit-margin-top="0"
     fit-margin-left="0"
     fit-margin-right="0"
     fit-margin-bottom="0"
     inkscape:window-width="1366"
     inkscape:window-height="635"
     inkscape:window-x="0"
     inkscape:window-y="36"
     inkscape:window-maximized="1"
     inkscape:showpageshadow="false"
     inkscape:snap-bbox="true"
     inkscape:object-nodes="true">
    <inkscape:grid
       type="xygrid"
       id="grid4132" />
    <sodipodi:guide
       position="4,18"
       orientation="18,0"
       id="guide4138" />
    <sodipodi:guide
       position="5,3"
       orientation="0,18"
       id="guide4140" />
    <sodipodi:guide
       position="20,2.0000174"
       orientation="-18,0"
       id="guide4142" />
    <sodipodi:guide
       position="2,21"
       orientation="0,-18"
       id="guide4144" />
    <sodipodi:guide
       position="3,19.000017"
       orientation="16,0"
       id="guide4146" />
    <sodipodi:guide
       position="2,4"
       orientation="0,16"
       id="guide4148" />
    <sodipodi:guide
       position="21,20"
       orientation="-16,0"
       id="guide4150" />
    <sodipodi:guide
       position="2,20"
       orientation="0,-16"
       id="guide4152" />
  </sodipodi:namedview>
  <metadata
     id="metadata3874">
    <rdf:RDF>
      <cc:Work
         rdf:about="">
        <dc:format>image/svg+xml</dc:format>
        <dc:type
           rdf:resource="http://purl.org/dc/dcmitype/StillImage" />
        <dc:title />
      </cc:Work>
    </rdf:RDF>
  </metadata>
  <g
     inkscape:label="Capa 1"
     inkscape:groupmode="layer"
     id="layer1"
     transform="translate(-326,-534.3622)">
    <g
       id="g4195"
       transform="matrix(0,-0.0485805,-0.0485805,0,346,554.36217)"
       style="fill:#4d4d4d;fill-opacity:1">
      <g
         id="g4153"
         style="fill:#4d4d4d;fill-opacity:1">
        <path
           id="path4155"
           d="m 298.259,119.009 -87.469,0 31.844,-31.844 c 1.406,-1.407 2.196,-3.314 2.196,-5.303 0,-1.989 -0.79,-3.897 -2.197,-5.304 L 228.49,62.416 c -2.927,-2.929 -7.676,-2.928 -10.605,0 l -15.125,15.126 0,-70.042 c 0,-4.142 -3.357,-7.5 -7.5,-7.5 l -20,0 c -4.143,0 -7.5,3.358 -7.5,7.5 l 0,70.043 -15.125,-15.126 c -2.93,-2.929 -7.679,-2.929 -10.606,0 l -14.143,14.142 c -1.407,1.407 -2.197,3.314 -2.197,5.304 0,1.989 0.79,3.896 2.196,5.303 l 31.844,31.844 -87.47,0 c -4.143,0 -7.5,3.358 -7.5,7.5 l 0,20 c 0,4.142 3.357,7.5 7.5,7.5 l 226,0 c 4.143,0 7.5,-3.358 7.5,-7.5 l 0,-20 c 0,-4.143 -3.358,-7.501 -7.5,-7.501 z"
           style="fill:#4d4d4d;fill-opacity:1"
           inkscape:connector-curvature="0" />
        <path
           id="path4157"
           d="m 298.259,216.509 -226,0 c -4.143,0 -7.5,3.358 -7.5,7.5 l 0,20 c 0,4.142 3.357,7.5 7.5,7.5 l 87.469,0 -31.844,31.844 c -1.406,1.407 -2.196,3.314 -2.196,5.303 0,1.989 0.79,3.897 2.197,5.304 l 14.143,14.142 c 2.928,2.929 7.677,2.928 10.606,-10e-4 l 15.125,-15.125 0,70.043 c 0,4.142 3.357,7.5 7.5,7.5 l 20,0 c 4.143,0 7.5,-3.358 7.5,-7.5 l 0,-70.043 15.125,15.125 c 1.465,1.465 3.384,2.197 5.304,2.197 1.919,0 3.839,-0.732 5.302,-2.196 l 14.143,-14.142 c 1.407,-1.407 2.197,-3.315 2.197,-5.304 0,-1.989 -0.79,-3.896 -2.196,-5.303 l -31.844,-31.844 87.469,0 c 4.143,0 7.5,-3.358 7.5,-7.5 l 0,-20 c 0,-4.142 -3.358,-7.5 -7.5,-7.5 z"
           style="fill:#4d4d4d;fill-opacity:1"
           inkscape:connector-curvature="0" />
      </g>
      <g
         id="g4159"
         style="fill:#4d4d4d;fill-opacity:1" />
      <g
         id="g4161"
         style="fill:#4d4d4d;fill-opacity:1" />
      <g
         id="g4163"
         style="fill:#4d4d4d;fill-opacity:1" />
      <g
         id="g4165"
         style="fill:#4d4d4d;fill-opacity:1" />
      <g
         id="g4167"
         style="fill:#4d4d4d;fill-opacity:1" />
      <g
         id="g4169"
         style="fill:#4d4d4d;fill-opacity:1" />
      <g
         id="g4171"
         style="fill:#4d4d4d;fill-opacity:1" />
      <g
         id="g4173"
         style="fill:#4d4d4d;fill-opacity:1" />
      <g
         id="g4175"
         style="fill:#4d4d4d;fill-opacity:1" />
      <g
         id="g4177"
         style="fill:#4d4d4d;fill-opacity:1" />
      <g
         id="g4179"
         style="fill:#4d4d4d;fill-opacity:1" />
      <g
         id="g4181"
         style="fill:#4d4d4d;fill-opacity:1" />
      <g
         id="g4183"
         style="fill:#4d4d4d;fill-opacity:1" />
      <g
         id="g4185"
         style="fill:#4d4d4d;fill-opacity:1" />
      <g
         id="g4187"
         style="fill:#4d4d4d;fill-opacity:1" />
    </g>
  </g>
</svg>
