<?xml version="1.0" encoding="UTF-8" standalone="no"?>
<!-- Created with Inkscape (http://www.inkscape.org/) -->

<svg
   xmlns:dc="http://purl.org/dc/elements/1.1/"
   xmlns:cc="http://creativecommons.org/ns#"
   xmlns:rdf="http://www.w3.org/1999/02/22-rdf-syntax-ns#"
   xmlns:svg="http://www.w3.org/2000/svg"
   xmlns="http://www.w3.org/2000/svg"
   xmlns:sodipodi="http://sodipodi.sourceforge.net/DTD/sodipodi-0.dtd"
   xmlns:inkscape="http://www.inkscape.org/namespaces/inkscape"
   width="22"
   height="22"
   id="svg3869"
   version="1.1"
   inkscape:version="0.91 r13725"
   sodipodi:docname="split.svg">
  <defs
     id="defs3871" />
  <sodipodi:namedview
     id="base"
     pagecolor="#ffffff"
     bordercolor="#666666"
     borderopacity="1.0"
     inkscape:pageopacity="0.0"
     inkscape:pageshadow="2"
     inkscape:zoom="11.313708"
     inkscape:cx="13.373436"
     inkscape:cy="7.8443011"
     inkscape:document-units="px"
     inkscape:current-layer="layer1-3"
     showgrid="true"
     fit-margin-top="0"
     fit-margin-left="0"
     fit-margin-right="0"
     fit-margin-bottom="0"
     inkscape:window-width="1366"
     inkscape:window-height="635"
     inkscape:window-x="0"
     inkscape:window-y="36"
     inkscape:window-maximized="1"
     inkscape:showpageshadow="false"
     inkscape:snap-bbox="true"
     inkscape:object-nodes="true">
    <inkscape:grid
       type="xygrid"
       id="grid4132" />
    <sodipodi:guide
       position="4,18"
       orientation="18,0"
       id="guide4138" />
    <sodipodi:guide
       position="5,3"
       orientation="0,18"
       id="guide4140" />
    <sodipodi:guide
       position="20,2.0000174"
       orientation="-18,0"
       id="guide4142" />
    <sodipodi:guide
       position="2,21"
       orientation="0,-18"
       id="guide4144" />
    <sodipodi:guide
       position="3,19.000017"
       orientation="16,0"
       id="guide4146" />
    <sodipodi:guide
       position="2,4"
       orientation="0,16"
       id="guide4148" />
    <sodipodi:guide
       position="21,20"
       orientation="-16,0"
       id="guide4150" />
    <sodipodi:guide
       position="2,20"
       orientation="0,-16"
       id="guide4152" />
  </sodipodi:namedview>
  <metadata
     id="metadata3874">
    <rdf:RDF>
      <cc:Work
         rdf:about="">
        <dc:format>image/svg+xml</dc:format>
        <dc:type
           rdf:resource="http://purl.org/dc/dcmitype/StillImage" />
        <dc:title />
      </cc:Work>
    </rdf:RDF>
  </metadata>
  <g
     inkscape:label="Capa 1"
     inkscape:groupmode="layer"
     id="layer1"
     transform="translate(-326,-534.3622)">
    <g
       transform="translate(-95.71429,8.57146)"
       id="layer1-3"
       inkscape:label="Capa 1" />
    <g
       id="g4198"
       transform="matrix(0.04926543,0,0,0.04926543,328,536.36224)"
       style="fill:#4d4d4d;fill-opacity:1">
      <g
         id="g4156"
         style="fill:#4d4d4d;fill-opacity:1">
        <path
           id="path4158"
           d="M 363.171,177.381 311.1,125.309 c -1.406,-1.407 -3.314,-2.197 -5.303,-2.197 -1.989,0 -3.897,0.79 -5.303,2.197 l -14.143,14.143 c -1.407,1.406 -2.197,3.314 -2.197,5.303 0,1.989 0.79,3.897 2.197,5.303 l 15.126,15.125 -52.543,0 0,-95.5 c 0,-4.142 -3.358,-7.5 -7.5,-7.5 l -20,0 c -4.142,0 -7.5,3.358 -7.5,7.5 l 0,226 c 0,4.142 3.358,7.5 7.5,7.5 l 20,0 c 4.142,0 7.5,-3.358 7.5,-7.5 l 0,-95.5 52.543,0 -15.126,15.126 c -1.407,1.406 -2.197,3.314 -2.197,5.303 0,1.989 0.79,3.897 2.197,5.303 l 14.143,14.143 c 1.406,1.407 3.314,2.197 5.303,2.197 1.989,0 3.897,-0.79 5.303,-2.197 l 52.071,-52.071 c 2.929,-2.929 2.929,-7.678 0,-10.606 z"
           style="fill:#4d4d4d;fill-opacity:1"
           inkscape:connector-curvature="0" />
        <path
           id="path4160"
           d="m 143.934,62.184 -20,0 c -4.142,0 -7.5,3.358 -7.5,7.5 l 0,95.5 -52.543,0 15.126,-15.125 c 2.929,-2.929 2.929,-7.677 0,-10.606 L 64.875,125.31 c -1.407,-1.406 -3.315,-2.197 -5.304,-2.197 -1.989,0 -3.897,0.79 -5.303,2.197 L 2.197,177.381 C 0.79,178.787 0,180.695 0,182.684 c 0,1.989 0.79,3.897 2.197,5.303 l 52.072,52.071 c 1.407,1.407 3.314,2.197 5.303,2.197 1.989,0 3.897,-0.79 5.304,-2.197 l 14.142,-14.143 c 2.929,-2.929 2.928,-7.678 0,-10.606 l -15.126,-15.126 52.543,0 0,95.5 c 0,4.142 3.358,7.5 7.5,7.5 l 20,0 c 4.142,0 7.5,-3.358 7.5,-7.5 l 0,-226 c -0.001,-4.141 -3.359,-7.499 -7.501,-7.499 z"
           style="fill:#4d4d4d;fill-opacity:1"
           inkscape:connector-curvature="0" />
      </g>
      <g
         id="g4162"
         style="fill:#4d4d4d;fill-opacity:1" />
      <g
         id="g4164"
         style="fill:#4d4d4d;fill-opacity:1" />
      <g
         id="g4166"
         style="fill:#4d4d4d;fill-opacity:1" />
      <g
         id="g4168"
         style="fill:#4d4d4d;fill-opacity:1" />
      <g
         id="g4170"
         style="fill:#4d4d4d;fill-opacity:1" />
      <g
         id="g4172"
         style="fill:#4d4d4d;fill-opacity:1" />
      <g
         id="g4174"
         style="fill:#4d4d4d;fill-opacity:1" />
      <g
         id="g4176"
         style="fill:#4d4d4d;fill-opacity:1" />
      <g
         id="g4178"
         style="fill:#4d4d4d;fill-opacity:1" />
      <g
         id="g4180"
         style="fill:#4d4d4d;fill-opacity:1" />
      <g
         id="g4182"
         style="fill:#4d4d4d;fill-opacity:1" />
      <g
         id="g4184"
         style="fill:#4d4d4d;fill-opacity:1" />
      <g
         id="g4186"
         style="fill:#4d4d4d;fill-opacity:1" />
      <g
         id="g4188"
         style="fill:#4d4d4d;fill-opacity:1" />
      <g
         id="g4190"
         style="fill:#4d4d4d;fill-opacity:1" />
    </g>
  </g>
</svg>
