<?xml version="1.0" encoding="UTF-8" standalone="no"?>
<!-- Created with Inkscape (http://www.inkscape.org/) -->

<svg
   xmlns:sketch="http://www.bohemiancoding.com/sketch/ns"
   xmlns:osb="http://www.openswatchbook.org/uri/2009/osb"
   xmlns:dc="http://purl.org/dc/elements/1.1/"
   xmlns:cc="http://creativecommons.org/ns#"
   xmlns:rdf="http://www.w3.org/1999/02/22-rdf-syntax-ns#"
   xmlns:svg="http://www.w3.org/2000/svg"
   xmlns="http://www.w3.org/2000/svg"
   xmlns:sodipodi="http://sodipodi.sourceforge.net/DTD/sodipodi-0.dtd"
   xmlns:inkscape="http://www.inkscape.org/namespaces/inkscape"
   width="22"
   height="22"
   id="svg3760"
   version="1.1"
   inkscape:version="0.91 r13725"
   sodipodi:docname="tag-new.svg">
  <defs
     id="defs3762">
    <linearGradient
       id="linearGradient4207"
       osb:paint="gradient">
      <stop
         style="stop-color:#3498db;stop-opacity:1;"
         offset="0"
         id="stop3371" />
      <stop
         style="stop-color:#3498db;stop-opacity:0;"
         offset="1"
         id="stop3373" />
    </linearGradient>
  </defs>
  <sodipodi:namedview
     id="base"
     pagecolor="#ffffff"
     bordercolor="#666666"
     borderopacity="1.0"
     inkscape:pageopacity="0.0"
     inkscape:pageshadow="2"
     inkscape:zoom="8.0101925"
     inkscape:cx="-42.848855"
     inkscape:cy="12.60398"
     inkscape:document-units="px"
     inkscape:current-layer="g4729"
     showgrid="true"
     fit-margin-top="0"
     fit-margin-left="0"
     fit-margin-right="0"
     fit-margin-bottom="0"
     inkscape:window-width="1366"
     inkscape:window-height="633"
     inkscape:window-x="0"
     inkscape:window-y="33"
     inkscape:window-maximized="1"
     inkscape:showpageshadow="false"
     showguides="true"
     inkscape:snap-bbox="true"
     inkscape:snap-global="false">
    <inkscape:grid
       type="xygrid"
       id="grid4106"
       originx="1.8863594e-05px"
       originy="-1.7016406e-05px" />
    <sodipodi:guide
       position="3.0000144,20.999978"
       orientation="0,18"
       id="guide4229" />
    <sodipodi:guide
       position="21.000014,20.999978"
       orientation="18,0"
       id="guide4231" />
    <sodipodi:guide
       position="21.000014,2.9999782"
       orientation="0,-18"
       id="guide4233" />
    <sodipodi:guide
       position="3.0000144,2.9999782"
       orientation="-18,0"
       id="guide4235" />
    <sodipodi:guide
       position="20.000014,3.9999782"
       orientation="0,-16"
       id="guide4241" />
    <sodipodi:guide
       position="4,20"
       orientation="6,0"
       id="guide4155" />
    <sodipodi:guide
       position="20,14"
       orientation="-6,0"
       id="guide4167" />
    <sodipodi:guide
       position="20,20"
       orientation="0,-6"
       id="guide4169" />
  </sodipodi:namedview>
  <metadata
     id="metadata3765">
    <rdf:RDF>
      <cc:Work
         rdf:about="">
        <dc:format>image/svg+xml</dc:format>
        <dc:type
           rdf:resource="http://purl.org/dc/dcmitype/StillImage" />
        <dc:title />
      </cc:Work>
    </rdf:RDF>
  </metadata>
  <g
     inkscape:label="Capa 1"
     inkscape:groupmode="layer"
     id="layer1"
     transform="translate(-550.28571,-608.64789)">
    <g
       id="g4712"
       transform="matrix(1.0114389,0,0,1.0114389,-4.2120629,-7.1625793)">
      <g
         id="g4729"
         transform="translate(-0.08437721,-5.4511736e-7)">
        <g
           id="g4423"
           transform="matrix(0.99356719,0,0,0.99356719,2.5638923,4.9180013)">
          <g
             inkscape:label="Capa 1"
             id="layer1-4"
             transform="matrix(1.7500046,0,0,1.7500046,-31.733971,-335.51305)">
            <g
               id="layer1-67"
               inkscape:label="Capa 1">
              <g
                 transform="translate(-1.9999999e-6,0)"
                 inkscape:label="Capa 1"
                 id="layer1-66">
                <g
                   id="layer1-40"
                   inkscape:label="Capa 1"
                   transform="translate(-21.302608,-0.1821081)">
                  <g
                     transform="translate(13.807563,0.91018811)"
                     inkscape:label="Capa 1"
                     id="layer1-5">
                    <g
                       id="layer1-2-5"
                       inkscape:label="Capa 1"
                       transform="matrix(-1,0,0,1,697.30261,0.1821081)">
                      <g
                         transform="translate(13.807563,-0.91017073)"
                         inkscape:label="Capa 1"
                         id="layer1-34">
                        <g
                           transform="translate(556.44091,-0.99999625)"
                           id="layer1-6-6"
                           inkscape:label="Capa 1" />
                        <g
                           transform="matrix(0.62499999,0,0,0.62499999,105.3281,205.51323)"
                           id="layer1-8"
                           inkscape:label="Capa 1" />
                      </g>
                    </g>
                  </g>
                </g>
              </g>
            </g>
            <g
               id="g3"
               transform="matrix(0.01499997,0,0,0.01499997,333.8,540.76222)"
               style="fill:#ffffff;fill-opacity:1">
              <path
                 d="M 483.236,0 332.943,0 C 305.387,0 266.903,15.94 247.42,35.424 L 14.612,268.231 c -19.483,19.483 -19.483,51.367 0,70.85 L 194.253,518.72 c 19.483,19.484 51.365,19.484 70.849,0 L 497.91,285.913 c 19.483,-19.484 35.424,-57.969 35.424,-85.522 l 0,-150.293 C 533.333,22.544 510.79,0 483.236,0 Z m -66.569,166.667 c -27.614,0 -50,-22.385 -50,-50 0,-27.614 22.386,-50 50,-50 27.614,0 50,22.386 50,50 0,27.614 -22.386,50 -50,50 z"
                 id="path5"
                 inkscape:connector-curvature="0"
                 style="fill:#4d4d4d;fill-opacity:1" />
            </g>
          </g>
          <g
             style="fill:#4d4d4d;fill-opacity:1;stroke:#ffffff;stroke-width:0.43853468;stroke-miterlimit:4;stroke-dasharray:none;stroke-opacity:1"
             inkscape:label="Capa 1"
             id="layer1-0"
             transform="matrix(0.31788839,-0.31978673,0.31978673,0.31788839,282.79976,558.07661)">
            <g
               style="fill:#4d4d4d;fill-opacity:1;stroke:#ffffff;stroke-width:0.49130911;stroke-miterlimit:4;stroke-dasharray:none;stroke-opacity:1"
               transform="matrix(0.89258405,0,0,0.89258405,-148.61667,17.577336)"
               id="layer1-8-1"
               inkscape:label="Capa 1">
              <g
                 style="fill:#4d4d4d;fill-opacity:1;stroke:#ffffff;stroke-width:3.42994428;stroke-miterlimit:4;stroke-dasharray:none;stroke-opacity:1"
                 transform="matrix(0.14324114,0,0,0.14324114,536.15337,581.15537)"
                 sketch:type="MSLayerGroup"
                 id="cross41">
                <path
                   style="fill:#4d4d4d;fill-opacity:1;stroke:none;stroke-width:3.42994428;stroke-miterlimit:4;stroke-dasharray:none;stroke-opacity:1"
                   d="M 15.109375 11.642578 C 14.798433 11.643504 14.48649 11.686858 14.175781 11.769531 C 13.554282 11.93496 13.01253 12.250326 12.548828 12.716797 C 12.085167 13.183227 11.772972 13.727218 11.611328 14.349609 C 11.449602 14.972001 11.449847 15.593385 11.615234 16.214844 C 11.780581 16.836343 12.098064 17.38013 12.564453 17.84375 C 13.030883 18.307411 13.574833 18.619483 14.197266 18.78125 C 14.819616 18.942853 15.441041 18.940778 16.0625 18.775391 C 16.683959 18.610003 17.227745 18.294555 17.691406 17.828125 C 18.155068 17.361695 18.467262 16.817704 18.628906 16.195312 C 18.790591 15.572962 18.788393 14.949543 18.623047 14.328125 C 18.457618 13.706708 18.14217 13.164792 17.675781 12.701172 C 17.209351 12.237511 16.663325 11.925398 16.041016 11.763672 C 15.72982 11.68285 15.420317 11.641652 15.109375 11.642578 z M 15.414062 13.154297 C 15.498616 13.154045 15.570583 13.184222 15.630859 13.244141 C 15.688876 13.301812 15.718539 13.372518 15.71875 13.457031 L 15.722656 14.666016 L 16.929688 14.662109 C 17.0142 14.661817 17.086515 14.690375 17.144531 14.748047 C 17.204766 14.807924 17.234164 14.880331 17.234375 14.964844 L 17.236328 15.566406 C 17.23658 15.65096 17.206403 15.722927 17.146484 15.783203 C 17.088813 15.841219 17.018066 15.870924 16.933594 15.871094 L 15.724609 15.875 L 15.728516 17.082031 C 15.728767 17.166585 15.70025 17.238859 15.642578 17.296875 C 15.58266 17.357151 15.510335 17.386467 15.425781 17.386719 L 14.826172 17.388672 C 14.741659 17.388964 14.667657 17.358705 14.607422 17.298828 C 14.549406 17.241156 14.521695 17.17045 14.521484 17.085938 L 14.517578 15.876953 L 13.308594 15.880859 C 13.224081 15.881152 13.153719 15.852594 13.095703 15.794922 C 13.035427 15.735004 13.004158 15.662679 13.003906 15.578125 L 13.001953 14.978516 C 13.001701 14.893962 13.031879 14.820042 13.091797 14.759766 C 13.149469 14.701749 13.220134 14.67408 13.304688 14.673828 L 14.513672 14.669922 L 14.509766 13.460938 C 14.509432 13.376466 14.538031 13.306063 14.595703 13.248047 C 14.655621 13.187771 14.727946 13.156502 14.8125 13.15625 L 15.414062 13.154297 z "
                   transform="matrix(12.168809,12.241478,-12.241478,12.168809,65.965062,-307.92732)"
                   id="path4471" />
              </g>
            </g>
          </g>
        </g>
      </g>
    </g>
  </g>
</svg>
