<?xml version="1.0" encoding="UTF-8" standalone="no"?>
<!-- Created with Inkscape (http://www.inkscape.org/) -->

<svg
   xmlns:dc="http://purl.org/dc/elements/1.1/"
   xmlns:cc="http://creativecommons.org/ns#"
   xmlns:rdf="http://www.w3.org/1999/02/22-rdf-syntax-ns#"
   xmlns:svg="http://www.w3.org/2000/svg"
   xmlns="http://www.w3.org/2000/svg"
   xmlns:sodipodi="http://sodipodi.sourceforge.net/DTD/sodipodi-0.dtd"
   xmlns:inkscape="http://www.inkscape.org/namespaces/inkscape"
   width="22"
   height="22"
   id="svg2"
   version="1.1"
   inkscape:version="0.91 r13725"
   viewBox="0 0 22 22"
   sodipodi:docname="text_letter_spacing.svg">
  <defs
     id="defs4" />
  <sodipodi:namedview
     id="base"
     pagecolor="#ffffff"
     bordercolor="#666666"
     borderopacity="1.0"
     inkscape:pageopacity="0.0"
     inkscape:pageshadow="2"
     inkscape:zoom="8.420999"
     inkscape:cx="-21.789038"
     inkscape:cy="22.116434"
     inkscape:document-units="px"
     inkscape:current-layer="g4161"
     showgrid="true"
     inkscape:showpageshadow="false"
     borderlayer="true"
     inkscape:window-width="1366"
     inkscape:window-height="635"
     inkscape:window-x="0"
     inkscape:window-y="36"
     inkscape:window-maximized="1"
     units="px"
     fit-margin-top="0"
     fit-margin-left="0"
     fit-margin-right="0"
     fit-margin-bottom="0"
     inkscape:object-nodes="true"
     inkscape:snap-bbox="true">
    <sodipodi:guide
       position="4,20"
       orientation="16,0"
       id="guide4093" />
    <sodipodi:guide
       position="20,4"
       orientation="-16,0"
       id="guide4097" />
    <sodipodi:guide
       position="20,20"
       orientation="0,-16"
       id="guide4099" />
    <inkscape:grid
       type="xygrid"
       id="grid4101"
       originx="1px"
       originy="0.99998262px" />
    <sodipodi:guide
       position="4,20"
       orientation="16,0"
       id="guide4123" />
    <sodipodi:guide
       position="4,4"
       orientation="0,2.000001"
       id="guide4125" />
    <sodipodi:guide
       position="6.000001,20"
       orientation="0,-2.000001"
       id="guide4129" />
    <sodipodi:guide
       position="18,4"
       orientation="0,2"
       id="guide4133" />
    <sodipodi:guide
       position="20,4"
       orientation="-16,0"
       id="guide4135" />
    <sodipodi:guide
       position="20,20"
       orientation="0,-2"
       id="guide4137" />
  </sodipodi:namedview>
  <metadata
     id="metadata7">
    <rdf:RDF>
      <cc:Work
         rdf:about="">
        <dc:format>image/svg+xml</dc:format>
        <dc:type
           rdf:resource="http://purl.org/dc/dcmitype/StillImage" />
        <dc:title />
      </cc:Work>
    </rdf:RDF>
  </metadata>
  <g
     inkscape:label="Capa 1"
     inkscape:groupmode="layer"
     id="layer1"
     transform="translate(1,-1031.3622)">
    <g
       transform="translate(-1,1.738e-5)"
       id="layer1-9"
       inkscape:label="Capa 1">
      <g
         transform="translate(1,-1)"
         id="layer1-8"
         inkscape:label="Capa 1">
        <g
           transform="matrix(1.125,0,0,1.125,-412.51786,439.47259)"
           id="layer1-7"
           inkscape:label="Capa 1">
          <g
             inkscape:label="Capa 1"
             id="layer1-9-2"
             transform="translate(-186.71428,-81.85714)" />
        </g>
        <g
           id="g4161"
           transform="matrix(0.48391565,0,0,0.48391565,5.1608437,538.46289)">
          <circle
             r="3.5"
             cy="1043.3622"
             cx="9.379447"
             id="path4158"
             style="opacity:1;fill:#4d4d4d;fill-opacity:1;stroke:none;stroke-width:0.83700001;stroke-linecap:round;stroke-linejoin:round;stroke-miterlimit:4;stroke-dasharray:none;stroke-opacity:1" />
          <g
             transform="translate(32.121586,1.7637826)"
             id="text4149"
             style="font-style:normal;font-weight:normal;font-size:20px;line-height:125%;font-family:sans-serif;letter-spacing:0px;word-spacing:0px;fill:#4d4d4d;fill-opacity:1;stroke:none;stroke-width:1px;stroke-linecap:butt;stroke-linejoin:miter;stroke-opacity:1">
            <path
               inkscape:connector-curvature="0"
               id="path4154"
               style="font-style:normal;font-variant:normal;font-weight:bold;font-stretch:normal;font-family:Multicolore;-inkscape-font-specification:'Multicolore Bold';fill:#4d4d4d;fill-opacity:1"
               d="m -32.479869,1038.4984 c 0,1.06 -0.54,1.6 -1.4,1.6 l -4.22,0 0,-2.98 4.22,0 c 0.86,0 1.4,0.72 1.4,1.38 z m -0.74,10.02 c 3,0 4.56,-1.88 4.56,-4.18 0,-1.48 -0.7,-2.7 -2.28,-3.32 0.84,-0.74 1.1,-1.62 1.1,-2.52 0,-2.04 -1.42,-3.82 -4.04,-3.82 l -5.62,0 c -0.72,0 -1.22,0.52 -1.22,1.24 l 0,11.36 c 0,0.7 0.5,1.24 1.22,1.24 l 6.28,0 z m -4.88,-5.98 c 1.58,0 3.36,0 4.88,0 2.32,0 2.32,3.54 0,3.54 l -4.88,0 0,-3.54 z" />
            <path
               inkscape:connector-curvature="0"
               id="path4156"
               style="font-style:normal;font-variant:normal;font-weight:bold;font-stretch:normal;font-family:Multicolore;-inkscape-font-specification:'Multicolore Bold';fill:#4d4d4d;fill-opacity:1"
               d="m -10.325806,1037.1184 c 5.64,0 5.4,8.96 0,8.96 l -3.32,0 0,-8.96 3.32,0 z m 0.18,11.4 c 8.76,0 8.96,-13.84 -0.18,-13.84 l -4.58,0 c -0.66,0 -1.38,0.52 -1.38,1.24 l 0,11.36 c 0,0.88 0.72,1.24 1.38,1.24 l 4.76,0 z" />
          </g>
        </g>
      </g>
    </g>
  </g>
</svg>
