<?xml version="1.0" encoding="UTF-8" standalone="no"?>
<!-- Created with Inkscape (http://www.inkscape.org/) -->

<svg
   xmlns:dc="http://purl.org/dc/elements/1.1/"
   xmlns:cc="http://creativecommons.org/ns#"
   xmlns:rdf="http://www.w3.org/1999/02/22-rdf-syntax-ns#"
   xmlns:svg="http://www.w3.org/2000/svg"
   xmlns="http://www.w3.org/2000/svg"
   xmlns:sodipodi="http://sodipodi.sourceforge.net/DTD/sodipodi-0.dtd"
   xmlns:inkscape="http://www.inkscape.org/namespaces/inkscape"
   width="22"
   height="22"
   id="svg3869"
   version="1.1"
   inkscape:version="0.91 r13725"
   sodipodi:docname="transform-crop-and-resize.svg">
  <defs
     id="defs3871">
    <linearGradient
       id="linearGradient4290-48">
      <stop
         id="stop4292-0"
         offset="0"
         style="stop-color:#a5a5a5;stop-opacity:1;" />
      <stop
         id="stop4294-0"
         offset="1"
         style="stop-color:#f5f2f5;stop-opacity:1;" />
    </linearGradient>
    <inkscape:perspective
       id="perspective4146-9"
       inkscape:persp3d-origin="12 : 8 : 1"
       inkscape:vp_z="24 : 12 : 1"
       inkscape:vp_y="0 : 1000 : 0"
       inkscape:vp_x="0 : 12 : 1"
       sodipodi:type="inkscape:persp3d" />
    <inkscape:perspective
       id="perspective4146"
       inkscape:persp3d-origin="12 : 8 : 1"
       inkscape:vp_z="24 : 12 : 1"
       inkscape:vp_y="0 : 1000 : 0"
       inkscape:vp_x="0 : 12 : 1"
       sodipodi:type="inkscape:persp3d" />
    <inkscape:perspective
       sodipodi:type="inkscape:persp3d"
       inkscape:vp_x="0 : 12 : 1"
       inkscape:vp_y="0 : 1000 : 0"
       inkscape:vp_z="24 : 12 : 1"
       inkscape:persp3d-origin="12 : 8 : 1"
       id="perspective4146-9-1" />
    <inkscape:perspective
       sodipodi:type="inkscape:persp3d"
       inkscape:vp_x="0 : 12 : 1"
       inkscape:vp_y="0 : 1000 : 0"
       inkscape:vp_z="24 : 12 : 1"
       inkscape:persp3d-origin="12 : 8 : 1"
       id="perspective4146-96" />
  </defs>
  <sodipodi:namedview
     id="base"
     pagecolor="#ffffff"
     bordercolor="#666666"
     borderopacity="1.0"
     inkscape:pageopacity="0.0"
     inkscape:pageshadow="2"
     inkscape:zoom="11.313708"
     inkscape:cx="2.8487654"
     inkscape:cy="6.745131"
     inkscape:document-units="px"
     inkscape:current-layer="layer1"
     showgrid="false"
     fit-margin-top="0"
     fit-margin-left="0"
     fit-margin-right="0"
     fit-margin-bottom="0"
     inkscape:window-width="1366"
     inkscape:window-height="635"
     inkscape:window-x="0"
     inkscape:window-y="36"
     inkscape:window-maximized="1"
     inkscape:showpageshadow="false"
     inkscape:snap-bbox="true"
     inkscape:object-nodes="true">
    <inkscape:grid
       type="xygrid"
       id="grid4132" />
    <sodipodi:guide
       position="4,18"
       orientation="18,0"
       id="guide4138" />
    <sodipodi:guide
       position="5,3"
       orientation="0,18"
       id="guide4140" />
    <sodipodi:guide
       position="20,2.0000174"
       orientation="-18,0"
       id="guide4142" />
    <sodipodi:guide
       position="2,21"
       orientation="0,-18"
       id="guide4144" />
    <sodipodi:guide
       position="3,19.000017"
       orientation="16,0"
       id="guide4146" />
    <sodipodi:guide
       position="2,4"
       orientation="0,16"
       id="guide4148" />
    <sodipodi:guide
       position="21,20"
       orientation="-16,0"
       id="guide4150" />
    <sodipodi:guide
       position="2,20"
       orientation="0,-16"
       id="guide4152" />
  </sodipodi:namedview>
  <metadata
     id="metadata3874">
    <rdf:RDF>
      <cc:Work
         rdf:about="">
        <dc:format>image/svg+xml</dc:format>
        <dc:type
           rdf:resource="http://purl.org/dc/dcmitype/StillImage" />
        <dc:title />
      </cc:Work>
    </rdf:RDF>
  </metadata>
  <g
     inkscape:label="Capa 1"
     inkscape:groupmode="layer"
     id="layer1"
     transform="translate(-326,-534.3622)">
    <g
       id="g4219"
       transform="translate(-1.2499999e-7,-2.3602001)">
      <g
         style="fill:#4d4d4d;fill-opacity:1"
         transform="matrix(0.04923077,0,0,0.04923077,329,539.7224)"
         id="g4194">
        <g
           style="fill:#4d4d4d;fill-opacity:1"
           id="g4152">
          <path
             style="fill:#4d4d4d;fill-opacity:1"
             inkscape:connector-curvature="0"
             d="m 319,55.26 c 3.314,0 6,-2.687 6,-6 L 325,6 c 0,-3.313 -2.686,-6 -6,-6 l -43.26,0 c -3.313,0 -6,2.687 -6,6 l 0,13.63 -79.61,0 0,-13.63 c 0,-3.313 -2.686,-6 -6,-6 l -43.26,0 c -3.314,0 -6,2.687 -6,6 l 0,13.63 -79.61,0 0,-13.63 c 0,-3.313 -2.687,-6 -6,-6 L 6,0 C 2.687,0 0,2.687 0,6 l 0,43.26 c 0,3.313 2.687,6 6,6 l 13.63,0 0,79.611 -13.63,0 c -3.313,0 -6,2.687 -6,6 l 0,43.259 c 0,3.314 2.687,6 6,6 l 13.63,0 0,79.61 -13.63,0 c -3.313,0 -6,2.687 -6,6 L 0,319 c 0,3.314 2.687,6 6,6 l 43.26,0 c 3.313,0 6,-2.686 6,-6 l 0,-13.63 79.61,0 0,13.63 c 0,3.314 2.686,6 6,6 l 43.26,0 c 3.314,0 6,-2.686 6,-6 l 0,-13.63 79.61,0 0,13.63 c 0,3.314 2.687,6 6,6 l 43.26,0 c 3.314,0 6,-2.686 6,-6 l 0,-43.26 c 0,-3.313 -2.686,-6 -6,-6 l -13.63,0 0,-79.61 13.63,0 c 3.314,0 6,-2.686 6,-6 l 0,-43.259 c 0,-3.313 -2.686,-6 -6,-6 l -13.63,0 0,-79.611 13.63,0 z m -29.63,79.611 -13.63,0 c -3.313,0 -6,2.687 -6,6 l 0,43.259 c 0,3.314 2.687,6 6,6 l 13.63,0 0,79.61 -13.63,0 c -3.313,0 -6,2.687 -6,6 l 0,13.63 -79.61,0 0,-13.63 c 0,-3.313 -2.686,-6 -6,-6 l -43.26,0 c -3.314,0 -6,2.687 -6,6 l 0,13.63 -79.61,0 0,-13.63 c 0,-3.313 -2.687,-6 -6,-6 l -13.63,0 0,-79.61 13.63,0 c 3.313,0 6,-2.686 6,-6 l 0,-43.259 c 0,-3.313 -2.687,-6 -6,-6 l -13.63,0 0,-79.611 13.63,0 c 3.313,0 6,-2.687 6,-6 l 0,-13.63 79.61,0 0,13.63 c 0,3.313 2.686,6 6,6 l 43.26,0 c 3.314,0 6,-2.687 6,-6 l 0,-13.63 79.61,0 0,13.63 c 0,3.313 2.687,6 6,6 l 13.63,0 0,79.611 z"
             id="path4154" />
          <circle
             style="fill:#4d4d4d;fill-opacity:1"
             cx="162.5"
             cy="162.5"
             r="13.283"
             id="circle4156" />
        </g>
        <g
           style="fill:#4d4d4d;fill-opacity:1"
           id="g4158" />
        <g
           style="fill:#4d4d4d;fill-opacity:1"
           id="g4160" />
        <g
           style="fill:#4d4d4d;fill-opacity:1"
           id="g4162" />
        <g
           style="fill:#4d4d4d;fill-opacity:1"
           id="g4164" />
        <g
           style="fill:#4d4d4d;fill-opacity:1"
           id="g4166" />
        <g
           style="fill:#4d4d4d;fill-opacity:1"
           id="g4168" />
        <g
           style="fill:#4d4d4d;fill-opacity:1"
           id="g4170" />
        <g
           style="fill:#4d4d4d;fill-opacity:1"
           id="g4172" />
        <g
           style="fill:#4d4d4d;fill-opacity:1"
           id="g4174" />
        <g
           style="fill:#4d4d4d;fill-opacity:1"
           id="g4176" />
        <g
           style="fill:#4d4d4d;fill-opacity:1"
           id="g4178" />
        <g
           style="fill:#4d4d4d;fill-opacity:1"
           id="g4180" />
        <g
           style="fill:#4d4d4d;fill-opacity:1"
           id="g4182" />
        <g
           style="fill:#4d4d4d;fill-opacity:1"
           id="g4184" />
        <g
           style="fill:#4d4d4d;fill-opacity:1"
           id="g4186" />
      </g>
      <rect
         ry="0.140625"
         y="542.08093"
         x="336.88101"
         height="5.21875"
         width="0.28125"
         id="rect4202"
         style="opacity:1;fill:#4d4d4d;fill-opacity:1;stroke:#4d4d4d;stroke-width:0.53299999;stroke-linecap:round;stroke-linejoin:round;stroke-miterlimit:4;stroke-dasharray:none;stroke-opacity:1" />
      <rect
         transform="matrix(0,1,-1,0,0,0)"
         ry="0.15329042"
         y="-342.69724"
         x="547.68445"
         height="5.6887779"
         width="0.28125"
         id="rect4202-9"
         style="opacity:1;fill:#4d4d4d;fill-opacity:1;stroke:#4d4d4d;stroke-width:0.556485;stroke-linecap:round;stroke-linejoin:round;stroke-miterlimit:4;stroke-dasharray:none;stroke-opacity:1" />
    </g>
  </g>
</svg>
