<?xml version="1.0" encoding="UTF-8" standalone="no"?>
<!-- Created with Inkscape (http://www.inkscape.org/) -->

<svg
   xmlns:osb="http://www.openswatchbook.org/uri/2009/osb"
   xmlns:dc="http://purl.org/dc/elements/1.1/"
   xmlns:cc="http://creativecommons.org/ns#"
   xmlns:rdf="http://www.w3.org/1999/02/22-rdf-syntax-ns#"
   xmlns:svg="http://www.w3.org/2000/svg"
   xmlns="http://www.w3.org/2000/svg"
   xmlns:sodipodi="http://sodipodi.sourceforge.net/DTD/sodipodi-0.dtd"
   xmlns:inkscape="http://www.inkscape.org/namespaces/inkscape"
   width="22"
   height="22"
   id="svg3869"
   version="1.1"
   inkscape:version="0.91 r13725"
   sodipodi:docname="view-calendar-list.svg">
  <defs
     id="defs3871">
    <linearGradient
       osb:paint="gradient"
       id="linearGradient4207">
      <stop
         id="stop3371"
         offset="0"
         style="stop-color:#3498db;stop-opacity:1;" />
      <stop
         id="stop3373"
         offset="1"
         style="stop-color:#3498db;stop-opacity:0;" />
    </linearGradient>
  </defs>
  <sodipodi:namedview
     id="base"
     pagecolor="#ffffff"
     bordercolor="#666666"
     borderopacity="1.0"
     inkscape:pageopacity="0.0"
     inkscape:pageshadow="2"
     inkscape:zoom="7.9999995"
     inkscape:cx="-58.385515"
     inkscape:cy="5.8403321"
     inkscape:document-units="px"
     inkscape:current-layer="layer1"
     showgrid="true"
     fit-margin-top="0"
     fit-margin-left="0"
     fit-margin-right="0"
     fit-margin-bottom="0"
     inkscape:window-width="1366"
     inkscape:window-height="633"
     inkscape:window-x="0"
     inkscape:window-y="33"
     inkscape:window-maximized="1"
     inkscape:showpageshadow="false"
     inkscape:snap-bbox="true"
     inkscape:object-nodes="true">
    <inkscape:grid
       type="xygrid"
       id="grid4132" />
    <sodipodi:guide
       position="4,18"
       orientation="18,0"
       id="guide4138" />
    <sodipodi:guide
       position="-3,-1"
       orientation="0,18"
       id="guide4140" />
    <sodipodi:guide
       position="20,2.0000174"
       orientation="-18,0"
       id="guide4142" />
    <sodipodi:guide
       position="3,19.000017"
       orientation="16,0"
       id="guide4146" />
    <sodipodi:guide
       position="21,20"
       orientation="-16,0"
       id="guide4150" />
    <sodipodi:guide
       position="2,20"
       orientation="0,-16"
       id="guide4152" />
  </sodipodi:namedview>
  <metadata
     id="metadata3874">
    <rdf:RDF>
      <cc:Work
         rdf:about="">
        <dc:format>image/svg+xml</dc:format>
        <dc:type
           rdf:resource="http://purl.org/dc/dcmitype/StillImage" />
        <dc:title />
      </cc:Work>
    </rdf:RDF>
  </metadata>
  <g
     inkscape:label="Capa 1"
     inkscape:groupmode="layer"
     id="layer1"
     transform="translate(-326,-534.3622)">
    <g
       id="layer1-63"
       inkscape:label="Capa 1">
      <g
         transform="translate(5.7734375e-6,1.923375e-5)"
         inkscape:label="Capa 1"
         id="layer1-3">
        <g
           id="layer1-72"
           inkscape:label="Capa 1"
           transform="translate(-21,2)">
          <g
             inkscape:label="Capa 1"
             id="layer1-5-9"
             transform="translate(-94.71429,7.57146)" />
        </g>
        <g
           id="layer1-2-5"
           inkscape:label="Capa 1"
           transform="translate(-25.299998,0.29999811)">
          <g
             transform="translate(-21,2)"
             inkscape:label="Capa 1"
             id="layer1-72-3">
            <g
               transform="translate(-94.71429,7.57146)"
               id="layer1-5-6"
               inkscape:label="Capa 1">
              <path
                 style="opacity:1;fill:#4d4d4d;fill-opacity:1;fill-rule:evenodd;stroke:none;stroke-width:1;stroke-linecap:round;stroke-linejoin:miter;stroke-miterlimit:4;stroke-dasharray:none;stroke-dashoffset:0;stroke-opacity:1"
                 d="M 4 3 C 3.4459836 3 3 3.4459836 3 4 L 3 18 C 3 18.554016 3.4459836 19 4 19 L 18 19 C 18.554016 19 19 18.554016 19 18 L 19 4 C 19 3.4459836 18.554016 3 18 3 L 4 3 z M 7 7 L 15 7 C 15.316571 7 15.572266 7.2556942 15.572266 7.5722656 C 15.572266 7.888837 15.316571 8.1425781 15 8.1425781 L 7 8.1425781 C 6.6834286 8.1425781 6.4277344 7.888837 6.4277344 7.5722656 C 6.4277344 7.2556942 6.6834286 7 7 7 z M 7 9.2851562 L 15 9.2851562 C 15.316571 9.2851562 15.572266 9.5408505 15.572266 9.8574219 C 15.572266 10.173993 15.316571 10.427734 15 10.427734 L 7 10.427734 C 6.6834286 10.427734 6.4277344 10.173993 6.4277344 9.8574219 C 6.4277344 9.5408505 6.6834286 9.2851562 7 9.2851562 z M 7 11.572266 L 15 11.572266 C 15.316571 11.572266 15.572266 11.826007 15.572266 12.142578 C 15.572266 12.45915 15.316571 12.714844 15 12.714844 L 7 12.714844 C 6.6834286 12.714844 6.4277344 12.45915 6.4277344 12.142578 C 6.4277344 11.826007 6.6834286 11.572266 7 11.572266 z M 7 13.857422 L 15 13.857422 C 15.316571 13.857422 15.572266 14.111163 15.572266 14.427734 C 15.572266 14.744306 15.316571 15 15 15 L 7 15 C 6.6834286 15 6.4277344 14.744306 6.4277344 14.427734 C 6.4277344 14.111163 6.6834286 13.857422 7 13.857422 z "
                 transform="translate(467.01428,524.49072)"
                 id="rect4227" />
            </g>
          </g>
        </g>
      </g>
    </g>
    <g
       id="g4618"
       transform="matrix(1.1428571,0,0,1.1428571,-49.342843,-75.808291)">
      <g
         transform="translate(3.5238341e-6,1.5627297e-6)"
         inkscape:label="Capa 1"
         id="layer1-07" />
      <g
         transform="translate(0.05000002,-1.038)"
         inkscape:label="Capa 1"
         id="layer1-85">
        <g
           transform="translate(1,-1)"
           id="layer1-0"
           inkscape:label="Capa 1">
          <g
             transform="translate(-5.6195727,0.53724663)"
             id="layer1-4-5"
             inkscape:label="Capa 1">
            <g
               inkscape:label="Capa 1"
               id="layer1-43"
               transform="matrix(0.66666667,0,0,-0.66666667,70.952371,898.89418)">
              <g
                 transform="matrix(1.5,0,0,-1.5,-80.438581,1347.3471)"
                 id="layer1-79"
                 inkscape:label="Capa 1">
                <g
                   inkscape:label="Capa 1"
                   id="layer1-7-8"
                   transform="translate(1,-1)">
                  <g
                     inkscape:label="Capa 1"
                     id="layer1-21"
                     transform="translate(-9.8387472,1.8691533)">
                    <g
                       id="layer1-1"
                       inkscape:label="Capa 1">
                      <g
                         inkscape:label="Capa 1"
                         id="layer1-71">
                        <g
                           id="layer1-34"
                           inkscape:label="Capa 1"
                           transform="translate(0,1.7382813e-5)">
                          <g
                             inkscape:label="Capa 1"
                             id="layer1-6-6"
                             transform="translate(556.44091,-0.99999625)" />
                          <g
                             inkscape:label="Capa 1"
                             id="layer1-8"
                             transform="matrix(0.62499999,0,0,0.62499999,105.3281,205.51323)" />
                          <g
                             inkscape:label="Capa 1"
                             id="layer1-0-9"
                             transform="translate(-14.161253,0.13084429)" />
                          <g
                             transform="translate(-253.59086,-50.026231)"
                             id="layer1-6"
                             inkscape:label="Capa 1">
                            <g
                               inkscape:label="Capa 1"
                               id="layer1-1-1"
                               transform="translate(553.72253,-447.24294)">
                              <g
                                 transform="translate(-0.70707909,0)"
                                 id="g5179">
                                <g
                                   id="g4839"
                                   transform="translate(26,4.5000174)"
                                   style="fill:#ffffff;fill-opacity:1" />
                                <g
                                   transform="translate(0,-0.50003145)"
                                   id="g5211">
                                <g
                                   style="fill:#ffffff;fill-opacity:1"
                                   inkscape:label="Capa 1"
                                   id="layer1-2"
                                   transform="matrix(0.24463588,0,0,0.24463588,-44.229856,908.96186)" />
                                <g
                                   id="g5132"
                                   transform="translate(1.7070773,-0.09997571)" />
                                </g>
                              </g>
                            </g>
                          </g>
                        </g>
                      </g>
                    </g>
                  </g>
                </g>
              </g>
            </g>
          </g>
        </g>
      </g>
    </g>
  </g>
</svg>
