<?xml version="1.0" encoding="UTF-8" standalone="no"?>
<!-- Created with Inkscape (http://www.inkscape.org/) -->

<svg
   xmlns:sketch="http://www.bohemiancoding.com/sketch/ns"
   xmlns:osb="http://www.openswatchbook.org/uri/2009/osb"
   xmlns:dc="http://purl.org/dc/elements/1.1/"
   xmlns:cc="http://creativecommons.org/ns#"
   xmlns:rdf="http://www.w3.org/1999/02/22-rdf-syntax-ns#"
   xmlns:svg="http://www.w3.org/2000/svg"
   xmlns="http://www.w3.org/2000/svg"
   xmlns:sodipodi="http://sodipodi.sourceforge.net/DTD/sodipodi-0.dtd"
   xmlns:inkscape="http://www.inkscape.org/namespaces/inkscape"
   width="22"
   height="22"
   id="svg3869"
   version="1.1"
   inkscape:version="0.91 r13725"
   sodipodi:docname="view-task-add.svg">
  <defs
     id="defs3871">
    <linearGradient
       osb:paint="gradient"
       id="linearGradient4207">
      <stop
         id="stop3371"
         offset="0"
         style="stop-color:#3498db;stop-opacity:1;" />
      <stop
         id="stop3373"
         offset="1"
         style="stop-color:#3498db;stop-opacity:0;" />
    </linearGradient>
  </defs>
  <sodipodi:namedview
     id="base"
     pagecolor="#ffffff"
     bordercolor="#666666"
     borderopacity="1.0"
     inkscape:pageopacity="0.0"
     inkscape:pageshadow="2"
     inkscape:zoom="15.999999"
     inkscape:cx="-20.157335"
     inkscape:cy="14.418735"
     inkscape:document-units="px"
     inkscape:current-layer="g4361-2-6"
     showgrid="true"
     fit-margin-top="0"
     fit-margin-left="0"
     fit-margin-right="0"
     fit-margin-bottom="0"
     inkscape:window-width="1366"
     inkscape:window-height="633"
     inkscape:window-x="0"
     inkscape:window-y="33"
     inkscape:window-maximized="1"
     inkscape:showpageshadow="false"
     inkscape:snap-bbox="true"
     inkscape:object-nodes="true">
    <inkscape:grid
       type="xygrid"
       id="grid4132" />
    <sodipodi:guide
       position="4,18"
       orientation="18,0"
       id="guide4138" />
    <sodipodi:guide
       position="-3,-1"
       orientation="0,18"
       id="guide4140" />
    <sodipodi:guide
       position="20,2.0000174"
       orientation="-18,0"
       id="guide4142" />
    <sodipodi:guide
       position="2,21"
       orientation="0,-18"
       id="guide4144" />
    <sodipodi:guide
       position="3,19.000017"
       orientation="16,0"
       id="guide4146" />
    <sodipodi:guide
       position="2,4"
       orientation="0,16"
       id="guide4148" />
    <sodipodi:guide
       position="21,20"
       orientation="-16,0"
       id="guide4150" />
    <sodipodi:guide
       position="2,20"
       orientation="0,-16"
       id="guide4152" />
  </sodipodi:namedview>
  <metadata
     id="metadata3874">
    <rdf:RDF>
      <cc:Work
         rdf:about="">
        <dc:format>image/svg+xml</dc:format>
        <dc:type
           rdf:resource="http://purl.org/dc/dcmitype/StillImage" />
        <dc:title />
      </cc:Work>
    </rdf:RDF>
  </metadata>
  <g
     inkscape:label="Capa 1"
     inkscape:groupmode="layer"
     id="layer1"
     transform="translate(-326,-534.3622)">
    <g
       transform="translate(20.968994,-10.324483)"
       id="g4361-2-6"
       style="fill:#ffffff;fill-opacity:1">
      <g
         transform="translate(-20.968995,10.324483)"
         id="layer1-20"
         inkscape:label="Capa 1">
        <g
           inkscape:label="Capa 1"
           id="layer1-85">
          <g
             id="layer1-58"
             inkscape:label="Capa 1">
            <g
               transform="matrix(1.2000987,0,0,1.2000987,-68.633361,-107.92617)"
               id="g4208">
              <g
                 inkscape:label="Capa 1"
                 id="layer1-8-6"
                 transform="matrix(0.8332648,0,0,0.8332648,57.189768,89.931093)">
                <g
                   id="layer1-72"
                   inkscape:label="Capa 1"
                   transform="translate(-21,2)">
                  <g
                     inkscape:label="Capa 1"
                     id="layer1-5-5"
                     transform="translate(-94.71429,7.57146)" />
                </g>
                <g
                   id="layer1-2-5"
                   inkscape:label="Capa 1"
                   transform="translate(-25.299998,0.29999811)">
                  <g
                     transform="translate(-21,2)"
                     inkscape:label="Capa 1"
                     id="layer1-72-3">
                    <g
                       transform="translate(-94.71429,7.57146)"
                       id="layer1-5-6"
                       inkscape:label="Capa 1">
                      <path
                         style="opacity:1;fill:#4d4d4d;fill-opacity:1;fill-rule:evenodd;stroke:none;stroke-width:1;stroke-linecap:round;stroke-linejoin:miter;stroke-miterlimit:4;stroke-dasharray:none;stroke-dashoffset:0;stroke-opacity:1"
                         d="M 4 3 C 3.4459836 3 3 3.4459836 3 4 L 3 18 C 3 18.554016 3.4459836 19 4 19 L 18 19 C 18.554016 19 19 18.554016 19 18 L 19 4 C 19 3.4459836 18.554016 3 18 3 L 4 3 z M 12.470703 5.9570312 C 12.621816 5.9570312 12.749718 6.0094139 12.855469 6.1152344 L 13.626953 6.8867188 C 13.732704 6.9925394 13.785226 7.1203717 13.785156 7.2714844 C 13.785156 7.4226665 13.732704 7.5504294 13.626953 7.65625 L 9.5234375 11.761719 L 8.7519531 12.53125 C 8.6461317 12.637001 8.5182995 12.689453 8.3671875 12.689453 C 8.2160048 12.689453 8.0881726 12.637071 7.9824219 12.53125 L 7.2109375 11.761719 L 5.1582031 9.7089844 C 5.0523826 9.6032334 5 9.4753313 5 9.3242188 C 5 9.1730365 5.0523826 9.0433206 5.1582031 8.9375 L 5.9296875 8.1679688 C 6.035509 8.0621481 6.1632716 8.0078125 6.3144531 8.0078125 C 6.4655664 8.0078125 6.5953516 8.0621481 6.7011719 8.1679688 L 8.3671875 9.8398438 L 12.085938 6.1152344 C 12.191688 6.0094139 12.319522 5.9570312 12.470703 5.9570312 z M 13.753906 10.632812 L 14.835938 10.632812 L 14.835938 12.796875 L 17 12.796875 L 17 13.878906 L 14.835938 13.878906 L 14.835938 16.042969 L 13.753906 16.042969 L 13.753906 13.878906 L 11.589844 13.878906 L 11.589844 12.796875 L 13.753906 12.796875 L 13.753906 10.632812 z "
                         transform="translate(467.01428,524.49072)"
                         id="rect4227" />
                      <g
                         transform="matrix(0.62500001,0,0,0.62500001,267.38928,194.63936)"
                         id="layer1-4-5"
                         inkscape:label="Capa 1"
                         style="fill:#2ecc71;fill-opacity:1" />
                    </g>
                  </g>
                </g>
              </g>
            </g>
          </g>
        </g>
      </g>
      <g
         id="g4381"
         transform="matrix(1.6021862,0,0,1.6021862,-192.07203,-331.84244)">
        <g
           style="fill:#ffffff;fill-opacity:1"
           transform="matrix(0.84058935,0,0,0.84058935,66.591744,85.265272)"
           id="g4561">
          <g
             style="fill:#ffffff;fill-opacity:1"
             transform="matrix(0.80337022,0,0,0.80337022,24.540968,117.55893)"
             id="layer1-2"
             inkscape:label="Capa 1">
            <g
               style="fill:#ffffff;fill-opacity:1"
               inkscape:label="Capa 1"
               id="layer1-8"
               transform="translate(-94.71429,7.57146)" />
          </g>
          <g
             style="fill:#ffffff;fill-opacity:1"
             transform="matrix(0.71428572,0,0,0.71428572,49.1545,167.19843)"
             id="layer1-35"
             inkscape:label="Capa 1">
            <g
               style="fill:#ffffff;fill-opacity:1"
               inkscape:label="Capa 1"
               id="layer1-95"
               transform="matrix(0.79999998,0,0,0.79999998,17.542864,118.92381)">
              <g
                 style="fill:#ffffff;fill-opacity:1"
                 transform="matrix(1.1699988,0,0,1.1699988,-38.953026,-96.85732)"
                 id="layer1-9-9"
                 inkscape:label="Capa 1">
                <g
                   style="fill:#ffffff;fill-opacity:1"
                   inkscape:label="Capa 1"
                   id="layer1-3"
                   transform="matrix(1.3120824,0,0,1.3120824,-382.5677,-272.0713)">
                  <g
                     id="g5548"
                     sketch:type="MSShapeGroup"
                     transform="matrix(0.14300539,0,0,0.14300539,554.04072,610.29161)"
                     style="fill:#ffffff;fill-opacity:1">
                    <g
                       id="correct8"
                       sketch:type="MSLayerGroup"
                       transform="matrix(0.7214167,0,0,0.7214167,123.07951,19.201456)"
                       style="fill:#ffffff;fill-opacity:1" />
                  </g>
                </g>
              </g>
            </g>
          </g>
        </g>
      </g>
    </g>
  </g>
</svg>
